ply
format ascii 1.0
comment written by koba@oshima.lab
element vertex 71
property float x
property float y
property float z
property int label
property int attribute
property float radius
property float curvature
property float torsion
element edge 70
property int vertex1
property int vertex2
property int label
element vertex_seq 1
property int label
property list int int vertex_indices
end_header
8.497 22.854 15.9231 0 1 0 0.0169636 -0.00280904 
8.49521 22.8032 16.2294 0 2 2.76495 0.0169635 -0.00294175 
8.49415 22.7531 16.5358 0 2 2.72249 0.0169614 -0.00338211 
8.49456 22.7042 16.842 0 2 2.72015 0.0169582 -0.00383762 
8.49718 22.6572 17.1481 0 2 2.69226 0.0169498 -0.00476602 
8.50273 22.6127 17.4541 0 2 2.55239 0.0169412 -0.00557594 
8.51196 22.5713 17.7599 0 2 2.50596 0.0169227 -0.00714017 
8.52559 22.5338 18.0655 0 2 2.26561 0.0169059 -0.00841978 
8.54437 22.5006 18.3707 0 2 2.1477 0.0168724 -0.0107033 
8.56902 22.4724 18.6757 0 2 1.97258 0.016844 -0.0124694 
8.60028 22.4499 18.9803 0 2 1.91085 0.0167907 -0.0154862 
8.63847 22.4331 19.2844 0 2 1.87626 0.0167229 -0.018968 
8.68221 22.4202 19.5872 0 2 1.76613 0.0166689 -0.0215636 
8.7297 22.4086 19.8879 0 2 1.66262 0.0165733 -0.0258188 
8.77916 22.3958 20.1855 0 2 1.60474 0.0164993 -0.0288807 
8.82879 22.3795 20.4792 0 2 1.58247 0.016372 -0.0338495 
8.8768 22.3571 20.7681 0 2 1.61897 0.0162759 -0.0374384 
8.92139 22.3262 21.0513 0 2 1.68084 0.0161144 -0.0430533 
8.96076 22.2843 21.328 0 2 2.0038 0.0159957 -0.0468682 
8.99314 22.2289 21.5972 0 2 1.98866 0.0158019 -0.0527278 
9.01671 22.1575 21.8581 0 2 1.99928 0.0156629 -0.056743 
9.03012 22.0687 22.1101 0 2 2.01011 0.0154408 -0.0629625 
9.03373 21.9645 22.3548 0 2 2.07596 0.0152042 -0.0694519 
9.02833 21.8478 22.5936 0 2 2.15146 0.0150395 -0.0739439 
9.0147 21.7218 22.8285 0 2 2.24147 0.0147838 -0.0809411 
8.99364 21.5894 23.0611 0 2 2.28638 0.0146087 -0.0857187 
8.96594 21.4535 23.2931 0 2 2.29638 0.0143419 -0.0930025 
8.93238 21.3173 23.5264 0 2 2.25684 0.0141628 -0.0979224 
8.89376 21.1837 23.7626 0 2 2.2403 0.0138951 -0.105334 
8.85086 21.0557 24.0035 0 2 2.25902 0.0137192 -0.11007 
8.80448 20.9363 24.2509 0 2 2.28497 0.0134632 -0.116619 
8.75537 20.8278 24.5059 0 2 2.26711 0.0132215 -0.12231 
8.70415 20.7299 24.7681 0 2 2.25828 0.0130706 -0.125516 
8.65141 20.6415 25.0364 0 2 2.25801 0.012863 -0.129314 
8.59775 20.5616 25.3099 0 2 2.30108 0.0127389 -0.131065 
8.54375 20.4892 25.5876 0 2 2.28916 0.0125767 -0.132348 
8.48999 20.4231 25.8683 0 2 2.30013 0.0124856 -0.132232 
8.43708 20.3623 26.1512 0 2 2.25324 0.012376 -0.130648 
8.3856 20.3058 26.4353 0 2 2.10187 0.0123211 -0.128626 
8.33614 20.2525 26.7195 0 2 2.10939 0.0122662 -0.124116 
8.28928 20.2014 27.0028 0 2 2.15316 0.0122476 -0.120172 
8.24563 20.1515 27.2845 0 2 2.16716 0.0122453 -0.113382 
8.20582 20.1022 27.5649 0 2 2.16482 0.0122714 -0.105731 
8.17049 20.0527 27.8445 0 2 2.13319 0.0123033 -0.100223 
8.14029 20.0025 28.1241 0 2 2.1762 0.0123706 -0.0915365 
8.11586 19.9508 28.4041 0 2 2.18635 0.0124271 -0.0856643 
8.09785 19.8973 28.6852 0 2 2.13379 0.0125267 -0.076852 
8.08689 19.841 28.9679 0 2 2.05983 0.0126017 -0.0710218 
8.08363 19.7816 29.2528 0 2 2.05404 0.0127248 -0.0624532 
8.08871 19.7182 29.5405 0 2 2.09399 0.0128124 -0.0569638 
8.10279 19.6504 29.8316 0 2 2.17688 0.0129499 -0.0491171 
8.12585 19.5778 30.1264 0 2 2.21786 0.0130917 -0.0417649 
8.15532 19.5015 30.4241 0 2 2.19373 0.0131873 -0.0371659 
8.18801 19.4229 30.7237 0 2 2.19152 0.0133297 -0.0307689 
8.22069 19.3436 31.0241 0 2 2.20976 0.0134227 -0.0268355 
8.25015 19.265 31.3244 0 2 2.28247 0.0135571 -0.0214202 
8.27318 19.1884 31.6235 0 2 2.24868 0.0136422 -0.0181891 
8.28657 19.1155 31.9204 0 2 2.24921 0.0137619 -0.0140319 
8.28711 19.0475 32.214 0 2 2.19117 0.0138359 -0.011702 
8.27158 18.986 32.5033 0 2 2.22113 0.0139375 -0.00884152 
8.23678 18.9323 32.7873 0 2 2.2384 0.0139985 -0.00728743 
8.1804 18.8877 33.0651 0 2 2.33109 0.01408 -0.00534105 
8.10377 18.8514 33.3373 0 2 2.30702 0.0141496 -0.0038384 
8.00916 18.8226 33.6043 0 2 2.34196 0.0141895 -0.003075 
7.8988 18.8004 33.8669 0 2 2.37795 0.0142399 -0.00219027 
7.77495 18.7837 34.1257 0 2 2.3753 0.0142679 -0.00173125 
7.63985 18.7718 34.3813 0 2 2.25769 0.0143025 -0.00123428 
7.49576 18.7636 34.6344 0 2 2.1365 0.0143213 -0.00102868 
7.34492 18.7582 34.8855 0 2 1.9287 0.0143442 -0.000827099 
7.18959 18.7546 35.1354 0 2 1.59772 0.0143567 -0.000727934 
7.032 18.752 35.3846 0 1 0 0.0143723 -0.000631292 
0 1 1 
1 2 1 
2 3 1 
3 4 1 
4 5 1 
5 6 1 
6 7 1 
7 8 1 
8 9 1 
9 10 1 
10 11 1 
11 12 1 
12 13 1 
13 14 1 
14 15 1 
15 16 1 
16 17 1 
17 18 1 
18 19 1 
19 20 1 
20 21 1 
21 22 1 
22 23 1 
23 24 1 
24 25 1 
25 26 1 
26 27 1 
27 28 1 
28 29 1 
29 30 1 
30 31 1 
31 32 1 
32 33 1 
33 34 1 
34 35 1 
35 36 1 
36 37 1 
37 38 1 
38 39 1 
39 40 1 
40 41 1 
41 42 1 
42 43 1 
43 44 1 
44 45 1 
45 46 1 
46 47 1 
47 48 1 
48 49 1 
49 50 1 
50 51 1 
51 52 1 
52 53 1 
53 54 1 
54 55 1 
55 56 1 
56 57 1 
57 58 1 
58 59 1 
59 60 1 
60 61 1 
61 62 1 
62 63 1 
63 64 1 
64 65 1 
65 66 1 
66 67 1 
67 68 1 
68 69 1 
69 70 1 
1 71 0 1 2 3 4 5 6 7 8 9 10 11 12 13 14 15 16 17 18 19 20 21 22 23 24 25 26 27 28 29 30 31 32 33 34 35 36 37 38 39 40 41 42 43 44 45 46 47 48 49 50 51 52 53 54 55 56 57 58 59 60 61 62 63 64 65 66 67 68 69 70 
