ply
format ascii 1.0
comment written by koba@oshima.lab
element vertex 61
property float x
property float y
property float z
property int label
property int attribute
property float radius
property float curvature
property float torsion
element edge 60
property int vertex1
property int vertex2
property int label
element vertex_seq 1
property int label
property list int int vertex_indices
end_header
8.497 22.854 15.9231 0 1 0 0.0168446 -0.00179088 
8.4867 22.7942 16.2358 0 2 2.80298 0.0168364 -0.00187432 
8.47739 22.7352 16.5485 0 2 2.73471 0.0168273 -0.00203988 
8.47006 22.6777 16.861 0 2 2.70005 0.0168109 -0.00244293 
8.46571 22.6226 17.1733 0 2 2.65755 0.0167977 -0.00281537 
8.46532 22.5706 17.4852 0 2 2.59974 0.0167736 -0.00354368 
8.46989 22.5226 17.7968 0 2 2.50598 0.016754 -0.00416465 
8.48041 22.4793 18.1079 0 2 2.23423 0.0167182 -0.00530572 
8.49786 22.4415 18.4184 0 2 1.98625 0.0166893 -0.00620881 
8.52325 22.41 18.7283 0 2 1.89993 0.0166371 -0.00778363 
8.55757 22.3856 19.0375 0 2 1.86662 0.0165957 -0.00898611 
8.60123 22.3684 19.3458 0 2 1.84338 0.0165219 -0.0110298 
8.65241 22.3563 19.6523 0 2 1.75744 0.0164641 -0.0125605 
8.70872 22.3465 19.9562 0 2 1.67331 0.016363 -0.0150755 
8.76776 22.3362 20.2566 0 2 1.60289 0.0162855 -0.0168248 
8.82714 22.3226 20.5525 0 2 1.65775 0.0161532 -0.0195635 
8.88447 22.303 20.843 0 2 1.65391 0.0160538 -0.021478 
8.93736 22.2745 21.1271 0 2 1.74936 0.0158874 -0.0244516 
8.9834 22.2344 21.404 0 2 1.97845 0.015765 -0.026422 
9.02021 22.1799 21.6728 0 2 1.98916 0.0155646 -0.0293602 
9.04539 22.1082 21.9324 0 2 2.00922 0.0154202 -0.0313154 
9.05717 22.0176 22.1825 0 2 2.02259 0.0152673 -0.0332766 
9.05626 21.9103 22.4247 0 2 2.10274 0.0150226 -0.0362701 
9.044 21.7899 22.661 0 2 2.16261 0.0148495 -0.0383128 
9.02171 21.6598 22.8934 0 2 2.21678 0.0145754 -0.0414665 
8.99074 21.5232 23.1241 0 2 2.27592 0.0143833 -0.0436272 
8.95241 21.3837 23.3551 0 2 2.26489 0.0140825 -0.0468016 
8.90806 21.2445 23.5885 0 2 2.21571 0.0138746 -0.0488542 
8.85902 21.1092 23.8264 0 2 2.2429 0.0135535 -0.0518227 
8.80662 20.9811 24.0707 0 2 2.32048 0.0133344 -0.0537126 
8.7522 20.8637 24.3237 0 2 2.29169 0.0130005 -0.0563255 
8.69695 20.7594 24.5867 0 2 2.32461 0.0127761 -0.0578813 
8.64155 20.6672 24.8592 0 2 2.26868 0.0124395 -0.0598678 
8.58654 20.5854 25.1397 0 2 2.3016 0.0122168 -0.0609226 
8.53246 20.512 25.4271 0 2 2.3029 0.0118877 -0.0620992 
8.47984 20.4452 25.72 0 2 2.19129 0.0116732 -0.0625659 
8.42922 20.3831 26.0173 0 2 2.25923 0.0113613 -0.0626881 
8.38115 20.324 26.3176 0 2 2.1503 0.0111613 -0.0623404 
8.33616 20.2658 26.6197 0 2 2.06275 0.010875 -0.0612954 
8.29479 20.2069 26.9223 0 2 2.0528 0.0106942 -0.0602237 
8.25758 20.1452 27.2241 0 2 2.08727 0.0104392 -0.0579815 
8.22494 20.0795 27.5241 0 2 2.08641 0.0102808 -0.0560497 
8.19678 20.0103 27.8226 0 2 2.0743 0.0101319 -0.0539055 
8.17289 19.9385 28.1199 0 2 2.08985 0.0099261 -0.0503379 
8.15305 19.8652 28.4166 0 2 2.08616 0.00980046 -0.0477291 
8.13705 19.7913 28.713 0 2 2.12195 0.00962908 -0.0434948 
8.12466 19.718 29.0096 0 2 2.08034 0.00952589 -0.0405594 
8.11568 19.6461 29.3069 0 2 2.01797 0.00938671 -0.0360824 
8.10988 19.5768 29.6053 0 2 2.02599 0.00930376 -0.033074 
8.10706 19.5109 29.9053 0 2 2.05145 0.0091932 -0.0285796 
8.10699 19.4495 30.2072 0 2 2.07978 0.00912812 -0.0256908 
8.10945 19.3934 30.5115 0 2 2.07273 0.00904213 -0.0216081 
8.1142 19.3422 30.8181 0 2 2.16699 0.0089918 -0.0190782 
8.12098 19.2954 31.1266 0 2 2.26435 0.0089256 -0.0156089 
8.12954 19.2525 31.4368 0 2 2.28731 0.00888696 -0.0135394 
8.13962 19.2129 31.7485 0 2 2.29007 0.00883602 -0.0108307 
8.15098 19.176 32.0614 0 2 2.27616 0.00880603 -0.00930009 
8.16334 19.1413 32.3753 0 2 2.28458 0.00876586 -0.00742918 
8.17647 19.1083 32.69 0 2 2.29072 0.00874165 -0.00645298 
8.19011 19.0764 33.0051 0 2 2.20002 0.00870817 -0.00539136 
8.204 19.045 33.3205 0 1 0 0.00868714 -0.00495476 
0 1 1 
1 2 1 
2 3 1 
3 4 1 
4 5 1 
5 6 1 
6 7 1 
7 8 1 
8 9 1 
9 10 1 
10 11 1 
11 12 1 
12 13 1 
13 14 1 
14 15 1 
15 16 1 
16 17 1 
17 18 1 
18 19 1 
19 20 1 
20 21 1 
21 22 1 
22 23 1 
23 24 1 
24 25 1 
25 26 1 
26 27 1 
27 28 1 
28 29 1 
29 30 1 
30 31 1 
31 32 1 
32 33 1 
33 34 1 
34 35 1 
35 36 1 
36 37 1 
37 38 1 
38 39 1 
39 40 1 
40 41 1 
41 42 1 
42 43 1 
43 44 1 
44 45 1 
45 46 1 
46 47 1 
47 48 1 
48 49 1 
49 50 1 
50 51 1 
51 52 1 
52 53 1 
53 54 1 
54 55 1 
55 56 1 
56 57 1 
57 58 1 
58 59 1 
59 60 1 
1 61 0 1 2 3 4 5 6 7 8 9 10 11 12 13 14 15 16 17 18 19 20 21 22 23 24 25 26 27 28 29 30 31 32 33 34 35 36 37 38 39 40 41 42 43 44 45 46 47 48 49 50 51 52 53 54 55 56 57 58 59 60 
