ply
format ascii 1.0
comment written by koba@oshima.lab
element vertex 61
property float x
property float y
property float z
property int label
property int attribute
property float radius
property float curvature
property float torsion
element edge 60
property int vertex1
property int vertex2
property int label
element vertex_seq 1
property int label
property list int int vertex_indices
end_header
8.497 22.854 15.9231 0 1 0 0.0169068 -0.00178182 
8.4867 22.7942 16.2358 0 2 2.79413 0.0168988 -0.00186484 
8.47739 22.7352 16.5485 0 2 2.73471 0.0168897 -0.00202958 
8.47006 22.6777 16.861 0 2 2.70005 0.0168734 -0.00243063 
8.46571 22.6226 17.1733 0 2 2.65755 0.0168603 -0.00280122 
8.46532 22.5706 17.4852 0 2 2.59974 0.0168363 -0.00352588 
8.46989 22.5226 17.7968 0 2 2.50598 0.0168168 -0.00414369 
8.48041 22.4793 18.1079 0 2 2.23423 0.0167811 -0.00527888 
8.49786 22.4415 18.4184 0 2 1.98625 0.0167523 -0.00617726 
8.52325 22.41 18.7283 0 2 1.89993 0.0167002 -0.00774378 
8.55757 22.3856 19.0375 0 2 1.86662 0.0166588 -0.00893984 
8.60123 22.3684 19.3458 0 2 1.84338 0.016585 -0.0109725 
8.65241 22.3563 19.6523 0 2 1.75744 0.0165273 -0.0124948 
8.70872 22.3465 19.9562 0 2 1.67331 0.0164262 -0.0149958 
8.76776 22.3362 20.2566 0 2 1.60289 0.0163487 -0.0167354 
8.82714 22.3226 20.5525 0 2 1.65775 0.0162163 -0.0194586 
8.88447 22.303 20.843 0 2 1.65391 0.0161169 -0.0213622 
8.93736 22.2745 21.1271 0 2 1.74936 0.0159504 -0.0243188 
8.9834 22.2344 21.404 0 2 1.97845 0.0158279 -0.0262782 
9.02021 22.1799 21.6728 0 2 1.98916 0.0156273 -0.0292001 
9.04539 22.1082 21.9324 0 2 2.00922 0.0154826 -0.0311446 
9.05717 22.0176 22.1825 0 2 2.02259 0.0153295 -0.0330953 
9.05626 21.9103 22.4247 0 2 2.0835 0.0150844 -0.0360725 
9.044 21.7899 22.661 0 2 2.14322 0.014911 -0.0381038 
9.02171 21.6598 22.8934 0 2 2.1971 0.0146364 -0.0412393 
8.99074 21.5232 23.1241 0 2 2.27592 0.014444 -0.0433872 
8.95241 21.3837 23.3551 0 2 2.26489 0.0141425 -0.0465437 
8.90806 21.2445 23.5885 0 2 2.21571 0.0139342 -0.0485855 
8.85902 21.1092 23.8264 0 2 2.2429 0.0136124 -0.0515398 
8.80662 20.9811 24.0707 0 2 2.31278 0.0133928 -0.0534216 
8.7522 20.8637 24.3237 0 2 2.29169 0.0130581 -0.0560227 
8.69695 20.7594 24.5867 0 2 2.32461 0.0128331 -0.057571 
8.64155 20.6672 24.8592 0 2 2.26868 0.0124957 -0.0595471 
8.58654 20.5854 25.1397 0 2 2.3016 0.0122724 -0.0605957 
8.53246 20.512 25.4271 0 2 2.3029 0.0119424 -0.0617639 
8.47984 20.4452 25.72 0 2 2.19129 0.0117273 -0.0622257 
8.42922 20.3831 26.0173 0 2 2.25923 0.0114145 -0.0623426 
8.38115 20.324 26.3176 0 2 2.1503 0.0112139 -0.061993 
8.33616 20.2658 26.6197 0 2 2.06275 0.0109268 -0.0609454 
8.29479 20.2069 26.9223 0 2 2.0528 0.0107453 -0.0598721 
8.25758 20.1452 27.2241 0 2 2.07517 0.0104895 -0.0576279 
8.22494 20.0795 27.5241 0 2 2.07438 0.0103306 -0.0556957 
8.19678 20.0103 27.8226 0 2 2.0743 0.0101811 -0.0535535 
8.17289 19.9385 28.1199 0 2 2.08985 0.00997458 -0.0499948 
8.15305 19.8652 28.4166 0 2 2.08616 0.00984845 -0.047396 
8.13705 19.7913 28.713 0 2 2.12195 0.00967633 -0.043183 
8.12466 19.718 29.0096 0 2 2.09526 0.00957266 -0.0402634 
8.11568 19.6461 29.3069 0 2 2.03292 0.00943278 -0.0358101 
8.10988 19.5768 29.6053 0 2 2.02599 0.00934939 -0.0328175 
8.10706 19.5109 29.9053 0 2 2.05145 0.0092382 -0.0283459 
8.10699 19.4495 30.2072 0 2 2.07978 0.00917274 -0.0254732 
8.10945 19.3934 30.5115 0 2 2.07273 0.00908621 -0.0214165 
8.1142 19.3422 30.8181 0 2 2.16699 0.00903556 -0.018905 
8.12098 19.2954 31.1266 0 2 2.24222 0.00896891 -0.0154643 
8.12954 19.2525 31.4368 0 2 2.2775 0.00893 -0.0134128 
8.13962 19.2129 31.7485 0 2 2.29007 0.00887868 -0.0107281 
8.15098 19.176 32.0614 0 2 2.27616 0.00884847 -0.00921148 
8.16334 19.1413 32.3753 0 2 2.28458 0.00880799 -0.00735827 
8.17647 19.1083 32.69 0 2 2.29072 0.00878359 -0.00639142 
8.19011 19.0764 33.0051 0 2 2.20002 0.00874983 -0.00533993 
8.204 19.045 33.3205 0 1 0 0.00872863 -0.00490746 
0 1 1 
1 2 1 
2 3 1 
3 4 1 
4 5 1 
5 6 1 
6 7 1 
7 8 1 
8 9 1 
9 10 1 
10 11 1 
11 12 1 
12 13 1 
13 14 1 
14 15 1 
15 16 1 
16 17 1 
17 18 1 
18 19 1 
19 20 1 
20 21 1 
21 22 1 
22 23 1 
23 24 1 
24 25 1 
25 26 1 
26 27 1 
27 28 1 
28 29 1 
29 30 1 
30 31 1 
31 32 1 
32 33 1 
33 34 1 
34 35 1 
35 36 1 
36 37 1 
37 38 1 
38 39 1 
39 40 1 
40 41 1 
41 42 1 
42 43 1 
43 44 1 
44 45 1 
45 46 1 
46 47 1 
47 48 1 
48 49 1 
49 50 1 
50 51 1 
51 52 1 
52 53 1 
53 54 1 
54 55 1 
55 56 1 
56 57 1 
57 58 1 
58 59 1 
59 60 1 
1 61 0 1 2 3 4 5 6 7 8 9 10 11 12 13 14 15 16 17 18 19 20 21 22 23 24 25 26 27 28 29 30 31 32 33 34 35 36 37 38 39 40 41 42 43 44 45 46 47 48 49 50 51 52 53 54 55 56 57 58 59 60 
