ply
format ascii 1.0
comment written by koba@oshima.lab
element vertex 71
property float x
property float y
property float z
property int label
property int attribute
property float radius
property float curvature
property float torsion
element edge 70
property int vertex1
property int vertex2
property int label
element vertex_seq 1
property int label
property list int int vertex_indices
end_header
8.497 22.854 15.9231 0 1 0 0.0215913 -0.00807998 
8.48523 22.7904 16.2233 0 2 2.71875 0.0215489 -0.00830968 
8.47444 22.7277 16.5234 0 2 2.68574 0.0214799 -0.00899278 
8.46563 22.667 16.8236 0 2 2.65487 0.0214286 -0.00967995 
8.45978 22.6092 17.1238 0 2 2.58725 0.0213411 -0.0110706 
8.45788 22.5553 17.424 0 2 2.49695 0.021274 -0.0122619 
8.46091 22.5063 17.7242 0 2 2.37936 0.0211572 -0.0145011 
8.46986 22.4631 18.0243 0 2 2.19113 0.0210664 -0.0163113 
8.48572 22.4268 18.3245 0 2 2.10166 0.0209076 -0.0195374 
8.50947 22.3982 18.6247 0 2 1.88995 0.0207848 -0.022054 
8.5421 22.3784 18.9249 0 2 1.83696 0.0205716 -0.0264348 
8.58405 22.3677 19.2249 0 2 1.8015 0.0203194 -0.0316333 
8.63361 22.3636 19.5238 0 2 1.73857 0.0201273 -0.0356166 
8.68848 22.3629 19.8207 0 2 1.66565 0.0198006 -0.0423524 
8.74641 22.3624 20.1144 0 2 1.57558 0.0195558 -0.0473683 
8.80511 22.3589 20.4039 0 2 1.5957 0.0191466 -0.0558415 
8.86232 22.3493 20.6881 0 2 1.60525 0.0188452 -0.062239 
8.91577 22.3305 20.9661 0 2 1.70927 0.0183501 -0.0728956 
8.96318 22.2992 21.2367 0 2 1.82166 0.0179929 -0.0807002 
9.00229 22.2522 21.4989 0 2 1.87815 0.0174201 -0.0936845 
9.03081 22.1864 21.7516 0 2 1.93146 0.0170159 -0.103345 
9.04705 22.0998 21.9943 0 2 1.92995 0.0163809 -0.11977 
9.05159 21.995 22.2287 0 2 2.02832 0.0157176 -0.139086 
9.0456 21.8758 22.4566 0 2 2.07756 0.015264 -0.153863 
9.03023 21.7459 22.6803 0 2 2.15391 0.0145746 -0.179312 
9.00663 21.6093 22.9017 0 2 2.19574 0.0141156 -0.198464 
8.97598 21.4695 23.1229 0 2 2.26338 0.0134429 -0.230437 
8.93941 21.3305 23.3461 0 2 2.26269 0.0130152 -0.253777 
8.89809 21.196 23.5733 0 2 2.26711 0.0124248 -0.291015 
8.85319 21.0699 23.8065 0 2 2.20131 0.012079 -0.31613 
8.80584 20.9558 24.0478 0 2 2.23135 0.011658 -0.351389 
8.75709 20.8566 24.2987 0 2 2.21025 0.0113852 -0.379486 
8.70741 20.7713 24.5587 0 2 2.21781 0.0113008 -0.391727 
8.65714 20.6978 24.8267 0 2 2.24777 0.011338 -0.397106 
8.60664 20.634 25.1013 0 2 2.23981 0.0114772 -0.391428 
8.55624 20.5779 25.3817 0 2 2.28529 0.0118571 -0.370355 
8.50631 20.5275 25.6665 0 2 2.28707 0.0122187 -0.349784 
8.45717 20.4807 25.9547 0 2 2.27994 0.0129071 -0.312963 
8.40919 20.4354 26.2452 0 2 2.31392 0.0134509 -0.286636 
8.3627 20.3897 26.5367 0 2 2.11964 0.0143708 -0.24741 
8.31805 20.3415 26.8282 0 2 2.13601 0.0150397 -0.222586 
8.27562 20.2891 27.1187 0 2 2.18291 0.0161052 -0.188702 
8.23592 20.2322 27.4082 0 2 2.19327 0.0172221 -0.159142 
8.19946 20.1712 27.697 0 2 2.21374 0.017984 -0.141735 
8.16679 20.1062 27.9851 0 2 2.16649 0.019138 -0.11883 
8.13844 20.0374 28.2728 0 2 2.19051 0.0199075 -0.1056 
8.11494 19.9649 28.5602 0 2 2.12339 0.0210513 -0.0883544 
8.09681 19.8889 28.8475 0 2 2.15185 0.0218012 -0.0783321 
8.0846 19.8097 29.135 0 2 2.09731 0.022899 -0.0652031 
8.07884 19.7274 29.4227 0 2 2.11976 0.0236086 -0.0576411 
8.08005 19.6423 29.711 0 2 2.0718 0.0246337 -0.0477823 
8.08841 19.5548 29.9998 0 2 2.04992 0.0256053 -0.0393909 
8.10263 19.467 30.2891 0 2 2.05389 0.0262202 -0.034514 
8.12107 19.3816 30.5786 0 2 2.09452 0.0270897 -0.0281876 
8.1421 19.3011 30.8682 0 2 2.14914 0.0276326 -0.024534 
8.16406 19.2278 31.1575 0 2 2.25981 0.0283894 -0.0197662 
8.18531 19.1644 31.4464 0 2 2.25673 0.0288544 -0.0170325 
8.20421 19.1134 31.7346 0 2 2.244 0.0294936 -0.0135742 
8.21912 19.0772 32.0219 0 2 2.25425 0.0298818 -0.0116478 
8.22839 19.0583 32.3082 0 2 2.23898 0.0304095 -0.00926022 
8.23039 19.0594 32.5932 0 2 2.22932 0.030726 -0.00794351 
8.22388 19.082 32.8767 0 2 2.26622 0.0311501 -0.00627731 
8.20934 19.1248 33.1588 0 2 2.26253 0.0315161 -0.00494813 
8.18766 19.1855 33.4397 0 2 2.29337 0.0317294 -0.00423443 
8.15974 19.2619 33.7195 0 2 2.26597 0.0320063 -0.00337375 
8.12646 19.3518 33.9985 0 2 2.30638 0.032165 -0.00291816 
8.08872 19.4528 34.2766 0 2 2.20329 0.0323695 -0.00240214 
8.04742 19.5627 34.5541 0 2 2.16726 0.0324865 -0.00216523 
8.00343 19.6794 34.8312 0 2 1.94447 0.0326381 -0.00191076 
7.95766 19.8006 35.108 0 2 1.60845 0.0327257 -0.00178244 
7.911 19.924 35.3846 0 1 0 0.0328408 -0.00164955 
0 1 1 
1 2 1 
2 3 1 
3 4 1 
4 5 1 
5 6 1 
6 7 1 
7 8 1 
8 9 1 
9 10 1 
10 11 1 
11 12 1 
12 13 1 
13 14 1 
14 15 1 
15 16 1 
16 17 1 
17 18 1 
18 19 1 
19 20 1 
20 21 1 
21 22 1 
22 23 1 
23 24 1 
24 25 1 
25 26 1 
26 27 1 
27 28 1 
28 29 1 
29 30 1 
30 31 1 
31 32 1 
32 33 1 
33 34 1 
34 35 1 
35 36 1 
36 37 1 
37 38 1 
38 39 1 
39 40 1 
40 41 1 
41 42 1 
42 43 1 
43 44 1 
44 45 1 
45 46 1 
46 47 1 
47 48 1 
48 49 1 
49 50 1 
50 51 1 
51 52 1 
52 53 1 
53 54 1 
54 55 1 
55 56 1 
56 57 1 
57 58 1 
58 59 1 
59 60 1 
60 61 1 
61 62 1 
62 63 1 
63 64 1 
64 65 1 
65 66 1 
66 67 1 
67 68 1 
68 69 1 
69 70 1 
1 71 0 1 2 3 4 5 6 7 8 9 10 11 12 13 14 15 16 17 18 19 20 21 22 23 24 25 26 27 28 29 30 31 32 33 34 35 36 37 38 39 40 41 42 43 44 45 46 47 48 49 50 51 52 53 54 55 56 57 58 59 60 61 62 63 64 65 66 67 68 69 70 
