ply
format ascii 1.0
comment written by koba@oshima.lab
element vertex 71
property float x
property float y
property float z
property int label
property int attribute
property float radius
property float curvature
property float torsion
element edge 70
property int vertex1
property int vertex2
property int label
element vertex_seq 1
property int label
property list int int vertex_indices
end_header
8.497 22.854 15.9231 0 1 0 0.0219183 -0.00795717 
8.48276 22.7896 16.2212 0 2 2.68969 0.021876 -0.0081826 
8.46959 22.7262 16.5192 0 2 2.67344 0.021807 -0.00885516 
8.45857 22.6648 16.8172 0 2 2.63771 0.0217557 -0.00953241 
8.45079 22.6065 17.115 0 2 2.57413 0.0216679 -0.0109036 
8.44732 22.5523 17.4127 0 2 2.47209 0.0216006 -0.0120755 
8.44923 22.5032 17.7101 0 2 2.39209 0.0214832 -0.0142683 
8.45761 22.4602 18.0073 0 2 2.18042 0.021392 -0.0160352 
8.47353 22.4243 18.3043 0 2 2.07684 0.0212325 -0.0191762 
8.49806 22.3966 18.6009 0 2 1.91527 0.0211092 -0.0216306 
8.53229 22.378 18.8971 0 2 1.86531 0.0208951 -0.0259286 
8.5767 22.3689 19.1928 0 2 1.77222 0.0206414 -0.031057 
8.62941 22.3666 19.4873 0 2 1.70215 0.0204479 -0.0350007 
8.68794 22.3678 19.7801 0 2 1.65578 0.0201181 -0.0416749 
8.74981 22.3692 20.0703 0 2 1.57755 0.0198707 -0.0466417 
8.81256 22.3673 20.3572 0 2 1.587 0.0194565 -0.0550272 
8.87369 22.3589 20.6401 0 2 1.57568 0.0191511 -0.0613552 
8.93075 22.3405 20.9184 0 2 1.65105 0.0186487 -0.0719601 
8.98125 22.3089 21.1913 0 2 1.72676 0.0182855 -0.0798068 
9.02272 22.2606 21.458 0 2 1.9292 0.0177011 -0.0930029 
9.05268 22.1924 21.718 0 2 1.95052 0.017287 -0.10293 
9.06928 22.1021 21.9707 0 2 2.01203 0.0166336 -0.119884 
9.0732 21.9925 22.2174 0 2 2.06354 0.0159481 -0.139826 
9.06574 21.8678 22.4595 0 2 2.13437 0.015478 -0.155096 
9.0482 21.7321 22.6983 0 2 2.20767 0.014762 -0.181424 
9.02188 21.5895 22.9355 0 2 2.19331 0.0142846 -0.201178 
8.98809 21.444 23.1723 0 2 2.2271 0.0135851 -0.23397 
8.94812 21.2998 23.4103 0 2 2.25452 0.0131409 -0.257741 
8.90327 21.161 23.6509 0 2 2.23714 0.0125294 -0.295315 
8.85486 21.0316 23.8956 0 2 2.2393 0.0121725 -0.320417 
8.80417 20.9158 24.1458 0 2 2.26002 0.0117398 -0.355181 
8.75235 20.8166 24.4026 0 2 2.25756 0.011461 -0.382073 
8.69993 20.7327 24.6656 0 2 2.2355 0.0113753 -0.39315 
8.64727 20.6618 24.9341 0 2 2.22241 0.0114126 -0.396775 
8.59474 20.6014 25.2073 0 2 2.27615 0.0115524 -0.390099 
8.54269 20.5494 25.4846 0 2 2.19973 0.0119321 -0.367971 
8.4915 20.5033 25.7653 0 2 2.25611 0.0122924 -0.347029 
8.44154 20.4607 26.0485 0 2 2.25773 0.0129761 -0.310161 
8.39315 20.4194 26.3335 0 2 2.28651 0.013515 -0.284051 
8.34672 20.3769 26.6197 0 2 2.22247 0.0144255 -0.245352 
8.3026 20.331 26.9062 0 2 2.15338 0.0150873 -0.220927 
8.26117 20.2797 27.1926 0 2 2.21267 0.0161411 -0.187554 
8.22287 20.223 27.4786 0 2 2.2504 0.0172462 -0.158384 
8.18812 20.1613 27.7645 0 2 2.22937 0.0180003 -0.141178 
8.15738 20.095 28.0503 0 2 2.15433 0.0191431 -0.118504 
8.13107 20.0244 28.336 0 2 2.17221 0.0199056 -0.105389 
8.10965 19.9501 28.6216 0 2 2.14105 0.0210397 -0.0882751 
8.09355 19.8723 28.9074 0 2 2.11405 0.0217838 -0.0783218 
8.08321 19.7916 29.1933 0 2 2.08291 0.0228738 -0.0652646 
8.07906 19.7082 29.4795 0 2 2.1019 0.0235788 -0.0577154 
8.08156 19.6227 29.7659 0 2 2.03432 0.0245976 -0.0478342 
8.09081 19.5358 30.0526 0 2 2.02223 0.025563 -0.0393823 
8.10554 19.4494 30.3395 0 2 2.06667 0.0261735 -0.0344619 
8.12418 19.3659 30.6264 0 2 2.08547 0.0270365 -0.0280963 
8.14514 19.2877 30.9131 0 2 2.19888 0.027575 -0.0244317 
8.16682 19.2172 31.1995 0 2 2.2399 0.0283254 -0.0196678 
8.18765 19.1567 31.4853 0 2 2.25715 0.0287863 -0.0169438 
8.20603 19.1085 31.7704 0 2 2.25885 0.0294198 -0.0134998 
8.22037 19.0751 32.0546 0 2 2.23561 0.0298046 -0.0115828 
8.22909 19.0587 32.3378 0 2 2.21523 0.0303276 -0.00920962 
8.2306 19.0618 32.6197 0 2 2.21067 0.0306413 -0.00790193 
8.22372 19.0859 32.9002 0 2 2.23906 0.0310618 -0.00624652 
8.20892 19.1296 33.1795 0 2 2.23505 0.0314246 -0.00492529 
8.18708 19.1908 33.4576 0 2 2.26844 0.0316361 -0.00421551 
8.15908 19.2672 33.7348 0 2 2.27894 0.0319105 -0.00335935 
8.1258 19.3567 34.011 0 2 2.29655 0.0320677 -0.00290617 
8.08812 19.4571 34.2866 0 2 2.1591 0.0322703 -0.0023929 
8.04692 19.5662 34.5616 0 2 2.13333 0.0323861 -0.00215731 
8.00308 19.6818 34.8362 0 2 1.91337 0.0325362 -0.00190429 
7.95748 19.8018 35.1105 0 2 1.6026 0.0326228 -0.00177671 
7.911 19.924 35.3846 0 1 0 0.0327367 -0.00164463 
0 1 1 
1 2 1 
2 3 1 
3 4 1 
4 5 1 
5 6 1 
6 7 1 
7 8 1 
8 9 1 
9 10 1 
10 11 1 
11 12 1 
12 13 1 
13 14 1 
14 15 1 
15 16 1 
16 17 1 
17 18 1 
18 19 1 
19 20 1 
20 21 1 
21 22 1 
22 23 1 
23 24 1 
24 25 1 
25 26 1 
26 27 1 
27 28 1 
28 29 1 
29 30 1 
30 31 1 
31 32 1 
32 33 1 
33 34 1 
34 35 1 
35 36 1 
36 37 1 
37 38 1 
38 39 1 
39 40 1 
40 41 1 
41 42 1 
42 43 1 
43 44 1 
44 45 1 
45 46 1 
46 47 1 
47 48 1 
48 49 1 
49 50 1 
50 51 1 
51 52 1 
52 53 1 
53 54 1 
54 55 1 
55 56 1 
56 57 1 
57 58 1 
58 59 1 
59 60 1 
60 61 1 
61 62 1 
62 63 1 
63 64 1 
64 65 1 
65 66 1 
66 67 1 
67 68 1 
68 69 1 
69 70 1 
1 71 0 1 2 3 4 5 6 7 8 9 10 11 12 13 14 15 16 17 18 19 20 21 22 23 24 25 26 27 28 29 30 31 32 33 34 35 36 37 38 39 40 41 42 43 44 45 46 47 48 49 50 51 52 53 54 55 56 57 58 59 60 61 62 63 64 65 66 67 68 69 70 
