ply
format ascii 1.0
comment written by koba@oshima.lab
element vertex 71
property float x
property float y
property float z
property int label
property int attribute
property float radius
property float curvature
property float torsion
element edge 70
property int vertex1
property int vertex2
property int label
element vertex_seq 1
property int label
property list int int vertex_indices
end_header
8.497 22.854 15.9231 0 1 0 0.0216774 -0.00809105 
8.48679 22.794 16.2186 0 2 2.71125 0.0216334 -0.00832172 
8.47756 22.735 16.5142 0 2 2.69389 0.0215618 -0.00900654 
8.47031 22.6778 16.8097 0 2 2.63793 0.0215087 -0.00969513 
8.46601 22.6233 17.1053 0 2 2.60033 0.0214183 -0.0110885 
8.46566 22.5726 17.4009 0 2 2.47669 0.0213492 -0.0122806 
8.47023 22.5264 17.6965 0 2 2.40085 0.0212288 -0.0145156 
8.48072 22.4858 17.9921 0 2 2.20637 0.0211355 -0.0163195 
8.49811 22.4516 18.2878 0 2 2.06268 0.0209728 -0.019531 
8.52339 22.4248 18.5835 0 2 1.91948 0.0208471 -0.0220427 
8.55754 22.4063 18.8793 0 2 1.8913 0.0206291 -0.026443 
8.601 22.3964 19.175 0 2 1.82783 0.0203712 -0.0316973 
8.65201 22.3924 19.47 0 2 1.75999 0.0201748 -0.035741 
8.70826 22.3914 19.7635 0 2 1.66005 0.0198405 -0.0425901 
8.76746 22.39 20.0548 0 2 1.60093 0.0195901 -0.0476914 
8.82729 22.385 20.3431 0 2 1.59525 0.0191715 -0.0563123 
8.88545 22.3734 20.6277 0 2 1.57029 0.0188633 -0.0628245 
8.93963 22.352 20.9077 0 2 1.63113 0.0183573 -0.0737491 
8.98752 22.3174 21.1824 0 2 1.73694 0.017992 -0.08184 
9.02683 22.2667 21.4511 0 2 1.89987 0.0174052 -0.0954583 
9.05524 22.1965 21.7129 0 2 1.96736 0.0169903 -0.10571 
9.07102 22.1049 21.9676 0 2 2.03906 0.016337 -0.123205 
9.07475 21.9946 22.216 0 2 2.0868 0.0156539 -0.143739 
9.06757 21.8698 22.4598 0 2 2.1939 0.0151868 -0.159424 
9.05063 21.7342 22.7001 0 2 2.22916 0.0144784 -0.186379 
9.02506 21.5919 22.9385 0 2 2.24449 0.0140083 -0.206535 
8.99202 21.4468 23.1763 0 2 2.27297 0.0133233 -0.239835 
8.95266 21.3029 23.4149 0 2 2.27828 0.0128914 -0.263811 
8.90811 21.1643 23.6557 0 2 2.25204 0.0123024 -0.301327 
8.85953 21.0347 23.9002 0 2 2.2557 0.0119631 -0.326047 
8.80806 20.9183 24.1498 0 2 2.2694 0.0115603 -0.359565 
8.75475 20.818 24.4054 0 2 2.25844 0.0113143 -0.384367 
8.7003 20.7325 24.6669 0 2 2.23553 0.0112511 -0.393693 
8.64529 20.6598 24.9337 0 2 2.22879 0.0113211 -0.39457 
8.59031 20.5977 25.2052 0 2 2.28096 0.0114808 -0.386253 
8.53597 20.5439 25.4809 0 2 2.20725 0.011886 -0.362312 
8.48286 20.4964 25.76 0 2 2.24445 0.0122595 -0.340683 
8.43157 20.4529 26.0422 0 2 2.25004 0.0129573 -0.303511 
8.3827 20.4113 26.3268 0 2 2.23588 0.0135018 -0.277572 
8.33684 20.3693 26.6132 0 2 2.22757 0.0144154 -0.239468 
8.29459 20.3249 26.9008 0 2 2.13388 0.0150763 -0.215554 
8.25645 20.2762 27.1892 0 2 2.18722 0.0161251 -0.18295 
8.22262 20.223 27.4781 0 2 2.24616 0.0172214 -0.15448 
8.19319 20.1654 27.7674 0 2 2.17435 0.0179679 -0.137686 
8.16826 20.1035 28.0568 0 2 2.17486 0.0190972 -0.11555 
8.14793 20.0376 28.3464 0 2 2.18117 0.0198495 -0.10276 
8.13231 19.9678 28.6358 0 2 2.14144 0.0209671 -0.086082 
8.12149 19.8941 28.925 0 2 2.13935 0.0216996 -0.0763888 
8.11557 19.8168 29.2138 0 2 2.11093 0.0227718 -0.0636716 
8.11466 19.7359 29.5021 0 2 2.11765 0.0234647 -0.0563047 
8.11885 19.6517 29.7896 0 2 1.95833 0.0244652 -0.0466414 
8.12802 19.5647 30.0763 0 2 1.94773 0.025412 -0.0383537 
8.14109 19.477 30.3621 0 2 2.02273 0.02601 -0.0335272 
8.15678 19.3913 30.6471 0 2 2.04883 0.0268544 -0.0273018 
8.17377 19.31 30.9313 0 2 2.24813 0.0273809 -0.0237309 
8.19079 19.2359 31.2146 0 2 2.22738 0.0281141 -0.0191096 
8.20651 19.1714 31.4972 0 2 2.24318 0.0285645 -0.0164744 
8.21966 19.1192 31.7789 0 2 2.22038 0.0291835 -0.0131384 
8.22893 19.0819 32.0599 0 2 2.19689 0.0295595 -0.011279 
8.23302 19.0619 32.34 0 2 2.17876 0.0300706 -0.00897374 
8.23063 19.062 32.6194 0 2 2.21605 0.0303772 -0.00770207 
8.22082 19.0838 32.8981 0 2 2.21524 0.0307882 -0.00609206 
8.20402 19.126 33.1761 0 2 2.23758 0.031143 -0.0048072 
8.18099 19.1862 33.4535 0 2 2.26884 0.0313498 -0.00411721 
8.15253 19.2622 33.7303 0 2 2.27768 0.0316184 -0.00328473 
8.1194 19.3518 34.0067 0 2 2.28493 0.0317723 -0.00284364 
8.08238 19.4527 34.2828 0 2 2.16862 0.0319707 -0.00234337 
8.04226 19.5626 34.5585 0 2 2.12457 0.0320842 -0.00211317 
7.9998 19.6793 34.834 0 2 1.92783 0.0322311 -0.00186551 
7.95579 19.8005 35.1093 0 2 1.59572 0.032316 -0.00174063 
7.911 19.924 35.3846 0 1 0 0.0324276 -0.00161134 
0 1 1 
1 2 1 
2 3 1 
3 4 1 
4 5 1 
5 6 1 
6 7 1 
7 8 1 
8 9 1 
9 10 1 
10 11 1 
11 12 1 
12 13 1 
13 14 1 
14 15 1 
15 16 1 
16 17 1 
17 18 1 
18 19 1 
19 20 1 
20 21 1 
21 22 1 
22 23 1 
23 24 1 
24 25 1 
25 26 1 
26 27 1 
27 28 1 
28 29 1 
29 30 1 
30 31 1 
31 32 1 
32 33 1 
33 34 1 
34 35 1 
35 36 1 
36 37 1 
37 38 1 
38 39 1 
39 40 1 
40 41 1 
41 42 1 
42 43 1 
43 44 1 
44 45 1 
45 46 1 
46 47 1 
47 48 1 
48 49 1 
49 50 1 
50 51 1 
51 52 1 
52 53 1 
53 54 1 
54 55 1 
55 56 1 
56 57 1 
57 58 1 
58 59 1 
59 60 1 
60 61 1 
61 62 1 
62 63 1 
63 64 1 
64 65 1 
65 66 1 
66 67 1 
67 68 1 
68 69 1 
69 70 1 
1 71 0 1 2 3 4 5 6 7 8 9 10 11 12 13 14 15 16 17 18 19 20 21 22 23 24 25 26 27 28 29 30 31 32 33 34 35 36 37 38 39 40 41 42 43 44 45 46 47 48 49 50 51 52 53 54 55 56 57 58 59 60 61 62 63 64 65 66 67 68 69 70 
