ply
format ascii 1.0
comment written by koba@oshima.lab
element vertex 61
property float x
property float y
property float z
property int label
property int attribute
property float radius
property float curvature
property float torsion
element edge 60
property int vertex1
property int vertex2
property int label
element vertex_seq 1
property int label
property list int int vertex_indices
end_header
8.497 22.854 15.9231 0 1 0 0.0168203 -0.00171081 
8.4879 22.7972 16.2294 0 2 2.79053 0.0168117 -0.00179112 
8.47981 22.7412 16.5356 0 2 2.7504 0.016802 -0.00194957 
8.47373 22.6868 16.8419 0 2 2.69708 0.0167848 -0.00233445 
8.47067 22.6346 17.1481 0 2 2.62724 0.016771 -0.00268979 
8.47163 22.5855 17.4543 0 2 2.5549 0.0167458 -0.00338428 
8.47762 22.5402 17.7604 0 2 2.47294 0.0167254 -0.00397613 
8.48964 22.4996 18.0664 0 2 2.25709 0.0166882 -0.00506347 
8.5087 22.4642 18.3724 0 2 2.03561 0.0166581 -0.00592403 
8.53581 22.435 18.6782 0 2 1.87306 0.016604 -0.00742609 
8.57197 22.4127 18.984 0 2 1.84459 0.0165609 -0.00857595 
8.61761 22.3975 19.2895 0 2 1.82175 0.0164844 -0.0105349 
8.67082 22.3869 19.5941 0 2 1.77891 0.0164244 -0.0120052 
8.72912 22.3781 19.8969 0 2 1.68097 0.0163195 -0.0144267 
8.79004 22.3682 20.1973 0 2 1.61089 0.016239 -0.0161165 
8.85109 22.3543 20.4942 0 2 1.60164 0.0161015 -0.0187713 
8.90978 22.3333 20.7871 0 2 1.68638 0.0159982 -0.020634 
8.96365 22.3024 21.075 0 2 1.73613 0.0158249 -0.0235404 
9.0102 22.2586 21.3571 0 2 1.89736 0.0156973 -0.0254794 
9.04695 22.199 21.6327 0 2 2.00142 0.0154879 -0.0283941 
9.07143 22.1207 21.9009 0 2 2.03943 0.0153365 -0.0303514 
9.08181 22.0218 22.1613 0 2 2.08152 0.0151759 -0.0323254 
9.07885 21.9053 22.4153 0 2 2.15602 0.0149184 -0.0352975 
9.06399 21.7751 22.6643 0 2 2.20681 0.014736 -0.0372917 
9.03865 21.6353 22.9103 0 2 2.20543 0.014447 -0.0403165 
9.00427 21.4898 23.1547 0 2 2.22491 0.0142447 -0.0423509 
8.96227 21.3427 23.3993 0 2 2.28201 0.0139281 -0.0452698 
8.91407 21.1979 23.6457 0 2 2.31478 0.0137099 -0.0471008 
8.86111 21.0594 23.8956 0 2 2.29729 0.013374 -0.0496451 
8.80482 20.9313 24.1507 0 2 2.28926 0.0131458 -0.0511897 
8.74662 20.8176 24.4126 0 2 2.32308 0.0127995 -0.0532879 
8.6878 20.7211 24.6826 0 2 2.2824 0.0125677 -0.0545114 
8.62915 20.6402 24.9599 0 2 2.26836 0.0122213 -0.056016 
8.5713 20.5722 25.2437 0 2 2.29049 0.0119927 -0.0567645 
8.51488 20.5142 25.5327 0 2 2.26989 0.0116558 -0.05755 
8.46054 20.4637 25.826 0 2 2.18584 0.0114366 -0.0578115 
8.40893 20.4178 26.1224 0 2 2.39205 0.0111184 -0.0577222 
8.36067 20.3737 26.4208 0 2 2.3607 0.0109146 -0.0573037 
8.31642 20.3288 26.7203 0 2 2.18399 0.0106229 -0.0562546 
8.2768 20.2802 27.0197 0 2 2.11445 0.0104386 -0.0552542 
8.24246 20.2252 27.3179 0 2 2.06329 0.0101786 -0.0532421 
8.21386 20.1619 27.6142 0 2 2.09704 0.0100169 -0.0515445 
8.19068 20.0912 27.9088 0 2 2.08396 0.00986475 -0.0496559 
8.17243 20.0146 28.202 0 2 2.10936 0.00965427 -0.0464965 
8.15862 19.934 28.4945 0 2 2.06071 0.00952565 -0.0441745 
8.14875 19.8509 28.7865 0 2 2.1261 0.00935011 -0.0403879 
8.14233 19.767 29.0787 0 2 2.07558 0.00924438 -0.0377448 
8.13887 19.6841 29.3714 0 2 2.06949 0.0091018 -0.0336836 
8.13786 19.6038 29.6651 0 2 1.98223 0.00901686 -0.0309359 
8.13883 19.5277 29.9603 0 2 1.98667 0.00890374 -0.0268049 
8.14127 19.4576 30.2575 0 2 2.0668 0.00883724 -0.0241357 
8.14475 19.3946 30.5569 0 2 2.11889 0.00874951 -0.0203452 
8.14912 19.3385 30.8586 0 2 2.20002 0.00869828 -0.0179852 
8.15426 19.2885 31.1621 0 2 2.23863 0.00863104 -0.0147333 
8.1601 19.2439 31.4673 0 2 2.27968 0.0085919 -0.0127864 
8.16652 19.2037 31.774 0 2 2.27998 0.00854047 -0.0102293 
8.17343 19.1674 32.0818 0 2 2.27045 0.00851031 -0.00877853 
8.18073 19.1342 32.3907 0 2 2.2679 0.00847009 -0.00699679 
8.18832 19.1032 32.7002 0 2 2.2732 0.00844595 -0.00606769 
8.19611 19.0737 33.0102 0 2 2.18872 0.00841267 -0.00506317 
8.204 19.045 33.3205 0 1 0 0.00839183 -0.00465572 
0 1 1 
1 2 1 
2 3 1 
3 4 1 
4 5 1 
5 6 1 
6 7 1 
7 8 1 
8 9 1 
9 10 1 
10 11 1 
11 12 1 
12 13 1 
13 14 1 
14 15 1 
15 16 1 
16 17 1 
17 18 1 
18 19 1 
19 20 1 
20 21 1 
21 22 1 
22 23 1 
23 24 1 
24 25 1 
25 26 1 
26 27 1 
27 28 1 
28 29 1 
29 30 1 
30 31 1 
31 32 1 
32 33 1 
33 34 1 
34 35 1 
35 36 1 
36 37 1 
37 38 1 
38 39 1 
39 40 1 
40 41 1 
41 42 1 
42 43 1 
43 44 1 
44 45 1 
45 46 1 
46 47 1 
47 48 1 
48 49 1 
49 50 1 
50 51 1 
51 52 1 
52 53 1 
53 54 1 
54 55 1 
55 56 1 
56 57 1 
57 58 1 
58 59 1 
59 60 1 
1 61 0 1 2 3 4 5 6 7 8 9 10 11 12 13 14 15 16 17 18 19 20 21 22 23 24 25 26 27 28 29 30 31 32 33 34 35 36 37 38 39 40 41 42 43 44 45 46 47 48 49 50 51 52 53 54 55 56 57 58 59 60 
