ply
format ascii 1.0
comment written by koba@oshima.lab
element vertex 61
property float x
property float y
property float z
property int label
property int attribute
property float radius
property float curvature
property float torsion
element edge 60
property int vertex1
property int vertex2
property int label
element vertex_seq 1
property int label
property list int int vertex_indices
end_header
8.497 22.854 15.9231 0 1 0 0.0169758 -0.00161999 
8.48793 22.7962 16.229 0 2 2.78725 0.0169673 -0.00169599 
8.47987 22.7393 16.5348 0 2 2.74733 0.0169578 -0.00184604 
8.47381 22.6839 16.8407 0 2 2.69436 0.0169407 -0.00221061 
8.47077 22.631 17.1467 0 2 2.62501 0.0169269 -0.00254721 
8.47175 22.5814 17.4526 0 2 2.55333 0.0169019 -0.00320512 
8.47774 22.5358 17.7586 0 2 2.47223 0.0168815 -0.00376588 
8.48977 22.495 18.0646 0 2 2.25743 0.0168443 -0.00479616 
8.50882 22.46 18.3707 0 2 2.03709 0.0168142 -0.00561157 
8.53591 22.4314 18.6768 0 2 1.87623 0.01676 -0.00703482 
8.57204 22.4101 18.983 0 2 1.84946 0.0167169 -0.00812441 
8.61764 22.3963 19.2891 0 2 1.8281 0.0166402 -0.00998069 
8.6708 22.3876 19.5943 0 2 1.786 0.01658 -0.0113738 
8.72905 22.3807 19.898 0 2 1.6879 0.0164748 -0.013666 
8.78991 22.3727 20.199 0 2 1.61717 0.0163939 -0.0152602 
8.85091 22.3604 20.4967 0 2 1.60689 0.0162558 -0.0177562 
8.90957 22.3408 20.7901 0 2 1.69031 0.0161519 -0.0195017 
8.96341 22.3107 21.0783 0 2 1.73801 0.0159778 -0.0222163 
9.00995 22.2671 21.3605 0 2 1.89688 0.0158495 -0.0240204 
9.04672 22.2069 21.6358 0 2 1.99951 0.0156389 -0.026721 
9.07125 22.1269 21.9034 0 2 2.03795 0.0154866 -0.028527 
9.0817 22.0254 22.1627 0 2 2.08274 0.015325 -0.030342 
9.07884 21.9054 22.4153 0 2 2.16083 0.0150656 -0.0330584 
9.06409 21.7713 22.6628 0 2 2.2146 0.0148817 -0.0348696 
9.03887 21.6275 22.9072 0 2 2.19319 0.0145903 -0.0375995 
9.00459 21.4782 23.1501 0 2 2.23365 0.014386 -0.0394234 
8.96268 21.3279 23.3934 0 2 2.2888 0.0140662 -0.042018 
8.91455 21.1809 23.639 0 2 2.31838 0.0138454 -0.0436281 
8.86162 21.0415 23.8885 0 2 2.29759 0.0135054 -0.0458346 
8.80531 20.9141 24.1439 0 2 2.27996 0.013274 -0.047152 
8.74704 20.8031 24.4069 0 2 2.31493 0.0129226 -0.0489324 
8.68809 20.7115 24.6788 0 2 2.29243 0.012687 -0.0499652 
8.62925 20.6374 24.9588 0 2 2.28329 0.0123342 -0.0512237 
8.57118 20.5774 25.2458 0 2 2.30209 0.012101 -0.0518382 
8.51451 20.5284 25.5384 0 2 2.22484 0.0117564 -0.0524565 
8.45992 20.487 25.8353 0 2 2.22205 0.0115318 -0.0526304 
8.40806 20.45 26.1352 0 2 2.38894 0.0112052 -0.0524504 
8.35957 20.4142 26.437 0 2 2.31909 0.0109955 -0.0520024 
8.31511 20.3763 26.7392 0 2 2.3645 0.0106952 -0.0509721 
8.27535 20.333 27.0407 0 2 2.14426 0.0105051 -0.0500316 
8.24092 20.2811 27.3401 0 2 2.07678 0.0102366 -0.0481867 
8.21229 20.2182 27.6366 0 2 2.06573 0.0100693 -0.0466531 
8.18915 20.1455 27.9304 0 2 2.06963 0.0099117 -0.0449555 
8.171 20.0652 28.2221 0 2 2.10852 0.00969332 -0.042129 
8.15732 19.9791 28.5124 0 2 2.08328 0.00955967 -0.0400597 
8.14762 19.8896 28.8019 0 2 2.1328 0.00937696 -0.0366947 
8.14139 19.7986 29.0912 0 2 2.06729 0.00926674 -0.0343402 
8.13813 19.7083 29.3809 0 2 2.06062 0.00911791 -0.0307073 
8.13732 19.6207 29.6718 0 2 1.97313 0.00902916 -0.0282395 
8.13846 19.5379 29.9643 0 2 1.97713 0.00891088 -0.0245153 
8.14106 19.462 30.2592 0 2 2.05712 0.00884133 -0.0221015 
8.14466 19.3947 30.5569 0 2 2.13481 0.00874958 -0.0186651 
8.14912 19.3354 30.8572 0 2 2.22978 0.008696 -0.0165202 
8.15433 19.2834 31.16 0 2 2.2159 0.00862571 -0.013558 
8.1602 19.2376 31.4648 0 2 2.27767 0.00858483 -0.0117805 
8.16663 19.1973 31.7713 0 2 2.28055 0.00853116 -0.00944101 
8.17354 19.1614 32.0794 0 2 2.27336 0.00849973 -0.00811037 
8.18082 19.1292 32.3886 0 2 2.27277 0.00845788 -0.0064715 
8.18839 19.0996 32.6988 0 2 2.27955 0.00843281 -0.0056157 
8.19615 19.0719 33.0095 0 2 2.19568 0.0083983 -0.00468998 
8.204 19.045 33.3205 0 1 0 0.00837672 -0.00431428 
0 1 1 
1 2 1 
2 3 1 
3 4 1 
4 5 1 
5 6 1 
6 7 1 
7 8 1 
8 9 1 
9 10 1 
10 11 1 
11 12 1 
12 13 1 
13 14 1 
14 15 1 
15 16 1 
16 17 1 
17 18 1 
18 19 1 
19 20 1 
20 21 1 
21 22 1 
22 23 1 
23 24 1 
24 25 1 
25 26 1 
26 27 1 
27 28 1 
28 29 1 
29 30 1 
30 31 1 
31 32 1 
32 33 1 
33 34 1 
34 35 1 
35 36 1 
36 37 1 
37 38 1 
38 39 1 
39 40 1 
40 41 1 
41 42 1 
42 43 1 
43 44 1 
44 45 1 
45 46 1 
46 47 1 
47 48 1 
48 49 1 
49 50 1 
50 51 1 
51 52 1 
52 53 1 
53 54 1 
54 55 1 
55 56 1 
56 57 1 
57 58 1 
58 59 1 
59 60 1 
1 61 0 1 2 3 4 5 6 7 8 9 10 11 12 13 14 15 16 17 18 19 20 21 22 23 24 25 26 27 28 29 30 31 32 33 34 35 36 37 38 39 40 41 42 43 44 45 46 47 48 49 50 51 52 53 54 55 56 57 58 59 60 
