ply
format ascii 1.0
comment written by koba@oshima.lab
element vertex 61
property float x
property float y
property float z
property int label
property int attribute
property float radius
property float curvature
property float torsion
element edge 60
property int vertex1
property int vertex2
property int label
element vertex_seq 1
property int label
property list int int vertex_indices
end_header
8.497 22.854 15.9231 0 1 0 0.0170289 -0.00164356 
8.48384 22.7959 16.2306 0 2 2.81397 0.0170207 -0.00172055 
8.47177 22.7385 16.538 0 2 2.77211 0.0170115 -0.00187263 
8.46188 22.6829 16.8453 0 2 2.70733 0.0169949 -0.00224217 
8.45524 22.6297 17.1525 0 2 2.64266 0.0169816 -0.00258336 
8.45296 22.5798 17.4594 0 2 2.52948 0.0169572 -0.00324962 
8.45611 22.5341 17.7661 0 2 2.46424 0.0169375 -0.00381621 
8.46578 22.4933 18.0725 0 2 2.22978 0.0169012 -0.00485544 
8.48306 22.4583 18.3784 0 2 2.02327 0.016872 -0.00567689 
8.50904 22.43 18.684 0 2 1.86659 0.0168192 -0.00710848 
8.5448 22.4091 18.9891 0 2 1.83488 0.0167772 -0.00820189 
8.59082 22.3958 19.2935 0 2 1.80028 0.0167024 -0.0100609 
8.64512 22.3876 19.5966 0 2 1.76528 0.0166438 -0.0114535 
8.70509 22.3815 19.8978 0 2 1.69679 0.0165411 -0.0137423 
8.76814 22.3743 20.1961 0 2 1.5962 0.0164622 -0.0153342 
8.83168 22.3628 20.491 0 2 1.60704 0.0163272 -0.0178269 
8.89311 22.344 20.7816 0 2 1.66923 0.0162256 -0.0195702 
8.94984 22.3147 21.0672 0 2 1.71781 0.016055 -0.0222815 
8.99926 22.2718 21.3471 0 2 1.92439 0.0159291 -0.0240839 
9.03878 22.2122 21.6206 0 2 1.99257 0.0157221 -0.0267829 
9.0658 22.1326 21.8868 0 2 2.05244 0.0155722 -0.0285885 
9.0784 22.0314 22.1455 0 2 2.07726 0.015413 -0.0304037 
9.07736 21.9115 22.3979 0 2 2.14262 0.0151571 -0.0331229 
9.06411 21.7774 22.6458 0 2 2.2214 0.0149755 -0.034938 
9.04009 21.6334 22.8909 0 2 2.18416 0.014687 -0.0376781 
9.00676 21.4839 23.1348 0 2 2.21889 0.0144845 -0.0395113 
8.96554 21.3333 23.3793 0 2 2.26274 0.0141669 -0.0421065 
8.9179 21.1859 23.6262 0 2 2.24714 0.0139474 -0.0437059 
8.86526 21.0461 23.877 0 2 2.31491 0.0136092 -0.0458773 
8.80907 20.9183 24.1335 0 2 2.29536 0.013379 -0.0471585 
8.75077 20.8069 24.3974 0 2 2.32706 0.0130293 -0.0488823 
8.69169 20.715 24.6699 0 2 2.30037 0.0127948 -0.0498778 
8.63261 20.6405 24.9503 0 2 2.28772 0.0124436 -0.0510817 
8.57423 20.5802 25.2374 0 2 2.30388 0.0122113 -0.0516615 
8.5172 20.5309 25.5299 0 2 2.22474 0.0118681 -0.0522283 
8.4622 20.4893 25.8267 0 2 2.22076 0.0116443 -0.0523687 
8.40991 20.4521 26.1264 0 2 2.38689 0.0113188 -0.0521417 
8.361 20.4161 26.4279 0 2 2.3171 0.0111098 -0.0516656 
8.31614 20.3781 26.73 0 2 2.36309 0.0108103 -0.0506006 
8.27602 20.3347 27.0314 0 2 2.14401 0.0106207 -0.049643 
8.24129 20.2827 27.3308 0 2 2.08675 0.0103527 -0.047784 
8.21244 20.2197 27.6275 0 2 2.06917 0.0101857 -0.046249 
8.18916 20.1469 27.9216 0 2 2.07464 0.0100282 -0.0445529 
8.17092 20.0665 28.2138 0 2 2.10553 0.00980998 -0.0417323 
8.15721 19.9805 28.5047 0 2 2.0906 0.00967635 -0.0396694 
8.14751 19.8909 28.7948 0 2 2.14101 0.00949359 -0.0363172 
8.14132 19.7999 29.0848 0 2 2.07567 0.00938329 -0.0339747 
8.13811 19.7096 29.3753 0 2 2.06912 0.0092343 -0.0303651 
8.13737 19.6219 29.6669 0 2 1.98113 0.00914541 -0.0279161 
8.13858 19.5391 29.9602 0 2 1.98476 0.00902689 -0.024224 
8.14123 19.4632 30.2557 0 2 2.0644 0.00895716 -0.021833 
8.14488 19.3958 30.554 0 2 2.11688 0.0088651 -0.0184312 
8.14935 19.3365 30.8548 0 2 2.07165 0.0088113 -0.0163093 
8.15457 19.2843 31.158 0 2 2.14394 0.00874067 -0.0133802 
8.16043 19.2384 31.4632 0 2 2.28252 0.00869955 -0.0116235 
8.16685 19.198 31.7701 0 2 2.28482 0.0086455 -0.00931253 
8.17372 19.162 32.0785 0 2 2.27714 0.00861382 -0.00799879 
8.18097 19.1296 32.388 0 2 2.27618 0.00857156 -0.00638162 
8.18849 19.0999 32.6983 0 2 2.2827 0.00854621 -0.00553737 
8.1962 19.072 33.0093 0 2 2.19855 0.00851127 -0.00462414 
8.204 19.045 33.3205 0 1 0 0.0084894 -0.00425345 
0 1 1 
1 2 1 
2 3 1 
3 4 1 
4 5 1 
5 6 1 
6 7 1 
7 8 1 
8 9 1 
9 10 1 
10 11 1 
11 12 1 
12 13 1 
13 14 1 
14 15 1 
15 16 1 
16 17 1 
17 18 1 
18 19 1 
19 20 1 
20 21 1 
21 22 1 
22 23 1 
23 24 1 
24 25 1 
25 26 1 
26 27 1 
27 28 1 
28 29 1 
29 30 1 
30 31 1 
31 32 1 
32 33 1 
33 34 1 
34 35 1 
35 36 1 
36 37 1 
37 38 1 
38 39 1 
39 40 1 
40 41 1 
41 42 1 
42 43 1 
43 44 1 
44 45 1 
45 46 1 
46 47 1 
47 48 1 
48 49 1 
49 50 1 
50 51 1 
51 52 1 
52 53 1 
53 54 1 
54 55 1 
55 56 1 
56 57 1 
57 58 1 
58 59 1 
59 60 1 
1 61 0 1 2 3 4 5 6 7 8 9 10 11 12 13 14 15 16 17 18 19 20 21 22 23 24 25 26 27 28 29 30 31 32 33 34 35 36 37 38 39 40 41 42 43 44 45 46 47 48 49 50 51 52 53 54 55 56 57 58 59 60 
