ply
format ascii 1.0
comment written by koba@oshima.lab
element vertex 61
property float x
property float y
property float z
property int label
property int attribute
property float radius
property float curvature
property float torsion
element edge 60
property int vertex1
property int vertex2
property int label
element vertex_seq 1
property int label
property list int int vertex_indices
end_header
8.497 22.854 15.9231 0 1 0 0.0167048 -0.00174913 
8.48422 22.7957 16.2283 0 2 2.77855 0.0166957 -0.00183115 
8.47249 22.7382 16.5334 0 2 2.73614 0.0166856 -0.00199309 
8.46286 22.6824 16.8383 0 2 2.71126 0.0166678 -0.00238653 
8.45637 22.6291 17.1429 0 2 2.63169 0.0166537 -0.00274977 
8.45407 22.5792 17.4472 0 2 2.52613 0.0166281 -0.00345907 
8.45702 22.5335 17.751 0 2 2.44687 0.0166076 -0.00406224 
8.46625 22.4928 18.0543 0 2 2.2348 0.0165703 -0.0051686 
8.48283 22.458 18.3569 0 2 2.1258 0.0165403 -0.00604318 
8.50779 22.4299 18.6587 0 2 1.90148 0.0164865 -0.00756747 
8.54218 22.4093 18.9597 0 2 1.80984 0.0164438 -0.00873163 
8.58648 22.3965 19.2597 0 2 1.77746 0.0163682 -0.010711 
8.63884 22.389 19.5582 0 2 1.72433 0.016309 -0.012194 
8.69682 22.3838 19.8546 0 2 1.66941 0.0162057 -0.0146351 
8.758 22.3777 20.1484 0 2 1.58658 0.0161264 -0.0163409 
8.81995 22.3677 20.439 0 2 1.61885 0.0159911 -0.0190252 
8.88024 22.3507 20.7257 0 2 1.63207 0.0158893 -0.0209113 
8.93645 22.3236 21.0081 0 2 1.67817 0.0157185 -0.0238599 
8.98614 22.2833 21.2855 0 2 1.95804 0.0155926 -0.0258336 
9.02689 22.2269 21.5574 0 2 1.97119 0.0153858 -0.0288112 
9.05627 22.1511 21.8233 0 2 2.02936 0.0152363 -0.0308185 
9.07244 22.0541 22.0827 0 2 2.07218 0.0150775 -0.0328483 
9.07592 21.9388 22.3368 0 2 2.12034 0.0148225 -0.0359009 
9.06782 21.8094 22.5868 0 2 2.18533 0.0146417 -0.0379458 
9.04925 21.6698 22.834 0 2 2.17686 0.014355 -0.0410439 
9.02132 21.5242 23.0798 0 2 2.21794 0.0141539 -0.043123 
8.98515 21.3766 23.3253 0 2 2.27479 0.0138393 -0.0460628 
8.94184 21.2313 23.5719 0 2 2.26352 0.0136225 -0.0478686 
8.8925 21.0921 23.8209 0 2 2.3386 0.0132895 -0.0503049 
8.83824 20.9634 24.0735 0 2 2.27849 0.0130639 -0.0517297 
8.78017 20.849 24.3311 0 2 2.2786 0.0127226 -0.0536499 
8.71942 20.7521 24.5946 0 2 2.30587 0.0124947 -0.0547635 
8.6571 20.6708 24.8639 0 2 2.26511 0.0121549 -0.0561197 
8.59438 20.6026 25.1384 0 2 2.25077 0.0119311 -0.0567831 
8.53239 20.5446 25.4174 0 2 2.24114 0.0116019 -0.0574732 
8.47227 20.494 25.7006 0 2 2.26616 0.0113879 -0.0576982 
8.41516 20.4481 25.9874 0 2 2.27961 0.0110774 -0.0576046 
8.36222 20.4041 26.2772 0 2 2.31981 0.0108785 -0.0572204 
8.31458 20.3592 26.5695 0 2 2.14888 0.0105937 -0.0562535 
8.27338 20.3107 26.8638 0 2 2.16028 0.0104137 -0.0553292 
8.23977 20.2557 27.1595 0 2 2.07661 0.0101593 -0.0534683 
8.21452 20.1923 27.4562 0 2 2.04074 0.0100008 -0.051894 
8.19695 20.1214 27.7539 0 2 2.07445 0.00985135 -0.0501131 
8.18602 20.0446 28.0526 0 2 2.1105 0.00964429 -0.047069 
8.18068 19.9635 28.3524 0 2 2.0791 0.00951762 -0.0447885 
8.17988 19.8799 28.6534 0 2 2.0983 0.00934462 -0.041006 
8.18257 19.7954 28.9556 0 2 2.06666 0.00924041 -0.0383411 
8.1877 19.7117 29.2592 0 2 2.01121 0.00909992 -0.0342184 
8.19423 19.6303 29.5642 0 2 1.97068 0.00901629 -0.0314092 
8.20111 19.553 29.8706 0 2 1.96817 0.00890503 -0.027157 
8.2073 19.4814 30.1786 0 2 1.98856 0.00883973 -0.024409 
8.21194 19.4168 30.4882 0 2 2.01836 0.00875369 -0.0205173 
8.21501 19.3588 30.7992 0 2 2.08053 0.00870349 -0.0181017 
8.21669 19.3066 31.1116 0 2 2.25515 0.00863762 -0.0147849 
8.21715 19.2597 31.425 0 2 2.29993 0.00859927 -0.0128071 
8.21655 19.2172 31.7395 0 2 2.27623 0.00854881 -0.0102225 
8.21509 19.1783 32.0547 0 2 2.27029 0.00851916 -0.0087656 
8.21293 19.1424 32.3706 0 2 2.29528 0.00847948 -0.00699124 
8.21024 19.1087 32.687 0 2 2.28909 0.00845557 -0.00606857 
8.20721 19.0765 33.0037 0 2 2.1396 0.00842249 -0.00506988 
8.204 19.045 33.3205 0 1 0 0.00840172 -0.00466353 
0 1 1 
1 2 1 
2 3 1 
3 4 1 
4 5 1 
5 6 1 
6 7 1 
7 8 1 
8 9 1 
9 10 1 
10 11 1 
11 12 1 
12 13 1 
13 14 1 
14 15 1 
15 16 1 
16 17 1 
17 18 1 
18 19 1 
19 20 1 
20 21 1 
21 22 1 
22 23 1 
23 24 1 
24 25 1 
25 26 1 
26 27 1 
27 28 1 
28 29 1 
29 30 1 
30 31 1 
31 32 1 
32 33 1 
33 34 1 
34 35 1 
35 36 1 
36 37 1 
37 38 1 
38 39 1 
39 40 1 
40 41 1 
41 42 1 
42 43 1 
43 44 1 
44 45 1 
45 46 1 
46 47 1 
47 48 1 
48 49 1 
49 50 1 
50 51 1 
51 52 1 
52 53 1 
53 54 1 
54 55 1 
55 56 1 
56 57 1 
57 58 1 
58 59 1 
59 60 1 
1 61 0 1 2 3 4 5 6 7 8 9 10 11 12 13 14 15 16 17 18 19 20 21 22 23 24 25 26 27 28 29 30 31 32 33 34 35 36 37 38 39 40 41 42 43 44 45 46 47 48 49 50 51 52 53 54 55 56 57 58 59 60 
