ply
format ascii 1.0
comment written by koba@oshima.lab
element vertex 61
property float x
property float y
property float z
property int label
property int attribute
property float radius
property float curvature
property float torsion
element edge 60
property int vertex1
property int vertex2
property int label
element vertex_seq 1
property int label
property list int int vertex_indices
end_header
8.497 22.854 15.9231 0 1 0 0.0167061 -0.00168846 
8.48445 22.7917 16.2295 0 2 2.80921 0.0166971 -0.00176746 
8.47295 22.7304 16.5358 0 2 2.76587 0.0166871 -0.00192363 
8.46354 22.6708 16.8419 0 2 2.69878 0.0166694 -0.00230326 
8.45729 22.614 17.1478 0 2 2.64626 0.0166554 -0.00265382 
8.45522 22.5609 17.4532 0 2 2.52947 0.0166301 -0.00333895 
8.45841 22.5124 17.7582 0 2 2.4693 0.0166097 -0.00392276 
8.46788 22.4693 18.0627 0 2 2.23885 0.0165727 -0.00499511 
8.4847 22.4326 18.3665 0 2 2.03216 0.016543 -0.0058436 
8.50991 22.4033 18.6696 0 2 1.87004 0.0164896 -0.00732389 
8.54456 22.3822 18.9718 0 2 1.83378 0.0164472 -0.00845611 
8.58912 22.3695 19.273 0 2 1.77827 0.0163721 -0.0103834 
8.64172 22.3628 19.5727 0 2 1.72673 0.0163133 -0.0118286 
8.69992 22.3589 19.8702 0 2 1.65895 0.0162108 -0.01421 
8.76129 22.3546 20.165 0 2 1.58735 0.016132 -0.0158775 
8.82336 22.3466 20.4565 0 2 1.61737 0.0159975 -0.0185067 
8.88372 22.3319 20.744 0 2 1.63771 0.0158962 -0.0203577 
8.9399 22.3072 21.0269 0 2 1.69009 0.0157262 -0.0232526 
8.98946 22.2693 21.3047 0 2 1.92098 0.0156007 -0.0251843 
9.02997 22.215 21.5767 0 2 1.96392 0.0153947 -0.0280877 
9.05898 22.1412 21.8423 0 2 2.04436 0.0152457 -0.0300371 
9.07464 22.0459 22.1012 0 2 2.07351 0.0150875 -0.0320032 
9.0775 21.932 22.3545 0 2 2.11535 0.0148336 -0.0349679 
9.0687 21.8036 22.6035 0 2 2.16668 0.0146536 -0.0369617 
9.04939 21.6648 22.8496 0 2 2.1586 0.014368 -0.0399954 
9.02072 21.5199 23.0941 0 2 2.2003 0.0141676 -0.04204 
8.98382 21.3728 23.3383 0 2 2.27131 0.0138538 -0.0449348 
8.93984 21.2277 23.5837 0 2 2.28477 0.0136373 -0.0467153 
8.88992 21.0888 23.8316 0 2 2.32486 0.0133046 -0.0491228 
8.83521 20.9601 24.0833 0 2 2.26738 0.0130789 -0.0505353 
8.77685 20.8459 24.3401 0 2 2.27028 0.0127373 -0.0524425 
8.71599 20.7491 24.6032 0 2 2.30049 0.012509 -0.0535516 
8.65373 20.668 24.8722 0 2 2.26244 0.0121684 -0.0549087 
8.59119 20.5999 25.1466 0 2 2.25021 0.0119438 -0.0555781 
8.5295 20.542 25.4257 0 2 2.24175 0.0116133 -0.0562805 
8.46976 20.4915 25.7091 0 2 2.26767 0.0113983 -0.0565157 
8.41308 20.4458 25.9961 0 2 2.28153 0.0110862 -0.0564404 
8.36059 20.4019 26.2862 0 2 2.32168 0.0108861 -0.0560706 
8.31339 20.3571 26.5787 0 2 2.15036 0.0105996 -0.0551323 
8.27261 20.3087 26.8731 0 2 2.16056 0.0104184 -0.0542321 
8.23934 20.2538 27.1687 0 2 2.07521 0.0101623 -0.0524152 
8.21436 20.1906 27.4653 0 2 2.03765 0.0100026 -0.0508755 
8.19698 20.1197 27.7626 0 2 2.06985 0.00985209 -0.0491338 
8.18617 20.043 28.0609 0 2 2.1046 0.00964346 -0.0461572 
8.18088 19.9621 28.3602 0 2 2.03831 0.0095158 -0.0439274 
8.18009 19.8785 28.6606 0 2 2.03837 0.00934139 -0.0402293 
8.18275 19.7941 28.9622 0 2 2.10707 0.00923632 -0.037623 
8.18783 19.7104 29.2651 0 2 2.00349 0.00909463 -0.0335891 
8.1943 19.6291 29.5694 0 2 1.96317 0.00901026 -0.0308395 
8.20111 19.5519 29.8751 0 2 2.00971 0.00889802 -0.0266761 
8.20723 19.4804 30.1825 0 2 2.03063 0.00883214 -0.0239838 
8.21183 19.4159 30.4915 0 2 2.01222 0.00874533 -0.0201682 
8.21487 19.3579 30.802 0 2 2.07481 0.00869468 -0.0177981 
8.21653 19.3059 31.1139 0 2 2.24953 0.00862825 -0.0145414 
8.21699 19.2591 31.4269 0 2 2.27561 0.00858958 -0.0125985 
8.21641 19.2166 31.741 0 2 2.28419 0.00853871 -0.0100587 
8.21496 19.1779 32.0559 0 2 2.27866 0.00850884 -0.00862655 
8.21282 19.1421 32.3715 0 2 2.29125 0.00846889 -0.00688169 
8.21017 19.1085 32.6875 0 2 2.28528 0.00844482 -0.00597416 
8.20717 19.0764 33.0039 0 2 2.13618 0.00841155 -0.00499174 
8.204 19.045 33.3205 0 1 0 0.00839066 -0.00459195 
0 1 1 
1 2 1 
2 3 1 
3 4 1 
4 5 1 
5 6 1 
6 7 1 
7 8 1 
8 9 1 
9 10 1 
10 11 1 
11 12 1 
12 13 1 
13 14 1 
14 15 1 
15 16 1 
16 17 1 
17 18 1 
18 19 1 
19 20 1 
20 21 1 
21 22 1 
22 23 1 
23 24 1 
24 25 1 
25 26 1 
26 27 1 
27 28 1 
28 29 1 
29 30 1 
30 31 1 
31 32 1 
32 33 1 
33 34 1 
34 35 1 
35 36 1 
36 37 1 
37 38 1 
38 39 1 
39 40 1 
40 41 1 
41 42 1 
42 43 1 
43 44 1 
44 45 1 
45 46 1 
46 47 1 
47 48 1 
48 49 1 
49 50 1 
50 51 1 
51 52 1 
52 53 1 
53 54 1 
54 55 1 
55 56 1 
56 57 1 
57 58 1 
58 59 1 
59 60 1 
1 61 0 1 2 3 4 5 6 7 8 9 10 11 12 13 14 15 16 17 18 19 20 21 22 23 24 25 26 27 28 29 30 31 32 33 34 35 36 37 38 39 40 41 42 43 44 45 46 47 48 49 50 51 52 53 54 55 56 57 58 59 60 
