ply
format ascii 1.0
comment written by koba@oshima.lab
element vertex 61
property float x
property float y
property float z
property int label
property int attribute
property float radius
property float curvature
property float torsion
element edge 60
property int vertex1
property int vertex2
property int label
element vertex_seq 1
property int label
property list int int vertex_indices
end_header
8.497 22.854 15.9231 0 1 0 0.0153455 -0.0020129 
8.48464 22.7937 16.2344 0 2 2.80994 0.0153353 -0.00210714 
8.47336 22.7343 16.5457 0 2 2.73629 0.0153242 -0.00229333 
8.46421 22.6765 16.8566 0 2 2.67901 0.0153051 -0.00274586 
8.45827 22.6211 17.1673 0 2 2.60142 0.0152903 -0.00316373 
8.45662 22.569 17.4774 0 2 2.57856 0.015264 -0.00398016 
8.46032 22.521 17.787 0 2 2.47616 0.0152432 -0.00467522 
8.47044 22.4778 18.0959 0 2 2.22365 0.0152058 -0.00595134 
8.48805 22.4404 18.4039 0 2 1.95637 0.0151761 -0.00696096 
8.51422 22.4096 18.711 0 2 1.86884 0.0151231 -0.00872255 
8.55003 22.3861 19.017 0 2 1.85168 0.0150813 -0.0100702 
8.59593 22.3701 19.3217 0 2 1.78015 0.0150075 -0.0123651 
8.64997 22.3593 19.6248 0 2 1.74987 0.0149501 -0.0140873 
8.70958 22.3508 19.9255 0 2 1.66999 0.0148501 -0.0169291 
8.7722 22.3416 20.2233 0 2 1.59085 0.0147737 -0.0189246 
8.83527 22.3287 20.5177 0 2 1.64789 0.0146435 -0.0220803 
8.89621 22.3091 20.8082 0 2 1.64817 0.0145459 -0.0243084 
8.95247 22.2799 21.0941 0 2 1.70167 0.0143826 -0.027809 
9.00147 22.2382 21.3749 0 2 1.93104 0.0142625 -0.0301656 
9.04066 22.181 21.65 0 2 2.02245 0.0140659 -0.0337416 
9.06747 22.1053 21.9189 0 2 2.03576 0.0139241 -0.0361662 
9.07999 22.0092 22.1814 0 2 2.09466 0.013774 -0.0386315 
9.07893 21.8956 22.4384 0 2 2.14887 0.0135339 -0.0423933 
9.06566 21.7681 22.6912 0 2 2.18574 0.0133642 -0.0449536 
9.04155 21.6307 22.9413 0 2 2.20886 0.013096 -0.0488959 
9.00798 21.4872 23.1898 0 2 2.22583 0.0129086 -0.0515848 
8.96631 21.3414 23.4381 0 2 2.26882 0.0126163 -0.0554552 
8.91791 21.1971 23.6876 0 2 2.26825 0.0124158 -0.0578844 
8.86414 21.0581 23.9395 0 2 2.28206 0.012109 -0.0612539 
8.80639 20.9284 24.1952 0 2 2.31332 0.011902 -0.0632927 
8.74602 20.8116 24.456 0 2 2.32877 0.0115904 -0.0660828 
8.68432 20.7107 24.7228 0 2 2.26564 0.0113836 -0.0677291 
8.62232 20.6242 24.9955 0 2 2.25345 0.0110773 -0.0697915 
8.56097 20.5497 25.2736 0 2 2.31362 0.0108769 -0.0708515 
8.5012 20.4848 25.5565 0 2 2.27716 0.0105845 -0.0720239 
8.44396 20.4271 25.8437 0 2 2.1804 0.010396 -0.0724848 
8.39021 20.3742 26.1346 0 2 2.33481 0.0101247 -0.0725955 
8.34088 20.3236 26.4288 0 2 2.13784 0.00995251 -0.0722368 
8.29693 20.2729 26.7257 0 2 2.15684 0.00970825 -0.0711292 
8.2593 20.2197 27.0247 0 2 2.10532 0.00955531 -0.0699834 
8.22893 20.1616 27.3255 0 2 2.06392 0.00934146 -0.0675878 
8.20645 20.0968 27.6274 0 2 2.07834 0.00920962 -0.0655231 
8.19119 20.0262 27.9305 0 2 2.12995 0.00908642 -0.0631789 
8.18213 19.9511 28.2349 0 2 2.07766 0.00891752 -0.0591699 
8.17828 19.8731 28.5405 0 2 2.02925 0.00881528 -0.0561717 
8.17863 19.7935 28.8475 0 2 2.05937 0.00867708 -0.0512173 
8.18219 19.7139 29.1559 0 2 2.0285 0.00859466 -0.0477537 
8.18794 19.6357 29.4658 0 2 2.01613 0.00848449 -0.0424437 
8.19489 19.5603 29.7772 0 2 1.98472 0.00841941 -0.0388574 
8.20204 19.4893 30.0901 0 2 2.00207 0.00833335 -0.033474 
8.20837 19.424 30.4047 0 2 2.01709 0.00828308 -0.030019 
8.2131 19.3655 30.721 0 2 2.05234 0.00821701 -0.0251547 
8.21619 19.3136 31.0388 0 2 2.13176 0.00817849 -0.0221506 
8.21784 19.2674 31.3579 0 2 2.24402 0.0081279 -0.0180432 
8.21821 19.2262 31.6782 0 2 2.22969 0.00809833 -0.0156068 
8.2175 19.1894 31.9995 0 2 2.23545 0.00805921 -0.0124406 
8.21589 19.1562 32.3217 0 2 2.23777 0.00803604 -0.0106663 
8.21355 19.1259 32.6445 0 2 2.2421 0.00800474 -0.00851846 
8.21067 19.0977 32.9678 0 2 2.14761 0.00798569 -0.00740307 
8.20743 19.071 33.2915 0 2 2.12374 0.00795909 -0.00619173 
8.204 19.045 33.6154 0 1 0 0.00794226 -0.0056941 
0 1 1 
1 2 1 
2 3 1 
3 4 1 
4 5 1 
5 6 1 
6 7 1 
7 8 1 
8 9 1 
9 10 1 
10 11 1 
11 12 1 
12 13 1 
13 14 1 
14 15 1 
15 16 1 
16 17 1 
17 18 1 
18 19 1 
19 20 1 
20 21 1 
21 22 1 
22 23 1 
23 24 1 
24 25 1 
25 26 1 
26 27 1 
27 28 1 
28 29 1 
29 30 1 
30 31 1 
31 32 1 
32 33 1 
33 34 1 
34 35 1 
35 36 1 
36 37 1 
37 38 1 
38 39 1 
39 40 1 
40 41 1 
41 42 1 
42 43 1 
43 44 1 
44 45 1 
45 46 1 
46 47 1 
47 48 1 
48 49 1 
49 50 1 
50 51 1 
51 52 1 
52 53 1 
53 54 1 
54 55 1 
55 56 1 
56 57 1 
57 58 1 
58 59 1 
59 60 1 
1 61 0 1 2 3 4 5 6 7 8 9 10 11 12 13 14 15 16 17 18 19 20 21 22 23 24 25 26 27 28 29 30 31 32 33 34 35 36 37 38 39 40 41 42 43 44 45 46 47 48 49 50 51 52 53 54 55 56 57 58 59 60 
