ply
format ascii 1.0
comment written by koba@oshima.lab
element vertex 61
property float x
property float y
property float z
property int label
property int attribute
property float radius
property float curvature
property float torsion
element edge 60
property int vertex1
property int vertex2
property int label
element vertex_seq 1
property int label
property list int int vertex_indices
end_header
8.497 22.854 15.9231 0 1 0 0.0151785 -0.00201242 
8.48489 22.7941 16.2389 0 2 2.78716 0.0151681 -0.00210645 
8.47386 22.7351 16.5546 0 2 2.73167 0.0151568 -0.00229243 
8.465 22.6776 16.8699 0 2 2.68728 0.0151375 -0.00274465 
8.45939 22.6225 17.1848 0 2 2.66152 0.0151225 -0.00316235 
8.45812 22.5706 17.499 0 2 2.62007 0.0150959 -0.00397837 
8.46227 22.5226 17.8125 0 2 2.5101 0.0150748 -0.00467268 
8.47292 22.4794 18.125 0 2 2.21409 0.015037 -0.00594704 
8.49116 22.4417 18.4364 0 2 1.97678 0.0150069 -0.00695514 
8.51808 22.4103 18.7465 0 2 1.90024 0.0149533 -0.00871331 
8.55475 22.3861 19.0551 0 2 1.84539 0.014911 -0.0100566 
8.60163 22.3691 19.3621 0 2 1.8033 0.0148364 -0.0123422 
8.65671 22.3571 19.6671 0 2 1.74924 0.0147783 -0.0140563 
8.71731 22.3471 19.9696 0 2 1.67003 0.0146772 -0.0168854 
8.7808 22.3361 20.2691 0 2 1.59289 0.0145999 -0.0188747 
8.84451 22.3211 20.5652 0 2 1.59938 0.0144683 -0.0220255 
8.90578 22.2992 20.8574 0 2 1.66728 0.0143695 -0.0242539 
8.96197 22.2674 21.1453 0 2 1.70306 0.0142043 -0.027763 
9.01043 22.2228 21.4283 0 2 1.89943 0.0140827 -0.0301342 
9.04849 22.1623 21.7062 0 2 2.06301 0.0138835 -0.0337488 
9.0735 22.083 21.9783 0 2 2.08216 0.0137397 -0.0362118 
9.08351 21.9831 22.2445 0 2 2.17253 0.0135873 -0.0387248 
9.07935 21.8654 22.5058 0 2 2.19217 0.0133431 -0.042549 
9.06257 21.7341 22.7633 0 2 2.22775 0.0131705 -0.0451418 
9.03471 21.593 23.0182 0 2 2.2722 0.0128978 -0.0491167 
8.99731 21.4462 23.2718 0 2 2.304 0.0127073 -0.0518159 
8.9519 21.2977 23.5252 0 2 2.29307 0.0124107 -0.0556899 
8.90003 21.1516 23.7796 0 2 2.32845 0.0122073 -0.0581122 
8.84323 21.0118 24.0362 0 2 2.28519 0.0118965 -0.0614522 
8.78304 20.8824 24.2963 0 2 2.32221 0.0116872 -0.0634557 
8.72101 20.7673 24.5611 0 2 2.30988 0.0113725 -0.0661672 
8.65855 20.6696 24.8313 0 2 2.23972 0.011164 -0.0677394 
8.59661 20.5876 25.1067 0 2 2.26259 0.0108557 -0.0696489 
8.53602 20.5186 25.3865 0 2 2.26282 0.0106547 -0.0705759 
8.47759 20.4599 25.67 0 2 2.22689 0.0103619 -0.0715252 
8.42216 20.4089 25.9565 0 2 2.2061 0.0101737 -0.0718219 
8.37055 20.3629 26.2453 0 2 2.28407 0.00990366 -0.0716599 
8.32359 20.3191 26.5357 0 2 2.23465 0.00973271 -0.0711044 
8.28209 20.2749 26.8269 0 2 2.16138 0.009491 -0.0697356 
8.2469 20.2276 27.1183 0 2 2.16423 0.00934005 -0.0684489 
8.21883 20.1745 27.4091 0 2 2.12875 0.00912944 -0.065902 
8.1984 20.1136 27.6989 0 2 2.13426 0.00899983 -0.0637824 
8.18494 20.0458 27.9881 0 2 2.14651 0.00887886 -0.0614221 
8.17745 19.9727 28.2773 0 2 2.08615 0.00871314 -0.0574701 
8.17495 19.8957 28.5671 0 2 2.02247 0.00861283 -0.0545693 
8.17645 19.8165 28.8582 0 2 2.05919 0.00847709 -0.0498518 
8.18096 19.7367 29.1512 0 2 2.0654 0.00839599 -0.0465697 
8.18749 19.6577 29.4467 0 2 2.02608 0.00828738 -0.0415421 
8.19506 19.5812 29.7454 0 2 1.97173 0.00822306 -0.0381496 
8.20268 19.5088 30.0478 0 2 1.99536 0.00813777 -0.0330587 
8.20936 19.4419 30.3547 0 2 2.01312 0.00808779 -0.0297725 
8.21431 19.3818 30.6664 0 2 2.00041 0.00802196 -0.0251024 
8.21753 19.3282 30.9826 0 2 2.10792 0.00798351 -0.0221869 
8.21921 19.2803 31.3029 0 2 2.23992 0.00793298 -0.0181519 
8.21954 19.2373 31.6267 0 2 2.24645 0.00790348 -0.0157398 
8.21871 19.1987 31.9535 0 2 2.24573 0.0078645 -0.0125839 
8.21693 19.1637 32.2829 0 2 2.25834 0.00784148 -0.0107996 
8.21437 19.1315 32.6142 0 2 2.24556 0.00781049 -0.00861437 
8.21123 19.1015 32.9471 0 2 2.2433 0.00779171 -0.00747636 
8.20771 19.0729 33.281 0 2 2.23755 0.00776558 -0.00624532 
8.204 19.045 33.6154 0 1 0 0.00774909 -0.00574428 
0 1 1 
1 2 1 
2 3 1 
3 4 1 
4 5 1 
5 6 1 
6 7 1 
7 8 1 
8 9 1 
9 10 1 
10 11 1 
11 12 1 
12 13 1 
13 14 1 
14 15 1 
15 16 1 
16 17 1 
17 18 1 
18 19 1 
19 20 1 
20 21 1 
21 22 1 
22 23 1 
23 24 1 
24 25 1 
25 26 1 
26 27 1 
27 28 1 
28 29 1 
29 30 1 
30 31 1 
31 32 1 
32 33 1 
33 34 1 
34 35 1 
35 36 1 
36 37 1 
37 38 1 
38 39 1 
39 40 1 
40 41 1 
41 42 1 
42 43 1 
43 44 1 
44 45 1 
45 46 1 
46 47 1 
47 48 1 
48 49 1 
49 50 1 
50 51 1 
51 52 1 
52 53 1 
53 54 1 
54 55 1 
55 56 1 
56 57 1 
57 58 1 
58 59 1 
59 60 1 
1 61 0 1 2 3 4 5 6 7 8 9 10 11 12 13 14 15 16 17 18 19 20 21 22 23 24 25 26 27 28 29 30 31 32 33 34 35 36 37 38 39 40 41 42 43 44 45 46 47 48 49 50 51 52 53 54 55 56 57 58 59 60 
