ply
format ascii 1.0
comment written by koba@oshima.lab
element vertex 61
property float x
property float y
property float z
property int label
property int attribute
property float radius
property float curvature
property float torsion
element edge 60
property int vertex1
property int vertex2
property int label
element vertex_seq 1
property int label
property list int int vertex_indices
end_header
8.497 22.854 15.9231 0 1 0 0.0151985 -0.0020093 
8.48489 22.7941 16.2389 0 2 2.78716 0.0151882 -0.00210313 
8.47386 22.7351 16.5546 0 2 2.74059 0.0151769 -0.00228882 
8.465 22.6776 16.8699 0 2 2.68728 0.0151576 -0.00274042 
8.45939 22.6225 17.1848 0 2 2.66152 0.0151426 -0.00315759 
8.45812 22.5706 17.499 0 2 2.62007 0.015116 -0.00397257 
8.46227 22.5226 17.8125 0 2 2.5101 0.015095 -0.0046659 
8.47292 22.4794 18.125 0 2 2.21409 0.0150572 -0.00593835 
8.49116 22.4417 18.4364 0 2 1.97678 0.0150271 -0.00694487 
8.51808 22.4103 18.7465 0 2 1.90024 0.0149734 -0.00870005 
8.55475 22.3861 19.0551 0 2 1.84539 0.0149312 -0.0100407 
8.60163 22.3691 19.3621 0 2 1.8033 0.0148565 -0.0123212 
8.65671 22.3571 19.6671 0 2 1.74924 0.0147984 -0.0140313 
8.71731 22.3471 19.9696 0 2 1.67003 0.0146972 -0.0168531 
8.7808 22.3361 20.2691 0 2 1.59289 0.0146199 -0.0188367 
8.84451 22.3211 20.5652 0 2 1.59938 0.0144882 -0.0219777 
8.90578 22.2992 20.8574 0 2 1.66728 0.0143894 -0.0241986 
8.96197 22.2674 21.1453 0 2 1.70306 0.0142241 -0.027695 
9.01043 22.2228 21.4283 0 2 1.89943 0.0141025 -0.0300571 
9.04849 22.1623 21.7062 0 2 2.06301 0.0139032 -0.0336569 
9.0735 22.083 21.9783 0 2 2.08216 0.0137593 -0.0361091 
9.08351 21.9831 22.2445 0 2 2.17253 0.0136068 -0.0386106 
9.07935 21.8654 22.5058 0 2 2.19217 0.0133624 -0.0424162 
9.06257 21.7341 22.7633 0 2 2.22775 0.0131897 -0.0449954 
9.03471 21.593 23.0182 0 2 2.2722 0.0129169 -0.0489482 
8.99731 21.4462 23.2718 0 2 2.304 0.0127263 -0.0516313 
8.9519 21.2977 23.5252 0 2 2.29307 0.0124295 -0.0554808 
8.90003 21.1516 23.7796 0 2 2.32845 0.012226 -0.0578864 
8.84323 21.0118 24.0362 0 2 2.28519 0.0119151 -0.0612015 
8.78304 20.8824 24.2963 0 2 2.32221 0.0117055 -0.0631884 
8.72101 20.7673 24.5611 0 2 2.30988 0.0113907 -0.0658759 
8.65855 20.6696 24.8313 0 2 2.23972 0.011182 -0.0674333 
8.59661 20.5876 25.1067 0 2 2.26259 0.0108734 -0.0693227 
8.53602 20.5186 25.3865 0 2 2.26282 0.0106721 -0.0702383 
8.47759 20.4599 25.67 0 2 2.23804 0.0103789 -0.0711741 
8.42216 20.4089 25.9565 0 2 2.2061 0.0101904 -0.0714647 
8.37055 20.3629 26.2453 0 2 2.275 0.00991988 -0.0712987 
8.32359 20.3191 26.5357 0 2 2.22556 0.00974859 -0.0707444 
8.28209 20.2749 26.8269 0 2 2.16138 0.00950631 -0.069382 
8.2469 20.2276 27.1183 0 2 2.16423 0.00935495 -0.0681026 
8.21883 20.1745 27.4091 0 2 2.12875 0.00914372 -0.0655715 
8.1984 20.1136 27.6989 0 2 2.13426 0.0090137 -0.0634654 
8.18494 20.0458 27.9881 0 2 2.14651 0.00889231 -0.0611204 
8.17745 19.9727 28.2773 0 2 2.08615 0.00872597 -0.0571941 
8.17495 19.8957 28.5671 0 2 2.02247 0.00862525 -0.0543121 
8.17645 19.8165 28.8582 0 2 2.05919 0.00848893 -0.0496248 
8.18096 19.7367 29.1512 0 2 2.0654 0.00840747 -0.0463628 
8.18749 19.6577 29.4467 0 2 2.02608 0.00829833 -0.0413644 
8.19506 19.5812 29.7454 0 2 1.97173 0.00823369 -0.0379904 
8.20268 19.5088 30.0478 0 2 1.99536 0.00814797 -0.0329256 
8.20936 19.4419 30.3547 0 2 2.01312 0.00809773 -0.0296554 
8.21431 19.3818 30.6664 0 2 2.00041 0.00803155 -0.0250069 
8.21753 19.3282 30.9826 0 2 2.10792 0.0079929 -0.0221043 
8.21921 19.2803 31.3029 0 2 2.23992 0.00794211 -0.0180862 
8.21954 19.2373 31.6267 0 2 2.24645 0.00791246 -0.0156837 
8.21871 19.1987 31.9535 0 2 2.24573 0.00787329 -0.0125401 
8.21693 19.1637 32.2829 0 2 2.25834 0.00785016 -0.0107624 
8.21437 19.1315 32.6142 0 2 2.24556 0.00781904 -0.00858493 
8.21123 19.1015 32.9471 0 2 2.2433 0.00780018 -0.00745086 
8.20771 19.0729 33.281 0 2 2.23755 0.00777395 -0.00622402 
8.204 19.045 33.6154 0 1 0 0.0077574 -0.00572468 
0 1 1 
1 2 1 
2 3 1 
3 4 1 
4 5 1 
5 6 1 
6 7 1 
7 8 1 
8 9 1 
9 10 1 
10 11 1 
11 12 1 
12 13 1 
13 14 1 
14 15 1 
15 16 1 
16 17 1 
17 18 1 
18 19 1 
19 20 1 
20 21 1 
21 22 1 
22 23 1 
23 24 1 
24 25 1 
25 26 1 
26 27 1 
27 28 1 
28 29 1 
29 30 1 
30 31 1 
31 32 1 
32 33 1 
33 34 1 
34 35 1 
35 36 1 
36 37 1 
37 38 1 
38 39 1 
39 40 1 
40 41 1 
41 42 1 
42 43 1 
43 44 1 
44 45 1 
45 46 1 
46 47 1 
47 48 1 
48 49 1 
49 50 1 
50 51 1 
51 52 1 
52 53 1 
53 54 1 
54 55 1 
55 56 1 
56 57 1 
57 58 1 
58 59 1 
59 60 1 
1 61 0 1 2 3 4 5 6 7 8 9 10 11 12 13 14 15 16 17 18 19 20 21 22 23 24 25 26 27 28 29 30 31 32 33 34 35 36 37 38 39 40 41 42 43 44 45 46 47 48 49 50 51 52 53 54 55 56 57 58 59 60 
