ply
format ascii 1.0
comment written by koba@oshima.lab
element vertex 61
property float x
property float y
property float z
property int label
property int attribute
property float radius
property float curvature
property float torsion
element edge 60
property int vertex1
property int vertex2
property int label
element vertex_seq 1
property int label
property list int int vertex_indices
end_header
8.497 22.854 15.9231 0 1 0 0.0152713 -0.00199063 
8.48489 22.7941 16.2389 0 2 2.78716 0.0152611 -0.00208358 
8.47386 22.7351 16.5546 0 2 2.74059 0.0152499 -0.00226756 
8.465 22.6776 16.8699 0 2 2.68728 0.0152307 -0.00271501 
8.45939 22.6225 17.1848 0 2 2.66152 0.0152158 -0.00312835 
8.45812 22.5706 17.499 0 2 2.62007 0.0151893 -0.00393587 
8.46227 22.5226 17.8125 0 2 2.5101 0.0151683 -0.00462285 
8.47292 22.4794 18.125 0 2 2.21409 0.0151305 -0.00588364 
8.49116 22.4417 18.4364 0 2 1.97678 0.0151005 -0.00688092 
8.51808 22.4103 18.7465 0 2 1.90024 0.0150468 -0.00861995 
8.55475 22.3861 19.0551 0 2 1.84539 0.0150045 -0.00994825 
8.60163 22.3691 19.3621 0 2 1.8033 0.0149298 -0.0122077 
8.65671 22.3571 19.6671 0 2 1.74924 0.0148716 -0.0139019 
8.71731 22.3471 19.9696 0 2 1.67003 0.0147704 -0.0166972 
8.7808 22.3361 20.2691 0 2 1.59289 0.0146929 -0.0186618 
8.84451 22.3211 20.5652 0 2 1.59938 0.0145609 -0.0217722 
8.90578 22.2992 20.8574 0 2 1.66728 0.0144619 -0.023971 
8.96197 22.2674 21.1453 0 2 1.70306 0.0142962 -0.0274319 
9.01043 22.2228 21.4283 0 2 1.89943 0.0141742 -0.0297698 
9.04849 22.1623 21.7062 0 2 2.06301 0.0139743 -0.0333319 
9.0735 22.083 21.9783 0 2 2.08216 0.01383 -0.0357582 
9.08351 21.9831 22.2445 0 2 2.17253 0.013677 -0.0382328 
9.07935 21.8654 22.5058 0 2 2.19217 0.0134318 -0.0419948 
9.06257 21.7341 22.7633 0 2 2.22775 0.0132584 -0.0445426 
9.03471 21.593 23.0182 0 2 2.2722 0.0129844 -0.048444 
8.99731 21.4462 23.2718 0 2 2.304 0.012793 -0.0510901 
8.9519 21.2977 23.5252 0 2 2.29307 0.0124948 -0.0548838 
8.90003 21.1516 23.7796 0 2 2.32845 0.0122903 -0.0572527 
8.84323 21.0118 24.0362 0 2 2.28519 0.0119778 -0.0605139 
8.78304 20.8824 24.2963 0 2 2.336 0.0117671 -0.0624662 
8.72101 20.7673 24.5611 0 2 2.30988 0.0114504 -0.0651048 
8.65855 20.6696 24.8313 0 2 2.23972 0.0112404 -0.066632 
8.59661 20.5876 25.1067 0 2 2.26259 0.0109298 -0.0684814 
8.53602 20.5186 25.3865 0 2 2.26282 0.010727 -0.0693743 
8.47759 20.4599 25.67 0 2 2.23804 0.0104316 -0.0702837 
8.42216 20.4089 25.9565 0 2 2.2061 0.0102416 -0.0705624 
8.37055 20.3629 26.2453 0 2 2.275 0.00996878 -0.0703884 
8.32359 20.3191 26.5357 0 2 2.22556 0.00979591 -0.0698359 
8.28209 20.2749 26.8269 0 2 2.16138 0.00955126 -0.0684864 
8.2469 20.2276 27.1183 0 2 2.16423 0.00939832 -0.0672224 
8.21883 20.1745 27.4091 0 2 2.12875 0.00918475 -0.0647252 
8.1984 20.1136 27.6989 0 2 2.13426 0.0090532 -0.0626485 
8.18494 20.0458 27.9881 0 2 2.14651 0.00893033 -0.0603366 
8.17745 19.9727 28.2773 0 2 2.08615 0.00876184 -0.0564655 
8.17495 19.8957 28.5671 0 2 2.03411 0.00865977 -0.0536236 
8.17645 19.8165 28.8582 0 2 2.07094 0.00852153 -0.0490006 
8.18096 19.7367 29.1512 0 2 2.0654 0.00843888 -0.0457827 
8.18749 19.6577 29.4467 0 2 2.02608 0.00832811 -0.0408509 
8.19506 19.5812 29.7454 0 2 1.97173 0.00826248 -0.0375214 
8.20268 19.5088 30.0478 0 2 1.99536 0.00817543 -0.0325228 
8.20936 19.4419 30.3547 0 2 2.01312 0.00812439 -0.0292934 
8.21431 19.3818 30.6664 0 2 2.00041 0.00805717 -0.0246994 
8.21753 19.3282 30.9826 0 2 2.10792 0.00801791 -0.0218285 
8.21921 19.2803 31.3029 0 2 2.23992 0.00796635 -0.0178517 
8.21954 19.2373 31.6267 0 2 2.24645 0.00793627 -0.0154757 
8.21871 19.1987 31.9535 0 2 2.24573 0.00789654 -0.0123729 
8.21693 19.1637 32.2829 0 2 2.25834 0.00787309 -0.0106229 
8.21437 19.1315 32.6142 0 2 2.24556 0.00784153 -0.00848738 
8.21123 19.1015 32.9471 0 2 2.2433 0.00782241 -0.00737566 
8.20771 19.0729 33.281 0 2 2.23755 0.0077958 -0.00617044 
8.204 19.045 33.6154 0 1 0 0.00777902 -0.00567759 
0 1 1 
1 2 1 
2 3 1 
3 4 1 
4 5 1 
5 6 1 
6 7 1 
7 8 1 
8 9 1 
9 10 1 
10 11 1 
11 12 1 
12 13 1 
13 14 1 
14 15 1 
15 16 1 
16 17 1 
17 18 1 
18 19 1 
19 20 1 
20 21 1 
21 22 1 
22 23 1 
23 24 1 
24 25 1 
25 26 1 
26 27 1 
27 28 1 
28 29 1 
29 30 1 
30 31 1 
31 32 1 
32 33 1 
33 34 1 
34 35 1 
35 36 1 
36 37 1 
37 38 1 
38 39 1 
39 40 1 
40 41 1 
41 42 1 
42 43 1 
43 44 1 
44 45 1 
45 46 1 
46 47 1 
47 48 1 
48 49 1 
49 50 1 
50 51 1 
51 52 1 
52 53 1 
53 54 1 
54 55 1 
55 56 1 
56 57 1 
57 58 1 
58 59 1 
59 60 1 
1 61 0 1 2 3 4 5 6 7 8 9 10 11 12 13 14 15 16 17 18 19 20 21 22 23 24 25 26 27 28 29 30 31 32 33 34 35 36 37 38 39 40 41 42 43 44 45 46 47 48 49 50 51 52 53 54 55 56 57 58 59 60 
