ply
format ascii 1.0
comment written by koba@oshima.lab
element vertex 61
property float x
property float y
property float z
property int label
property int attribute
property float radius
property float curvature
property float torsion
element edge 60
property int vertex1
property int vertex2
property int label
element vertex_seq 1
property int label
property list int int vertex_indices
end_header
8.497 22.854 15.9231 0 1 0 0.0153324 -0.00205872 
8.48466 22.7934 16.2349 0 2 2.81741 0.0153218 -0.00215527 
8.4734 22.7337 16.5467 0 2 2.72579 0.0153104 -0.00234579 
8.46428 22.6756 16.8581 0 2 2.69564 0.0152909 -0.00280857 
8.45838 22.62 17.1692 0 2 2.59883 0.0152758 -0.00323578 
8.45676 22.5678 17.4799 0 2 2.55987 0.0152491 -0.00407078 
8.46051 22.5196 17.7899 0 2 2.43951 0.015228 -0.00478255 
8.47069 22.4765 18.0991 0 2 2.21321 0.0151902 -0.00609051 
8.48838 22.4391 18.4076 0 2 1.98385 0.0151603 -0.00712592 
8.51464 22.4084 18.715 0 2 1.87234 0.0151069 -0.00893248 
8.55056 22.3851 19.0213 0 2 1.85475 0.0150649 -0.0103131 
8.59659 22.3695 19.3263 0 2 1.7828 0.0149908 -0.0126624 
8.65077 22.3592 19.6296 0 2 1.75232 0.0149332 -0.014424 
8.71052 22.3511 19.9305 0 2 1.67227 0.0148331 -0.0173308 
8.77325 22.3423 20.2286 0 2 1.59308 0.0147566 -0.0193742 
8.8364 22.3298 20.5232 0 2 1.62154 0.0146263 -0.0226099 
8.89739 22.3105 20.8139 0 2 1.63418 0.0145286 -0.0248973 
8.95364 22.2814 21.1001 0 2 1.70503 0.0143651 -0.0284927 
9.00257 22.2396 21.3813 0 2 1.93174 0.0142449 -0.0309099 
9.0416 22.182 21.6569 0 2 1.99935 0.0140481 -0.034572 
9.06816 22.1057 21.9264 0 2 2.01577 0.0139063 -0.0370506 
9.08034 22.0086 22.1895 0 2 2.09071 0.0137562 -0.0395673 
9.07886 21.8937 22.4471 0 2 2.15209 0.0135163 -0.0434048 
9.06513 21.7648 22.7006 0 2 2.2036 0.0133469 -0.046015 
9.04055 21.6257 22.9512 0 2 2.22718 0.0130794 -0.0500308 
9.00651 21.4803 23.2002 0 2 2.24328 0.0128925 -0.0527661 
8.96441 21.3325 23.4488 0 2 2.28431 0.0126015 -0.0566787 
8.91566 21.1862 23.6982 0 2 2.29368 0.012402 -0.059113 
8.86165 21.0452 23.9497 0 2 2.30221 0.0120973 -0.0624493 
8.80377 20.9134 24.2046 0 2 2.329 0.0118921 -0.064438 
8.74344 20.7948 24.4642 0 2 2.30867 0.0115839 -0.0671438 
8.68196 20.6921 24.7293 0 2 2.25666 0.0113796 -0.068731 
8.62033 20.604 24.9999 0 2 2.22825 0.0110773 -0.0707021 
8.55945 20.5282 25.2756 0 2 2.29258 0.0108799 -0.0717003 
8.50024 20.4622 25.5559 0 2 2.26743 0.010592 -0.0727776 
8.44361 20.4037 25.8405 0 2 2.22635 0.0104065 -0.0731747 
8.39046 20.3503 26.1289 0 2 2.24075 0.0101398 -0.0731928 
8.34171 20.2997 26.4208 0 2 2.2272 0.00997048 -0.0727763 
8.29827 20.2495 26.7156 0 2 2.16025 0.0097304 -0.0715853 
8.26104 20.1972 27.0131 0 2 2.11608 0.00958008 -0.0703872 
8.23095 20.1406 27.3127 0 2 2.07865 0.00936986 -0.067921 
8.20857 20.0779 27.6142 0 2 2.07089 0.00924021 -0.0658155 
8.19326 20.0098 27.9175 0 2 2.03755 0.00911902 -0.0634317 
8.18403 19.9376 28.2224 0 2 2.01254 0.00895278 -0.0593636 
8.17991 19.8627 28.5291 0 2 2.01715 0.00885211 -0.056326 
8.17993 19.7864 28.8373 0 2 2.03088 0.00871596 -0.0513127 
8.1831 19.71 29.1472 0 2 2.03661 0.00863472 -0.0478114 
8.18846 19.6348 29.4587 0 2 2.02559 0.00852606 -0.0424479 
8.19502 19.5622 29.7716 0 2 1.99479 0.00846183 -0.038827 
8.20182 19.4935 30.0861 0 2 2.01233 0.00837687 -0.0333933 
8.20787 19.4301 30.402 0 2 2.02671 0.0083272 -0.0299124 
8.21238 19.3728 30.7193 0 2 2.03794 0.00826187 -0.0250243 
8.21535 19.3215 31.0379 0 2 2.13909 0.00822374 -0.0220139 
8.21695 19.2755 31.3576 0 2 2.19718 0.00817358 -0.0179101 
8.21733 19.234 31.6783 0 2 2.24443 0.00814421 -0.0154822 
8.21669 19.1965 31.9998 0 2 2.24878 0.00810525 -0.0123356 
8.21518 19.1623 32.3221 0 2 2.23965 0.00808212 -0.0105786 
8.21299 19.1306 32.6449 0 2 2.24295 0.00805077 -0.00846146 
8.21028 19.101 32.9682 0 2 2.1477 0.00803163 -0.00736313 
8.20723 19.0727 33.2917 0 2 2.12339 0.00800483 -0.00616812 
8.204 19.045 33.6154 0 1 0 0.00798785 -0.00567503 
0 1 1 
1 2 1 
2 3 1 
3 4 1 
4 5 1 
5 6 1 
6 7 1 
7 8 1 
8 9 1 
9 10 1 
10 11 1 
11 12 1 
12 13 1 
13 14 1 
14 15 1 
15 16 1 
16 17 1 
17 18 1 
18 19 1 
19 20 1 
20 21 1 
21 22 1 
22 23 1 
23 24 1 
24 25 1 
25 26 1 
26 27 1 
27 28 1 
28 29 1 
29 30 1 
30 31 1 
31 32 1 
32 33 1 
33 34 1 
34 35 1 
35 36 1 
36 37 1 
37 38 1 
38 39 1 
39 40 1 
40 41 1 
41 42 1 
42 43 1 
43 44 1 
44 45 1 
45 46 1 
46 47 1 
47 48 1 
48 49 1 
49 50 1 
50 51 1 
51 52 1 
52 53 1 
53 54 1 
54 55 1 
55 56 1 
56 57 1 
57 58 1 
58 59 1 
59 60 1 
1 61 0 1 2 3 4 5 6 7 8 9 10 11 12 13 14 15 16 17 18 19 20 21 22 23 24 25 26 27 28 29 30 31 32 33 34 35 36 37 38 39 40 41 42 43 44 45 46 47 48 49 50 51 52 53 54 55 56 57 58 59 60 
