ply
format ascii 1.0
comment written by koba@oshima.lab
element vertex 61
property float x
property float y
property float z
property int label
property int attribute
property float radius
property float curvature
property float torsion
element edge 60
property int vertex1
property int vertex2
property int label
element vertex_seq 1
property int label
property list int int vertex_indices
end_header
8.497 22.854 15.9231 0 1 0 0.0157228 -0.0015752 
8.49598 22.7961 16.2363 0 2 2.78615 0.0157121 -0.00164884 
8.49575 22.7389 16.5496 0 2 2.69097 0.0157003 -0.00179478 
8.49711 22.6832 16.8629 0 2 2.66174 0.0156801 -0.00214989 
8.50084 22.6295 17.1762 0 2 2.656 0.0156643 -0.00247803 
8.50775 22.5787 17.4895 0 2 2.60498 0.0156363 -0.00311994 
8.51863 22.5315 17.8029 0 2 2.50503 0.0156141 -0.00366764 
8.53426 22.4884 18.1163 0 2 2.20537 0.0155741 -0.00467493 
8.55544 22.4503 18.4297 0 2 1.93375 0.0155423 -0.00547289 
8.58297 22.4179 18.7431 0 2 1.96259 0.0154856 -0.00686687 
8.61764 22.3919 19.0566 0 2 1.95093 0.0154409 -0.00793467 
8.65977 22.3723 19.37 0 2 1.89748 0.0153621 -0.00975531 
8.70777 22.3572 19.6824 0 2 1.77819 0.0153008 -0.0111231 
8.75958 22.3439 19.9928 0 2 1.67356 0.0151944 -0.0133739 
8.81317 22.3297 20.3001 0 2 1.62652 0.0151131 -0.0149356 
8.86646 22.3119 20.6034 0 2 1.59502 0.014975 -0.0173754 
8.9174 22.288 20.9015 0 2 1.72056 0.0148718 -0.0190784 
8.96393 22.2552 21.1935 0 2 1.73529 0.0146997 -0.0217169 
9.00401 22.2109 21.4783 0 2 2.01536 0.0145736 -0.0234538 
9.03557 22.1525 21.7549 0 2 2.05659 0.0143678 -0.0260249 
9.05656 22.0774 22.0222 0 2 2.06911 0.01422 -0.0277227 
9.06543 21.9837 22.2798 0 2 2.10529 0.0140639 -0.0294144 
9.06275 21.8739 22.5292 0 2 2.2365 0.0138149 -0.0319698 
9.04955 21.7513 22.7725 0 2 2.24359 0.0136392 -0.0336954 
9.02692 21.619 23.0118 0 2 2.28096 0.0133615 -0.0363324 
8.99591 21.4805 23.2493 0 2 2.27969 0.0131673 -0.0381206 
8.95759 21.3389 23.4869 0 2 2.30281 0.0128635 -0.0407106 
8.91301 21.1976 23.7269 0 2 2.27598 0.0126538 -0.0423559 
8.86324 21.0599 23.9713 0 2 2.2769 0.0123303 -0.0446829 
8.80934 20.929 24.2223 0 2 2.29029 0.0121097 -0.0461251 
8.75238 20.8082 24.4818 0 2 2.34141 0.0117738 -0.0480726 
8.69339 20.7001 24.7516 0 2 2.2649 0.011548 -0.0491922 
8.63332 20.6038 25.0308 0 2 2.33845 0.0112095 -0.050535 
8.57309 20.518 25.3184 0 2 2.35155 0.0109854 -0.0511706 
8.51363 20.441 25.613 0 2 2.27156 0.0106542 -0.0517755 
8.45585 20.3713 25.9135 0 2 2.32899 0.0104382 -0.051906 
8.40069 20.3075 26.2187 0 2 2.20608 0.0101239 -0.0515974 
8.34906 20.248 26.5273 0 2 2.12072 0.00992223 -0.0510164 
8.30189 20.1914 26.8382 0 2 2.07896 0.00963325 -0.0497338 
8.26009 20.136 27.1502 0 2 2.0669 0.0094505 -0.0485866 
8.2246 20.0804 27.4619 0 2 2.06581 0.00919257 -0.0463649 
8.19606 20.0234 27.7725 0 2 2.11177 0.00903215 -0.0445378 
8.17404 19.9647 28.0819 0 2 2.08318 0.00888125 -0.0425567 
8.15783 19.9046 28.3903 0 2 2.16341 0.00867257 -0.0393436 
8.14674 19.843 28.6979 0 2 2.18497 0.00854511 -0.0370475 
8.14005 19.7802 29.0048 0 2 2.05723 0.00837123 -0.033399 
8.13707 19.7162 29.3112 0 2 2.04557 0.00826657 -0.0309134 
8.13708 19.6511 29.6173 0 2 2.02752 0.00812551 -0.0271903 
8.13939 19.5851 29.9233 0 2 2.16519 0.00804153 -0.0247387 
8.14329 19.5183 30.2294 0 2 2.15651 0.00792974 -0.0211553 
8.14807 19.4508 30.5358 0 2 2.08312 0.00786408 -0.0188742 
8.15315 19.3826 30.8425 0 2 2.16394 0.00777764 -0.0156708 
8.15839 19.3139 31.1496 0 2 2.21893 0.00772735 -0.0137039 
8.16377 19.2447 31.4571 0 2 2.29215 0.00766175 -0.0110411 
8.16928 19.1751 31.7648 0 2 2.29679 0.00762386 -0.00947653 
8.1749 19.1052 32.0729 0 2 2.30072 0.00757446 -0.00747106 
8.18062 19.0349 32.3811 0 2 2.29729 0.0075457 -0.00637267 
8.1864 18.9644 32.6895 0 2 2.31288 0.00750754 -0.00508919 
8.19224 18.8937 32.9981 0 2 2.34927 0.00748471 -0.00443065 
8.19811 18.8229 33.3067 0 2 2.25679 0.00745336 -0.00371388 
8.204 18.752 33.6154 0 1 0 0.0074338 -0.0034191 
0 1 1 
1 2 1 
2 3 1 
3 4 1 
4 5 1 
5 6 1 
6 7 1 
7 8 1 
8 9 1 
9 10 1 
10 11 1 
11 12 1 
12 13 1 
13 14 1 
14 15 1 
15 16 1 
16 17 1 
17 18 1 
18 19 1 
19 20 1 
20 21 1 
21 22 1 
22 23 1 
23 24 1 
24 25 1 
25 26 1 
26 27 1 
27 28 1 
28 29 1 
29 30 1 
30 31 1 
31 32 1 
32 33 1 
33 34 1 
34 35 1 
35 36 1 
36 37 1 
37 38 1 
38 39 1 
39 40 1 
40 41 1 
41 42 1 
42 43 1 
43 44 1 
44 45 1 
45 46 1 
46 47 1 
47 48 1 
48 49 1 
49 50 1 
50 51 1 
51 52 1 
52 53 1 
53 54 1 
54 55 1 
55 56 1 
56 57 1 
57 58 1 
58 59 1 
59 60 1 
1 61 0 1 2 3 4 5 6 7 8 9 10 11 12 13 14 15 16 17 18 19 20 21 22 23 24 25 26 27 28 29 30 31 32 33 34 35 36 37 38 39 40 41 42 43 44 45 46 47 48 49 50 51 52 53 54 55 56 57 58 59 60 
