ply
format ascii 1.0
comment written by koba@oshima.lab
element vertex 61
property float x
property float y
property float z
property int label
property int attribute
property float radius
property float curvature
property float torsion
element edge 60
property int vertex1
property int vertex2
property int label
element vertex_seq 1
property int label
property list int int vertex_indices
end_header
8.497 22.854 15.9231 0 1 0 0.0157824 -0.0016259 
8.49138 22.7964 16.2383 0 2 2.78337 0.0157723 -0.00170176 
8.48666 22.7395 16.5535 0 2 2.71031 0.0157612 -0.00185218 
8.48376 22.6839 16.8687 0 2 2.68889 0.0157419 -0.00221833 
8.48357 22.6305 17.1839 0 2 2.68199 0.0157268 -0.00255669 
8.48701 22.5798 17.499 0 2 2.62907 0.0156999 -0.00321793 
8.49498 22.5326 17.814 0 2 2.50751 0.0156784 -0.00378067 
8.50838 22.4895 18.1289 0 2 2.21019 0.0156397 -0.00481363 
8.52813 22.4513 18.4437 0 2 1.94759 0.0156087 -0.00563081 
8.55513 22.4186 18.7583 0 2 1.96234 0.0155535 -0.00705643 
8.59028 22.3922 19.0729 0 2 1.96248 0.0155099 -0.00814658 
8.63397 22.3721 19.3871 0 2 1.86394 0.0154329 -0.0100026 
8.68445 22.3564 19.7001 0 2 1.78221 0.0153728 -0.0113952 
8.73945 22.3424 20.0109 0 2 1.69134 0.0152683 -0.0136834 
8.7967 22.3274 20.3185 0 2 1.64327 0.0151884 -0.0152668 
8.85394 22.3089 20.6218 0 2 1.60184 0.0150525 -0.0177339 
8.9089 22.2842 20.9198 0 2 1.72622 0.0149508 -0.0194514 
8.9593 22.2507 21.2116 0 2 1.73869 0.0147811 -0.0221064 
9.00288 22.2058 21.4961 0 2 2.03204 0.0146566 -0.0238514 
9.03737 22.1469 21.7722 0 2 2.06314 0.0144533 -0.02643 
9.0605 22.0713 22.0389 0 2 2.06281 0.0143072 -0.0281297 
9.07058 21.9775 22.2958 0 2 2.11721 0.0141528 -0.0298211 
9.06825 21.8677 22.5444 0 2 2.22612 0.0139062 -0.0323767 
9.05471 21.7451 22.7869 0 2 2.23239 0.0137321 -0.0341033 
9.03117 21.613 23.0254 0 2 2.26939 0.0134569 -0.036743 
8.99886 21.4747 23.2621 0 2 2.24521 0.0132643 -0.0385338 
8.95898 21.3335 23.4989 0 2 2.28353 0.0129629 -0.0411283 
8.91275 21.1926 23.7382 0 2 2.27386 0.0127546 -0.0427773 
8.86137 21.0553 23.9819 0 2 2.27599 0.0124331 -0.0451115 
8.80607 20.9248 24.2323 0 2 2.29166 0.0122138 -0.0465598 
8.74804 20.8044 24.4914 0 2 2.32676 0.0118794 -0.0485143 
8.68845 20.6966 24.7608 0 2 2.28906 0.0116546 -0.0496367 
8.62821 20.6007 25.0399 0 2 2.33576 0.0113173 -0.0509814 
8.56816 20.5151 25.3274 0 2 2.29883 0.0110939 -0.0516164 
8.50917 20.4383 25.622 0 2 2.27064 0.0107635 -0.0522133 
8.45206 20.3689 25.9226 0 2 2.33816 0.010548 -0.0523328 
8.39771 20.3052 26.2278 0 2 2.20566 0.0102342 -0.051999 
8.34696 20.2459 26.5365 0 2 2.10751 0.0100328 -0.0513953 
8.30066 20.1894 26.8474 0 2 2.07793 0.0097441 -0.0500755 
8.25966 20.1342 27.1593 0 2 2.06513 0.00956147 -0.0489018 
8.22481 20.0787 27.4709 0 2 2.07178 0.00930365 -0.0466381 
8.19671 20.0218 27.7813 0 2 2.10771 0.00914327 -0.0447821 
8.17494 19.9632 28.0903 0 2 2.13268 0.00899237 -0.0427734 
8.15883 19.9031 28.3982 0 2 2.15728 0.00878362 -0.0395225 
8.14769 19.8417 28.7052 0 2 2.20528 0.00865609 -0.0372036 
8.14086 19.7789 29.0116 0 2 2.04454 0.00848205 -0.0335246 
8.13765 19.715 29.3174 0 2 2.02287 0.00837727 -0.03102 
8.1374 19.65 29.6229 0 2 2.0698 0.00823601 -0.0272688 
8.13942 19.5841 29.9283 0 2 2.15755 0.0081519 -0.0247986 
8.14305 19.5174 30.2337 0 2 2.16163 0.00803994 -0.0211876 
8.14761 19.4499 30.5395 0 2 2.07665 0.00797418 -0.0188956 
8.15252 19.3818 30.8457 0 2 2.18481 0.00788758 -0.0156916 
8.15767 19.3132 31.1523 0 2 2.21317 0.00783714 -0.0137349 
8.16302 19.2441 31.4594 0 2 2.27797 0.00777121 -0.0111013 
8.16854 19.1746 31.7667 0 2 2.30166 0.00773304 -0.0095503 
8.17422 19.1047 32.0744 0 2 2.29609 0.00768316 -0.00754656 
8.18002 19.0345 32.3823 0 2 2.32069 0.0076541 -0.00643647 
8.18593 18.9641 32.6904 0 2 2.30875 0.00761556 -0.00511796 
8.19191 18.8935 32.9986 0 2 2.34526 0.00759255 -0.00443913 
8.19794 18.8228 33.307 0 2 2.31191 0.007561 -0.00370553 
8.204 18.752 33.6154 0 1 0 0.00754133 -0.00340866 
0 1 1 
1 2 1 
2 3 1 
3 4 1 
4 5 1 
5 6 1 
6 7 1 
7 8 1 
8 9 1 
9 10 1 
10 11 1 
11 12 1 
12 13 1 
13 14 1 
14 15 1 
15 16 1 
16 17 1 
17 18 1 
18 19 1 
19 20 1 
20 21 1 
21 22 1 
22 23 1 
23 24 1 
24 25 1 
25 26 1 
26 27 1 
27 28 1 
28 29 1 
29 30 1 
30 31 1 
31 32 1 
32 33 1 
33 34 1 
34 35 1 
35 36 1 
36 37 1 
37 38 1 
38 39 1 
39 40 1 
40 41 1 
41 42 1 
42 43 1 
43 44 1 
44 45 1 
45 46 1 
46 47 1 
47 48 1 
48 49 1 
49 50 1 
50 51 1 
51 52 1 
52 53 1 
53 54 1 
54 55 1 
55 56 1 
56 57 1 
57 58 1 
58 59 1 
59 60 1 
1 61 0 1 2 3 4 5 6 7 8 9 10 11 12 13 14 15 16 17 18 19 20 21 22 23 24 25 26 27 28 29 30 31 32 33 34 35 36 37 38 39 40 41 42 43 44 45 46 47 48 49 50 51 52 53 54 55 56 57 58 59 60 
