ply
format ascii 1.0
comment written by koba@oshima.lab
element vertex 61
property float x
property float y
property float z
property int label
property int attribute
property float radius
property float curvature
property float torsion
element edge 60
property int vertex1
property int vertex2
property int label
element vertex_seq 1
property int label
property list int int vertex_indices
end_header
8.497 22.854 15.9231 0 1 0 0.0158458 -0.00174328 
8.49107 22.8057 16.2381 0 2 2.789 0.015836 -0.00182489 
8.48605 22.7579 16.5531 0 2 2.70988 0.0158252 -0.00198607 
8.48286 22.711 16.8681 0 2 2.703 0.0158064 -0.00237781 
8.48239 22.6655 17.1829 0 2 2.69725 0.0157915 -0.00273959 
8.48556 22.6219 17.4975 0 2 2.646 0.015765 -0.00344538 
8.49329 22.5806 17.8119 0 2 2.55817 0.0157437 -0.00404379 
8.50647 22.5422 18.1261 0 2 2.20958 0.0157051 -0.00513942 
8.52602 22.507 18.44 0 2 1.92161 0.0156743 -0.00600467 
8.55286 22.4756 18.7536 0 2 1.917 0.0156191 -0.00750949 
8.58788 22.4485 19.0667 0 2 1.94713 0.0155755 -0.00865286 
8.63148 22.4255 19.3794 0 2 1.87267 0.0154984 -0.0105891 
8.6819 22.4051 19.6906 0 2 1.79948 0.0154383 -0.0120357 
8.73689 22.3849 19.9996 0 2 1.69408 0.0153338 -0.0144057 
8.79417 22.3629 20.3053 0 2 1.63503 0.0152538 -0.0160437 
8.85148 22.3367 20.6068 0 2 1.60367 0.0151179 -0.0185932 
8.90653 22.3041 20.9032 0 2 1.70313 0.0150162 -0.0203664 
8.95707 22.263 21.1936 0 2 1.72239 0.0148464 -0.0231049 
9.00083 22.2111 21.4769 0 2 1.97249 0.0147218 -0.0249025 
9.03553 22.1463 21.7522 0 2 2.06292 0.0145184 -0.027555 
9.0589 22.0663 22.0187 0 2 2.0602 0.0143721 -0.0293007 
9.06926 21.9698 22.2758 0 2 2.10433 0.0142176 -0.0310355 
9.06724 21.8589 22.5251 0 2 2.22722 0.0139708 -0.033652 
9.05404 21.7366 22.7687 0 2 2.2415 0.0137966 -0.0354162 
9.03089 21.6059 23.0085 0 2 2.27413 0.0135212 -0.0381077 
8.99899 21.4699 23.2466 0 2 2.24625 0.0133284 -0.0399306 
8.95956 21.3314 23.4851 0 2 2.27461 0.0130269 -0.0425781 
8.9138 21.1934 23.726 0 2 2.26149 0.0128186 -0.0442667 
8.86294 21.0591 23.9713 0 2 2.27476 0.012497 -0.0466673 
8.80817 20.9314 24.2231 0 2 2.29215 0.0122775 -0.0481646 
8.75072 20.8132 24.4834 0 2 2.33814 0.0119429 -0.0501954 
8.69172 20.7068 24.7537 0 2 2.2644 0.0117179 -0.0513701 
8.63202 20.6115 25.0333 0 2 2.32986 0.0113803 -0.0527946 
8.57243 20.526 25.3211 0 2 2.35219 0.0111565 -0.0534834 
8.51371 20.4486 25.6157 0 2 2.26285 0.0108256 -0.0541601 
8.45665 20.3781 25.916 0 2 2.31877 0.0106096 -0.0543312 
8.40204 20.3129 26.2207 0 2 2.20288 0.010295 -0.0540703 
8.35066 20.2516 26.5287 0 2 2.10317 0.0100929 -0.0535106 
8.3033 20.1927 26.8386 0 2 2.07833 0.0098032 -0.0522407 
8.26074 20.1349 27.1494 0 2 2.03203 0.00961981 -0.051087 
8.22376 20.0767 27.4597 0 2 2.07304 0.00936079 -0.0488289 
8.19294 20.0168 27.7685 0 2 2.13448 0.00919956 -0.046959 
8.16798 19.9553 28.076 0 2 2.12195 0.0090478 -0.0449278 
8.14836 19.8923 28.3823 0 2 2.1463 0.00883774 -0.0416272 
8.1336 19.8281 28.6878 0 2 2.20422 0.00870931 -0.0392639 
8.12316 19.7628 28.9927 0 2 2.02585 0.00853391 -0.0354998 
8.11655 19.6965 29.2973 0 2 1.99175 0.00842821 -0.0329242 
8.11325 19.6296 29.6018 0 2 2.01506 0.00828562 -0.0290437 
8.11276 19.5622 29.9065 0 2 2.04943 0.00820067 -0.0264721 
8.11457 19.4945 30.2117 0 2 2.05928 0.00808757 -0.022688 
8.11816 19.4267 30.5176 0 2 2.073 0.00802112 -0.0202774 
8.1231 19.359 30.8245 0 2 2.10248 0.00793362 -0.0168991 
8.12919 19.2913 31.1323 0 2 2.19972 0.00788264 -0.0148302 
8.1363 19.2237 31.4409 0 2 2.23399 0.00781601 -0.0120359 
8.14431 19.1562 31.7502 0 2 2.25745 0.00777742 -0.0103818 
8.15309 19.0888 32.0601 0 2 2.25159 0.00772704 -0.00822974 
8.1625 19.0214 32.3706 0 2 2.27313 0.00769772 -0.00702581 
8.17243 18.954 32.6814 0 2 2.25263 0.00765894 -0.00557674 
8.18274 18.8866 32.9926 0 2 2.24898 0.00763587 -0.00482818 
8.19331 18.8193 33.3039 0 2 2.25357 0.00760432 -0.00402277 
8.204 18.752 33.6154 0 1 0 0.00758468 -0.00370025 
0 1 1 
1 2 1 
2 3 1 
3 4 1 
4 5 1 
5 6 1 
6 7 1 
7 8 1 
8 9 1 
9 10 1 
10 11 1 
11 12 1 
12 13 1 
13 14 1 
14 15 1 
15 16 1 
16 17 1 
17 18 1 
18 19 1 
19 20 1 
20 21 1 
21 22 1 
22 23 1 
23 24 1 
24 25 1 
25 26 1 
26 27 1 
27 28 1 
28 29 1 
29 30 1 
30 31 1 
31 32 1 
32 33 1 
33 34 1 
34 35 1 
35 36 1 
36 37 1 
37 38 1 
38 39 1 
39 40 1 
40 41 1 
41 42 1 
42 43 1 
43 44 1 
44 45 1 
45 46 1 
46 47 1 
47 48 1 
48 49 1 
49 50 1 
50 51 1 
51 52 1 
52 53 1 
53 54 1 
54 55 1 
55 56 1 
56 57 1 
57 58 1 
58 59 1 
59 60 1 
1 61 0 1 2 3 4 5 6 7 8 9 10 11 12 13 14 15 16 17 18 19 20 21 22 23 24 25 26 27 28 29 30 31 32 33 34 35 36 37 38 39 40 41 42 43 44 45 46 47 48 49 50 51 52 53 54 55 56 57 58 59 60 
