ply
format ascii 1.0
comment written by koba@oshima.lab
element vertex 61
property float x
property float y
property float z
property int label
property int attribute
property float radius
property float curvature
property float torsion
element edge 60
property int vertex1
property int vertex2
property int label
element vertex_seq 1
property int label
property list int int vertex_indices
end_header
8.497 22.854 15.9231 0 1 0 0.0155877 -0.00177534 
8.49112 22.8058 16.2382 0 2 2.78939 0.0155776 -0.00185881 
8.48616 22.7581 16.5532 0 2 2.71024 0.0155666 -0.00202314 
8.483 22.7113 16.8682 0 2 2.70333 0.0155474 -0.00242206 
8.48257 22.6659 17.183 0 2 2.69752 0.0155324 -0.00279028 
8.48578 22.6224 17.4977 0 2 2.6182 0.0155056 -0.00350882 
8.49351 22.5811 17.8121 0 2 2.49404 0.0154842 -0.0041188 
8.5067 22.5427 18.1263 0 2 2.20954 0.0154456 -0.00523666 
8.52624 22.5075 18.4402 0 2 1.92145 0.0154147 -0.00612008 
8.55304 22.476 18.7537 0 2 1.91661 0.0153596 -0.00765671 
8.58801 22.4488 19.0669 0 2 1.93394 0.0153161 -0.00882333 
8.63153 22.4257 19.3794 0 2 1.87185 0.0152392 -0.0107977 
8.68186 22.405 19.6906 0 2 1.78285 0.0151793 -0.0122721 
8.73675 22.3847 19.9995 0 2 1.69319 0.0150752 -0.0146867 
8.79394 22.3624 20.3051 0 2 1.63423 0.0149957 -0.0163547 
8.85116 22.336 20.6066 0 2 1.60302 0.0148606 -0.0189498 
8.90615 22.3033 20.9029 0 2 1.70267 0.0147595 -0.0207541 
8.95666 22.2621 21.1932 0 2 1.71327 0.0145909 -0.0235398 
9.00042 22.2102 21.4765 0 2 1.95596 0.0144672 -0.0253672 
9.03517 22.1455 21.7519 0 2 2.0469 0.0142653 -0.0280619 
9.05865 22.0657 22.0185 0 2 2.0521 0.0141203 -0.029834 
9.06918 21.9695 22.2757 0 2 2.10435 0.0139671 -0.0315941 
9.06736 21.859 22.5252 0 2 2.22677 0.0137227 -0.0342502 
9.05439 21.7371 22.7689 0 2 2.24063 0.0135502 -0.0360423 
9.03146 21.6069 23.0089 0 2 2.27299 0.0132778 -0.0387781 
8.99974 21.4712 23.2472 0 2 2.2451 0.0130873 -0.0406317 
8.96043 21.3331 23.4858 0 2 2.26518 0.0127894 -0.0433238 
8.91471 21.1953 23.7267 0 2 2.26273 0.0125839 -0.0450402 
8.86377 21.061 23.972 0 2 2.27441 0.0122668 -0.047478 
8.80881 20.9331 24.2236 0 2 2.28326 0.0120506 -0.0489965 
8.75099 20.8144 24.4837 0 2 2.33782 0.0117214 -0.0510541 
8.69147 20.7073 24.7536 0 2 2.26359 0.0115002 -0.0522423 
8.63117 20.6111 25.0328 0 2 2.32853 0.0111685 -0.0536792 
8.57095 20.5245 25.32 0 2 2.35061 0.010949 -0.0543693 
8.5117 20.4462 25.6143 0 2 2.25178 0.0106245 -0.0550285 
8.45428 20.3749 25.9143 0 2 2.28724 0.010413 -0.0551725 
8.39957 20.3092 26.2189 0 2 2.19118 0.0101054 -0.0548441 
8.34845 20.2477 26.527 0 2 2.10578 0.009908 -0.0542211 
8.30178 20.1893 26.8374 0 2 2.07374 0.0096254 -0.0528429 
8.26044 20.1325 27.1489 0 2 2.0398 0.00944676 -0.0516099 
8.22531 20.076 27.4605 0 2 2.07446 0.00919477 -0.0492238 
8.19699 20.0187 27.7711 0 2 2.06203 0.00903811 -0.0472637 
8.17507 19.9605 28.0807 0 2 2.05762 0.00889079 -0.0451401 
8.15886 19.9012 28.3894 0 2 2.05814 0.00868713 -0.0416989 
8.14767 19.8409 28.6974 0 2 2.1019 0.00856277 -0.0392417 
8.14082 19.7796 29.0048 0 2 2.0441 0.00839316 -0.0353398 
8.13764 19.7172 29.3118 0 2 2.01077 0.00829111 -0.032682 
8.13742 19.6538 29.6185 0 2 1.98406 0.00815363 -0.0286995 
8.13949 19.5894 29.925 0 2 1.95558 0.00807184 -0.026075 
8.14317 19.5239 30.2315 0 2 2.03695 0.0079631 -0.022236 
8.14777 19.4574 30.5382 0 2 2.08394 0.00789931 -0.0198047 
8.15272 19.3899 30.8451 0 2 2.07124 0.00781542 -0.0164189 
8.15788 19.3214 31.1523 0 2 2.13828 0.0077666 -0.0143606 
8.16323 19.2521 31.4597 0 2 2.28269 0.00770283 -0.0116047 
8.16874 19.182 31.7673 0 2 2.30447 0.00766592 -0.00998591 
8.1744 19.1113 32.075 0 2 2.29932 0.00761769 -0.00789778 
8.18018 19.0401 32.3829 0 2 2.29564 0.00758958 -0.00674319 
8.18605 18.9684 32.6909 0 2 2.31103 0.00755229 -0.00537525 
8.192 18.8964 32.999 0 2 2.24119 0.00753002 -0.00467079 
8.19799 18.8243 33.3072 0 2 2.09615 0.00749947 -0.00390722 
8.204 18.752 33.6154 0 1 0 0.00748042 -0.00359607 
0 1 1 
1 2 1 
2 3 1 
3 4 1 
4 5 1 
5 6 1 
6 7 1 
7 8 1 
8 9 1 
9 10 1 
10 11 1 
11 12 1 
12 13 1 
13 14 1 
14 15 1 
15 16 1 
16 17 1 
17 18 1 
18 19 1 
19 20 1 
20 21 1 
21 22 1 
22 23 1 
23 24 1 
24 25 1 
25 26 1 
26 27 1 
27 28 1 
28 29 1 
29 30 1 
30 31 1 
31 32 1 
32 33 1 
33 34 1 
34 35 1 
35 36 1 
36 37 1 
37 38 1 
38 39 1 
39 40 1 
40 41 1 
41 42 1 
42 43 1 
43 44 1 
44 45 1 
45 46 1 
46 47 1 
47 48 1 
48 49 1 
49 50 1 
50 51 1 
51 52 1 
52 53 1 
53 54 1 
54 55 1 
55 56 1 
56 57 1 
57 58 1 
58 59 1 
59 60 1 
1 61 0 1 2 3 4 5 6 7 8 9 10 11 12 13 14 15 16 17 18 19 20 21 22 23 24 25 26 27 28 29 30 31 32 33 34 35 36 37 38 39 40 41 42 43 44 45 46 47 48 49 50 51 52 53 54 55 56 57 58 59 60 
