ply
format ascii 1.0
comment written by koba@oshima.lab
element vertex 61
property float x
property float y
property float z
property int label
property int attribute
property float radius
property float curvature
property float torsion
element edge 60
property int vertex1
property int vertex2
property int label
element vertex_seq 1
property int label
property list int int vertex_indices
end_header
8.497 22.854 15.9231 0 1 0 0.0157339 -0.00173076 
8.49109 22.8058 16.2381 0 2 2.79781 0.0157233 -0.00181195 
8.48609 22.758 16.5532 0 2 2.70988 0.0157117 -0.00197192 
8.48292 22.7112 16.8681 0 2 2.71191 0.0156916 -0.00236031 
8.48249 22.6658 17.1829 0 2 2.69741 0.0156759 -0.00271885 
8.48572 22.6222 17.4976 0 2 2.64628 0.015648 -0.00341867 
8.49352 22.5809 17.812 0 2 2.54978 0.0156258 -0.0040131 
8.5068 22.5425 18.1262 0 2 2.21008 0.0155859 -0.00510293 
8.52649 22.5073 18.4402 0 2 1.92218 0.015554 -0.00596446 
8.55348 22.4758 18.7538 0 2 1.89586 0.0154973 -0.00746339 
8.5887 22.4485 19.067 0 2 1.89454 0.0154525 -0.00860162 
8.63252 22.4255 19.3797 0 2 1.85466 0.0153735 -0.0105283 
8.68314 22.4049 19.691 0 2 1.78452 0.0153121 -0.0119675 
8.73824 22.3846 20 0 2 1.69426 0.0152054 -0.0143243 
8.79546 22.3623 20.3057 0 2 1.63434 0.0151239 -0.0159517 
8.85249 22.336 20.6071 0 2 1.60184 0.0149856 -0.0184821 
8.90697 22.3035 20.9034 0 2 1.69963 0.0148821 -0.0202407 
8.95659 22.2624 21.1934 0 2 1.7081 0.0147096 -0.0229558 
8.99899 22.2108 21.4764 0 2 1.99368 0.0145832 -0.0247386 
9.03185 22.1463 21.7512 0 2 2.03626 0.0143769 -0.0273709 
9.05283 22.0668 22.0169 0 2 2.05551 0.0142287 -0.0291042 
9.06022 21.971 22.2731 0 2 2.08843 0.0140723 -0.0308278 
9.05481 21.8609 22.5214 0 2 2.22125 0.0138226 -0.0334339 
9.038 21.7395 22.7639 0 2 2.22323 0.0136465 -0.035196 
9.01121 21.6097 23.0027 0 2 2.27111 0.0133683 -0.0378918 
8.97585 21.4745 23.2397 0 2 2.23923 0.0131739 -0.0397229 
8.93334 21.3368 23.4773 0 2 2.26936 0.0128698 -0.0423929 
8.88507 21.1994 23.7174 0 2 2.26237 0.0126599 -0.0441035 
8.83247 21.0655 23.9621 0 2 2.29023 0.0123361 -0.0465478 
8.77695 20.9379 24.2136 0 2 2.28222 0.0121153 -0.048081 
8.71991 20.8194 24.474 0 2 2.33717 0.011779 -0.050172 
8.66263 20.7125 24.7447 0 2 2.29194 0.011553 -0.0513903 
8.60578 20.6163 25.025 0 2 2.34154 0.0112141 -0.0528845 
8.54988 20.5297 25.3138 0 2 2.31494 0.0109898 -0.0536212 
8.49548 20.4511 25.6096 0 2 2.2509 0.0106581 -0.0543604 
8.4431 20.3792 25.9112 0 2 2.25556 0.0104419 -0.0545642 
8.39328 20.3128 26.2172 0 2 2.23311 0.0101273 -0.0543344 
8.34655 20.2503 26.5266 0 2 2.10342 0.00992546 -0.0537819 
8.30343 20.1906 26.8378 0 2 2.08153 0.00963642 -0.0525132 
8.26446 20.1321 27.1497 0 2 2.04275 0.00945371 -0.0513544 
8.23017 20.0736 27.4609 0 2 2.08122 0.00919594 -0.0490791 
8.20095 20.0139 27.7704 0 2 2.08938 0.00903569 -0.0471913 
8.17659 19.9529 28.0784 0 2 2.12423 0.00888499 -0.0451389 
8.15675 19.8908 28.3849 0 2 2.14592 0.00867661 -0.0418021 
8.14109 19.8276 28.6905 0 2 2.19284 0.00854934 -0.0394125 
8.12925 19.7635 28.9953 0 2 2.02168 0.00837568 -0.0356073 
8.12089 19.6985 29.2997 0 2 1.98647 0.00827112 -0.0330038 
8.11566 19.6328 29.6039 0 2 2.00907 0.00813019 -0.0290818 
8.11323 19.5665 29.9083 0 2 2.06183 0.0080463 -0.0264834 
8.11323 19.4998 30.2132 0 2 2.0927 0.00793471 -0.022662 
8.11534 19.4327 30.5188 0 2 2.08079 0.00786923 -0.0202306 
8.11922 19.3653 30.8254 0 2 2.11161 0.00778307 -0.0168295 
8.12467 19.2977 31.133 0 2 2.12271 0.00773292 -0.0147513 
8.13153 19.2299 31.4415 0 2 2.23291 0.00766741 -0.0119528 
8.1396 19.162 31.7506 0 2 2.24474 0.0076295 -0.0103029 
8.14873 19.0939 32.0605 0 2 2.24356 0.00757999 -0.00816787 
8.15874 19.0256 32.3708 0 2 2.26581 0.00755116 -0.00698254 
8.16944 18.9573 32.6816 0 2 2.2447 0.00751295 -0.00557064 
8.18067 18.8889 32.9927 0 2 2.18691 0.00749015 -0.00484184 
8.19225 18.8205 33.304 0 2 2.18289 0.00745892 -0.00405167 
8.204 18.752 33.6154 0 1 0 0.00743947 -0.00372962 
0 1 1 
1 2 1 
2 3 1 
3 4 1 
4 5 1 
5 6 1 
6 7 1 
7 8 1 
8 9 1 
9 10 1 
10 11 1 
11 12 1 
12 13 1 
13 14 1 
14 15 1 
15 16 1 
16 17 1 
17 18 1 
18 19 1 
19 20 1 
20 21 1 
21 22 1 
22 23 1 
23 24 1 
24 25 1 
25 26 1 
26 27 1 
27 28 1 
28 29 1 
29 30 1 
30 31 1 
31 32 1 
32 33 1 
33 34 1 
34 35 1 
35 36 1 
36 37 1 
37 38 1 
38 39 1 
39 40 1 
40 41 1 
41 42 1 
42 43 1 
43 44 1 
44 45 1 
45 46 1 
46 47 1 
47 48 1 
48 49 1 
49 50 1 
50 51 1 
51 52 1 
52 53 1 
53 54 1 
54 55 1 
55 56 1 
56 57 1 
57 58 1 
58 59 1 
59 60 1 
1 61 0 1 2 3 4 5 6 7 8 9 10 11 12 13 14 15 16 17 18 19 20 21 22 23 24 25 26 27 28 29 30 31 32 33 34 35 36 37 38 39 40 41 42 43 44 45 46 47 48 49 50 51 52 53 54 55 56 57 58 59 60 
