ply
format ascii 1.0
comment written by koba@oshima.lab
element vertex 61
property float x
property float y
property float z
property int label
property int attribute
property float radius
property float curvature
property float torsion
element edge 60
property int vertex1
property int vertex2
property int label
element vertex_seq 1
property int label
property list int int vertex_indices
end_header
8.497 17.58 5.29839 0 1 0 0.0144332 -0.00164393 
8.52975 17.5015 5.59229 0 2 2.72028 0.0144266 -0.00171807 
8.56245 17.4238 5.88658 0 2 2.75034 0.0144192 -0.00186946 
8.59505 17.3481 6.18164 0 2 2.67508 0.0144058 -0.00224224 
8.62751 17.2751 6.47784 0 2 2.5275 0.0143949 -0.00258856 
8.65977 17.2059 6.77559 0 2 2.46954 0.0143748 -0.0032802 
8.69179 17.1413 7.07525 0 2 2.4444 0.0143582 -0.00389739 
8.72352 17.0824 7.37722 0 2 2.38027 0.0143274 -0.00506717 
8.75491 17.0299 7.68188 0 2 2.16279 0.0143024 -0.00601278 
8.78591 16.9849 7.98961 0 2 2.07059 0.0142569 -0.00769637 
8.81648 16.9483 8.3008 0 2 1.89886 0.0142206 -0.00901682 
8.84652 16.9204 8.61557 0 2 1.8794 0.0141559 -0.0113099 
8.8758 16.8988 8.93302 0 2 1.776 0.0141053 -0.0130565 
8.90407 16.8806 9.252 0 2 1.74467 0.0140169 -0.0159872 
8.93104 16.8628 9.57135 0 2 1.65509 0.0139492 -0.0181003 
8.95646 16.8424 9.88991 0 2 1.5666 0.0138337 -0.0215251 
8.98005 16.8165 10.2065 0 2 1.78765 0.013747 -0.0239957 
9.00154 16.7821 10.52 0 2 1.80135 0.0136019 -0.027938 
9.02067 16.7363 10.8293 0 2 1.86612 0.0134951 -0.0306094 
9.03716 16.6759 11.1331 0 2 1.86952 0.0133204 -0.0346853 
9.05076 16.5982 11.4304 0 2 1.95823 0.0131945 -0.0374623 
9.06112 16.5012 11.7203 0 2 2.11477 0.0130613 -0.0402873 
9.06765 16.3872 12.0035 0 2 2.15821 0.0128488 -0.0444989 
9.0697 16.2599 12.2811 0 2 2.16986 0.0126994 -0.0472831 
9.06661 16.1227 12.5542 0 2 2.2578 0.0124646 -0.05143 
9.05773 15.9792 12.8236 0 2 2.26828 0.0123018 -0.0541637 
9.04239 15.8328 13.0907 0 2 2.26717 0.01205 -0.0580427 
9.01993 15.687 13.3562 0 2 2.27887 0.0118782 -0.0604453 
8.98971 15.5454 13.6214 0 2 2.32806 0.0116169 -0.0637272 
8.95107 15.4115 13.8873 0 2 2.27739 0.0114415 -0.065675 
8.90334 15.2887 14.1549 0 2 2.2784 0.0111785 -0.0682552 
8.84634 15.1798 14.425 0 2 2.29146 0.0110044 -0.0697133 
8.78179 15.0837 14.698 0 2 2.23708 0.0107471 -0.0714297 
8.71185 14.9989 14.9739 0 2 2.25349 0.0105791 -0.0722224 
8.63872 14.9235 15.2527 0 2 2.27588 0.0103341 -0.0729287 
8.56457 14.8559 15.5345 0 2 2.28975 0.0101763 -0.0730391 
8.49158 14.7943 15.8193 0 2 2.26902 0.00994935 -0.0725781 
8.42194 14.737 16.1072 0 2 2.26923 0.00980519 -0.0718191 
8.35782 14.6823 16.3982 0 2 2.25647 0.00960062 -0.0701214 
8.3014 14.6284 16.6924 0 2 2.12316 0.00947241 -0.0686002 
8.25487 14.5735 16.9898 0 2 2.04747 0.00929293 -0.0656841 
8.21979 14.5164 17.2905 0 2 2.07097 0.00918208 -0.0633113 
8.19534 14.4572 17.5941 0 2 2.03474 0.00907833 -0.0607039 
8.18006 14.3963 17.9004 0 2 2.00512 0.00893574 -0.0563915 
8.1725 14.3343 18.209 0 2 2.0735 0.0088492 -0.0532543 
8.17124 14.2717 18.5197 0 2 2.03571 0.00873187 -0.048187 
8.1748 14.209 18.832 0 2 1.99967 0.00866168 -0.0447052 
8.18176 14.1467 19.1457 0 2 2.02944 0.00856759 -0.0394427 
8.19067 14.0853 19.4604 0 2 2.04324 0.00851185 -0.0359325 
8.20008 14.0253 19.7758 0 2 2.02967 0.008438 -0.0307201 
8.20854 13.9672 20.0917 0 2 2.02139 0.0083948 -0.0274111 
8.2149 13.9114 20.4077 0 2 2.08952 0.00833796 -0.0228041 
8.2191 13.8577 20.7238 0 2 2.0762 0.00830479 -0.0199918 
8.2214 13.806 21.0399 0 2 2.11815 0.0082612 -0.016193 
8.22202 13.756 21.3561 0 2 2.13545 0.00823574 -0.0139579 
8.22121 13.7075 21.6723 0 2 2.1236 0.00820206 -0.0110731 
8.2192 13.6601 21.9886 0 2 2.11331 0.00818211 -0.0094704 
8.21624 13.6138 22.3049 0 2 2.11008 0.00815517 -0.00755171 
8.21256 13.5681 22.6213 0 2 2.0954 0.00813876 -0.00655985 
8.2084 13.5229 22.9377 0 2 2.10715 0.00811584 -0.00548315 
8.204 13.478 23.254 0 1 0 0.00810133 -0.00504104 
0 1 1 
1 2 1 
2 3 1 
3 4 1 
4 5 1 
5 6 1 
6 7 1 
7 8 1 
8 9 1 
9 10 1 
10 11 1 
11 12 1 
12 13 1 
13 14 1 
14 15 1 
15 16 1 
16 17 1 
17 18 1 
18 19 1 
19 20 1 
20 21 1 
21 22 1 
22 23 1 
23 24 1 
24 25 1 
25 26 1 
26 27 1 
27 28 1 
28 29 1 
29 30 1 
30 31 1 
31 32 1 
32 33 1 
33 34 1 
34 35 1 
35 36 1 
36 37 1 
37 38 1 
38 39 1 
39 40 1 
40 41 1 
41 42 1 
42 43 1 
43 44 1 
44 45 1 
45 46 1 
46 47 1 
47 48 1 
48 49 1 
49 50 1 
50 51 1 
51 52 1 
52 53 1 
53 54 1 
54 55 1 
55 56 1 
56 57 1 
57 58 1 
58 59 1 
59 60 1 
1 61 0 1 2 3 4 5 6 7 8 9 10 11 12 13 14 15 16 17 18 19 20 21 22 23 24 25 26 27 28 29 30 31 32 33 34 35 36 37 38 39 40 41 42 43 44 45 46 47 48 49 50 51 52 53 54 55 56 57 58 59 60 
