ply
format ascii 1.0
comment written by koba@oshima.lab
element vertex 61
property float x
property float y
property float z
property int label
property int attribute
property float radius
property float curvature
property float torsion
element edge 60
property int vertex1
property int vertex2
property int label
element vertex_seq 1
property int label
property list int int vertex_indices
end_header
8.497 17.287 5.29839 0 1 0 0.0119769 -0.00205258 
8.52753 17.2564 5.61906 0 2 2.66361 0.0119677 -0.00214929 
8.55813 17.2258 5.93968 0 2 2.6423 0.0119576 -0.00233869 
8.58889 17.195 6.26018 0 2 2.58189 0.0119399 -0.0027983 
8.61987 17.164 6.58051 0 2 2.25969 0.0119258 -0.00322309 
8.65116 17.1328 6.90062 0 2 2.23807 0.0118999 -0.00405196 
8.68283 17.1012 7.22044 0 2 2.09924 0.0118789 -0.0047532 
8.71495 17.0692 7.53992 0 2 1.99923 0.0118401 -0.00603772 
8.74761 17.0368 7.859 0 2 1.91587 0.0118087 -0.00705463 
8.78087 17.0038 8.17763 0 2 1.84632 0.0117518 -0.0088248 
8.81481 16.9702 8.49576 0 2 1.74077 0.0117065 -0.0101634 
8.84938 16.9357 8.81327 0 2 1.65159 0.0116262 -0.0124266 
8.88392 16.8996 9.12993 0 2 1.6196 0.0115635 -0.0141201 
8.91767 16.8608 9.44544 0 2 1.589 0.0114545 -0.0169239 
8.94984 16.8181 9.75951 0 2 1.48964 0.0113713 -0.0189148 
8.97966 16.7707 10.0719 0 2 1.55628 0.0112299 -0.0221071 
9.00635 16.7175 10.3822 0 2 1.58002 0.0111242 -0.0243965 
9.02913 16.6574 10.6902 0 2 1.58548 0.0109479 -0.0280594 
9.04723 16.5894 10.9956 0 2 1.70695 0.0108185 -0.0305789 
9.05986 16.5125 11.2982 0 2 1.73727 0.010607 -0.0344977 
9.06624 16.4256 11.5975 0 2 1.71934 0.0104547 -0.0372277 
9.0658 16.3282 11.8935 0 2 1.81728 0.0102935 -0.0400605 
9.05871 16.2217 12.1863 0 2 1.93146 0.0100361 -0.0443843 
9.04536 16.1077 12.4764 0 2 1.92841 0.00985499 -0.0473154 
9.02611 15.9882 12.7639 0 2 1.9636 0.00957055 -0.0518027 
9.00136 15.8649 13.0491 0 2 1.97288 0.00937333 -0.0548545 
8.97147 15.7396 13.3326 0 2 1.92534 0.00906817 -0.0594064 
8.93683 15.6142 13.6144 0 2 1.9837 0.00886001 -0.0623924 
8.89781 15.4904 13.895 0 2 2.06656 0.00854318 -0.066744 
8.85478 15.37 14.1747 0 2 2.05555 0.00833032 -0.0695304 
8.80814 15.2548 14.4538 0 2 2.0998 0.00801096 -0.0735959 
8.75832 15.1464 14.7326 0 2 2.10526 0.00779943 -0.0761858 
8.70608 15.0447 15.0119 0 2 1.94859 0.00748648 -0.0797711 
8.65225 14.9494 15.2921 0 2 1.94897 0.00728202 -0.0818984 
8.59765 14.8603 15.5741 0 2 1.94175 0.00698344 -0.0848004 
8.5431 14.777 15.8585 0 2 1.95132 0.00679075 -0.0864835 
8.48945 14.6993 16.1459 0 2 2.00807 0.00651272 -0.0884732 
8.4375 14.6268 16.437 0 2 1.88907 0.00633549 -0.0893556 
8.3881 14.5593 16.7325 0 2 1.91004 0.00608297 -0.0900292 
8.34205 14.4964 17.033 0 2 1.88759 0.00592409 -0.0899599 
8.3002 14.4379 17.3393 0 2 1.9115 0.00570082 -0.0888963 
8.26323 14.3834 17.6516 0 2 1.91113 0.0055624 -0.0874659 
8.23135 14.3321 17.9692 0 2 1.95279 0.00543252 -0.0855507 
8.20462 14.2831 18.2909 0 2 1.95101 0.00525371 -0.0817345 
8.1831 14.2356 18.6155 0 2 1.96348 0.00514518 -0.0785147 
8.16687 14.1886 18.9419 0 2 1.92906 0.00499832 -0.0726462 
8.15599 14.1414 19.269 0 2 1.91957 0.00491081 -0.068271 
8.15052 14.093 19.5955 0 2 1.92101 0.00479424 -0.0612286 
8.15054 14.0426 19.9204 0 2 1.94305 0.00472582 -0.0562686 
8.15611 13.9893 20.2425 0 2 1.92747 0.00463637 -0.0485613 
8.1673 13.9322 20.5606 0 2 1.92276 0.00458496 -0.0435071 
8.18407 13.8707 20.8739 0 2 1.89543 0.0045188 -0.0363209 
8.20595 13.805 21.1826 0 2 1.87555 0.00448126 -0.031877 
8.23239 13.7357 21.4873 0 2 1.90424 0.00443365 -0.0258493 
8.2628 13.663 21.7883 0 2 1.99805 0.00440703 -0.0222792 
8.29662 13.5876 22.0864 0 2 1.98463 0.00437357 -0.0176616 
8.33329 13.5099 22.3818 0 2 1.93022 0.0043549 -0.0151157 
8.37222 13.4303 22.6752 0 2 1.94134 0.00433123 -0.0121307 
8.41287 13.3493 22.9671 0 2 1.90547 0.00431774 -0.0105971 
8.45465 13.2674 23.258 0 2 1.9412 0.00430004 -0.00893396 
8.497 13.185 23.5484 0 1 0 0.00428941 -0.00826083 
0 1 1 
1 2 1 
2 3 1 
3 4 1 
4 5 1 
5 6 1 
6 7 1 
7 8 1 
8 9 1 
9 10 1 
10 11 1 
11 12 1 
12 13 1 
13 14 1 
14 15 1 
15 16 1 
16 17 1 
17 18 1 
18 19 1 
19 20 1 
20 21 1 
21 22 1 
22 23 1 
23 24 1 
24 25 1 
25 26 1 
26 27 1 
27 28 1 
28 29 1 
29 30 1 
30 31 1 
31 32 1 
32 33 1 
33 34 1 
34 35 1 
35 36 1 
36 37 1 
37 38 1 
38 39 1 
39 40 1 
40 41 1 
41 42 1 
42 43 1 
43 44 1 
44 45 1 
45 46 1 
46 47 1 
47 48 1 
48 49 1 
49 50 1 
50 51 1 
51 52 1 
52 53 1 
53 54 1 
54 55 1 
55 56 1 
56 57 1 
57 58 1 
58 59 1 
59 60 1 
1 61 0 1 2 3 4 5 6 7 8 9 10 11 12 13 14 15 16 17 18 19 20 21 22 23 24 25 26 27 28 29 30 31 32 33 34 35 36 37 38 39 40 41 42 43 44 45 46 47 48 49 50 51 52 53 54 55 56 57 58 59 60 
