ply
format ascii 1.0
comment written by koba@oshima.lab
element vertex 61
property float x
property float y
property float z
property int label
property int attribute
property float radius
property float curvature
property float torsion
element edge 60
property int vertex1
property int vertex2
property int label
element vertex_seq 1
property int label
property list int int vertex_indices
end_header
8.497 17.287 5.29839 0 1 0 0.0121909 -0.00247915 
8.53037 17.2553 5.61488 0 2 2.5724 0.0121818 -0.00259648 
8.56379 17.2236 5.93142 0 2 2.54388 0.0121718 -0.00282616 
8.59731 17.1919 6.24802 0 2 2.47156 0.0121542 -0.00338334 
8.63096 17.1603 6.56475 0 2 2.22224 0.01214 -0.00389826 
8.6648 17.1288 6.88162 0 2 2.16892 0.0121141 -0.00490445 
8.69888 17.0974 7.19868 0 2 2.06656 0.0120929 -0.00575894 
8.73323 17.0662 7.51596 0 2 1.94915 0.0120538 -0.00732842 
8.76791 17.0351 7.83351 0 2 1.85972 0.0120221 -0.00857323 
8.80296 17.0042 8.15135 0 2 1.83037 0.0119646 -0.0107459 
8.83843 16.9735 8.46954 0 2 1.74582 0.0119188 -0.0123969 
8.87424 16.9429 8.788 0 2 1.66417 0.0118374 -0.0152002 
8.90975 16.9111 9.10628 0 2 1.64994 0.011774 -0.0173047 
8.9442 16.8768 9.42383 0 2 1.47776 0.0116637 -0.0208006 
8.97685 16.8386 9.74009 0 2 1.51902 0.0115795 -0.0232939 
9.00692 16.7953 10.0545 0 2 1.46671 0.0114367 -0.0273076 
9.03366 16.7453 10.3665 0 2 1.60383 0.0113302 -0.0301951 
9.05631 16.6875 10.6756 0 2 1.61357 0.0111529 -0.0348341 
9.0741 16.6203 10.9811 0 2 1.70296 0.0110231 -0.0380509 
9.08629 16.5425 11.2826 0 2 1.68885 0.0108117 -0.0430931 
9.0921 16.4527 11.5795 0 2 1.70081 0.01066 -0.0466299 
9.09097 16.3501 11.8714 0 2 1.79232 0.0105 -0.0503192 
9.08307 16.2366 12.1588 0 2 1.87176 0.0102455 -0.0560093 
9.06878 16.1147 12.4425 0 2 1.89294 0.0100672 -0.0599083 
9.04844 15.9867 12.723 0 2 1.9374 0.00978868 -0.0659391 
9.02243 15.8553 13.0011 0 2 1.94774 0.0095966 -0.0700812 
8.99112 15.7227 13.2774 0 2 1.94444 0.00930126 -0.0763208 
8.95486 15.5916 13.5527 0 2 1.88787 0.00910121 -0.0804574 
8.91403 15.4643 13.8277 0 2 1.91482 0.00879916 -0.0865576 
8.86898 15.3434 14.103 0 2 2.09663 0.00859805 -0.090513 
8.82009 15.2312 14.3793 0 2 2.10059 0.00829937 -0.0963057 
8.7678 15.1297 14.6572 0 2 2.07452 0.00810376 -0.10001 
8.71296 15.0379 14.937 0 2 1.97813 0.00781806 -0.105174 
8.65648 14.9546 15.2189 0 2 1.9078 0.00763403 -0.108264 
8.59929 14.8782 15.503 0 2 1.90726 0.00736965 -0.112357 
8.54232 14.8073 15.7896 0 2 1.92239 0.0072022 -0.114623 
8.48649 14.7405 16.0789 0 2 1.95304 0.00696575 -0.11711 
8.43272 14.6764 16.371 0 2 1.88364 0.00681863 -0.118047 
8.38195 14.6135 16.6661 0 2 1.88956 0.00661463 -0.118349 
8.33509 14.5504 16.9644 0 2 1.8592 0.00649005 -0.117725 
8.29307 14.4856 17.2662 0 2 1.88586 0.0063206 -0.115387 
8.25665 14.4182 17.5714 0 2 1.85173 0.00621924 -0.112839 
8.22593 14.3485 17.8798 0 2 1.86063 0.00612694 -0.109624 
8.20084 14.2776 18.1909 0 2 1.88172 0.00600473 -0.103589 
8.18131 14.2062 18.5042 0 2 1.92388 0.00593352 -0.0987645 
8.16728 14.1352 18.8194 0 2 1.92806 0.00584103 -0.0904075 
8.15867 14.0656 19.1358 0 2 1.92083 0.00578815 -0.0844191 
8.15543 13.9981 19.4533 0 2 1.92194 0.00572042 -0.0751066 
8.15749 13.9337 19.7711 0 2 1.9173 0.00568212 -0.0687499 
8.16477 13.8733 20.089 0 2 1.89822 0.00563365 -0.0591357 
8.17721 13.8177 20.4065 0 2 1.89198 0.00560657 -0.0529544 
8.19467 13.7675 20.7232 0 2 1.87588 0.00557247 -0.0442609 
8.21672 13.7224 21.0391 0 2 1.86256 0.00555342 -0.0389006 
8.24284 13.6819 21.3543 0 2 1.87388 0.00552943 -0.0315862 
8.27253 13.6454 21.6689 0 2 1.897 0.00551601 -0.0272668 
8.30527 13.6123 21.9829 0 2 2.13077 0.00549896 -0.0216897 
8.34056 13.582 22.2965 0 2 2.13661 0.00548927 -0.0185907 
8.37789 13.554 22.6098 0 2 2.12579 0.00547664 -0.0148803 
8.41674 13.5277 22.9228 0 2 1.97579 0.00546923 -0.0129612 
8.45662 13.5026 23.2356 0 2 2.00344 0.00545917 -0.010876 
8.497 13.478 23.5484 0 1 0 0.00545296 -0.0100185 
0 1 1 
1 2 1 
2 3 1 
3 4 1 
4 5 1 
5 6 1 
6 7 1 
7 8 1 
8 9 1 
9 10 1 
10 11 1 
11 12 1 
12 13 1 
13 14 1 
14 15 1 
15 16 1 
16 17 1 
17 18 1 
18 19 1 
19 20 1 
20 21 1 
21 22 1 
22 23 1 
23 24 1 
24 25 1 
25 26 1 
26 27 1 
27 28 1 
28 29 1 
29 30 1 
30 31 1 
31 32 1 
32 33 1 
33 34 1 
34 35 1 
35 36 1 
36 37 1 
37 38 1 
38 39 1 
39 40 1 
40 41 1 
41 42 1 
42 43 1 
43 44 1 
44 45 1 
45 46 1 
46 47 1 
47 48 1 
48 49 1 
49 50 1 
50 51 1 
51 52 1 
52 53 1 
53 54 1 
54 55 1 
55 56 1 
56 57 1 
57 58 1 
58 59 1 
59 60 1 
1 61 0 1 2 3 4 5 6 7 8 9 10 11 12 13 14 15 16 17 18 19 20 21 22 23 24 25 26 27 28 29 30 31 32 33 34 35 36 37 38 39 40 41 42 43 44 45 46 47 48 49 50 51 52 53 54 55 56 57 58 59 60 
