ply
format ascii 1.0
comment written by koba@oshima.lab
element vertex 61
property float x
property float y
property float z
property int label
property int attribute
property float radius
property float curvature
property float torsion
element edge 60
property int vertex1
property int vertex2
property int label
element vertex_seq 1
property int label
property list int int vertex_indices
end_header
8.497 17.287 5.29839 0 1 0 0.0122915 -0.0026635 
8.53033 17.258 5.61582 0 2 2.5637 0.0122823 -0.00278935 
8.56375 17.229 5.93323 0 2 2.51192 0.0122723 -0.00303589 
8.59733 17.1997 6.25062 0 2 2.46739 0.0122546 -0.00363414 
8.63116 17.1703 6.56798 0 2 2.25505 0.0122405 -0.00418701 
8.66531 17.1406 6.88529 0 2 2.1825 0.0122146 -0.00526636 
8.69987 17.1105 7.20253 0 2 2.03479 0.0121935 -0.00618096 
8.73493 17.0799 7.5197 0 2 1.92447 0.0121547 -0.00785794 
8.77056 17.0488 7.83679 0 2 1.84167 0.0121233 -0.00918621 
8.80685 17.0171 8.15377 0 2 1.82165 0.0120664 -0.0115009 
8.84388 16.9848 8.47065 0 2 1.71424 0.0120212 -0.0132562 
8.88156 16.9515 8.78733 0 2 1.65262 0.011941 -0.0162302 
8.91917 16.9162 9.10345 0 2 1.60061 0.0118786 -0.0184587 
8.95583 16.8779 9.41858 0 2 1.47061 0.0117701 -0.022155 
8.99064 16.8352 9.73227 0 2 1.47755 0.0116875 -0.0247896 
9.02271 16.787 10.0441 0 2 1.42711 0.0115474 -0.0290275 
9.05116 16.7322 10.3536 0 2 1.60049 0.0114429 -0.0320731 
9.07509 16.6695 10.6604 0 2 1.58803 0.0112693 -0.0369602 
9.09362 16.5977 10.964 0 2 1.64041 0.0111423 -0.0403455 
9.10585 16.5157 11.2639 0 2 1.65341 0.0109357 -0.045645 
9.1109 16.4223 11.5598 0 2 1.68916 0.0107876 -0.049356 
9.10812 16.3168 11.8514 0 2 1.79186 0.0106315 -0.0532192 
9.09783 16.2012 12.1391 0 2 1.82935 0.0103835 -0.0591436 
9.0806 16.0779 12.4235 0 2 1.84712 0.0102102 -0.0631756 
9.057 15.9492 12.7052 0 2 1.87444 0.00993979 -0.0693637 
9.02759 15.8178 12.9848 0 2 1.9533 0.00975378 -0.0735758 
8.99294 15.686 13.2629 0 2 1.93783 0.00946849 -0.0798454 
8.95362 15.5562 13.5401 0 2 1.89388 0.0092758 -0.083943 
8.91019 15.431 13.8169 0 2 1.88644 0.00898578 -0.0898825 
8.86322 15.3128 14.0941 0 2 2.08311 0.00879331 -0.0936563 
8.81327 15.2039 14.3721 0 2 2.08319 0.00850847 -0.0990796 
8.76094 15.1062 14.6515 0 2 2.07184 0.00832259 -0.102472 
8.70692 15.0189 14.9326 0 2 1.96631 0.00805203 -0.107067 
8.65193 14.9403 15.2157 0 2 1.9153 0.00787836 -0.109715 
8.59668 14.869 15.5009 0 2 1.894 0.0076297 -0.113072 
8.54191 14.8034 15.7886 0 2 1.91875 0.0074727 -0.114811 
8.48832 14.7419 16.0789 0 2 1.95062 0.00725161 -0.116483 
8.43663 14.683 16.3722 0 2 1.86857 0.0071144 -0.116879 
8.38757 14.6252 16.6685 0 2 1.87673 0.00692452 -0.11639 
8.34185 14.5669 16.9682 0 2 1.86722 0.00680878 -0.115272 
8.30019 14.5065 17.2716 0 2 1.87229 0.00665156 -0.112279 
8.26321 14.443 17.5786 0 2 1.86333 0.00655758 -0.109373 
8.23112 14.3768 17.8889 0 2 1.87459 0.00647204 -0.105862 
8.20403 14.3088 18.2021 0 2 1.89727 0.00635878 -0.0995076 
8.18204 14.2397 18.5174 0 2 1.90808 0.00629274 -0.0945581 
8.16526 14.1706 18.8345 0 2 1.90778 0.00620686 -0.0861476 
8.1538 14.1022 19.1528 0 2 1.92275 0.00615768 -0.0802104 
8.14778 14.0354 19.4717 0 2 1.92188 0.0060945 -0.0710897 
8.14729 13.9711 19.7907 0 2 1.92753 0.00605863 -0.0649266 
8.15245 13.9101 20.1094 0 2 1.89561 0.00601302 -0.0556808 
8.16336 13.8533 20.427 0 2 1.89362 0.00598738 -0.0497741 
8.18001 13.8014 20.7434 0 2 1.87254 0.00595488 -0.0415093 
8.20195 13.754 21.0584 0 2 1.85472 0.00593657 -0.0364365 
8.22857 13.7106 21.3722 0 2 1.83982 0.0059133 -0.0295413 
8.2593 13.6708 21.685 0 2 1.84943 0.00590015 -0.02548 
8.29354 13.634 21.9969 0 2 2.08356 0.00588327 -0.0202454 
8.33072 13.5998 22.3081 0 2 2.03685 0.00587354 -0.0173412 
8.37023 13.5676 22.6187 0 2 2.06691 0.00586075 -0.0138688 
8.41151 13.5369 22.9288 0 2 1.97454 0.00585314 -0.0120743 
8.45396 13.5072 23.2387 0 2 2.1291 0.00584273 -0.0101254 
8.497 13.478 23.5484 0 1 0 0.00583625 -0.00932421 
0 1 1 
1 2 1 
2 3 1 
3 4 1 
4 5 1 
5 6 1 
6 7 1 
7 8 1 
8 9 1 
9 10 1 
10 11 1 
11 12 1 
12 13 1 
13 14 1 
14 15 1 
15 16 1 
16 17 1 
17 18 1 
18 19 1 
19 20 1 
20 21 1 
21 22 1 
22 23 1 
23 24 1 
24 25 1 
25 26 1 
26 27 1 
27 28 1 
28 29 1 
29 30 1 
30 31 1 
31 32 1 
32 33 1 
33 34 1 
34 35 1 
35 36 1 
36 37 1 
37 38 1 
38 39 1 
39 40 1 
40 41 1 
41 42 1 
42 43 1 
43 44 1 
44 45 1 
45 46 1 
46 47 1 
47 48 1 
48 49 1 
49 50 1 
50 51 1 
51 52 1 
52 53 1 
53 54 1 
54 55 1 
55 56 1 
56 57 1 
57 58 1 
58 59 1 
59 60 1 
1 61 0 1 2 3 4 5 6 7 8 9 10 11 12 13 14 15 16 17 18 19 20 21 22 23 24 25 26 27 28 29 30 31 32 33 34 35 36 37 38 39 40 41 42 43 44 45 46 47 48 49 50 51 52 53 54 55 56 57 58 59 60 
