ply
format ascii 1.0
comment written by koba@oshima.lab
element vertex 61
property float x
property float y
property float z
property int label
property int attribute
property float radius
property float curvature
property float torsion
element edge 60
property int vertex1
property int vertex2
property int label
element vertex_seq 1
property int label
property list int int vertex_indices
end_header
8.497 17.287 5.29839 0 1 0 0.0123508 -0.00270353 
8.52783 17.2582 5.61691 0 2 2.52679 0.0123423 -0.00283108 
8.55878 17.2292 5.9354 0 2 2.49799 0.0123329 -0.0030812 
8.58997 17.2002 6.25383 0 2 2.35594 0.0123163 -0.00368827 
8.62151 17.1708 6.57217 0 2 2.22686 0.0123029 -0.00424931 
8.65353 17.1411 6.89038 0 2 2.18022 0.0122784 -0.00534381 
8.68614 17.111 7.20844 0 2 2.04112 0.0122583 -0.0062697 
8.71947 17.0804 7.52631 0 2 1.89067 0.0122213 -0.00796502 
8.75362 17.0492 7.84396 0 2 1.84529 0.0121912 -0.00930624 
8.78873 17.0174 8.16137 0 2 1.81118 0.0121367 -0.0116409 
8.8249 16.9847 8.4785 0 2 1.7002 0.0120932 -0.0134091 
8.86209 16.9511 8.79526 0 2 1.49486 0.0120161 -0.0164014 
8.89955 16.9154 9.11129 0 2 1.46204 0.011956 -0.0186407 
8.93636 16.8766 9.42619 0 2 1.49613 0.0118514 -0.0223489 
8.97161 16.8335 9.73954 0 2 1.49091 0.0117717 -0.0249861 
9.00437 16.7849 10.0509 0 2 1.43004 0.0116364 -0.0292177 
9.03372 16.7297 10.3599 0 2 1.57703 0.0115355 -0.0322509 
9.05876 16.6668 10.6662 0 2 1.58377 0.0113676 -0.0371057 
9.07855 16.5949 10.9692 0 2 1.61713 0.0112447 -0.0404604 
9.09219 16.5129 11.2686 0 2 1.61764 0.0110447 -0.0456976 
9.09875 16.4197 11.564 0 2 1.68341 0.0109012 -0.0493546 
9.09756 16.3147 11.8551 0 2 1.73111 0.0107499 -0.0531523 
9.08892 16.1997 12.1423 0 2 1.77615 0.0105095 -0.0589552 
9.07335 16.0771 12.4263 0 2 1.83951 0.0103413 -0.0628891 
9.0514 15.9492 12.7076 0 2 1.89348 0.0100788 -0.0689018 
9.02361 15.8186 12.9868 0 2 1.94516 0.00989814 -0.0729768 
8.9905 15.6875 13.2645 0 2 1.93003 0.00962083 -0.0790129 
8.95263 15.5584 13.5413 0 2 1.88688 0.0094334 -0.0829369 
8.91052 15.4336 13.8178 0 2 1.86541 0.00915111 -0.0885913 
8.86471 15.3156 14.0945 0 2 1.90978 0.00896362 -0.0921608 
8.81574 15.2067 14.3721 0 2 1.93836 0.00868591 -0.0972542 
8.76418 15.1087 14.6511 0 2 1.9408 0.00850452 -0.100414 
8.71072 15.0207 14.9317 0 2 1.91041 0.00824023 -0.104651 
8.65609 14.9413 15.2143 0 2 1.88997 0.0080704 -0.10706 
8.601 14.869 15.4991 0 2 1.85895 0.00782689 -0.110068 
8.5462 14.8022 15.7863 0 2 1.80637 0.00767292 -0.111587 
8.4924 14.7396 16.0763 0 2 1.87285 0.00745573 -0.112966 
8.44032 14.6795 16.3693 0 2 1.81437 0.00732067 -0.113199 
8.3907 14.6207 16.6654 0 2 1.86293 0.00713333 -0.112521 
8.34426 14.5614 16.9651 0 2 1.85416 0.00701884 -0.111318 
8.30172 14.5004 17.2684 0 2 1.85393 0.00686287 -0.108275 
8.26372 14.4363 17.5757 0 2 1.81359 0.00676933 -0.10539 
8.23049 14.3699 17.8863 0 2 1.86653 0.00668394 -0.101939 
8.20221 14.3017 18.1999 0 2 1.90244 0.00657043 -0.0957443 
8.17901 14.2328 18.5158 0 2 1.91341 0.00650396 -0.0909463 
8.16106 14.1639 18.8334 0 2 1.91302 0.00641713 -0.0828222 
8.1485 14.0958 19.1522 0 2 1.92772 0.00636715 -0.0771014 
8.14149 14.0294 19.4717 0 2 1.91316 0.00630262 -0.068327 
8.14019 13.9656 19.7912 0 2 1.91821 0.0062658 -0.0624035 
8.14474 13.9051 20.1103 0 2 1.90759 0.00621874 -0.0535215 
8.15531 13.8489 20.4283 0 2 1.89559 0.00619216 -0.0478496 
8.17191 13.7974 20.7448 0 2 1.87348 0.00615831 -0.0399163 
8.19406 13.7505 21.06 0 2 1.85479 0.00613915 -0.0350479 
8.22114 13.7076 21.3738 0 2 1.83913 0.00611472 -0.0284314 
8.25253 13.6683 21.6865 0 2 1.82621 0.00610087 -0.0245325 
8.28763 13.6319 21.9983 0 2 2.03233 0.00608305 -0.019503 
8.3258 13.5981 22.3093 0 2 1.96138 0.00607277 -0.0167095 
8.36644 13.5663 22.6196 0 2 2.01541 0.00605923 -0.0133645 
8.40894 13.5361 22.9295 0 2 1.97286 0.00605118 -0.0116347 
8.45266 13.5068 23.239 0 2 2.04727 0.00604016 -0.00975592 
8.497 13.478 23.5484 0 1 0 0.0060333 -0.0089834 
0 1 1 
1 2 1 
2 3 1 
3 4 1 
4 5 1 
5 6 1 
6 7 1 
7 8 1 
8 9 1 
9 10 1 
10 11 1 
11 12 1 
12 13 1 
13 14 1 
14 15 1 
15 16 1 
16 17 1 
17 18 1 
18 19 1 
19 20 1 
20 21 1 
21 22 1 
22 23 1 
23 24 1 
24 25 1 
25 26 1 
26 27 1 
27 28 1 
28 29 1 
29 30 1 
30 31 1 
31 32 1 
32 33 1 
33 34 1 
34 35 1 
35 36 1 
36 37 1 
37 38 1 
38 39 1 
39 40 1 
40 41 1 
41 42 1 
42 43 1 
43 44 1 
44 45 1 
45 46 1 
46 47 1 
47 48 1 
48 49 1 
49 50 1 
50 51 1 
51 52 1 
52 53 1 
53 54 1 
54 55 1 
55 56 1 
56 57 1 
57 58 1 
58 59 1 
59 60 1 
1 61 0 1 2 3 4 5 6 7 8 9 10 11 12 13 14 15 16 17 18 19 20 21 22 23 24 25 26 27 28 29 30 31 32 33 34 35 36 37 38 39 40 41 42 43 44 45 46 47 48 49 50 51 52 53 54 55 56 57 58 59 60 
