ply
format ascii 1.0
comment written by koba@oshima.lab
element vertex 61
property float x
property float y
property float z
property int label
property int attribute
property float radius
property float curvature
property float torsion
element edge 60
property int vertex1
property int vertex2
property int label
element vertex_seq 1
property int label
property list int int vertex_indices
end_header
8.497 17.287 5.29839 0 1 0 0.0120911 -0.00217424 
8.53021 17.2561 5.616 0 2 2.52956 0.0120827 -0.00227713 
8.56347 17.2252 5.93365 0 2 2.50769 0.0120735 -0.00247856 
8.59686 17.194 6.25137 0 2 2.34304 0.0120571 -0.00296724 
8.63042 17.1624 6.5692 0 2 2.22577 0.0120438 -0.00341887 
8.66422 17.1304 6.88718 0 2 2.18259 0.0120193 -0.00430012 
8.69831 17.0978 7.20534 0 2 2.03102 0.0119991 -0.00504575 
8.73275 17.0645 7.52373 0 2 1.92332 0.0119618 -0.00641164 
8.76761 17.0304 7.84237 0 2 1.85985 0.0119313 -0.00749291 
8.80294 16.9954 8.1613 0 2 1.82201 0.0118758 -0.00937512 
8.83881 16.9593 8.48057 0 2 1.6915 0.0118315 -0.0107987 
8.87511 16.9219 8.80011 0 2 1.63364 0.0117526 -0.0132059 
8.91119 16.8825 9.11953 0 2 1.59644 0.011691 -0.0150072 
8.94623 16.8402 9.43835 0 2 1.3972 0.0115835 -0.0179878 
8.97942 16.794 9.75608 0 2 1.42935 0.0115013 -0.0201003 
9.00994 16.7432 10.0722 0 2 1.39425 0.0113616 -0.0234809 
9.03697 16.6868 10.3863 0 2 1.58158 0.011257 -0.0259002 
9.0597 16.6239 10.6978 0 2 1.60384 0.0110826 -0.0297631 
9.07732 16.5537 11.0063 0 2 1.66089 0.0109547 -0.0324156 
9.089 16.4752 11.3113 0 2 1.64745 0.0107458 -0.036532 
9.09395 16.3876 11.6122 0 2 1.75518 0.0105955 -0.0393916 
9.09154 16.2904 11.9088 0 2 1.75206 0.0104367 -0.0423523 
9.08204 16.1849 12.2014 0 2 1.79612 0.0101835 -0.0468753 
9.0659 16.0727 12.4904 0 2 1.85789 0.0100055 -0.0499447 
9.04359 15.9553 12.7762 0 2 1.90861 0.00972653 -0.0546464 
9.01558 15.8345 13.0593 0 2 1.91803 0.00953336 -0.0578456 
8.98231 15.7119 13.3402 0 2 1.89911 0.00923491 -0.0626291 
8.94427 15.5891 13.6192 0 2 1.83761 0.00903158 -0.0657777 
8.9019 15.4678 13.8969 0 2 1.86387 0.00872248 -0.0703877 
8.85568 15.3496 14.1738 0 2 1.8957 0.00851503 -0.0733552 
8.80607 15.2361 14.4501 0 2 1.94766 0.00820415 -0.077677 
8.75358 15.1287 14.7265 0 2 1.87449 0.0079985 -0.080423 
8.699 15.0275 15.0036 0 2 1.91797 0.00769471 -0.084217 
8.64317 14.9322 15.282 0 2 1.86918 0.00749655 -0.0864632 
8.58692 14.8427 15.5624 0 2 1.8644 0.00720771 -0.0894866 
8.53108 14.7587 15.8455 0 2 1.80118 0.00702169 -0.0912066 
8.47651 14.6801 16.1319 0 2 1.83161 0.0067539 -0.0931813 
8.42403 14.6066 16.4222 0 2 1.74411 0.00658362 -0.0940053 
8.37449 14.538 16.7172 0 2 1.78826 0.00634164 -0.0945119 
8.32872 14.4742 17.0176 0 2 1.81109 0.0061898 -0.0942795 
8.28756 14.4149 17.3239 0 2 1.78461 0.00597703 -0.092902 
8.2517 14.3597 17.6365 0 2 1.87411 0.00584549 -0.0912237 
8.22127 14.308 17.9546 0 2 1.91669 0.00572233 -0.0890336 
8.19625 14.2589 18.277 0 2 1.94967 0.00555323 -0.084765 
8.17663 14.2114 18.6025 0 2 1.9052 0.00545085 -0.081225 
8.16239 14.1647 18.9299 0 2 1.89623 0.00531265 -0.0748671 
8.1535 14.118 19.258 0 2 1.88965 0.00523047 -0.0701924 
8.14996 14.0703 19.5856 0 2 1.91767 0.00512114 -0.062763 
8.15174 14.0207 19.9116 0 2 1.88948 0.00505702 -0.0575879 
8.15882 13.9685 20.2348 0 2 1.92756 0.00497318 -0.0496202 
8.1712 13.9127 20.5539 0 2 1.89736 0.00492495 -0.0444255 
8.18876 13.8526 20.8682 0 2 1.85666 0.0048628 -0.03706 
8.21106 13.7885 21.1778 0 2 1.82166 0.00482748 -0.0325078 
8.23758 13.7209 21.4832 0 2 1.80162 0.00478262 -0.0263223 
8.26779 13.6501 21.785 0 2 1.84662 0.00475751 -0.0226657 
8.30116 13.5767 22.0836 0 2 1.8263 0.00472588 -0.0179507 
8.33716 13.501 22.3797 0 2 1.82686 0.00470819 -0.0153566 
8.37528 13.4236 22.6737 0 2 1.86134 0.00468571 -0.0123178 
8.41497 13.3448 22.9661 0 2 1.85407 0.00467287 -0.0107577 
8.45572 13.2651 23.2575 0 2 1.86997 0.00465599 -0.00906546 
8.497 13.185 23.5484 0 1 0 0.00464582 -0.00837868 
0 1 1 
1 2 1 
2 3 1 
3 4 1 
4 5 1 
5 6 1 
6 7 1 
7 8 1 
8 9 1 
9 10 1 
10 11 1 
11 12 1 
12 13 1 
13 14 1 
14 15 1 
15 16 1 
16 17 1 
17 18 1 
18 19 1 
19 20 1 
20 21 1 
21 22 1 
22 23 1 
23 24 1 
24 25 1 
25 26 1 
26 27 1 
27 28 1 
28 29 1 
29 30 1 
30 31 1 
31 32 1 
32 33 1 
33 34 1 
34 35 1 
35 36 1 
36 37 1 
37 38 1 
38 39 1 
39 40 1 
40 41 1 
41 42 1 
42 43 1 
43 44 1 
44 45 1 
45 46 1 
46 47 1 
47 48 1 
48 49 1 
49 50 1 
50 51 1 
51 52 1 
52 53 1 
53 54 1 
54 55 1 
55 56 1 
56 57 1 
57 58 1 
58 59 1 
59 60 1 
1 61 0 1 2 3 4 5 6 7 8 9 10 11 12 13 14 15 16 17 18 19 20 21 22 23 24 25 26 27 28 29 30 31 32 33 34 35 36 37 38 39 40 41 42 43 44 45 46 47 48 49 50 51 52 53 54 55 56 57 58 59 60 
