ply
format ascii 1.0
comment written by koba@oshima.lab
element vertex 61
property float x
property float y
property float z
property int label
property int attribute
property float radius
property float curvature
property float torsion
element edge 60
property int vertex1
property int vertex2
property int label
element vertex_seq 1
property int label
property list int int vertex_indices
end_header
8.497 17.287 5.29839 0 1 0 0.0125563 -0.00221537 
8.52585 17.2612 5.62014 0 2 2.5155 0.0125489 -0.00231968 
8.55486 17.2352 5.94182 0 2 2.48524 0.0125407 -0.00252449 
8.58419 17.2087 6.26333 0 2 2.32781 0.0125258 -0.00302184 
8.61401 17.1814 6.5846 0 2 2.17078 0.0125136 -0.00348157 
8.64446 17.1532 6.90554 0 2 2.09612 0.0124908 -0.00437671 
8.67572 17.1237 7.22608 0 2 1.94967 0.0124719 -0.00512996 
8.70794 17.0927 7.54613 0 2 1.87802 0.0124367 -0.00650389 
8.74129 17.0599 7.86561 0 2 1.80253 0.0124078 -0.00758783 
8.77592 17.0251 8.18444 0 2 1.76542 0.0123551 -0.00946796 
8.81199 16.9881 8.50253 0 2 1.67739 0.0123129 -0.0108836 
8.84949 16.9486 8.8198 0 2 1.59619 0.0122376 -0.0132671 
8.88762 16.9059 9.13602 0 2 1.55764 0.0121786 -0.0150434 
8.92542 16.8594 9.45098 0 2 1.46333 0.0120756 -0.01797 
8.96192 16.8086 9.76446 0 2 1.44861 0.0119968 -0.0200342 
8.99615 16.7528 10.0762 0 2 1.3816 0.0118624 -0.0233208 
9.02715 16.6914 10.3861 0 2 1.57153 0.0117618 -0.0256603 
9.05394 16.6238 10.6937 0 2 1.58238 0.0115936 -0.0293782 
9.07556 16.5493 10.999 0 2 1.64533 0.01147 -0.0319234 
9.09104 16.4673 11.3017 0 2 1.63988 0.0112678 -0.0358612 
9.09941 16.3773 11.6015 0 2 1.73727 0.0111219 -0.0385884 
9.09995 16.2788 11.8984 0 2 1.75274 0.0109674 -0.0414033 
9.09292 16.1731 12.1924 0 2 1.76802 0.0107204 -0.0456648 
9.07884 16.0615 12.4837 0 2 1.81962 0.0105465 -0.0485272 
9.05821 15.9455 12.7725 0 2 1.85817 0.0102731 -0.0528645 
9.03154 15.8266 13.0591 0 2 1.8753 0.0100834 -0.0557814 
8.99935 15.7062 13.3435 0 2 1.90009 0.00978969 -0.0600802 
8.96214 15.5857 13.6261 0 2 1.83578 0.00958925 -0.0628627 
8.92042 15.4666 13.907 0 2 1.83763 0.00928402 -0.0668564 
8.87471 15.3503 14.1863 0 2 1.86886 0.00907884 -0.0693688 
8.82551 15.2382 14.4644 0 2 1.92461 0.00877083 -0.0729539 
8.77339 15.1316 14.7414 0 2 1.81685 0.00856673 -0.0751773 
8.71909 15.0307 15.0181 0 2 1.83981 0.00826465 -0.0781505 
8.6634 14.9351 15.2954 0 2 1.86201 0.00806721 -0.0798354 
8.60711 14.845 15.5741 0 2 1.84405 0.00777873 -0.0820325 
8.55103 14.7602 15.8551 0 2 1.76472 0.00759239 -0.0832299 
8.49594 14.6806 16.1391 0 2 1.79631 0.00732323 -0.0844967 
8.44264 14.606 16.4271 0 2 1.75903 0.0071514 -0.0849181 
8.39193 14.5364 16.7199 0 2 1.78451 0.00690612 -0.0849134 
8.34459 14.4716 17.0182 0 2 1.78679 0.00675148 -0.0844177 
8.30143 14.4116 17.3231 0 2 1.82514 0.00653363 -0.0827959 
8.26311 14.3562 17.6349 0 2 1.86998 0.0063982 -0.0810714 
8.22986 14.3044 17.9527 0 2 1.91727 0.0062708 -0.078919 
8.20178 14.2555 18.2752 0 2 1.95412 0.00609486 -0.0748696 
8.17897 14.2084 18.6012 0 2 1.86763 0.00598771 -0.0715902 
8.16154 14.1623 18.9294 0 2 1.88796 0.00584224 -0.0657956 
8.14957 14.1162 19.2585 0 2 1.89955 0.00575525 -0.0615809 
8.14318 14.0692 19.5872 0 2 1.91048 0.00563892 -0.0549353 
8.14247 14.0204 19.9143 0 2 1.89858 0.00557036 -0.050335 
8.14753 13.9688 20.2384 0 2 1.90163 0.00548031 -0.0432861 
8.15847 13.9135 20.5583 0 2 1.8934 0.00542831 -0.0387083 
8.17528 13.8538 20.873 0 2 1.85896 0.00536108 -0.0322391 
8.19747 13.7899 21.1827 0 2 1.82174 0.00532275 -0.0282538 
8.22444 13.7224 21.4881 0 2 1.79017 0.00527392 -0.0228562 
8.25561 13.6516 21.7896 0 2 1.8337 0.0052465 -0.0196711 
8.29036 13.5781 22.0877 0 2 1.79323 0.00521188 -0.0155683 
8.3281 13.5022 22.3832 0 2 1.79301 0.00519246 -0.0133137 
8.36823 13.4246 22.6764 0 2 1.83462 0.00516771 -0.0106765 
8.41016 13.3455 22.968 0 2 1.82697 0.00515353 -0.0093236 
8.45328 13.2655 23.2585 0 2 1.86838 0.00513481 -0.00785658 
8.497 13.185 23.5484 0 1 0 0.00512352 -0.00726147 
0 1 1 
1 2 1 
2 3 1 
3 4 1 
4 5 1 
5 6 1 
6 7 1 
7 8 1 
8 9 1 
9 10 1 
10 11 1 
11 12 1 
12 13 1 
13 14 1 
14 15 1 
15 16 1 
16 17 1 
17 18 1 
18 19 1 
19 20 1 
20 21 1 
21 22 1 
22 23 1 
23 24 1 
24 25 1 
25 26 1 
26 27 1 
27 28 1 
28 29 1 
29 30 1 
30 31 1 
31 32 1 
32 33 1 
33 34 1 
34 35 1 
35 36 1 
36 37 1 
37 38 1 
38 39 1 
39 40 1 
40 41 1 
41 42 1 
42 43 1 
43 44 1 
44 45 1 
45 46 1 
46 47 1 
47 48 1 
48 49 1 
49 50 1 
50 51 1 
51 52 1 
52 53 1 
53 54 1 
54 55 1 
55 56 1 
56 57 1 
57 58 1 
58 59 1 
59 60 1 
1 61 0 1 2 3 4 5 6 7 8 9 10 11 12 13 14 15 16 17 18 19 20 21 22 23 24 25 26 27 28 29 30 31 32 33 34 35 36 37 38 39 40 41 42 43 44 45 46 47 48 49 50 51 52 53 54 55 56 57 58 59 60 
