ply
format ascii 1.0
comment written by koba@oshima.lab
element vertex 61
property float x
property float y
property float z
property int label
property int attribute
property float radius
property float curvature
property float torsion
element edge 60
property int vertex1
property int vertex2
property int label
element vertex_seq 1
property int label
property list int int vertex_indices
end_header
8.497 17.287 5.29839 0 1 0 0.0124936 -0.00226134 
8.52421 17.2623 5.62111 0 2 2.52644 0.012486 -0.00236737 
8.55159 17.2375 5.94376 0 2 2.48587 0.0124775 -0.0025761 
8.57931 17.2121 6.26626 0 2 2.31468 0.0124623 -0.00308348 
8.60753 17.186 6.58851 0 2 2.13145 0.0124498 -0.00355267 
8.63644 17.159 6.91046 0 2 2.02109 0.0124268 -0.00446607 
8.66619 17.1308 7.23201 0 2 1.92653 0.0124078 -0.00523406 
8.69695 17.1011 7.55309 0 2 1.84693 0.0123724 -0.00663394 
8.7289 17.0698 7.87362 0 2 1.798 0.0123436 -0.00773775 
8.76221 17.0366 8.19352 0 2 1.76073 0.0122911 -0.00965187 
8.79704 17.0013 8.51272 0 2 1.6752 0.0122492 -0.0110935 
8.83338 16.9635 8.8311 0 2 1.58728 0.0121747 -0.013521 
8.87049 16.9226 9.14841 0 2 1.57065 0.0121163 -0.01533 
8.90742 16.8779 9.46437 0 2 1.34347 0.0120146 -0.018309 
8.94326 16.8286 9.7787 0 2 1.32794 0.0119369 -0.0204072 
8.97707 16.774 10.0911 0 2 1.44969 0.0118046 -0.0237424 
9.00793 16.7133 10.4013 0 2 1.55676 0.0117055 -0.0261128 
9.03489 16.6459 10.709 0 2 1.56296 0.0115402 -0.0298712 
9.05704 16.571 11.014 0 2 1.63375 0.0114189 -0.0324345 
9.07344 16.4878 11.3159 0 2 1.62509 0.0112204 -0.0363836 
9.08315 16.3957 11.6145 0 2 1.69952 0.0110775 -0.0391065 
9.08548 16.2943 11.9095 0 2 1.71647 0.0109262 -0.0419071 
9.08061 16.1848 12.2013 0 2 1.75956 0.0106845 -0.0461357 
9.06893 16.0691 12.4901 0 2 1.80114 0.0105145 -0.0489686 
9.05084 15.9488 12.7763 0 2 1.83403 0.0102473 -0.0532486 
9.02676 15.8257 13.0603 0 2 1.89005 0.010062 -0.0561181 
8.99708 15.7014 13.3423 0 2 1.8916 0.00977527 -0.0603323 
8.96221 15.5776 13.6228 0 2 1.81305 0.0095796 -0.0630494 
8.92254 15.456 13.9019 0 2 1.83064 0.00928166 -0.0669314 
8.87849 15.3384 14.1802 0 2 1.78956 0.00908139 -0.069361 
8.83044 15.2265 14.4579 0 2 1.86085 0.00878074 -0.0728159 
8.7789 15.1216 14.7354 0 2 1.79474 0.00858146 -0.0749506 
8.72466 15.0235 15.0133 0 2 1.80161 0.00828644 -0.0777929 
8.6686 14.9318 15.2923 0 2 1.85898 0.00809352 -0.079394 
8.61161 14.846 15.573 0 2 1.81278 0.0078115 -0.0814588 
8.55458 14.7657 15.8561 0 2 1.76549 0.00762925 -0.0825636 
8.49839 14.6902 16.1423 0 2 1.78865 0.00736589 -0.0836878 
8.44392 14.6192 16.4321 0 2 1.76899 0.00719769 -0.084014 
8.39206 14.5522 16.7263 0 2 1.74904 0.00695753 -0.083869 
8.3437 14.4886 17.0255 0 2 1.79112 0.00680608 -0.0832835 
8.29972 14.4279 17.3303 0 2 1.7743 0.00659272 -0.0815373 
8.26087 14.3698 17.6412 0 2 1.84347 0.0064601 -0.079741 
8.22734 14.3136 17.9573 0 2 1.88496 0.00633536 -0.0775356 
8.1992 14.2589 18.2775 0 2 1.9081 0.00616311 -0.0734522 
8.17652 14.2051 18.6007 0 2 1.88298 0.0060582 -0.0701851 
8.15934 14.1517 18.9258 0 2 1.88376 0.00591573 -0.0644662 
8.14774 14.0983 19.2518 0 2 1.87956 0.00583051 -0.0603278 
8.14178 14.0443 19.5775 0 2 1.89193 0.0057165 -0.0538253 
8.14152 13.9892 19.9019 0 2 1.87246 0.00564925 -0.0493378 
8.14702 13.9325 20.2238 0 2 1.90083 0.00556086 -0.0424787 
8.15833 13.8736 20.5421 0 2 1.88634 0.00550975 -0.038024 
8.17543 13.8123 20.856 0 2 1.8478 0.00544359 -0.0317184 
8.19782 13.7486 21.1657 0 2 1.8231 0.00540582 -0.0278236 
8.22492 13.6827 21.4717 0 2 1.79433 0.00535762 -0.0225296 
8.25614 13.615 21.7744 0 2 1.83054 0.00533053 -0.0194011 
8.29089 13.5458 22.0744 0 2 1.80676 0.00529624 -0.0153679 
8.32858 13.4752 22.372 0 2 1.78155 0.00527697 -0.0131476 
8.36863 13.4036 22.6677 0 2 1.8159 0.00525236 -0.0105428 
8.41044 13.3312 22.962 0 2 1.80667 0.00523823 -0.00920467 
8.45342 13.2582 23.2554 0 2 1.82429 0.00521955 -0.00775262 
8.497 13.185 23.5484 0 1 0 0.00520825 -0.0071623 
0 1 1 
1 2 1 
2 3 1 
3 4 1 
4 5 1 
5 6 1 
6 7 1 
7 8 1 
8 9 1 
9 10 1 
10 11 1 
11 12 1 
12 13 1 
13 14 1 
14 15 1 
15 16 1 
16 17 1 
17 18 1 
18 19 1 
19 20 1 
20 21 1 
21 22 1 
22 23 1 
23 24 1 
24 25 1 
25 26 1 
26 27 1 
27 28 1 
28 29 1 
29 30 1 
30 31 1 
31 32 1 
32 33 1 
33 34 1 
34 35 1 
35 36 1 
36 37 1 
37 38 1 
38 39 1 
39 40 1 
40 41 1 
41 42 1 
42 43 1 
43 44 1 
44 45 1 
45 46 1 
46 47 1 
47 48 1 
48 49 1 
49 50 1 
50 51 1 
51 52 1 
52 53 1 
53 54 1 
54 55 1 
55 56 1 
56 57 1 
57 58 1 
58 59 1 
59 60 1 
1 61 0 1 2 3 4 5 6 7 8 9 10 11 12 13 14 15 16 17 18 19 20 21 22 23 24 25 26 27 28 29 30 31 32 33 34 35 36 37 38 39 40 41 42 43 44 45 46 47 48 49 50 51 52 53 54 55 56 57 58 59 60 
