ply
format ascii 1.0
comment written by koba@oshima.lab
element vertex 61
property float x
property float y
property float z
property int label
property int attribute
property float radius
property float curvature
property float torsion
element edge 60
property int vertex1
property int vertex2
property int label
element vertex_seq 1
property int label
property list int int vertex_indices
end_header
8.497 17.287 5.29839 0 1 0 0.0126396 -0.0020606 
8.52688 17.2611 5.62075 0 2 2.43904 0.0126319 -0.00215704 
8.55689 17.235 5.94317 0 2 2.41264 0.0126233 -0.00234726 
8.58717 17.2083 6.26569 0 2 2.29161 0.012608 -0.0028099 
8.61786 17.1808 6.58835 0 2 2.11656 0.0125955 -0.00323778 
8.64909 17.1523 6.91123 0 2 1.94985 0.0125725 -0.00407043 
8.68099 17.1224 7.23435 0 2 1.90312 0.0125535 -0.00476978 
8.7137 17.0909 7.55778 0 2 1.86743 0.0125183 -0.00604338 
8.74736 17.0575 7.88156 0 2 1.80435 0.0124896 -0.00704683 
8.7821 17.022 8.20575 0 2 1.75724 0.0124376 -0.00878542 
8.81805 16.9841 8.53039 0 2 1.70165 0.0123961 -0.0100936 
8.85517 16.9435 8.8554 0 2 1.4598 0.0123222 -0.0122942 
8.89265 16.8996 9.1801 0 2 1.36917 0.0122644 -0.0139324 
8.92952 16.8518 9.50368 0 2 1.26264 0.0121636 -0.0166167 
8.96479 16.7997 9.82534 0 2 1.25458 0.0120866 -0.0184798 
8.99749 16.7426 10.1443 0 2 1.41382 0.0119559 -0.021396 
9.02663 16.6799 10.4597 0 2 1.57188 0.0118583 -0.0234377 
9.05122 16.6111 10.7707 0 2 1.61804 0.0116959 -0.0266233 
9.07029 16.5355 11.0765 0 2 1.6167 0.0115771 -0.0287521 
9.08286 16.4527 11.3764 0 2 1.59604 0.0113837 -0.0319579 
9.08793 16.362 11.6695 0 2 1.69666 0.011245 -0.0341145 
9.08484 16.2633 11.9553 0 2 1.70028 0.0110988 -0.0362901 
9.07408 16.1576 12.2347 0 2 1.74599 0.0108662 -0.0395385 
9.05646 16.0467 12.5089 0 2 1.77909 0.010703 -0.0416922 
9.03278 15.932 12.7791 0 2 1.82201 0.0104472 -0.0449085 
9.00386 15.8152 13.0463 0 2 1.89491 0.0102699 -0.0470421 
8.97048 15.6977 13.3119 0 2 1.82123 0.00999549 -0.0501957 
8.93346 15.5812 13.577 0 2 1.91342 0.00980781 -0.0522531 
8.89361 15.4673 13.8428 0 2 1.85551 0.00952089 -0.0552447 
8.85172 15.3575 14.1105 0 2 1.80815 0.00932698 -0.0571588 
8.8086 15.2533 14.3812 0 2 1.76606 0.00903392 -0.0598988 
8.76494 15.1561 14.656 0 2 1.7455 0.00883819 -0.0616072 
8.72101 15.0653 14.9349 0 2 1.78458 0.00854586 -0.0639238 
8.67694 14.9805 15.218 0 2 1.82884 0.00835283 -0.0652658 
8.63288 14.901 15.5051 0 2 1.833 0.00806783 -0.0669869 
8.58898 14.8259 15.7963 0 2 1.75468 0.00788192 -0.0678892 
8.54537 14.7548 16.0914 0 2 1.79333 0.00761091 -0.0687603 
8.50221 14.6869 16.3904 0 2 1.74965 0.00743641 -0.06896 
8.45964 14.6215 16.6932 0 2 1.74554 0.00718535 -0.0687406 
8.41781 14.558 16.9999 0 2 1.78709 0.00702584 -0.0681948 
8.37685 14.4956 17.3103 0 2 1.82999 0.00679957 -0.0666554 
8.33702 14.4339 17.6242 0 2 1.8028 0.00665801 -0.0651007 
8.29896 14.3725 17.9411 0 2 1.80367 0.00652421 -0.0632238 
8.26341 14.3113 18.2604 0 2 1.84279 0.00633835 -0.0598018 
8.2311 14.2501 18.5813 0 2 1.85996 0.00622452 -0.0570902 
8.20279 14.1888 18.9031 0 2 1.87621 0.00606914 -0.0523726 
8.1792 14.1272 19.2252 0 2 1.88505 0.00597575 -0.0489804 
8.1611 14.065 19.5469 0 2 1.86718 0.00585026 -0.0436878 
8.14921 14.0023 19.8676 0 2 1.85339 0.00577592 -0.0400617 
8.14427 13.9387 20.1864 0 2 1.85674 0.00567779 -0.0345589 
8.14704 13.8741 20.5028 0 2 1.86348 0.00562081 -0.0309859 
8.15798 13.8085 20.8163 0 2 1.85671 0.00554679 -0.0259179 
8.17652 13.7418 21.127 0 2 1.84283 0.0055044 -0.0227838 
8.20181 13.6742 21.4351 0 2 1.82356 0.00545014 -0.0185219 
8.233 13.6058 21.7411 0 2 1.81615 0.00541953 -0.0159924 
8.26927 13.5367 22.0451 0 2 1.82859 0.00538073 -0.0127097 
8.30975 13.4671 22.3477 0 2 1.81786 0.0053589 -0.0108878 
8.35361 13.397 22.6489 0 2 1.81934 0.00533104 -0.00872821 
8.4 13.3265 22.9493 0 2 1.84393 0.00531508 -0.00761326 
8.44808 13.2558 23.249 0 2 1.85415 0.00529402 -0.0064019 
8.497 13.185 23.5484 0 1 0 0.00528132 -0.00590889 
0 1 1 
1 2 1 
2 3 1 
3 4 1 
4 5 1 
5 6 1 
6 7 1 
7 8 1 
8 9 1 
9 10 1 
10 11 1 
11 12 1 
12 13 1 
13 14 1 
14 15 1 
15 16 1 
16 17 1 
17 18 1 
18 19 1 
19 20 1 
20 21 1 
21 22 1 
22 23 1 
23 24 1 
24 25 1 
25 26 1 
26 27 1 
27 28 1 
28 29 1 
29 30 1 
30 31 1 
31 32 1 
32 33 1 
33 34 1 
34 35 1 
35 36 1 
36 37 1 
37 38 1 
38 39 1 
39 40 1 
40 41 1 
41 42 1 
42 43 1 
43 44 1 
44 45 1 
45 46 1 
46 47 1 
47 48 1 
48 49 1 
49 50 1 
50 51 1 
51 52 1 
52 53 1 
53 54 1 
54 55 1 
55 56 1 
56 57 1 
57 58 1 
58 59 1 
59 60 1 
1 61 0 1 2 3 4 5 6 7 8 9 10 11 12 13 14 15 16 17 18 19 20 21 22 23 24 25 26 27 28 29 30 31 32 33 34 35 36 37 38 39 40 41 42 43 44 45 46 47 48 49 50 51 52 53 54 55 56 57 58 59 60 
