ply
format ascii 1.0
comment written by koba@oshima.lab
element vertex 61
property float x
property float y
property float z
property int label
property int attribute
property float radius
property float curvature
property float torsion
element edge 60
property int vertex1
property int vertex2
property int label
element vertex_seq 1
property int label
property list int int vertex_indices
end_header
8.497 17.287 5.29839 0 1 0 0.0125969 -0.00196587 
8.53022 17.259 5.6139 0 2 2.53488 0.0125888 -0.00205867 
8.5635 17.2309 5.92946 0 2 2.47096 0.0125799 -0.00224084 
8.59689 17.2024 6.24513 0 2 2.3408 0.0125639 -0.00268315 
8.63044 17.1733 6.56098 0 2 2.15726 0.012551 -0.00309195 
8.66421 17.1434 6.87704 0 2 2.06583 0.0125271 -0.00388842 
8.69826 17.1126 7.19338 0 2 1.91671 0.0125075 -0.00455992 
8.73262 17.0807 7.51006 0 2 1.85044 0.0124712 -0.00578636 
8.76737 17.0475 7.82712 0 2 1.7845 0.0124416 -0.00675476 
8.80256 17.0128 8.14463 0 2 1.74522 0.0123879 -0.00843448 
8.83824 16.9764 8.46265 0 2 1.64873 0.0123451 -0.00969758 
8.87431 16.938 8.78112 0 2 1.57033 0.0122689 -0.0118214 
8.91008 16.897 9.09963 0 2 1.44894 0.0122094 -0.0134023 
8.94471 16.8525 9.41766 0 2 1.38109 0.0121058 -0.0160003 
8.97734 16.8038 9.7347 0 2 1.38816 0.0120267 -0.0178216 
9.00714 16.7501 10.0502 0 2 1.39343 0.0118922 -0.0207031 
9.03325 16.6906 10.3637 0 2 1.54671 0.0117917 -0.0227419 
9.05484 16.6245 10.6747 0 2 1.58584 0.011624 -0.0259585 
9.07106 16.5511 10.9826 0 2 1.63196 0.0115011 -0.028137 
9.08105 16.4695 11.2869 0 2 1.61728 0.0113003 -0.0314681 
9.08398 16.379 11.5871 0 2 1.6529 0.0111559 -0.0337468 
9.07927 16.2792 11.8829 0 2 1.68714 0.0110031 -0.0360759 
9.06737 16.1716 12.1746 0 2 1.73076 0.0107593 -0.0395679 
9.04902 16.0578 12.463 0 2 1.75604 0.0105877 -0.0418895 
9.02493 15.9397 12.7486 0 2 1.80628 0.0103184 -0.0453673 
8.99585 15.8191 13.032 0 2 1.83769 0.0101315 -0.0476786 
8.96249 15.6978 13.3138 0 2 1.81797 0.00984226 -0.0510609 
8.92558 15.5775 13.5946 0 2 1.78443 0.00964463 -0.053235 
8.88585 15.4602 13.875 0 2 1.79933 0.00934317 -0.056331 
8.84403 15.3475 14.1556 0 2 1.77599 0.00914004 -0.0582621 
8.80084 15.2412 14.4371 0 2 1.82161 0.00883423 -0.0610066 
8.75692 15.1428 14.72 0 2 1.79268 0.00863084 -0.0627025 
8.71257 15.0519 15.0045 0 2 1.72588 0.00832854 -0.0649607 
8.66798 14.9675 15.291 0 2 1.76087 0.00813 -0.066232 
8.62335 14.8889 15.5796 0 2 1.75191 0.00783839 -0.0678632 
8.57889 14.8153 15.8706 0 2 1.72825 0.00764905 -0.0687251 
8.53481 14.7458 16.1642 0 2 1.78426 0.00737408 -0.0695712 
8.49129 14.6795 16.4607 0 2 1.75757 0.0071976 -0.0697796 
8.44855 14.6158 16.7604 0 2 1.70913 0.00694435 -0.0695914 
8.40679 14.5537 17.0634 0 2 1.75661 0.00678382 -0.069078 
8.36621 14.4924 17.3699 0 2 1.79771 0.00655651 -0.067607 
8.32708 14.4312 17.6802 0 2 1.77374 0.0064145 -0.0661106 
8.29002 14.3699 17.9936 0 2 1.80662 0.0062804 -0.0642913 
8.25569 14.3084 18.3095 0 2 1.85018 0.00609428 -0.0609513 
8.22477 14.2466 18.6271 0 2 1.85217 0.00598035 -0.0582917 
8.19793 14.1846 18.9457 0 2 1.86949 0.00582485 -0.0536451 
8.17585 14.1221 19.2648 0 2 1.86904 0.00573137 -0.0502747 
8.15922 14.0591 19.5835 0 2 1.86533 0.00560576 -0.0449617 
8.14869 13.9955 19.9011 0 2 1.84868 0.00553139 -0.0412856 
8.14496 13.9312 20.2171 0 2 1.82525 0.00543329 -0.0356563 
8.14869 13.8662 20.5307 0 2 1.83567 0.00537638 -0.0319842 
8.16032 13.8004 20.8413 0 2 1.82842 0.00530256 -0.0267629 
8.17927 13.7339 21.1491 0 2 1.81425 0.00526035 -0.0235273 
8.20474 13.6667 21.4544 0 2 1.80338 0.00520644 -0.0191208 
8.23591 13.599 21.7576 0 2 1.78697 0.0051761 -0.016505 
8.27196 13.5307 22.0589 0 2 1.78893 0.00513776 -0.0131138 
8.31208 13.4621 22.3587 0 2 1.78758 0.00511624 -0.0112362 
8.35546 13.3931 22.6572 0 2 1.80678 0.00508884 -0.00901964 
8.40128 13.3239 22.9548 0 2 1.81542 0.00507318 -0.00787694 
8.44874 13.2545 23.2517 0 2 1.80231 0.00505255 -0.00663541 
8.497 13.185 23.5484 0 1 0 0.00504013 -0.0061305 
0 1 1 
1 2 1 
2 3 1 
3 4 1 
4 5 1 
5 6 1 
6 7 1 
7 8 1 
8 9 1 
9 10 1 
10 11 1 
11 12 1 
12 13 1 
13 14 1 
14 15 1 
15 16 1 
16 17 1 
17 18 1 
18 19 1 
19 20 1 
20 21 1 
21 22 1 
22 23 1 
23 24 1 
24 25 1 
25 26 1 
26 27 1 
27 28 1 
28 29 1 
29 30 1 
30 31 1 
31 32 1 
32 33 1 
33 34 1 
34 35 1 
35 36 1 
36 37 1 
37 38 1 
38 39 1 
39 40 1 
40 41 1 
41 42 1 
42 43 1 
43 44 1 
44 45 1 
45 46 1 
46 47 1 
47 48 1 
48 49 1 
49 50 1 
50 51 1 
51 52 1 
52 53 1 
53 54 1 
54 55 1 
55 56 1 
56 57 1 
57 58 1 
58 59 1 
59 60 1 
1 61 0 1 2 3 4 5 6 7 8 9 10 11 12 13 14 15 16 17 18 19 20 21 22 23 24 25 26 27 28 29 30 31 32 33 34 35 36 37 38 39 40 41 42 43 44 45 46 47 48 49 50 51 52 53 54 55 56 57 58 59 60 
