ply
format ascii 1.0
comment written by koba@oshima.lab
element vertex 61
property float x
property float y
property float z
property int label
property int attribute
property float radius
property float curvature
property float torsion
element edge 60
property int vertex1
property int vertex2
property int label
element vertex_seq 1
property int label
property list int int vertex_indices
end_header
8.497 17.287 5.29839 0 1 0 0.0119238 -0.0021138 
8.52903 17.2575 5.61836 0 2 2.47845 0.0119153 -0.00221308 
8.56114 17.2278 5.93829 0 2 2.46677 0.011906 -0.00240844 
8.5934 17.1979 6.25814 0 2 2.28272 0.0118894 -0.00288332 
8.62589 17.1675 6.57788 0 2 2.05887 0.0118761 -0.00332256 
8.65867 17.1367 6.89746 0 2 2.01546 0.0118516 -0.00417814 
8.69183 17.1052 7.21686 0 2 1.86403 0.0118316 -0.00489826 
8.72544 17.0728 7.53602 0 2 1.84221 0.0117947 -0.00621231 
8.75957 17.0396 7.85492 0 2 1.75904 0.0117647 -0.00724964 
8.7943 17.0053 8.17351 0 2 1.70274 0.0117102 -0.00905043 
8.82971 16.9698 8.49175 0 2 1.62026 0.0116668 -0.0104077 
8.86571 16.9328 8.80957 0 2 1.42033 0.0115898 -0.012696 
8.90162 16.8936 9.1267 0 2 1.24508 0.0115296 -0.0144038 
8.9366 16.8512 9.44284 0 2 1.27887 0.0114249 -0.0172222 
8.9698 16.8048 9.75768 0 2 1.34772 0.0113449 -0.0192127 
9.00039 16.7533 10.0709 0 2 1.36457 0.0112089 -0.0223869 
9.02752 16.696 10.3823 0 2 1.51361 0.0111073 -0.0246509 
9.05035 16.6318 10.6914 0 2 1.54335 0.0109377 -0.0282567 
9.06804 16.5599 10.998 0 2 1.61423 0.0108133 -0.0307306 
9.07976 16.4793 11.3018 0 2 1.62411 0.01061 -0.0345684 
9.08465 16.3891 11.6025 0 2 1.64625 0.0104636 -0.0372343 
9.0821 16.2889 11.8999 0 2 1.67725 0.0103086 -0.0399932 
9.07241 16.1801 12.1942 0 2 1.72411 0.010061 -0.0441802 
9.05608 16.0646 12.4856 0 2 1.75343 0.0098867 -0.0470001 
9.03364 15.9442 12.7746 0 2 1.79559 0.00961299 -0.0512854 
9.00559 15.8209 13.0613 0 2 1.84154 0.00942319 -0.0541769 
8.97245 15.6965 13.3462 0 2 1.78524 0.00912949 -0.0584561 
8.93473 15.573 13.6296 0 2 1.798 0.00892914 -0.0612377 
8.89296 15.4522 13.9116 0 2 1.76673 0.00862423 -0.0652461 
8.84764 15.336 14.1927 0 2 1.77511 0.00841939 -0.067778 
8.79928 15.2263 14.4732 0 2 1.79104 0.00811209 -0.0714191 
8.74845 15.1246 14.7534 0 2 1.74655 0.00790857 -0.0736978 
8.69582 15.0305 15.0339 0 2 1.73469 0.00760749 -0.0767765 
8.64214 14.9434 15.3152 0 2 1.67862 0.00741078 -0.0785453 
8.58813 14.8627 15.598 0 2 1.75988 0.00712348 -0.0809169 
8.53452 14.7875 15.8829 0 2 1.73125 0.00693797 -0.0822647 
8.48203 14.7172 16.1705 0 2 1.76298 0.00667006 -0.0838038 
8.4314 14.6512 16.4613 0 2 1.69624 0.00649907 -0.084432 
8.38336 14.5887 16.7561 0 2 1.72032 0.0062551 -0.0847542 
8.33863 14.529 17.0553 0 2 1.75883 0.00610135 -0.0844776 
8.29795 14.4714 17.3597 0 2 1.76877 0.00588491 -0.0831673 
8.26193 14.4153 17.6694 0 2 1.77768 0.00575049 -0.0816298 
8.23078 14.3602 17.9839 0 2 1.8025 0.00562415 -0.0796619 
8.20459 14.3058 18.3021 0 2 1.82181 0.00544983 -0.0758865 
8.18345 14.2515 18.623 0 2 1.84089 0.00534375 -0.0727848 
8.16745 14.197 18.9455 0 2 1.83003 0.00519979 -0.0672403 
8.15668 14.1418 19.2688 0 2 1.79897 0.00511373 -0.0631496 
8.15124 14.0856 19.5918 0 2 1.85753 0.00499874 -0.0566076 
8.15122 14.028 19.9136 0 2 1.8428 0.00493102 -0.0520231 
8.15671 13.9684 20.233 0 2 1.85141 0.00484219 -0.0449245 
8.16781 13.9066 20.5492 0 2 1.8615 0.00479095 -0.0402765 
8.1845 13.8421 20.8613 0 2 1.83787 0.00472481 -0.0336657 
8.20631 13.7753 21.1695 0 2 1.80812 0.00468718 -0.0295708 
8.23267 13.7062 21.4744 0 2 1.75538 0.00463933 -0.0239999 
8.26303 13.6353 21.7762 0 2 1.73295 0.00461253 -0.0206966 
8.2968 13.5627 22.0755 0 2 1.7727 0.00457879 -0.0164212 
8.33342 13.4888 22.3727 0 2 1.74968 0.00455994 -0.0140599 
8.37232 13.4138 22.6681 0 2 1.73691 0.00453601 -0.0112827 
8.41293 13.338 22.9622 0 2 1.71969 0.00452238 -0.00985396 
8.45468 13.2616 23.2555 0 2 1.7681 0.00450447 -0.00830352 
8.497 13.185 23.5484 0 1 0 0.00449371 -0.00767478 
0 1 1 
1 2 1 
2 3 1 
3 4 1 
4 5 1 
5 6 1 
6 7 1 
7 8 1 
8 9 1 
9 10 1 
10 11 1 
11 12 1 
12 13 1 
13 14 1 
14 15 1 
15 16 1 
16 17 1 
17 18 1 
18 19 1 
19 20 1 
20 21 1 
21 22 1 
22 23 1 
23 24 1 
24 25 1 
25 26 1 
26 27 1 
27 28 1 
28 29 1 
29 30 1 
30 31 1 
31 32 1 
32 33 1 
33 34 1 
34 35 1 
35 36 1 
36 37 1 
37 38 1 
38 39 1 
39 40 1 
40 41 1 
41 42 1 
42 43 1 
43 44 1 
44 45 1 
45 46 1 
46 47 1 
47 48 1 
48 49 1 
49 50 1 
50 51 1 
51 52 1 
52 53 1 
53 54 1 
54 55 1 
55 56 1 
56 57 1 
57 58 1 
58 59 1 
59 60 1 
1 61 0 1 2 3 4 5 6 7 8 9 10 11 12 13 14 15 16 17 18 19 20 21 22 23 24 25 26 27 28 29 30 31 32 33 34 35 36 37 38 39 40 41 42 43 44 45 46 47 48 49 50 51 52 53 54 55 56 57 58 59 60 
