ply
format ascii 1.0
comment written by koba@oshima.lab
element vertex 61
property float x
property float y
property float z
property int label
property int attribute
property float radius
property float curvature
property float torsion
element edge 60
property int vertex1
property int vertex2
property int label
element vertex_seq 1
property int label
property list int int vertex_indices
end_header
8.497 17.58 5.29839 0 1 0 0.0129173 -0.00148961 
8.5277 17.5012 5.59418 0 2 2.68857 0.0129091 -0.00155712 
8.55845 17.4233 5.89033 0 2 2.69509 0.0129001 -0.00169608 
8.5893 17.3472 6.18723 0 2 2.64622 0.0128841 -0.00203944 
8.62029 17.2738 6.48522 0 2 2.53266 0.0128714 -0.00235912 
8.65149 17.204 6.78469 0 2 2.48584 0.0128481 -0.00299874 
8.68293 17.1386 7.086 0 2 2.43785 0.0128291 -0.00357037 
8.71468 17.0785 7.38952 0 2 2.38509 0.012794 -0.00465591 
8.74677 17.0248 7.69561 0 2 2.10961 0.0127655 -0.0055355 
8.77925 16.9782 8.00465 0 2 2.05506 0.0127138 -0.00710996 
8.81219 16.9396 8.317 0 2 1.86347 0.0126725 -0.0083574 
8.84551 16.9093 8.63278 0 2 1.81244 0.0125988 -0.010545 
8.87872 16.8851 8.95114 0 2 1.76627 0.012541 -0.012227 
8.9112 16.8642 9.27097 0 2 1.74434 0.0124399 -0.0150748 
8.94235 16.8436 9.59117 0 2 1.61022 0.0123623 -0.0171452 
8.97154 16.8206 9.91063 0 2 1.56517 0.0122295 -0.0205335 
8.99818 16.7924 10.2282 0 2 1.74634 0.0121296 -0.0230044 
9.02164 16.7559 10.5429 0 2 1.74127 0.0119621 -0.0269978 
9.04133 16.7085 10.8535 0 2 1.81303 0.0118386 -0.0297447 
9.05661 16.6472 11.159 0 2 1.82885 0.0116361 -0.0340092 
9.0669 16.5693 11.4582 0 2 1.97982 0.0114899 -0.0369712 
9.07166 16.4729 11.7504 0 2 2.14474 0.011335 -0.0400376 
9.07074 16.3603 12.0362 0 2 2.16835 0.0110873 -0.0447392 
9.06411 16.2352 12.3166 0 2 2.17779 0.0109126 -0.0479467 
9.05169 16.1008 12.5925 0 2 2.227 0.0106377 -0.0528947 
9.03344 15.9607 12.865 0 2 2.27322 0.0104465 -0.0562852 
9.00931 15.8183 13.1349 0 2 2.2959 0.0101499 -0.0613316 
8.97923 15.6771 13.4034 0 2 2.30998 0.00994711 -0.0646357 
8.94316 15.5404 13.6713 0 2 2.31696 0.00963803 -0.0694542 
8.90105 15.4118 13.9396 0 2 2.25083 0.00943012 -0.0725495 
8.85283 15.2946 14.2093 0 2 2.25271 0.00911793 -0.0770747 
8.79869 15.1914 14.4813 0 2 2.25573 0.00891103 -0.0799747 
8.73978 15.101 14.7557 0 2 2.2043 0.00860485 -0.0840469 
8.67747 15.0214 15.0328 0 2 2.20371 0.0084048 -0.086518 
8.61316 14.9504 15.3127 0 2 2.23685 0.00811289 -0.0898797 
8.54821 14.886 15.5954 0 2 2.25004 0.00792484 -0.0918219 
8.48401 14.826 15.8812 0 2 2.24207 0.00765436 -0.0941295 
8.42194 14.7684 16.1701 0 2 2.23997 0.00748269 -0.0951765 
8.36339 14.711 16.4622 0 2 2.02101 0.00723947 -0.0959912 
8.30973 14.6518 16.7578 0 2 2.05046 0.0070875 -0.0959467 
8.26235 14.5886 17.0569 0 2 2.07559 0.00687573 -0.0948336 
8.22234 14.52 17.3595 0 2 2.00837 0.00674573 -0.0933237 
8.1897 14.4467 17.6654 0 2 2.03935 0.00662481 -0.0912782 
8.16412 14.37 17.9739 0 2 2.02796 0.00646026 -0.0871884 
8.14533 14.2912 18.2846 0 2 2.04238 0.0063616 -0.0837534 
8.13301 14.2116 18.5969 0 2 2.00241 0.00622977 -0.0775484 
8.12689 14.1326 18.9105 0 2 2.00764 0.00615221 -0.0729561 
8.12667 14.0553 19.2248 0 2 2.01622 0.00605012 -0.0656057 
8.13204 13.9812 19.5393 0 2 1.99663 0.00599086 -0.0604507 
8.14273 13.9116 19.8535 0 2 1.97738 0.00591405 -0.0524594 
8.15843 13.8478 20.167 0 2 1.97269 0.00587019 -0.0472277 
8.17883 13.7906 20.4793 0 2 2.09226 0.00581397 -0.0397648 
8.20347 13.7399 20.7904 0 2 2.10905 0.00578209 -0.0351051 
8.2319 13.6947 21.1006 0 2 2.12525 0.0057415 -0.0286785 
8.26363 13.6546 21.4098 0 2 2.09343 0.00571861 -0.0248457 
8.2982 13.6187 21.7184 0 2 2.33807 0.00568947 -0.0198534 
8.33512 13.5863 22.0263 0 2 2.32215 0.00567293 -0.0170559 
8.37394 13.5567 22.3336 0 2 2.31772 0.00565153 -0.0136792 
8.41417 13.5293 22.6406 0 2 2.2581 0.00563907 -0.0119231 
8.45535 13.5033 22.9474 0 2 2.35463 0.00562236 -0.0100085 
8.497 13.478 23.254 0 1 0 0.00561213 -0.00921835 
0 1 1 
1 2 1 
2 3 1 
3 4 1 
4 5 1 
5 6 1 
6 7 1 
7 8 1 
8 9 1 
9 10 1 
10 11 1 
11 12 1 
12 13 1 
13 14 1 
14 15 1 
15 16 1 
16 17 1 
17 18 1 
18 19 1 
19 20 1 
20 21 1 
21 22 1 
22 23 1 
23 24 1 
24 25 1 
25 26 1 
26 27 1 
27 28 1 
28 29 1 
29 30 1 
30 31 1 
31 32 1 
32 33 1 
33 34 1 
34 35 1 
35 36 1 
36 37 1 
37 38 1 
38 39 1 
39 40 1 
40 41 1 
41 42 1 
42 43 1 
43 44 1 
44 45 1 
45 46 1 
46 47 1 
47 48 1 
48 49 1 
49 50 1 
50 51 1 
51 52 1 
52 53 1 
53 54 1 
54 55 1 
55 56 1 
56 57 1 
57 58 1 
58 59 1 
59 60 1 
1 61 0 1 2 3 4 5 6 7 8 9 10 11 12 13 14 15 16 17 18 19 20 21 22 23 24 25 26 27 28 29 30 31 32 33 34 35 36 37 38 39 40 41 42 43 44 45 46 47 48 49 50 51 52 53 54 55 56 57 58 59 60 
