ply
format ascii 1.0
comment written by koba@oshima.lab
element vertex 61
property float x
property float y
property float z
property int label
property int attribute
property float radius
property float curvature
property float torsion
element edge 60
property int vertex1
property int vertex2
property int label
element vertex_seq 1
property int label
property list int int vertex_indices
end_header
8.497 17.287 5.29839 0 1 0 0.0115731 -0.00233611 
8.52696 17.2608 5.61983 0 2 2.40649 0.0115642 -0.00244591 
8.55703 17.2344 5.94118 0 2 2.40501 0.0115545 -0.00266172 
8.58735 17.2075 6.26237 0 2 2.24342 0.0115375 -0.0031861 
8.61802 17.1799 6.58331 0 2 2.07738 0.011524 -0.00367104 
8.64917 17.1514 6.90392 0 2 1.95836 0.0114992 -0.00461533 
8.68091 17.1218 7.22412 0 2 1.85997 0.011479 -0.00540948 
8.71337 17.0907 7.54382 0 2 1.80308 0.0114419 -0.00685792 
8.74666 17.0581 7.86295 0 2 1.73298 0.0114119 -0.00800106 
8.78091 17.0237 8.18141 0 2 1.6817 0.0113576 -0.00998518 
8.81622 16.9871 8.49913 0 2 1.60514 0.0113144 -0.0114801 
8.85255 16.9483 8.81599 0 2 1.40361 0.0112378 -0.014 
8.88912 16.9064 9.13176 0 2 1.16516 0.0111782 -0.0158806 
8.92499 16.8609 9.44618 0 2 1.19954 0.0110746 -0.0189848 
8.9592 16.8112 9.75899 0 2 1.13404 0.0109956 -0.0211782 
8.99081 16.7564 10.0699 0 2 1.40317 0.0108615 -0.024678 
9.01888 16.6961 10.3787 0 2 1.35368 0.0107615 -0.0271755 
9.04245 16.6295 10.6851 0 2 1.4278 0.010595 -0.0311557 
9.06058 16.5559 10.9889 0 2 1.55125 0.010473 -0.0338898 
9.07231 16.4746 11.2897 0 2 1.56655 0.0102742 -0.038135 
9.07671 16.3851 11.5873 0 2 1.5942 0.0101314 -0.0410858 
9.0731 16.287 11.8816 0 2 1.64989 0.0099805 -0.0441413 
9.06188 16.1815 12.1728 0 2 1.67208 0.00974011 -0.0487991 
9.04375 16.0699 12.4612 0 2 1.70171 0.00957136 -0.0519512 
9.01939 15.9538 12.7473 0 2 1.70676 0.00930698 -0.0567645 
8.98949 15.8348 13.0312 0 2 1.78836 0.00912412 -0.0600272 
8.95472 15.7141 13.3135 0 2 1.74992 0.00884191 -0.0648749 
8.91579 15.5935 13.5943 0 2 1.76743 0.0086499 -0.0680402 
8.87336 15.4742 13.8742 0 2 1.74434 0.00835845 -0.072627 
8.82814 15.3579 14.1533 0 2 1.78237 0.00816316 -0.075543 
8.7808 15.246 14.4322 0 2 1.79346 0.00787102 -0.0797437 
8.73199 15.1397 14.711 0 2 1.75311 0.00767811 -0.0823773 
8.68226 15.0392 14.9905 0 2 1.69712 0.00739363 -0.0859486 
8.6321 14.9443 15.2712 0 2 1.66803 0.00720839 -0.0880078 
8.58201 14.855 15.5538 0 2 1.72299 0.00693885 -0.0906977 
8.5325 14.7711 15.8387 0 2 1.73897 0.00676554 -0.0921601 
8.48407 14.6926 16.1267 0 2 1.75671 0.00651642 -0.0936971 
8.43722 14.6193 16.4184 0 2 1.69352 0.00635823 -0.0942001 
8.39246 14.5511 16.7143 0 2 1.70982 0.00613366 -0.0942185 
8.35028 14.488 17.015 0 2 1.75641 0.00599285 -0.0936678 
8.31119 14.4297 17.3212 0 2 1.743 0.0057956 -0.0918421 
8.27566 14.376 17.6332 0 2 1.76479 0.00567366 -0.0898956 
8.24398 14.3262 17.9502 0 2 1.78562 0.00555945 -0.0874613 
8.21645 14.2791 18.2711 0 2 1.83742 0.00540253 -0.0828809 
8.19334 14.2338 18.5948 0 2 1.82331 0.00530746 -0.0791769 
8.17491 14.1892 18.9204 0 2 1.82078 0.00517895 -0.0726513 
8.16145 14.1444 19.2467 0 2 1.80217 0.00510242 -0.0679329 
8.15324 14.0984 19.5726 0 2 1.85026 0.00500041 -0.0605499 
8.15054 14.0501 19.8972 0 2 1.85529 0.00494042 -0.0554807 
8.15363 13.9986 20.2192 0 2 1.85051 0.00486174 -0.0477748 
8.16278 13.9428 20.5378 0 2 1.84218 0.00481631 -0.0427749 
8.17813 13.882 20.852 0 2 1.83237 0.00475757 -0.0356922 
8.19919 13.8165 21.162 0 2 1.80455 0.00472407 -0.0313146 
8.22532 13.7468 21.4684 0 2 1.76276 0.00468139 -0.0253608 
8.25588 13.6733 21.7715 0 2 1.75206 0.00465744 -0.0218402 
8.29026 13.5968 22.0719 0 2 1.79458 0.0046272 -0.017299 
8.3278 13.5176 22.3699 0 2 1.77339 0.00461024 -0.014798 
8.36788 13.4363 22.6662 0 2 1.74297 0.00458867 -0.0118623 
8.40986 13.3534 22.961 0 2 1.72441 0.00457635 -0.0103529 
8.45311 13.2695 23.2549 0 2 1.74379 0.00456013 -0.00871307 
8.497 13.185 23.5484 0 1 0 0.00455037 -0.00804489 
0 1 1 
1 2 1 
2 3 1 
3 4 1 
4 5 1 
5 6 1 
6 7 1 
7 8 1 
8 9 1 
9 10 1 
10 11 1 
11 12 1 
12 13 1 
13 14 1 
14 15 1 
15 16 1 
16 17 1 
17 18 1 
18 19 1 
19 20 1 
20 21 1 
21 22 1 
22 23 1 
23 24 1 
24 25 1 
25 26 1 
26 27 1 
27 28 1 
28 29 1 
29 30 1 
30 31 1 
31 32 1 
32 33 1 
33 34 1 
34 35 1 
35 36 1 
36 37 1 
37 38 1 
38 39 1 
39 40 1 
40 41 1 
41 42 1 
42 43 1 
43 44 1 
44 45 1 
45 46 1 
46 47 1 
47 48 1 
48 49 1 
49 50 1 
50 51 1 
51 52 1 
52 53 1 
53 54 1 
54 55 1 
55 56 1 
56 57 1 
57 58 1 
58 59 1 
59 60 1 
1 61 0 1 2 3 4 5 6 7 8 9 10 11 12 13 14 15 16 17 18 19 20 21 22 23 24 25 26 27 28 29 30 31 32 33 34 35 36 37 38 39 40 41 42 43 44 45 46 47 48 49 50 51 52 53 54 55 56 57 58 59 60 
