ply
format ascii 1.0
comment written by koba@oshima.lab
element vertex 61
property float x
property float y
property float z
property int label
property int attribute
property float radius
property float curvature
property float torsion
element edge 60
property int vertex1
property int vertex2
property int label
element vertex_seq 1
property int label
property list int int vertex_indices
end_header
8.497 17.287 5.29839 0 1 0 0.0115234 -0.00235775 
8.52533 17.2606 5.61892 0 2 2.44983 0.0115143 -0.00246856 
8.55385 17.2339 5.93939 0 2 2.43904 0.0115045 -0.00268627 
8.58273 17.2069 6.25973 0 2 2.22179 0.0114872 -0.00321515 
8.61217 17.1792 6.57988 0 2 2.05754 0.0114735 -0.00370424 
8.64236 17.1506 6.89977 0 2 1.95368 0.0114485 -0.00465661 
8.67346 17.1209 7.21934 0 2 1.85363 0.0114282 -0.00545771 
8.70568 17.09 7.53852 0 2 1.78956 0.0113908 -0.0069191 
8.73919 17.0575 7.85725 0 2 1.72139 0.0113606 -0.00807271 
8.77418 17.0233 8.17547 0 2 1.67612 0.0113058 -0.0100739 
8.81084 16.9872 8.49311 0 2 1.63196 0.0112623 -0.0115788 
8.84913 16.9488 8.81006 0 2 1.40536 0.0111851 -0.0141112 
8.88818 16.9076 9.12608 0 2 1.16755 0.0111249 -0.015999 
8.92687 16.8627 9.44089 0 2 1.19013 0.0110203 -0.0191125 
8.96412 16.8136 9.7542 0 2 1.26686 0.0109405 -0.0213112 
8.99881 16.7594 10.0657 0 2 1.19973 0.010805 -0.024818 
9.02985 16.6994 10.3752 0 2 1.17611 0.0107038 -0.0273203 
9.05614 16.633 10.6823 0 2 1.39699 0.0105353 -0.031309 
9.07659 16.5594 10.9867 0 2 1.56676 0.0104119 -0.0340498 
9.09008 16.4779 11.2882 0 2 1.57378 0.0102106 -0.038308 
9.09551 16.3877 11.5865 0 2 1.58272 0.0100658 -0.0412699 
9.09211 16.2886 11.8814 0 2 1.63798 0.00991291 -0.0443393 
9.08033 16.1817 12.1732 0 2 1.682 0.00966923 -0.0490231 
9.06095 16.0686 12.4621 0 2 1.68187 0.00949814 -0.0521965 
9.03475 15.9509 12.7487 0 2 1.71801 0.0092301 -0.0570483 
9.00249 15.8302 13.0331 0 2 1.72143 0.0090447 -0.0603407 
8.96495 15.7081 13.3158 0 2 1.74036 0.0087586 -0.065231 
8.92291 15.5862 13.5972 0 2 1.74896 0.008564 -0.0684207 
8.87714 15.466 13.8775 0 2 1.75402 0.00826875 -0.0730335 
8.82842 15.3492 14.1571 0 2 1.75004 0.00807105 -0.0759569 
8.77753 15.2373 14.4365 0 2 1.78563 0.0077755 -0.080158 
8.7252 15.1316 14.7159 0 2 1.75811 0.00758049 -0.0827817 
8.67207 15.0323 14.996 0 2 1.68639 0.0072932 -0.0863148 
8.61876 14.9391 15.2774 0 2 1.6488 0.00710631 -0.08833 
8.56587 14.8521 15.5607 0 2 1.72508 0.00683466 -0.0909466 
8.51402 14.771 15.8464 0 2 1.74079 0.00666017 -0.0923558 
8.46379 14.6956 16.1353 0 2 1.75856 0.00640959 -0.0938025 
8.41582 14.6259 16.428 0 2 1.67524 0.00625062 -0.0942363 
8.3707 14.5616 16.725 0 2 1.73407 0.00602517 -0.0941373 
8.32905 14.5027 17.0269 0 2 1.77345 0.00588394 -0.0934982 
8.29146 14.4489 17.3345 0 2 1.73803 0.00568625 -0.0915229 
8.25847 14.4 17.6479 0 2 1.7609 0.00556414 -0.0894668 
8.2302 14.355 17.9664 0 2 1.79554 0.00544984 -0.0869319 
8.20673 14.3127 18.2889 0 2 1.85406 0.0052929 -0.0822284 
8.1881 14.2719 18.6141 0 2 1.85019 0.00519782 -0.0784649 
8.17437 14.2315 18.9411 0 2 1.83043 0.00506935 -0.0718879 
8.16559 14.1903 19.2685 0 2 1.81051 0.00499283 -0.0671425 
8.16181 14.1472 19.5954 0 2 1.85396 0.00489086 -0.0597204 
8.1631 14.101 19.9205 0 2 1.84973 0.00483092 -0.0546271 
8.1695 14.0505 20.2427 0 2 1.82943 0.00475234 -0.0468919 
8.18108 13.9946 20.561 0 2 1.79576 0.00470701 -0.04189 
8.19778 13.9324 20.8743 0 2 1.81581 0.00464845 -0.0348413 
8.21918 13.8643 21.1831 0 2 1.76902 0.00461507 -0.0305139 
8.24477 13.7909 21.4877 0 2 1.7414 0.00457254 -0.0246758 
8.27401 13.7129 21.7888 0 2 1.75208 0.00454867 -0.0212349 
8.30638 13.631 22.0868 0 2 1.76277 0.00451851 -0.0168021 
8.34137 13.5457 22.3822 0 2 1.74994 0.0045016 -0.0143655 
8.37845 13.4579 22.6755 0 2 1.73184 0.00448006 -0.0115142 
8.4171 13.368 22.9673 0 2 1.70376 0.00446774 -0.0100504 
8.45679 13.2768 23.2581 0 2 1.69392 0.00445151 -0.00846088 
8.497 13.185 23.5484 0 1 0 0.00444174 -0.0078141 
0 1 1 
1 2 1 
2 3 1 
3 4 1 
4 5 1 
5 6 1 
6 7 1 
7 8 1 
8 9 1 
9 10 1 
10 11 1 
11 12 1 
12 13 1 
13 14 1 
14 15 1 
15 16 1 
16 17 1 
17 18 1 
18 19 1 
19 20 1 
20 21 1 
21 22 1 
22 23 1 
23 24 1 
24 25 1 
25 26 1 
26 27 1 
27 28 1 
28 29 1 
29 30 1 
30 31 1 
31 32 1 
32 33 1 
33 34 1 
34 35 1 
35 36 1 
36 37 1 
37 38 1 
38 39 1 
39 40 1 
40 41 1 
41 42 1 
42 43 1 
43 44 1 
44 45 1 
45 46 1 
46 47 1 
47 48 1 
48 49 1 
49 50 1 
50 51 1 
51 52 1 
52 53 1 
53 54 1 
54 55 1 
55 56 1 
56 57 1 
57 58 1 
58 59 1 
59 60 1 
1 61 0 1 2 3 4 5 6 7 8 9 10 11 12 13 14 15 16 17 18 19 20 21 22 23 24 25 26 27 28 29 30 31 32 33 34 35 36 37 38 39 40 41 42 43 44 45 46 47 48 49 50 51 52 53 54 55 56 57 58 59 60 
