ply
format ascii 1.0
comment written by koba@oshima.lab
element vertex 61
property float x
property float y
property float z
property int label
property int attribute
property float radius
property float curvature
property float torsion
element edge 60
property int vertex1
property int vertex2
property int label
element vertex_seq 1
property int label
property list int int vertex_indices
end_header
8.497 17.287 5.29839 0 1 0 0.0119768 -0.0020116 
8.52626 17.2606 5.61957 0 2 2.393 0.011968 -0.00210578 
8.55568 17.234 5.94084 0 2 2.3859 0.0119583 -0.00229131 
8.58542 17.2069 6.26228 0 2 2.21182 0.0119413 -0.00274243 
8.61564 17.1791 6.58397 0 2 2.05317 0.0119278 -0.00315972 
8.64651 17.1502 6.90599 0 2 1.91831 0.0119029 -0.00397248 
8.67818 17.1202 7.22842 0 2 1.8543 0.0118826 -0.00465638 
8.71082 17.0887 7.55136 0 2 1.77886 0.0118453 -0.00590405 
8.74459 17.0554 7.87489 0 2 1.73639 0.011815 -0.00688879 
8.77965 17.0202 8.19908 0 2 1.69625 0.0117602 -0.00859627 
8.81616 16.9828 8.52402 0 2 1.66254 0.0117165 -0.00987918 
8.85407 16.9428 8.84963 0 2 1.16595 0.011639 -0.012036 
8.89252 16.8999 9.17519 0 2 1.20515 0.0115785 -0.0136422 
8.93045 16.8533 9.4998 0 2 1.17702 0.0114732 -0.0162787 
8.96679 16.8026 9.82258 0 2 1.1435 0.0113928 -0.0181157 
9.00046 16.7472 10.1426 0 2 1.16715 0.0112564 -0.0210047 
9.0304 16.6865 10.4591 0 2 1.21575 0.0111547 -0.0230382 
9.05554 16.62 10.771 0 2 1.53402 0.0109855 -0.0262289 
9.07481 16.547 11.0776 0 2 1.56003 0.0108618 -0.0283724 
9.08714 16.4671 11.3778 0 2 1.53307 0.0106608 -0.0316189 
9.09146 16.3796 11.6709 0 2 1.54359 0.0105168 -0.0338159 
9.08704 16.2843 11.9563 0 2 1.56303 0.0103653 -0.0360447 
9.07444 16.1823 12.2349 0 2 1.61094 0.0101247 -0.0394096 
9.05457 16.0749 12.508 0 2 1.60442 0.00995624 -0.0416682 
9.02834 15.9637 12.7767 0 2 1.60858 0.00969258 -0.0450862 
8.99665 15.8499 13.0424 0 2 1.60537 0.00951025 -0.0473858 
8.96039 15.7349 13.3064 0 2 1.63699 0.00922845 -0.0508374 
8.92048 15.6201 13.5698 0 2 1.70411 0.00903609 -0.0531274 
8.87781 15.507 13.834 0 2 1.69462 0.00874257 -0.0565208 
8.83329 15.3969 14.1001 0 2 1.71953 0.00854457 -0.0587366 
8.78783 15.2912 14.3696 0 2 1.71239 0.00824596 -0.0619562 
8.7422 15.191 14.6432 0 2 1.74275 0.00804695 -0.0639965 
8.69671 15.0964 14.9214 0 2 1.6821 0.00775045 -0.0668177 
8.65154 15.0069 15.2039 0 2 1.64822 0.00755518 -0.0684927 
8.6069 14.9224 15.4906 0 2 1.70256 0.00726775 -0.0706995 
8.56295 14.8425 15.7816 0 2 1.73006 0.00708089 -0.0719031 
8.51988 14.7669 16.0766 0 2 1.7405 0.00680957 -0.0731618 
8.47789 14.6954 16.3757 0 2 1.70209 0.00663564 -0.0735606 
8.43715 14.6276 16.6788 0 2 1.70878 0.00638659 -0.0735762 
8.39785 14.5633 16.9858 0 2 1.74782 0.00622914 -0.0731348 
8.36019 14.5021 17.2966 0 2 1.71321 0.00600689 -0.0716469 
8.3244 14.4437 17.611 0 2 1.74249 0.00586858 -0.0700451 
8.29096 14.3876 17.9285 0 2 1.7577 0.0057384 -0.0680775 
8.26042 14.333 18.2483 0 2 1.80008 0.00555849 -0.0644433 
8.23331 14.2794 18.5698 0 2 1.82106 0.00544883 -0.0615388 
8.21018 14.226 18.8923 0 2 1.82618 0.00529982 -0.0564574 
8.19156 14.1723 19.2151 0 2 1.78176 0.00521065 -0.0527841 
8.17799 14.1175 19.5375 0 2 1.81996 0.00509134 -0.0470319 
8.17002 14.061 19.8588 0 2 1.80571 0.00502096 -0.0430845 
8.16819 14.0023 20.1784 0 2 1.8132 0.00492843 -0.0370963 
8.17302 13.9405 20.4956 0 2 1.83777 0.00487492 -0.0332103 
8.18486 13.8753 20.8098 0 2 1.81663 0.00480568 -0.0277108 
8.20319 13.8068 21.1211 0 2 1.79994 0.00476616 -0.0243253 
8.2273 13.7354 21.43 0 2 1.77512 0.00471576 -0.0197537 
8.25645 13.6615 21.7367 0 2 1.79025 0.00468741 -0.0170459 
8.28993 13.5854 22.0415 0 2 1.78026 0.00465159 -0.0135324 
8.32701 13.5075 22.3448 0 2 1.77912 0.00463152 -0.0115857 
8.36699 13.4282 22.6468 0 2 1.78291 0.00460599 -0.00928625 
8.40912 13.3477 22.9478 0 2 1.73162 0.00459143 -0.0080997 
8.4527 13.2665 23.2483 0 2 1.75129 0.00457229 -0.00680872 
8.497 13.185 23.5484 0 1 0 0.00456079 -0.00628232 
0 1 1 
1 2 1 
2 3 1 
3 4 1 
4 5 1 
5 6 1 
6 7 1 
7 8 1 
8 9 1 
9 10 1 
10 11 1 
11 12 1 
12 13 1 
13 14 1 
14 15 1 
15 16 1 
16 17 1 
17 18 1 
18 19 1 
19 20 1 
20 21 1 
21 22 1 
22 23 1 
23 24 1 
24 25 1 
25 26 1 
26 27 1 
27 28 1 
28 29 1 
29 30 1 
30 31 1 
31 32 1 
32 33 1 
33 34 1 
34 35 1 
35 36 1 
36 37 1 
37 38 1 
38 39 1 
39 40 1 
40 41 1 
41 42 1 
42 43 1 
43 44 1 
44 45 1 
45 46 1 
46 47 1 
47 48 1 
48 49 1 
49 50 1 
50 51 1 
51 52 1 
52 53 1 
53 54 1 
54 55 1 
55 56 1 
56 57 1 
57 58 1 
58 59 1 
59 60 1 
1 61 0 1 2 3 4 5 6 7 8 9 10 11 12 13 14 15 16 17 18 19 20 21 22 23 24 25 26 27 28 29 30 31 32 33 34 35 36 37 38 39 40 41 42 43 44 45 46 47 48 49 50 51 52 53 54 55 56 57 58 59 60 
