ply
format ascii 1.0
comment written by koba@oshima.lab
element vertex 61
property float x
property float y
property float z
property int label
property int attribute
property float radius
property float curvature
property float torsion
element edge 60
property int vertex1
property int vertex2
property int label
element vertex_seq 1
property int label
property list int int vertex_indices
end_header
8.497 17.287 5.29839 0 1 0 0.0122987 -0.00240332 
8.52652 17.2564 5.61439 0 2 2.38009 0.0122907 -0.00251637 
8.55624 17.2258 5.93042 0 2 2.24464 0.0122818 -0.00273822 
8.58634 17.195 6.24649 0 2 2.23034 0.012266 -0.00327676 
8.61701 17.1639 6.56262 0 2 2.01418 0.0122533 -0.00377446 
8.64846 17.1324 6.87884 0 2 1.97259 0.0122298 -0.00474521 
8.68087 17.1004 7.19516 0 2 1.83816 0.0122106 -0.00556602 
8.71443 17.0679 7.5116 0 2 1.7674 0.012175 -0.0070683 
8.74934 17.0347 7.8282 0 2 1.67747 0.0121459 -0.00825632 
8.78579 17.0007 8.14496 0 2 1.65228 0.0120932 -0.0103225 
8.82397 16.966 8.4619 0 2 1.41514 0.0120512 -0.0118848 
8.86385 16.9301 8.77898 0 2 1.40013 0.0119764 -0.0145244 
8.9045 16.8923 9.09579 0 2 1.18244 0.011918 -0.0164968 
8.94476 16.8517 9.41187 0 2 1.23041 0.0118163 -0.0197569 
8.98349 16.8072 9.72676 0 2 1.26496 0.0117386 -0.0220678 
9.01952 16.7579 10.04 0 2 1.15453 0.0116067 -0.0257635 
9.05171 16.7029 10.3511 0 2 1.16765 0.0115082 -0.0284042 
9.07889 16.6411 10.6595 0 2 1.35169 0.0113441 -0.0326177 
9.09992 16.5717 10.9649 0 2 1.48079 0.011224 -0.0355203 
9.11365 16.4936 11.2668 0 2 1.52679 0.0110282 -0.040037 
9.11891 16.4059 11.5646 0 2 1.55731 0.0108876 -0.0431802 
9.1149 16.3081 11.8581 0 2 1.61965 0.0107392 -0.0464365 
9.10223 16.2016 12.1477 0 2 1.63327 0.0105032 -0.051413 
9.08186 16.0885 12.4341 0 2 1.6613 0.0103377 -0.0547894 
9.05472 15.9706 12.7176 0 2 1.66203 0.0100789 -0.059956 
9.02179 15.8499 12.9991 0 2 1.71265 0.00990026 -0.0634627 
8.98401 15.7283 13.279 0 2 1.7032 0.00962522 -0.0686625 
8.94235 15.6078 13.5579 0 2 1.69122 0.00943862 -0.0720495 
8.89774 15.4903 13.8364 0 2 1.68627 0.0091563 -0.0769475 
8.85115 15.3777 14.1152 0 2 1.70484 0.00896786 -0.0800536 
8.80353 15.272 14.3947 0 2 1.77008 0.00868717 -0.0844868 
8.75571 15.1747 14.6756 0 2 1.72762 0.00850272 -0.0872368 
8.70803 15.0852 14.958 0 2 1.67352 0.00823222 -0.090926 
8.66072 15.0024 15.2421 0 2 1.64215 0.00805718 -0.0930255 
8.61397 14.9255 15.5281 0 2 1.68862 0.00780426 -0.0956715 
8.56802 14.8534 15.8163 0 2 1.71641 0.00764296 -0.0970314 
8.52307 14.785 16.1067 0 2 1.70307 0.00741326 -0.0983122 
8.47935 14.7194 16.3996 0 2 1.65739 0.00726893 -0.0985825 
8.43707 14.6555 16.6952 0 2 1.66408 0.00706644 -0.09814 
8.39645 14.5924 16.9935 0 2 1.69973 0.00694111 -0.0972205 
8.3577 14.5291 17.2949 0 2 1.72626 0.00676798 -0.094789 
8.32108 14.4646 17.5993 0 2 1.74737 0.00666258 -0.0924298 
8.28707 14.3994 17.9066 0 2 1.737 0.00656512 -0.0895883 
8.25617 14.3338 18.2162 0 2 1.72502 0.00643337 -0.0844476 
8.2289 14.2683 18.5279 0 2 1.77306 0.00635485 -0.080433 
8.20575 14.2034 18.8412 0 2 1.77324 0.00625043 -0.073578 
8.18726 14.1395 19.1557 0 2 1.72467 0.00618922 -0.0687121 
8.17392 14.0771 19.4711 0 2 1.75936 0.00610885 -0.0611948 
8.16624 14.0166 19.787 0 2 1.75736 0.00606225 -0.0560878 
8.16474 13.9586 20.1029 0 2 1.75481 0.00600184 -0.0483873 
8.16994 13.9034 20.4185 0 2 1.79652 0.0059673 -0.0434238 
8.18212 13.8513 20.7335 0 2 1.76716 0.00592295 -0.0364085 
8.20079 13.8023 21.0478 0 2 1.79784 0.00589775 -0.032061 
8.22522 13.756 21.3616 0 2 1.78087 0.00586561 -0.0260996 
8.25468 13.7119 21.6749 0 2 1.78405 0.00584748 -0.0225652 
8.28847 13.6699 21.9878 0 2 1.78953 0.00582434 -0.0179877 
8.32586 13.6295 22.3004 0 2 1.79489 0.00581118 -0.0154372 
8.36612 13.5905 22.6126 0 2 1.84927 0.00579409 -0.0123768 
8.40855 13.5524 22.9247 0 2 1.7968 0.00578411 -0.0107907 
8.45241 13.5151 23.2366 0 2 1.8273 0.00577067 -0.00906446 
8.497 13.478 23.5484 0 1 0 0.00576241 -0.00835335 
0 1 1 
1 2 1 
2 3 1 
3 4 1 
4 5 1 
5 6 1 
6 7 1 
7 8 1 
8 9 1 
9 10 1 
10 11 1 
11 12 1 
12 13 1 
13 14 1 
14 15 1 
15 16 1 
16 17 1 
17 18 1 
18 19 1 
19 20 1 
20 21 1 
21 22 1 
22 23 1 
23 24 1 
24 25 1 
25 26 1 
26 27 1 
27 28 1 
28 29 1 
29 30 1 
30 31 1 
31 32 1 
32 33 1 
33 34 1 
34 35 1 
35 36 1 
36 37 1 
37 38 1 
38 39 1 
39 40 1 
40 41 1 
41 42 1 
42 43 1 
43 44 1 
44 45 1 
45 46 1 
46 47 1 
47 48 1 
48 49 1 
49 50 1 
50 51 1 
51 52 1 
52 53 1 
53 54 1 
54 55 1 
55 56 1 
56 57 1 
57 58 1 
58 59 1 
59 60 1 
1 61 0 1 2 3 4 5 6 7 8 9 10 11 12 13 14 15 16 17 18 19 20 21 22 23 24 25 26 27 28 29 30 31 32 33 34 35 36 37 38 39 40 41 42 43 44 45 46 47 48 49 50 51 52 53 54 55 56 57 58 59 60 
