ply
format ascii 1.0
comment written by koba@oshima.lab
element vertex 61
property float x
property float y
property float z
property int label
property int attribute
property float radius
property float curvature
property float torsion
element edge 60
property int vertex1
property int vertex2
property int label
element vertex_seq 1
property int label
property list int int vertex_indices
end_header
8.497 17.287 5.29839 0 1 0 0.0132979 -0.00238671 
8.52731 17.2603 5.61299 0 2 2.39745 0.0132915 -0.00249897 
8.55775 17.2334 5.9275 0 2 2.16559 0.0132841 -0.00271915 
8.58847 17.2062 6.24181 0 2 2.08131 0.0132705 -0.0032535 
8.6196 17.1784 6.55584 0 2 1.98844 0.0132592 -0.00374722 
8.65129 17.15 6.86948 0 2 1.93338 0.0132376 -0.00470897 
8.68366 17.1208 7.18263 0 2 1.85517 0.0132196 -0.00551983 
8.71686 17.0906 7.49522 0 2 1.72118 0.0131857 -0.00700041 
8.75103 17.0592 7.80713 0 2 1.6283 0.0131577 -0.00816896 
8.78631 17.0264 8.11826 0 2 1.5946 0.0131065 -0.0101972 
8.82282 16.9922 8.42854 0 2 1.42497 0.0130654 -0.0117273 
8.86054 16.9562 8.73784 0 2 1.34992 0.0129919 -0.0143061 
8.89871 16.9178 9.04603 0 2 1.24099 0.0129343 -0.0162283 
8.93641 16.8761 9.35297 0 2 1.24338 0.0128338 -0.0193997 
8.97272 16.8306 9.6585 0 2 1.21252 0.0127567 -0.0216492 
9.00669 16.7804 9.96248 0 2 1.16951 0.0126256 -0.0252477 
9.03742 16.7247 10.2648 0 2 1.13971 0.0125274 -0.0278182 
9.06397 16.6629 10.5652 0 2 1.23227 0.0123634 -0.0319169 
9.08542 16.5941 10.8636 0 2 1.41629 0.0122429 -0.0347389 
9.10084 16.5175 11.1599 0 2 1.46339 0.012046 -0.0391274 
9.10931 16.4326 11.4539 0 2 1.51553 0.0119041 -0.0421794 
9.11014 16.3388 11.7456 0 2 1.54589 0.011754 -0.0453374 
9.10366 16.2373 12.0349 0 2 1.59962 0.0115144 -0.0501325 
9.0904 16.1296 12.322 0 2 1.62998 0.0113459 -0.0533617 
9.07095 16.0173 12.607 0 2 1.65402 0.0110816 -0.0582652 
9.04584 15.9017 12.8901 0 2 1.6599 0.0108988 -0.0615658 
9.01565 15.7844 13.1714 0 2 1.70427 0.0106165 -0.0664006 
8.98093 15.667 13.451 0 2 1.67053 0.0104246 -0.069506 
8.94223 15.5509 13.7289 0 2 1.66051 0.0101335 -0.0739246 
8.90012 15.4375 14.0054 0 2 1.66576 0.0099388 -0.0766751 
8.85516 15.3286 14.2806 0 2 1.71814 0.00964805 -0.0805297 
8.80789 15.2251 14.5547 0 2 1.68525 0.00945649 -0.0828696 
8.75885 15.1272 14.8282 0 2 1.66416 0.00917472 -0.085919 
8.70856 15.0346 15.1019 0 2 1.60247 0.00899176 -0.0875864 
8.65754 14.9469 15.3765 0 2 1.66682 0.00872634 -0.0896154 
8.60631 14.8639 15.6526 0 2 1.61294 0.00855621 -0.0906019 
8.5554 14.7854 15.931 0 2 1.62569 0.00831249 -0.0914099 
8.50532 14.7109 16.2124 0 2 1.65721 0.00815824 -0.0914394 
8.45661 14.6403 16.4975 0 2 1.65626 0.00794005 -0.0907486 
8.40978 14.5732 16.7869 0 2 1.67096 0.00780376 -0.0897484 
8.36535 14.5094 17.0813 0 2 1.70607 0.00761356 -0.0873389 
8.32385 14.4486 17.3813 0 2 1.68514 0.00749645 -0.0850932 
8.28572 14.3904 17.6862 0 2 1.6967 0.00738711 -0.0824255 
8.25144 14.3346 17.9952 0 2 1.71358 0.00723748 -0.077643 
8.22145 14.2807 18.3075 0 2 1.76211 0.00714715 -0.0739238 
8.19621 14.2285 18.6222 0 2 1.7582 0.00702548 -0.0675778 
8.17618 14.1776 18.9386 0 2 1.74641 0.00695324 -0.063072 
8.16181 14.1276 19.2557 0 2 1.72189 0.00685723 -0.0560987 
8.15356 14.0784 19.5728 0 2 1.71626 0.00680092 -0.0513467 
8.15189 14.0294 19.8891 0 2 1.68109 0.00672722 -0.0441562 
8.15724 13.9804 20.2036 0 2 1.73942 0.00668472 -0.0395332 
8.16988 13.9312 20.5158 0 2 1.75919 0.00662975 -0.033039 
8.18926 13.8816 20.8258 0 2 1.7406 0.00659831 -0.0290449 
8.21463 13.8318 21.1337 0 2 1.71611 0.00655801 -0.0236173 
8.24524 13.7817 21.4399 0 2 1.69939 0.00653518 -0.0204076 
8.28034 13.7314 21.7446 0 2 1.71021 0.006506 -0.0162498 
8.31918 13.6809 22.048 0 2 1.75482 0.00648939 -0.0139347 
8.36101 13.6303 22.3504 0 2 1.74789 0.00646789 -0.0111618 
8.40509 13.5796 22.652 0 2 1.72251 0.00645537 -0.0097244 
8.45067 13.5288 22.9531 0 2 1.66559 0.00643859 -0.00815783 
8.497 13.478 23.254 0 1 0 0.00642833 -0.00751134 
0 1 1 
1 2 1 
2 3 1 
3 4 1 
4 5 1 
5 6 1 
6 7 1 
7 8 1 
8 9 1 
9 10 1 
10 11 1 
11 12 1 
12 13 1 
13 14 1 
14 15 1 
15 16 1 
16 17 1 
17 18 1 
18 19 1 
19 20 1 
20 21 1 
21 22 1 
22 23 1 
23 24 1 
24 25 1 
25 26 1 
26 27 1 
27 28 1 
28 29 1 
29 30 1 
30 31 1 
31 32 1 
32 33 1 
33 34 1 
34 35 1 
35 36 1 
36 37 1 
37 38 1 
38 39 1 
39 40 1 
40 41 1 
41 42 1 
42 43 1 
43 44 1 
44 45 1 
45 46 1 
46 47 1 
47 48 1 
48 49 1 
49 50 1 
50 51 1 
51 52 1 
52 53 1 
53 54 1 
54 55 1 
55 56 1 
56 57 1 
57 58 1 
58 59 1 
59 60 1 
1 61 0 1 2 3 4 5 6 7 8 9 10 11 12 13 14 15 16 17 18 19 20 21 22 23 24 25 26 27 28 29 30 31 32 33 34 35 36 37 38 39 40 41 42 43 44 45 46 47 48 49 50 51 52 53 54 55 56 57 58 59 60 
