ply
format ascii 1.0
comment written by koba@oshima.lab
element vertex 61
property float x
property float y
property float z
property int label
property int attribute
property float radius
property float curvature
property float torsion
element edge 60
property int vertex1
property int vertex2
property int label
element vertex_seq 1
property int label
property list int int vertex_indices
end_header
8.497 17.287 5.29839 0 1 0 0.0143114 -0.00207009 
8.5318 17.2535 5.60391 0 2 2.36383 0.0143053 -0.00216769 
8.56662 17.22 5.90944 0 2 2.11717 0.0142981 -0.00235932 
8.60147 17.1867 6.21502 0 2 2.04714 0.0142846 -0.00282459 
8.63636 17.1536 6.52065 0 2 1.90003 0.0142731 -0.00325457 
8.67132 17.1207 6.82634 0 2 1.86651 0.0142509 -0.00409368 
8.70636 17.0882 7.13213 0 2 1.81978 0.0142321 -0.0048043 
8.74149 17.056 7.43803 0 2 1.67141 0.0141966 -0.0061059 
8.77673 17.0243 7.74406 0 2 1.60582 0.0141671 -0.0071354 
8.8121 16.9931 8.05022 0 2 1.56511 0.0141129 -0.00892752 
8.84761 16.9625 8.35655 0 2 1.524 0.0140693 -0.0102867 
8.88315 16.9323 8.663 0 2 1.38002 0.0139911 -0.0125878 
8.91814 16.9015 8.96925 0 2 1.24124 0.0139296 -0.014309 
8.95187 16.8688 9.27493 0 2 1.21444 0.0138221 -0.0171553 
8.98362 16.833 9.57966 0 2 1.14899 0.0137396 -0.019175 
9.01269 16.7927 9.88307 0 2 1.06124 0.0135989 -0.0224062 
9.03836 16.7467 10.1848 0 2 1.18094 0.0134934 -0.0247145 
9.05993 16.6938 10.4844 0 2 1.17377 0.013317 -0.0283918 
9.07668 16.6327 10.7816 0 2 1.15111 0.0131873 -0.0309151 
9.08791 16.5621 11.076 0 2 1.20438 0.0129751 -0.034825 
9.09289 16.4807 11.3672 0 2 1.44566 0.0128221 -0.0375343 
9.09114 16.3878 11.6549 0 2 1.5097 0.01266 -0.0403303 
9.08296 16.2849 11.9394 0 2 1.54498 0.012401 -0.0445656 
9.06888 16.174 12.221 0 2 1.5937 0.0122186 -0.0474122 
9.04942 16.057 12.5 0 2 1.60934 0.011932 -0.0517276 
9.02511 15.9358 12.7769 0 2 1.64967 0.0117331 -0.054628 
8.99646 15.8126 13.0519 0 2 1.67117 0.0114253 -0.0588595 
8.96402 15.6892 13.3253 0 2 1.63888 0.0112153 -0.0615651 
8.92828 15.5677 13.5976 0 2 1.64713 0.0108957 -0.0653954 
8.88979 15.45 13.8691 0 2 1.65474 0.0106811 -0.0677668 
8.84906 15.3382 14.14 0 2 1.70875 0.0103591 -0.0710863 
8.80658 15.2337 14.4109 0 2 1.65177 0.0101459 -0.0731002 
8.76268 15.1364 14.6821 0 2 1.65239 0.00983064 -0.0757227 
8.71767 15.0458 14.9541 0 2 1.59642 0.00962465 -0.0771562 
8.67184 14.9613 15.2274 0 2 1.64785 0.00932381 -0.0789318 
8.6255 14.8822 15.5025 0 2 1.63194 0.00912955 -0.0798245 
8.57893 14.8081 15.7799 0 2 1.59365 0.00884901 -0.0806186 
8.53245 14.7383 16.0601 0 2 1.64991 0.00866992 -0.0807285 
8.48634 14.6724 16.3436 0 2 1.62836 0.00841428 -0.0802831 
8.44091 14.6096 16.6308 0 2 1.65888 0.00825307 -0.0795286 
8.39645 14.5495 16.9223 0 2 1.67527 0.00802589 -0.0776058 
8.35335 14.4914 17.2183 0 2 1.70426 0.00788459 -0.0757571 
8.31226 14.4352 17.5183 0 2 1.69223 0.00775162 -0.0735359 
8.27394 14.3804 17.8217 0 2 1.67011 0.00756783 -0.0695023 
8.23912 14.327 18.1276 0 2 1.68777 0.00745579 -0.0663255 
8.20856 14.2745 18.4355 0 2 1.69369 0.00730349 -0.0608376 
8.18299 14.2227 18.7446 0 2 1.699 0.00721228 -0.0569063 
8.16316 14.1714 19.0542 0 2 1.69832 0.00709009 -0.0507782 
8.14982 14.1202 19.3635 0 2 1.65982 0.00701791 -0.046576 
8.1437 14.069 19.672 0 2 1.63555 0.00692286 -0.040184 
8.14555 14.0174 19.9789 0 2 1.65168 0.00686776 -0.0360484 
8.15586 13.9652 20.2836 0 2 1.69232 0.00679621 -0.0302059 
8.174 13.9125 20.5862 0 2 1.65832 0.00675519 -0.026598 
8.19912 13.8593 20.8869 0 2 1.66293 0.00670256 -0.0216834 
8.23035 13.8056 21.186 0 2 1.65175 0.00667275 -0.0187646 
8.2668 13.7516 21.4838 0 2 1.68737 0.00663474 -0.0149669 
8.30761 13.6973 21.7803 0 2 1.68843 0.0066132 -0.0128446 
8.35191 13.6427 22.076 0 2 1.69124 0.00658547 -0.0102955 
8.39882 13.5879 22.3709 0 2 1.68735 0.00656945 -0.00897098 
8.44747 13.533 22.6654 0 2 1.71975 0.00654813 -0.00752469 
8.497 13.478 22.9597 0 1 0 0.00653517 -0.00692708 
0 1 1 
1 2 1 
2 3 1 
3 4 1 
4 5 1 
5 6 1 
6 7 1 
7 8 1 
8 9 1 
9 10 1 
10 11 1 
11 12 1 
12 13 1 
13 14 1 
14 15 1 
15 16 1 
16 17 1 
17 18 1 
18 19 1 
19 20 1 
20 21 1 
21 22 1 
22 23 1 
23 24 1 
24 25 1 
25 26 1 
26 27 1 
27 28 1 
28 29 1 
29 30 1 
30 31 1 
31 32 1 
32 33 1 
33 34 1 
34 35 1 
35 36 1 
36 37 1 
37 38 1 
38 39 1 
39 40 1 
40 41 1 
41 42 1 
42 43 1 
43 44 1 
44 45 1 
45 46 1 
46 47 1 
47 48 1 
48 49 1 
49 50 1 
50 51 1 
51 52 1 
52 53 1 
53 54 1 
54 55 1 
55 56 1 
56 57 1 
57 58 1 
58 59 1 
59 60 1 
1 61 0 1 2 3 4 5 6 7 8 9 10 11 12 13 14 15 16 17 18 19 20 21 22 23 24 25 26 27 28 29 30 31 32 33 34 35 36 37 38 39 40 41 42 43 44 45 46 47 48 49 50 51 52 53 54 55 56 57 58 59 60 
