ply
format ascii 1.0
comment written by koba@oshima.lab
element vertex 61
property float x
property float y
property float z
property int label
property int attribute
property float radius
property float curvature
property float torsion
element edge 60
property int vertex1
property int vertex2
property int label
element vertex_seq 1
property int label
property list int int vertex_indices
end_header
8.497 17.287 5.29839 0 1 0 0.0122229 -0.00225574 
8.52515 17.2631 5.62202 0 2 2.26185 0.0122139 -0.00236191 
8.55351 17.2389 5.94548 0 2 2.13287 0.012204 -0.00256982 
8.58228 17.2142 6.26861 0 2 2.09911 0.0121867 -0.00307415 
8.61168 17.1887 6.59123 0 2 1.97175 0.0121728 -0.00354018 
8.64192 17.1621 6.91318 0 2 1.89664 0.0121475 -0.00444547 
8.6732 17.1343 7.23429 0 2 1.80261 0.0121268 -0.00520301 
8.70573 17.1049 7.55439 0 2 1.70949 0.0120888 -0.0065795 
8.73972 17.0736 7.87332 0 2 1.66196 0.0120579 -0.00766282 
8.77539 17.0403 8.19089 0 2 1.6254 0.0120021 -0.00953418 
8.81293 17.0046 8.50696 0 2 1.36261 0.0119578 -0.0109308 
8.85233 16.9663 8.82137 0 2 1.37412 0.0118792 -0.013265 
8.89266 16.9246 9.13404 0 2 1.17648 0.0118179 -0.0149944 
8.93276 16.8789 9.44493 0 2 1.12358 0.0117116 -0.017834 
8.97147 16.8286 9.75398 0 2 1.08949 0.0116306 -0.0198361 
9.00763 16.7729 10.0611 0 2 1.11403 0.0114931 -0.0230243 
9.04009 16.7111 10.3664 0 2 1.11608 0.0113903 -0.0252949 
9.06768 16.6425 10.6696 0 2 1.1454 0.0112192 -0.0289079 
9.08925 16.5665 10.9708 0 2 1.24332 0.0110937 -0.0313874 
9.10363 16.4823 11.2699 0 2 1.36507 0.0108886 -0.0352351 
9.10967 16.3894 11.5669 0 2 1.5483 0.010741 -0.0379084 
9.10656 16.2872 11.8617 0 2 1.60911 0.0105847 -0.040675 
9.09482 16.1774 12.1545 0 2 1.64449 0.0103352 -0.0448753 
9.07534 16.0615 12.4455 0 2 1.67416 0.0101596 -0.0477048 
9.049 15.9414 12.7349 0 2 1.71618 0.0098839 -0.0520053 
9.01668 15.8189 13.023 0 2 1.68213 0.00969277 -0.0549062 
8.97925 15.6957 13.3098 0 2 1.68279 0.00939715 -0.0591875 
8.9376 15.5735 13.5957 0 2 1.72875 0.00919561 -0.06196 
8.8926 15.4543 13.8807 0 2 1.74049 0.00888913 -0.0659363 
8.84514 15.3396 14.1652 0 2 1.71981 0.00868342 -0.0684328 
8.79609 15.2314 14.4493 0 2 1.70364 0.00837518 -0.0719984 
8.74626 15.1309 14.7332 0 2 1.69502 0.00817128 -0.0742101 
8.6961 15.0378 15.0175 0 2 1.63224 0.00787009 -0.0771611 
8.64603 14.9515 15.3026 0 2 1.64145 0.00767363 -0.0788246 
8.59642 14.8711 15.589 0 2 1.63282 0.0073872 -0.080997 
8.54767 14.796 15.8772 0 2 1.61852 0.00720261 -0.0821829 
8.50017 14.7255 16.1677 0 2 1.59691 0.00693656 -0.0834358 
8.45431 14.6587 16.461 0 2 1.61522 0.00676712 -0.0838479 
8.41048 14.595 16.7576 0 2 1.67729 0.00652587 -0.0838362 
8.36908 14.5336 17.058 0 2 1.70799 0.00637415 -0.0833406 
8.33049 14.4738 17.3627 0 2 1.72564 0.00616099 -0.0817252 
8.2951 14.415 17.672 0 2 1.73032 0.00602885 -0.08001 
8.26323 14.3568 17.9853 0 2 1.72203 0.00590484 -0.0778816 
8.23521 14.2989 18.3016 0 2 1.73217 0.00573403 -0.0739079 
8.21136 14.2412 18.6203 0 2 1.73961 0.00563027 -0.0707115 
8.19199 14.1832 18.9404 0 2 1.76816 0.00548969 -0.0650949 
8.17743 14.1248 19.2612 0 2 1.77021 0.00540578 -0.061001 
8.16799 14.0657 19.5817 0 2 1.76509 0.00529383 -0.05452 
8.16399 14.0056 19.9012 0 2 1.7296 0.00522797 -0.05002 
8.16576 13.9442 20.2189 0 2 1.76107 0.00514166 -0.0431099 
8.17361 13.8814 20.5338 0 2 1.76684 0.0050919 -0.0386103 
8.1877 13.8168 20.8453 0 2 1.72317 0.00502768 -0.032235 
8.20756 13.7506 21.1537 0 2 1.71821 0.00499111 -0.0282978 
8.23254 13.6831 21.4593 0 2 1.7406 0.00494456 -0.0229525 
8.26199 13.6142 21.7623 0 2 1.714 0.00491842 -0.0197895 
8.29529 13.5443 22.0632 0 2 1.74206 0.00488541 -0.0157011 
8.33179 13.4735 22.3624 0 2 1.72292 0.00486689 -0.0134438 
8.37085 13.402 22.6601 0 2 1.72321 0.00484328 -0.0107857 
8.41184 13.33 22.9568 0 2 1.69522 0.00482975 -0.00941743 
8.4541 13.2576 23.2528 0 2 1.67446 0.0048119 -0.00793099 
8.497 13.185 23.5484 0 1 0 0.00480113 -0.00732558 
0 1 1 
1 2 1 
2 3 1 
3 4 1 
4 5 1 
5 6 1 
6 7 1 
7 8 1 
8 9 1 
9 10 1 
10 11 1 
11 12 1 
12 13 1 
13 14 1 
14 15 1 
15 16 1 
16 17 1 
17 18 1 
18 19 1 
19 20 1 
20 21 1 
21 22 1 
22 23 1 
23 24 1 
24 25 1 
25 26 1 
26 27 1 
27 28 1 
28 29 1 
29 30 1 
30 31 1 
31 32 1 
32 33 1 
33 34 1 
34 35 1 
35 36 1 
36 37 1 
37 38 1 
38 39 1 
39 40 1 
40 41 1 
41 42 1 
42 43 1 
43 44 1 
44 45 1 
45 46 1 
46 47 1 
47 48 1 
48 49 1 
49 50 1 
50 51 1 
51 52 1 
52 53 1 
53 54 1 
54 55 1 
55 56 1 
56 57 1 
57 58 1 
58 59 1 
59 60 1 
1 61 0 1 2 3 4 5 6 7 8 9 10 11 12 13 14 15 16 17 18 19 20 21 22 23 24 25 26 27 28 29 30 31 32 33 34 35 36 37 38 39 40 41 42 43 44 45 46 47 48 49 50 51 52 53 54 55 56 57 58 59 60 
