ply
format ascii 1.0
comment written by koba@oshima.lab
element vertex 61
property float x
property float y
property float z
property int label
property int attribute
property float radius
property float curvature
property float torsion
element edge 60
property int vertex1
property int vertex2
property int label
element vertex_seq 1
property int label
property list int int vertex_indices
end_header
8.497 17.287 5.29839 0 1 0 0.0153298 -0.00200702 
8.51898 17.2612 5.60715 0 2 2.24055 0.0153273 -0.00210146 
8.54122 17.2353 5.91575 0 2 2.11351 0.0153237 -0.00228624 
8.564 17.209 6.22402 0 2 2.08297 0.0153157 -0.00273408 
8.58758 17.1822 6.53179 0 2 1.91523 0.015308 -0.00314747 
8.61223 17.1547 6.8389 0 2 1.8298 0.015292 -0.00395078 
8.63821 17.1263 7.14517 0 2 1.76194 0.0152777 -0.00462484 
8.6658 17.0969 7.45045 0 2 1.69258 0.0152494 -0.00585062 
8.69525 17.0662 7.75456 0 2 1.63133 0.0152252 -0.0068146 
8.72684 17.0342 8.05735 0 2 1.526 0.0151798 -0.00847706 
8.76083 17.0005 8.35864 0 2 1.46997 0.0151427 -0.00971588 
8.79727 16.9651 8.6583 0 2 1.30366 0.0150753 -0.0117795 
8.83532 16.9272 8.95626 0 2 1.22066 0.0150218 -0.0133013 
8.87392 16.886 9.25251 0 2 1.1961 0.0149275 -0.015787 
8.91203 16.841 9.54703 0 2 1.14275 0.0148547 -0.0175335 
8.94858 16.7913 9.83977 0 2 1.028 0.0147296 -0.0203004 
8.98252 16.7362 10.1307 0 2 0.991982 0.0146351 -0.0222575 
9.01279 16.675 10.4199 0 2 1.22143 0.0144761 -0.0253418 
9.03833 16.6069 10.7071 0 2 1.23297 0.0143583 -0.0274305 
9.05809 16.5313 10.9926 0 2 1.30285 0.0141643 -0.0306225 
9.07101 16.4474 11.2761 0 2 1.38495 0.0140234 -0.0328038 
9.07631 16.3548 11.5577 0 2 1.44608 0.0138733 -0.0350286 
9.07432 16.2548 11.8375 0 2 1.49147 0.0136318 -0.0383342 
9.06565 16.149 12.1157 0 2 1.56446 0.0134605 -0.0405098 
9.05089 16.0388 12.3924 0 2 1.60038 0.0131896 -0.0437354 
9.03066 15.926 12.6676 0 2 1.64648 0.0130003 -0.0458542 
9.00555 15.812 12.9416 0 2 1.67934 0.0127053 -0.0488797 
8.97617 15.6985 13.2145 0 2 1.61391 0.0125025 -0.0507689 
8.94313 15.587 13.4864 0 2 1.57996 0.0121915 -0.0533714 
8.90703 15.4791 13.7574 0 2 1.61384 0.0119809 -0.0549321 
8.86847 15.3765 14.0277 0 2 1.6667 0.0116623 -0.0570475 
8.828 15.2802 14.2975 0 2 1.65924 0.0114494 -0.0582795 
8.78593 15.1901 14.5672 0 2 1.6768 0.0111317 -0.0597898 
8.74249 15.1054 14.8372 0 2 1.5814 0.0109221 -0.0605406 
8.69793 15.0256 15.108 0 2 1.59328 0.010613 -0.0613886 
8.65249 14.9499 15.3801 0 2 1.62776 0.0104113 -0.0617443 
8.60642 14.8778 15.654 0 2 1.58425 0.0101169 -0.0618914 
8.55996 14.8086 15.9302 0 2 1.55418 0.00992696 -0.0616946 
8.51336 14.7417 16.209 0 2 1.58673 0.00965272 -0.0609783 
8.46686 14.6763 16.4911 0 2 1.58566 0.00947779 -0.0601853 
8.42069 14.6119 16.7767 0 2 1.65002 0.00922843 -0.0584481 
8.37522 14.5478 17.0664 0 2 1.65557 0.00907154 -0.0568973 
8.33123 14.4842 17.3595 0 2 1.66616 0.00892251 -0.055099 
8.28959 14.4211 17.6555 0 2 1.65703 0.00871422 -0.0519348 
8.2512 14.3586 17.9537 0 2 1.61469 0.00858583 -0.049497 
8.21695 14.2967 18.2536 0 2 1.61137 0.00840949 -0.0453485 
8.18772 14.2356 18.5546 0 2 1.59608 0.00830281 -0.0424041 
8.16439 14.1754 18.8559 0 2 1.61493 0.00815858 -0.0378445 
8.14786 14.1161 19.157 0 2 1.60921 0.00807264 -0.0347348 
8.13902 14.0579 19.4573 0 2 1.59828 0.00795852 -0.0300233 
8.13874 14.0009 19.7561 0 2 1.61064 0.00789187 -0.0269682 
8.14761 13.945 20.0529 0 2 1.63346 0.00780482 -0.0226294 
8.165 13.8903 20.3479 0 2 1.61702 0.00775468 -0.0199334 
8.18995 13.8366 20.6412 0 2 1.59093 0.00769019 -0.0162368 
8.22152 13.7837 20.9331 0 2 1.61024 0.00765362 -0.0140387 
8.25877 13.7316 21.2237 0 2 1.62743 0.00760697 -0.0111852 
8.30074 13.6802 21.5133 0 2 1.61761 0.00758054 -0.0095968 
8.34649 13.6292 21.802 0 2 1.62026 0.00754652 -0.00770131 
8.39509 13.5786 22.0901 0 2 1.66868 0.00752684 -0.00671849 
8.44557 13.5282 22.3778 0 2 1.71783 0.00750065 -0.0056451 
8.497 13.478 22.6653 0 1 0 0.00748472 -0.00520176 
0 1 1 
1 2 1 
2 3 1 
3 4 1 
4 5 1 
5 6 1 
6 7 1 
7 8 1 
8 9 1 
9 10 1 
10 11 1 
11 12 1 
12 13 1 
13 14 1 
14 15 1 
15 16 1 
16 17 1 
17 18 1 
18 19 1 
19 20 1 
20 21 1 
21 22 1 
22 23 1 
23 24 1 
24 25 1 
25 26 1 
26 27 1 
27 28 1 
28 29 1 
29 30 1 
30 31 1 
31 32 1 
32 33 1 
33 34 1 
34 35 1 
35 36 1 
36 37 1 
37 38 1 
38 39 1 
39 40 1 
40 41 1 
41 42 1 
42 43 1 
43 44 1 
44 45 1 
45 46 1 
46 47 1 
47 48 1 
48 49 1 
49 50 1 
50 51 1 
51 52 1 
52 53 1 
53 54 1 
54 55 1 
55 56 1 
56 57 1 
57 58 1 
58 59 1 
59 60 1 
1 61 0 1 2 3 4 5 6 7 8 9 10 11 12 13 14 15 16 17 18 19 20 21 22 23 24 25 26 27 28 29 30 31 32 33 34 35 36 37 38 39 40 41 42 43 44 45 46 47 48 49 50 51 52 53 54 55 56 57 58 59 60 
