ply
format ascii 1.0
comment written by koba@oshima.lab
element vertex 61
property float x
property float y
property float z
property int label
property int attribute
property float radius
property float curvature
property float torsion
element edge 60
property int vertex1
property int vertex2
property int label
element vertex_seq 1
property int label
property list int int vertex_indices
end_header
8.497 17.287 5.29839 0 1 0 0.0129445 -0.0024735 
8.52041 17.2605 5.61569 0 2 2.12808 0.0129385 -0.00258984 
8.54407 17.2338 5.93284 0 2 2.08981 0.0129316 -0.00281814 
8.56822 17.2067 6.2497 0 2 2.05158 0.012919 -0.00337223 
8.59311 17.1791 6.56613 0 2 1.9302 0.0129084 -0.00388409 
8.61899 17.1506 6.88198 0 2 1.79993 0.0128885 -0.00487875 
8.64609 17.1212 7.19709 0 2 1.80045 0.0128719 -0.00571242 
8.67468 17.0906 7.51134 0 2 1.69844 0.0128406 -0.00722788 
8.705 17.0586 7.82456 0 2 1.62391 0.0128149 -0.00841989 
8.73729 17.025 8.13662 0 2 1.574 0.0127677 -0.0104786 
8.77179 16.9897 8.44737 0 2 1.32478 0.0127299 -0.0120177 
8.80855 16.9523 8.75667 0 2 1.15292 0.0126623 -0.0145908 
8.8467 16.9122 9.06436 0 2 1.16788 0.0126093 -0.0164954 
8.88519 16.8685 9.37029 0 2 1.02446 0.0125167 -0.0196154 
8.92294 16.8205 9.67433 0 2 0.987216 0.0124458 -0.021808 
8.95891 16.7673 9.97632 0 2 0.99784 0.012325 -0.0252834 
8.99201 16.7082 10.2761 0 2 1.1531 0.0122344 -0.0277444 
9.02118 16.6425 10.5735 0 2 1.16661 0.0120832 -0.0316342 
9.04536 16.5692 10.8685 0 2 1.21673 0.011972 -0.0342858 
9.06348 16.4877 11.1608 0 2 1.25558 0.01179 -0.0383669 
9.07447 16.397 11.4503 0 2 1.42962 0.0116588 -0.041176 
9.07756 16.297 11.7369 0 2 1.50709 0.0115198 -0.0440596 
9.07306 16.189 12.0211 0 2 1.5617 0.0112975 -0.0483988 
9.06158 16.0751 12.3033 0 2 1.57827 0.0111409 -0.0512949 
9.04372 15.9572 12.5839 0 2 1.58027 0.0108948 -0.0556523 
9.02008 15.8372 12.8634 0 2 1.67123 0.0107239 -0.0585598 
8.99128 15.7171 13.1423 0 2 1.63552 0.0104593 -0.0627967 
8.9579 15.5989 13.421 0 2 1.65807 0.0102787 -0.0655056 
8.92056 15.4846 13.7001 0 2 1.65893 0.0100035 -0.0693443 
8.87986 15.3759 13.9799 0 2 1.6637 0.00981846 -0.0717249 
8.8364 15.2751 14.2609 0 2 1.66067 0.00954066 -0.0750472 
8.79078 15.1833 14.5436 0 2 1.66994 0.00935656 -0.0770534 
8.74356 15.1001 14.8279 0 2 1.66502 0.00908416 -0.0796499 
8.69531 15.0241 15.1139 0 2 1.60722 0.00890615 -0.0810535 
8.64656 14.9541 15.4017 0 2 1.62901 0.00864628 -0.0827148 
8.59789 14.8889 15.691 0 2 1.61841 0.00847874 -0.0834726 
8.54985 14.8273 15.9821 0 2 1.60789 0.00823743 -0.0839621 
8.50299 14.7681 16.2748 0 2 1.56334 0.00808397 -0.0837987 
8.45788 14.71 16.5692 0 2 1.63692 0.00786593 -0.0829 
8.41506 14.6519 16.8653 0 2 1.65464 0.00772914 -0.0818233 
8.3751 14.5925 17.163 0 2 1.6697 0.00753749 -0.0793963 
8.3385 14.5308 17.4623 0 2 1.69054 0.00741906 -0.0772078 
8.30557 14.4673 17.7632 0 2 1.6749 0.00730819 -0.0746731 
8.27658 14.4023 18.0653 0 2 1.6434 0.00715592 -0.0702457 
8.25179 14.3365 18.3685 0 2 1.61762 0.00706364 -0.0668711 
8.23147 14.2704 18.6726 0 2 1.63366 0.00693888 -0.0611989 
8.21588 14.2045 18.9774 0 2 1.66932 0.00686454 -0.0571879 
8.20528 14.1395 19.2829 0 2 1.63021 0.00676541 -0.0509838 
8.19993 14.0759 19.5887 0 2 1.61585 0.0067071 -0.0467591 
8.20011 14.0141 19.8946 0 2 1.62505 0.00663057 -0.0403702 
8.20606 13.9549 20.2006 0 2 1.66132 0.00658635 -0.0362452 
8.21792 13.8986 20.5065 0 2 1.68631 0.00652907 -0.0304127 
8.23523 13.845 20.8122 0 2 1.65386 0.0064963 -0.0268002 
8.25737 13.7938 21.1177 0 2 1.66533 0.00645433 -0.0218545 
8.28374 13.7447 21.4231 0 2 1.66265 0.00643058 -0.0189165 
8.31374 13.6975 21.7284 0 2 1.7044 0.00640029 -0.0150985 
8.34676 13.6518 22.0337 0 2 1.72719 0.0063831 -0.0129645 
8.38221 13.6073 22.3388 0 2 1.72611 0.00636091 -0.0103966 
8.41946 13.5637 22.6439 0 2 1.6888 0.00634803 -0.00906308 
8.45793 13.5207 22.949 0 2 1.66919 0.0063308 -0.00761014 
8.497 13.478 23.254 0 1 0 0.00632029 -0.00701133 
0 1 1 
1 2 1 
2 3 1 
3 4 1 
4 5 1 
5 6 1 
6 7 1 
7 8 1 
8 9 1 
9 10 1 
10 11 1 
11 12 1 
12 13 1 
13 14 1 
14 15 1 
15 16 1 
16 17 1 
17 18 1 
18 19 1 
19 20 1 
20 21 1 
21 22 1 
22 23 1 
23 24 1 
24 25 1 
25 26 1 
26 27 1 
27 28 1 
28 29 1 
29 30 1 
30 31 1 
31 32 1 
32 33 1 
33 34 1 
34 35 1 
35 36 1 
36 37 1 
37 38 1 
38 39 1 
39 40 1 
40 41 1 
41 42 1 
42 43 1 
43 44 1 
44 45 1 
45 46 1 
46 47 1 
47 48 1 
48 49 1 
49 50 1 
50 51 1 
51 52 1 
52 53 1 
53 54 1 
54 55 1 
55 56 1 
56 57 1 
57 58 1 
58 59 1 
59 60 1 
1 61 0 1 2 3 4 5 6 7 8 9 10 11 12 13 14 15 16 17 18 19 20 21 22 23 24 25 26 27 28 29 30 31 32 33 34 35 36 37 38 39 40 41 42 43 44 45 46 47 48 49 50 51 52 53 54 55 56 57 58 59 60 
