ply
format ascii 1.0
comment written by koba@oshima.lab
element vertex 61
property float x
property float y
property float z
property int label
property int attribute
property float radius
property float curvature
property float torsion
element edge 60
property int vertex1
property int vertex2
property int label
element vertex_seq 1
property int label
property list int int vertex_indices
end_header
8.497 17.287 5.29839 0 1 0 0.0129526 -0.00206016 
8.52048 17.2632 5.61878 0 2 2.07059 0.0129469 -0.00215711 
8.5442 17.239 5.93896 0 2 2.03227 0.0129405 -0.00234704 
8.56844 17.2141 6.25871 0 2 2.02734 0.0129284 -0.00280768 
8.59342 17.1881 6.57783 0 2 1.93018 0.0129183 -0.00323312 
8.61941 17.1607 6.89609 0 2 1.81305 0.0128988 -0.00405728 
8.64666 17.1315 7.21328 0 2 1.73228 0.0128824 -0.00474258 
8.67542 17.1002 7.5292 0 2 1.70358 0.0128515 -0.00598124 
8.70594 17.0664 7.84362 0 2 1.63505 0.0128259 -0.0069517 
8.73846 17.0297 8.15633 0 2 1.58133 0.0127788 -0.00861888 
8.77326 16.9897 8.46713 0 2 1.32784 0.0127409 -0.00985327 
8.81034 16.9462 8.77583 0 2 1.15712 0.0126731 -0.0118999 
8.84883 16.8989 9.08247 0 2 1.16743 0.0126198 -0.0134046 
8.88765 16.8473 9.38709 0 2 1.01199 0.0125266 -0.0158528 
8.92568 16.7913 9.68975 0 2 0.963617 0.012455 -0.017558 
8.96182 16.7306 9.99052 0 2 0.972384 0.0123328 -0.0202382 
8.99498 16.6647 10.2895 0 2 1.14427 0.0122411 -0.022122 
9.02406 16.5935 10.5866 0 2 1.1522 0.0120874 -0.0250771 
9.04796 16.5167 10.8821 0 2 1.21931 0.0119742 -0.0270723 
9.06558 16.4339 11.1758 0 2 1.23466 0.0117882 -0.0301144 
9.07581 16.3449 11.468 0 2 1.40671 0.0116537 -0.0321898 
9.07787 16.2495 11.7587 0 2 1.5275 0.0115107 -0.0343055 
9.07211 16.1488 12.0479 0 2 1.56717 0.0112813 -0.0374521 
9.05923 16.0439 12.3359 0 2 1.58605 0.011119 -0.0395255 
9.0399 15.9359 12.6226 0 2 1.61705 0.0108627 -0.0426031 
9.01479 15.826 12.9084 0 2 1.61212 0.010684 -0.0446283 
8.98458 15.7155 13.1932 0 2 1.66216 0.0104059 -0.0475455 
8.94994 15.6054 13.4772 0 2 1.65726 0.010215 -0.0493856 
8.91156 15.4969 13.7605 0 2 1.67553 0.0099224 -0.0519476 
8.8701 15.3912 14.0432 0 2 1.64358 0.00972438 -0.0535011 
8.82624 15.2894 14.3255 0 2 1.60708 0.00942497 -0.055626 
8.78063 15.1926 14.6076 0 2 1.64047 0.00922506 -0.0568725 
8.73377 15.1006 14.8898 0 2 1.61188 0.00892686 -0.0584054 
8.68613 15.0134 15.1725 0 2 1.58731 0.00873033 -0.0591649 
8.63818 14.9307 15.4564 0 2 1.62275 0.00844073 -0.0600228 
8.59041 14.8523 15.7418 0 2 1.60174 0.00825203 -0.0603767 
8.54327 14.7779 16.0291 0 2 1.61884 0.00797701 -0.0604906 
8.49725 14.7074 16.3189 0 2 1.55186 0.00779985 -0.0602437 
8.45281 14.6406 16.6116 0 2 1.59461 0.00754462 -0.059445 
8.41043 14.5773 16.9076 0 2 1.64935 0.00738215 -0.0585893 
8.37057 14.5173 17.2075 0 2 1.64341 0.00715104 -0.0567324 
8.3337 14.4601 17.5114 0 2 1.67952 0.00700596 -0.0550807 
8.30017 14.4054 17.8188 0 2 1.65092 0.00686841 -0.0531912 
8.27033 14.3522 18.129 0 2 1.69363 0.00667655 -0.0499196 
8.24453 14.2999 18.4411 0 2 1.66806 0.0065585 -0.0474319 
8.22311 14.2478 18.7544 0 2 1.67437 0.00639659 -0.0432417 
8.20641 14.1952 19.068 0 2 1.71633 0.0062988 -0.0402734 
8.19479 14.1412 19.3813 0 2 1.65359 0.00616687 -0.0356798 
8.18858 14.0853 19.6935 0 2 1.63911 0.00608847 -0.0325546 
8.18813 14.0266 20.0037 0 2 1.64284 0.00598479 -0.0278427 
8.19378 13.9645 20.3112 0 2 1.67508 0.00592454 -0.0248124 
8.20572 13.8984 20.6154 0 2 1.67173 0.00584628 -0.0205667 
8.22347 13.8286 20.9164 0 2 1.64476 0.0058015 -0.0179795 
8.24637 13.7554 21.2147 0 2 1.60084 0.00574425 -0.0145225 
8.27379 13.6794 21.5106 0 2 1.64909 0.00571203 -0.0124902 
8.30508 13.6008 21.8044 0 2 1.70728 0.0056713 -0.00987051 
8.33959 13.5201 22.0964 0 2 1.69034 0.00564847 -0.008431 
8.37669 13.4378 22.387 0 2 1.6652 0.00561943 -0.00674946 
8.41572 13.3542 22.6766 0 2 1.62232 0.00560285 -0.00588724 
8.45604 13.2698 22.9655 0 2 1.63994 0.00558105 -0.00495278 
8.497 13.185 23.254 0 1 0 0.00556794 -0.00457484 
0 1 1 
1 2 1 
2 3 1 
3 4 1 
4 5 1 
5 6 1 
6 7 1 
7 8 1 
8 9 1 
9 10 1 
10 11 1 
11 12 1 
12 13 1 
13 14 1 
14 15 1 
15 16 1 
16 17 1 
17 18 1 
18 19 1 
19 20 1 
20 21 1 
21 22 1 
22 23 1 
23 24 1 
24 25 1 
25 26 1 
26 27 1 
27 28 1 
28 29 1 
29 30 1 
30 31 1 
31 32 1 
32 33 1 
33 34 1 
34 35 1 
35 36 1 
36 37 1 
37 38 1 
38 39 1 
39 40 1 
40 41 1 
41 42 1 
42 43 1 
43 44 1 
44 45 1 
45 46 1 
46 47 1 
47 48 1 
48 49 1 
49 50 1 
50 51 1 
51 52 1 
52 53 1 
53 54 1 
54 55 1 
55 56 1 
56 57 1 
57 58 1 
58 59 1 
59 60 1 
1 61 0 1 2 3 4 5 6 7 8 9 10 11 12 13 14 15 16 17 18 19 20 21 22 23 24 25 26 27 28 29 30 31 32 33 34 35 36 37 38 39 40 41 42 43 44 45 46 47 48 49 50 51 52 53 54 55 56 57 58 59 60 
