ply
format ascii 1.0
comment written by koba@oshima.lab
element vertex 61
property float x
property float y
property float z
property int label
property int attribute
property float radius
property float curvature
property float torsion
element edge 60
property int vertex1
property int vertex2
property int label
element vertex_seq 1
property int label
property list int int vertex_indices
end_header
8.497 17.287 5.29839 0 1 0 0.0125913 -0.00217961 
8.52828 17.256 5.6155 0 2 2.77072 0.0125808 -0.00228207 
8.55963 17.2251 5.93266 0 2 2.74555 0.0125694 -0.00248354 
8.59113 17.1942 6.24988 0 2 2.65109 0.0125495 -0.00297313 
8.62285 17.1634 6.56722 0 2 2.56982 0.0125337 -0.00342591 
8.65487 17.1329 6.8847 0 2 2.51346 0.0125051 -0.00431166 
8.68725 17.1025 7.20236 0 2 2.35257 0.012482 -0.00506557 
8.72008 17.0723 7.52024 0 2 2.18417 0.0124398 -0.00645239 
8.75343 17.0424 7.83837 0 2 2.06178 0.0124057 -0.00755347 
8.78736 17.0129 8.15679 0 2 1.9444 0.0123442 -0.00947905 
8.82196 16.9837 8.47554 0 2 1.89742 0.0122954 -0.0109486 
8.85715 16.9546 8.79456 0 2 1.79039 0.012209 -0.013453 
8.89231 16.9246 9.11337 0 2 1.77696 0.0121417 -0.0153389 
8.92666 16.8921 9.43141 0 2 1.64148 0.0120248 -0.0184758 
8.95943 16.856 9.74813 0 2 1.57161 0.0119356 -0.0207089 
8.98984 16.8146 10.0629 0 2 1.67688 0.0117843 -0.0242979 
9.01713 16.7667 10.3753 0 2 1.70083 0.0116713 -0.0268769 
9.04051 16.7109 10.6846 0 2 1.73952 0.0114831 -0.0310116 
9.05922 16.6458 10.9904 0 2 1.82637 0.0113452 -0.0338625 
9.07249 16.57 11.292 0 2 1.91743 0.0111203 -0.0383072 
9.07953 16.4821 11.5888 0 2 1.97892 0.0109586 -0.0414098 
9.07975 16.3813 11.8807 0 2 2.05912 0.0107879 -0.0446373 
9.07323 16.2696 12.1679 0 2 2.14749 0.010516 -0.0496231 
9.06022 16.1494 12.4513 0 2 2.17111 0.0103249 -0.0530503 
9.04096 16.0231 12.7315 0 2 2.21492 0.0100255 -0.0583754 
9.01572 15.8934 13.0093 0 2 2.28166 0.00981824 -0.0620554 
8.98473 15.7627 13.2853 0 2 2.29114 0.00949811 -0.0676571 
8.94826 15.6335 13.5604 0 2 2.35685 0.00928017 -0.0714195 
8.90654 15.5083 13.8351 0 2 2.34329 0.00894921 -0.0770598 
8.85984 15.3895 14.1103 0 2 2.29826 0.00872744 -0.0807908 
8.80841 15.2797 14.3866 0 2 2.27217 0.00839577 -0.0863829 
8.75264 15.1807 14.6646 0 2 2.20115 0.00817694 -0.090059 
8.69356 15.0916 14.9446 0 2 2.13544 0.00785477 -0.095366 
8.63234 15.0106 15.2268 0 2 2.20869 0.0076455 -0.0986881 
8.57016 14.9363 15.5113 0 2 2.17665 0.00734215 -0.103349 
8.50819 14.8669 15.7983 0 2 2.15502 0.00714819 -0.106145 
8.44761 14.8009 16.088 0 2 2.07487 0.00687158 -0.109652 
8.38959 14.7366 16.3806 0 2 1.95616 0.00669771 -0.111406 
8.3353 14.6724 16.6761 0 2 1.99768 0.00645404 -0.113101 
8.28593 14.6067 16.9748 0 2 2.06484 0.0063036 -0.11349 
8.24264 14.5378 17.2769 0 2 2.05559 0.00609666 -0.112731 
8.20637 14.4646 17.5824 0 2 2.06384 0.00597144 -0.111233 
8.17708 14.3879 17.8909 0 2 2.00714 0.00585639 -0.109026 
8.15449 14.3089 18.202 0 2 2.02001 0.00570235 -0.104366 
8.13832 14.2288 18.5154 0 2 2.01747 0.00561158 -0.100336 
8.12829 14.1489 18.8304 0 2 2.02918 0.00549244 -0.0929375 
8.12412 14.0704 19.1467 0 2 2.03467 0.00542364 -0.0874125 
8.12554 13.9945 19.4638 0 2 1.99596 0.00533474 -0.0785319 
8.13226 13.9225 19.7813 0 2 1.99569 0.00528408 -0.0722975 
8.144 13.8556 20.0987 0 2 2.02554 0.00521957 -0.0626469 
8.16049 13.7951 20.4157 0 2 2.06865 0.00518335 -0.0563384 
8.18142 13.7418 20.7317 0 2 2.04625 0.00513761 -0.0473573 
8.20636 13.6953 21.0468 0 2 2.07334 0.00511204 -0.0417642 
8.23488 13.6549 21.3612 0 2 2.13601 0.00507986 -0.0340729 
8.26652 13.6198 21.6749 0 2 2.33596 0.0050619 -0.0294949 
8.30084 13.5892 21.9881 0 2 2.27785 0.00503921 -0.0235392 
8.33739 13.5624 22.3007 0 2 2.2394 0.00502642 -0.0202048 
8.37573 13.5386 22.613 0 2 2.29082 0.00500995 -0.0161824 
8.41541 13.5172 22.9249 0 2 2.39271 0.0050004 -0.0140952 
8.45598 13.4972 23.2367 0 2 2.41912 0.0049876 -0.0118291 
8.497 13.478 23.5484 0 1 0 0.00497979 -0.0109015 
0 1 1 
1 2 1 
2 3 1 
3 4 1 
4 5 1 
5 6 1 
6 7 1 
7 8 1 
8 9 1 
9 10 1 
10 11 1 
11 12 1 
12 13 1 
13 14 1 
14 15 1 
15 16 1 
16 17 1 
17 18 1 
18 19 1 
19 20 1 
20 21 1 
21 22 1 
22 23 1 
23 24 1 
24 25 1 
25 26 1 
26 27 1 
27 28 1 
28 29 1 
29 30 1 
30 31 1 
31 32 1 
32 33 1 
33 34 1 
34 35 1 
35 36 1 
36 37 1 
37 38 1 
38 39 1 
39 40 1 
40 41 1 
41 42 1 
42 43 1 
43 44 1 
44 45 1 
45 46 1 
46 47 1 
47 48 1 
48 49 1 
49 50 1 
50 51 1 
51 52 1 
52 53 1 
53 54 1 
54 55 1 
55 56 1 
56 57 1 
57 58 1 
58 59 1 
59 60 1 
1 61 0 1 2 3 4 5 6 7 8 9 10 11 12 13 14 15 16 17 18 19 20 21 22 23 24 25 26 27 28 29 30 31 32 33 34 35 36 37 38 39 40 41 42 43 44 45 46 47 48 49 50 51 52 53 54 55 56 57 58 59 60 
