ply
format ascii 1.0
comment written by koba@oshima.lab
element vertex 61
property float x
property float y
property float z
property int label
property int attribute
property float radius
property float curvature
property float torsion
element edge 60
property int vertex1
property int vertex2
property int label
element vertex_seq 1
property int label
property list int int vertex_indices
end_header
8.497 17.287 5.29839 0 1 0 0.0133353 -0.00177884 
8.51734 17.2606 5.59549 0 2 2.07495 0.0133304 -0.00185915 
8.53799 17.2339 5.89275 0 2 2.10968 0.0133246 -0.00201998 
8.55927 17.2068 6.1903 0 2 2.06814 0.0133136 -0.00241338 
8.58151 17.1791 6.4883 0 2 1.88246 0.0133041 -0.00277809 
8.605 17.1504 6.78691 0 2 1.78716 0.0132857 -0.00348988 
8.63007 17.1207 7.08627 0 2 1.68317 0.01327 -0.00409084 
8.65704 17.0896 7.38652 0 2 1.6501 0.0132399 -0.0051889 
8.68622 17.0569 7.68783 0 2 1.60066 0.0132148 -0.00605576 
8.71793 17.0225 7.99034 0 2 1.51696 0.0131682 -0.00755667 
8.75248 16.9861 8.2942 0 2 1.50286 0.0131305 -0.0086806 
8.78993 16.9474 8.59946 0 2 1.2982 0.0130624 -0.0105624 
8.82929 16.9058 8.90576 0 2 1.14307 0.0130086 -0.0119571 
8.86933 16.8609 9.21263 0 2 1.1279 0.012914 -0.0142379 
8.9088 16.8118 9.51961 0 2 0.997443 0.012841 -0.0158267 
8.94646 16.7582 9.82625 0 2 0.976258 0.012716 -0.0183232 
8.98107 16.6992 10.1321 0 2 1.00005 0.0126218 -0.0200775 
9.01138 16.6344 10.4366 0 2 1.17977 0.0124636 -0.0228223 
9.03615 16.5632 10.7394 0 2 1.12497 0.012347 -0.0246589 
9.05415 16.4848 11.04 0 2 1.15375 0.0121553 -0.0274302 
9.06413 16.3987 11.338 0 2 1.29309 0.0120167 -0.0293001 
9.0652 16.3047 11.6329 0 2 1.50669 0.0118695 -0.0311893 
9.05794 16.2038 11.9251 0 2 1.55324 0.0116335 -0.0339768 
9.04327 16.0975 12.2149 0 2 1.58625 0.0114667 -0.0357984 
9.02212 15.9871 12.5027 0 2 1.57422 0.0112035 -0.0384765 
8.99542 15.8742 12.7887 0 2 1.62387 0.01102 -0.0402202 
8.96409 15.7602 13.0735 0 2 1.63774 0.0107345 -0.0427038 
8.92906 15.6464 13.3573 0 2 1.65036 0.0105385 -0.0442489 
8.89126 15.5344 13.6405 0 2 1.62995 0.010238 -0.0463612 
8.85161 15.4255 13.9235 0 2 1.61716 0.0100345 -0.0476128 
8.81105 15.3213 14.2066 0 2 1.58898 0.00972658 -0.0492986 
8.77034 15.2227 14.4902 0 2 1.61305 0.00952069 -0.0502688 
8.72964 15.1299 14.7747 0 2 1.59417 0.0092129 -0.0514249 
8.68894 15.0424 15.0605 0 2 1.60138 0.00900954 -0.0519643 
8.64823 14.9599 15.3479 0 2 1.6349 0.00870896 -0.0525198 
8.6075 14.8821 15.6375 0 2 1.62744 0.00851249 -0.0526937 
8.56676 14.8086 15.9296 0 2 1.6108 0.00822519 -0.0525809 
8.52599 14.7391 16.2245 0 2 1.59503 0.00803946 -0.0522192 
8.48519 14.6732 16.5228 0 2 1.58948 0.00777092 -0.0513253 
8.44434 14.6106 16.8247 0 2 1.59969 0.00759932 -0.0504658 
8.40346 14.551 17.1307 0 2 1.64557 0.00735428 -0.0487052 
8.36268 14.494 17.441 0 2 1.66593 0.00719984 -0.0471889 
8.32276 14.4389 17.7549 0 2 1.6405 0.00705297 -0.0454708 
8.28464 14.385 18.0715 0 2 1.71104 0.00684743 -0.042516 
8.24924 14.3318 18.3901 0 2 1.70371 0.00672061 -0.0402782 
8.21746 14.2784 18.7097 0 2 1.72496 0.00654635 -0.03652 
8.19024 14.2242 19.0294 0 2 1.73279 0.00644095 -0.0338862 
8.1685 14.1686 19.3485 0 2 1.71337 0.00629856 -0.0298705 
8.15315 14.1108 19.666 0 2 1.70671 0.00621382 -0.0271814 
8.14512 14.0502 19.9811 0 2 1.66017 0.00610155 -0.0231924 
8.14533 13.9861 20.2929 0 2 1.67493 0.00603617 -0.020639 
8.15439 13.9179 20.6008 0 2 1.68878 0.00595113 -0.017063 
8.1717 13.846 20.905 0 2 1.65614 0.0059024 -0.014887 
8.19633 13.7707 21.2059 0 2 1.62764 0.00584011 -0.0119869 
8.22737 13.6925 21.5039 0 2 1.62793 0.00580506 -0.010286 
8.26392 13.6118 21.7994 0 2 1.66114 0.00576078 -0.00810045 
8.30504 13.5289 22.0928 0 2 1.67261 0.00573598 -0.00690652 
8.34982 13.4444 22.3845 0 2 1.65568 0.00570449 -0.00552512 
8.39735 13.3586 22.6751 0 2 1.64115 0.00568653 -0.00481874 
8.44672 13.272 22.9648 0 2 1.61155 0.00566296 -0.00405159 
8.497 13.185 23.254 0 1 0 0.0056488 -0.00374021 
0 1 1 
1 2 1 
2 3 1 
3 4 1 
4 5 1 
5 6 1 
6 7 1 
7 8 1 
8 9 1 
9 10 1 
10 11 1 
11 12 1 
12 13 1 
13 14 1 
14 15 1 
15 16 1 
16 17 1 
17 18 1 
18 19 1 
19 20 1 
20 21 1 
21 22 1 
22 23 1 
23 24 1 
24 25 1 
25 26 1 
26 27 1 
27 28 1 
28 29 1 
29 30 1 
30 31 1 
31 32 1 
32 33 1 
33 34 1 
34 35 1 
35 36 1 
36 37 1 
37 38 1 
38 39 1 
39 40 1 
40 41 1 
41 42 1 
42 43 1 
43 44 1 
44 45 1 
45 46 1 
46 47 1 
47 48 1 
48 49 1 
49 50 1 
50 51 1 
51 52 1 
52 53 1 
53 54 1 
54 55 1 
55 56 1 
56 57 1 
57 58 1 
58 59 1 
59 60 1 
1 61 0 1 2 3 4 5 6 7 8 9 10 11 12 13 14 15 16 17 18 19 20 21 22 23 24 25 26 27 28 29 30 31 32 33 34 35 36 37 38 39 40 41 42 43 44 45 46 47 48 49 50 51 52 53 54 55 56 57 58 59 60 
