ply
format ascii 1.0
comment written by koba@oshima.lab
element vertex 61
property float x
property float y
property float z
property int label
property int attribute
property float radius
property float curvature
property float torsion
element edge 60
property int vertex1
property int vertex2
property int label
element vertex_seq 1
property int label
property list int int vertex_indices
end_header
8.497 17.287 5.29839 0 1 0 0.0136597 -0.0019828 
8.52992 17.2566 5.6109 0 2 2.73788 0.0136519 -0.00207581 
8.56283 17.2261 5.92357 0 2 2.6915 0.0136432 -0.00225891 
8.59571 17.1956 6.23658 0 2 2.64391 0.0136273 -0.0027039 
8.62856 17.165 6.55007 0 2 2.41956 0.0136143 -0.00311529 
8.66137 17.1343 6.86422 0 2 2.3993 0.0135901 -0.00392042 
8.69412 17.1035 7.17919 0 2 2.28437 0.0135701 -0.00460689 
8.72681 17.0725 7.49514 0 2 2.17806 0.0135328 -0.00587039 
8.75941 17.0413 7.81224 0 2 2.01976 0.0135023 -0.00687322 
8.79193 17.0099 8.13065 0 2 1.92639 0.0134467 -0.00862682 
8.82435 16.9782 8.45054 0 2 1.90105 0.0134022 -0.00996707 
8.85658 16.946 8.77187 0 2 1.78165 0.0133228 -0.0122515 
8.88826 16.9124 9.0939 0 2 1.71288 0.0132605 -0.01397 
8.91893 16.8761 9.41566 0 2 1.59832 0.0131518 -0.0168153 
8.94815 16.8358 9.73622 0 2 1.58801 0.0130684 -0.0188177 
8.97548 16.7905 10.0546 0 2 1.65405 0.0129265 -0.0219955 
9.00046 16.7389 10.3699 0 2 1.73883 0.0128203 -0.0242497 
9.02265 16.6797 10.6811 0 2 1.74752 0.0126429 -0.0278062 
9.04161 16.6118 10.9873 0 2 1.82286 0.0125128 -0.0302011 
9.05688 16.534 11.2876 0 2 1.8509 0.0123004 -0.0338372 
9.06803 16.445 11.5809 0 2 1.91524 0.0121476 -0.0363054 
9.07463 16.3443 11.8667 0 2 2.03636 0.0119863 -0.0388131 
9.07641 16.2337 12.1457 0 2 2.10467 0.0117293 -0.0425706 
9.07313 16.1156 12.4189 0 2 2.23227 0.0115487 -0.0450698 
9.06452 15.9923 12.6874 0 2 2.2468 0.0112654 -0.0488157 
9.05036 15.8664 12.9521 0 2 2.22606 0.011069 -0.0513097 
9.03038 15.7403 13.2142 0 2 2.18874 0.010765 -0.0549988 
9.00435 15.6163 13.4746 0 2 2.20529 0.0105573 -0.0574055 
8.97201 15.4969 13.7344 0 2 2.16528 0.0102403 -0.0609021 
8.93313 15.3845 13.9947 0 2 2.17776 0.0100265 -0.0631426 
8.88744 15.2815 14.2564 0 2 2.19856 0.00970408 -0.066443 
8.835 15.1897 14.5205 0 2 2.13273 0.00948919 -0.0685826 
8.77697 15.108 14.7873 0 2 2.09395 0.00916891 -0.071637 
8.71482 15.0347 15.0571 0 2 2.11124 0.00895785 -0.0735311 
8.64999 14.968 15.3302 0 2 2.1516 0.00864693 -0.0761405 
8.58394 14.9064 15.6067 0 2 2.18008 0.00844457 -0.07767 
8.51814 14.8479 15.8869 0 2 2.12639 0.00815032 -0.079527 
8.45404 14.791 16.1711 0 2 2.17381 0.00796135 -0.0804053 
8.39309 14.7339 16.4595 0 2 2.12778 0.0076903 -0.0811787 
8.33676 14.6749 16.7523 0 2 1.95474 0.00751871 -0.0812604 
8.28651 14.6123 17.0498 0 2 2.00638 0.00727633 -0.0805838 
8.24349 14.5448 17.352 0 2 1.96601 0.00712541 -0.079529 
8.20778 14.4731 17.6585 0 2 1.97531 0.0069834 -0.0780372 
8.17912 14.3983 17.9685 0 2 1.9795 0.00678734 -0.0749352 
8.15729 14.3216 18.2813 0 2 2.02115 0.0066681 -0.0722471 
8.14204 14.2442 18.5962 0 2 2.02642 0.00650656 -0.0672582 
8.13315 14.1671 18.9126 0 2 2.01338 0.00641025 -0.0635022 
8.13037 14.0916 19.2298 0 2 1.99534 0.00628193 -0.0574048 
8.13348 14.0188 19.547 0 2 1.97247 0.0062066 -0.0530706 
8.14224 13.9497 19.8635 0 2 1.97192 0.00610805 -0.0462671 
8.15641 13.8857 20.1787 0 2 1.96609 0.00605133 -0.0417674 
8.17571 13.8275 20.4921 0 2 2.0135 0.00597822 -0.0352968 
8.19968 13.7748 20.8036 0 2 2.09353 0.00593662 -0.0312306 
8.22778 13.727 21.1134 0 2 2.1391 0.0058836 -0.0255967 
8.25951 13.6834 21.4219 0 2 2.11857 0.00585376 -0.0222162 
8.29434 13.6436 21.7291 0 2 2.12062 0.00581595 -0.0177867 
8.33177 13.6068 22.0353 0 2 2.28954 0.00579465 -0.0152919 
8.37126 13.5725 22.3407 0 2 2.27583 0.00576738 -0.012269 
8.41231 13.54 22.6455 0 2 2.27411 0.00575169 -0.0106946 
8.4544 13.5087 22.9499 0 2 2.26652 0.00573088 -0.00898138 
8.497 13.478 23.254 0 1 0 0.00571827 -0.00827994 
0 1 1 
1 2 1 
2 3 1 
3 4 1 
4 5 1 
5 6 1 
6 7 1 
7 8 1 
8 9 1 
9 10 1 
10 11 1 
11 12 1 
12 13 1 
13 14 1 
14 15 1 
15 16 1 
16 17 1 
17 18 1 
18 19 1 
19 20 1 
20 21 1 
21 22 1 
22 23 1 
23 24 1 
24 25 1 
25 26 1 
26 27 1 
27 28 1 
28 29 1 
29 30 1 
30 31 1 
31 32 1 
32 33 1 
33 34 1 
34 35 1 
35 36 1 
36 37 1 
37 38 1 
38 39 1 
39 40 1 
40 41 1 
41 42 1 
42 43 1 
43 44 1 
44 45 1 
45 46 1 
46 47 1 
47 48 1 
48 49 1 
49 50 1 
50 51 1 
51 52 1 
52 53 1 
53 54 1 
54 55 1 
55 56 1 
56 57 1 
57 58 1 
58 59 1 
59 60 1 
1 61 0 1 2 3 4 5 6 7 8 9 10 11 12 13 14 15 16 17 18 19 20 21 22 23 24 25 26 27 28 29 30 31 32 33 34 35 36 37 38 39 40 41 42 43 44 45 46 47 48 49 50 51 52 53 54 55 56 57 58 59 60 
