ply
format ascii 1.0
comment written by koba@oshima.lab
element vertex 61
property float x
property float y
property float z
property int label
property int attribute
property float radius
property float curvature
property float torsion
element edge 60
property int vertex1
property int vertex2
property int label
element vertex_seq 1
property int label
property list int int vertex_indices
end_header
8.497 17.287 5.29839 0 1 0 0.0137285 -0.00204181 
8.53174 17.2569 5.61168 0 2 2.70806 0.0137198 -0.0021374 
8.56645 17.2268 5.9251 0 2 2.69508 0.0137101 -0.00232575 
8.60112 17.1967 6.23878 0 2 2.63704 0.0136928 -0.00278368 
8.63571 17.1667 6.55285 0 2 2.43891 0.0136788 -0.00320715 
8.67021 17.1367 6.86743 0 2 2.34299 0.0136529 -0.00403547 
8.7046 17.1068 7.18266 0 2 2.16896 0.0136316 -0.00474055 
8.73884 17.077 7.49866 0 2 2.11503 0.0135922 -0.00603697 
8.77292 17.0473 7.81556 0 2 2.00693 0.0135601 -0.0070653 
8.80681 17.0177 8.13349 0 2 1.89764 0.0135018 -0.00886102 
8.84048 16.9881 8.45257 0 2 1.86846 0.0134553 -0.0102289 
8.87385 16.9586 8.77278 0 2 1.76812 0.0133724 -0.0125543 
8.90651 16.9277 9.0934 0 2 1.72187 0.0133077 -0.0143004 
8.93798 16.8943 9.41355 0 2 1.57084 0.0131948 -0.0171891 
8.96779 16.857 9.73236 0 2 1.56958 0.0131084 -0.0192243 
8.99547 16.8144 10.049 0 2 1.66911 0.0129616 -0.0224585 
9.02055 16.7651 10.3625 0 2 1.67801 0.0128519 -0.0247561 
9.04254 16.7078 10.672 0 2 1.6988 0.0126688 -0.028389 
9.06097 16.6411 10.9766 0 2 1.74313 0.0125346 -0.0308455 
9.07538 16.5637 11.2756 0 2 1.81003 0.0123158 -0.0345924 
9.08528 16.4742 11.5679 0 2 1.91542 0.0121586 -0.037148 
9.09025 16.372 11.8531 0 2 2.03978 0.0119927 -0.0397547 
9.09008 16.2589 12.1318 0 2 2.09212 0.0117284 -0.043677 
9.08462 16.1376 12.405 0 2 2.17546 0.0115429 -0.0462973 
9.07371 16.0107 12.6736 0 2 2.20129 0.011252 -0.0502438 
9.05719 15.8809 12.9388 0 2 2.23701 0.0110505 -0.0528835 
9.0349 15.7508 13.2014 0 2 2.1921 0.010739 -0.0567872 
9.00668 15.6229 13.4624 0 2 2.18366 0.0105264 -0.0593297 
8.97238 15.5 13.7229 0 2 2.17594 0.0102025 -0.0630126 
8.93184 15.3846 13.9837 0 2 2.1613 0.00998451 -0.0653623 
8.88491 15.2793 14.246 0 2 2.21499 0.00965655 -0.0688151 
8.83168 15.1861 14.5106 0 2 2.14242 0.00943853 -0.071046 
8.77329 15.1037 14.7777 0 2 2.09266 0.0091145 -0.074213 
8.71114 15.0303 15.0478 0 2 2.10178 0.00890163 -0.0761627 
8.64662 14.964 15.3209 0 2 2.1093 0.008589 -0.0788478 
8.58113 14.9028 15.5973 0 2 2.14868 0.00838616 -0.0804228 
8.51607 14.8448 15.8773 0 2 2.11107 0.00809206 -0.0823379 
8.45283 14.7882 16.1611 0 2 2.1654 0.00790375 -0.083245 
8.39281 14.7311 16.449 0 2 1.94853 0.00763442 -0.0840324 
8.33741 14.6714 16.7411 0 2 1.99242 0.00746443 -0.084101 
8.28801 14.6074 17.0377 0 2 1.99942 0.00722498 -0.0833691 
8.24576 14.5377 17.3389 0 2 1.97184 0.00707631 -0.0822532 
8.21068 14.463 17.6442 0 2 1.92704 0.00693673 -0.0806801 
8.18255 14.3848 17.953 0 2 1.94447 0.00674456 -0.0774205 
8.16113 14.3044 18.2646 0 2 1.97278 0.00662797 -0.074606 
8.1462 14.2231 18.5784 0 2 1.98531 0.00647042 -0.0694016 
8.13752 14.1424 18.8938 0 2 1.98432 0.00637669 -0.0654902 
8.13487 14.0635 19.2102 0 2 1.95772 0.00625207 -0.0591486 
8.13801 13.9878 19.5269 0 2 1.93834 0.00617903 -0.0546468 
8.14671 13.9167 19.8432 0 2 1.95391 0.00608363 -0.0475903 
8.16075 13.8516 20.1587 0 2 1.99459 0.00602879 -0.0429319 
8.17983 13.7934 20.4727 0 2 2.01328 0.00595815 -0.0362456 
8.20351 13.7418 20.7853 0 2 2.05639 0.00591797 -0.0320511 
8.23127 13.6961 21.0966 0 2 2.0745 0.00586675 -0.0262486 
8.2626 13.6554 21.4069 0 2 2.08846 0.00583792 -0.0227737 
8.29699 13.6192 21.7162 0 2 2.31914 0.00580133 -0.0182305 
8.33393 13.5865 22.0247 0 2 2.29901 0.00578067 -0.0156782 
8.37291 13.5568 22.3326 0 2 2.23639 0.00575414 -0.0125943 
8.41343 13.5293 22.64 0 2 2.21438 0.00573881 -0.0109881 
8.45496 13.5033 22.9471 0 2 2.29881 0.00571841 -0.00923489 
8.497 13.478 23.254 0 1 0 0.00570602 -0.00851157 
0 1 1 
1 2 1 
2 3 1 
3 4 1 
4 5 1 
5 6 1 
6 7 1 
7 8 1 
8 9 1 
9 10 1 
10 11 1 
11 12 1 
12 13 1 
13 14 1 
14 15 1 
15 16 1 
16 17 1 
17 18 1 
18 19 1 
19 20 1 
20 21 1 
21 22 1 
22 23 1 
23 24 1 
24 25 1 
25 26 1 
26 27 1 
27 28 1 
28 29 1 
29 30 1 
30 31 1 
31 32 1 
32 33 1 
33 34 1 
34 35 1 
35 36 1 
36 37 1 
37 38 1 
38 39 1 
39 40 1 
40 41 1 
41 42 1 
42 43 1 
43 44 1 
44 45 1 
45 46 1 
46 47 1 
47 48 1 
48 49 1 
49 50 1 
50 51 1 
51 52 1 
52 53 1 
53 54 1 
54 55 1 
55 56 1 
56 57 1 
57 58 1 
58 59 1 
59 60 1 
1 61 0 1 2 3 4 5 6 7 8 9 10 11 12 13 14 15 16 17 18 19 20 21 22 23 24 25 26 27 28 29 30 31 32 33 34 35 36 37 38 39 40 41 42 43 44 45 46 47 48 49 50 51 52 53 54 55 56 57 58 59 60 
