ply
format ascii 1.0
comment written by koba@oshima.lab
element vertex 61
property float x
property float y
property float z
property int label
property int attribute
property float radius
property float curvature
property float torsion
element edge 60
property int vertex1
property int vertex2
property int label
element vertex_seq 1
property int label
property list int int vertex_indices
end_header
8.497 17.287 5.29839 0 1 0 0.0134845 -0.00225716 
8.52988 17.2546 5.60973 0 2 2.71102 0.0134748 -0.00236293 
8.56282 17.2224 5.92114 0 2 2.66269 0.0134641 -0.00257131 
8.59585 17.1904 6.23268 0 2 2.58745 0.0134453 -0.00307794 
8.62903 17.1589 6.54441 0 2 2.42044 0.0134302 -0.00354644 
8.66241 17.1278 6.8564 0 2 2.28673 0.0134028 -0.00446266 
8.69604 17.0973 7.16871 0 2 2.12286 0.0133805 -0.00524215 
8.72996 17.0676 7.48141 0 2 2.08109 0.0133395 -0.00667489 
8.76424 17.0388 7.79456 0 2 1.99094 0.0133064 -0.00781121 
8.79891 17.0109 8.10822 0 2 1.819 0.0132465 -0.00979559 
8.83403 16.9842 8.42245 0 2 1.81646 0.013199 -0.0113075 
8.86952 16.9585 8.73722 0 2 1.73012 0.0131148 -0.0138784 
8.90477 16.9324 9.05201 0 2 1.68931 0.0130492 -0.0158095 
8.93906 16.9042 9.36619 0 2 1.65795 0.0129351 -0.0190113 
8.97166 16.8724 9.67915 0 2 1.55398 0.0128481 -0.0212817 
9.00184 16.8352 9.99027 0 2 1.58419 0.0127004 -0.0249136 
9.02886 16.7911 10.2989 0 2 1.62987 0.0125902 -0.0275096 
9.052 16.7383 10.6045 0 2 1.63076 0.0124066 -0.0316518 
9.07052 16.6752 10.9063 0 2 1.69601 0.0122721 -0.0345018 
9.08371 16.6002 11.2038 0 2 1.78342 0.0120527 -0.0389331 
9.09081 16.5116 11.4964 0 2 1.82118 0.011895 -0.0420162 
9.0913 16.4086 11.7836 0 2 1.94942 0.0117283 -0.0452104 
9.0853 16.2931 12.066 0 2 1.97378 0.0114627 -0.0500856 
9.07316 16.1679 12.3443 0 2 2.11656 0.0112761 -0.0533904 
9.05519 16.0358 12.6194 0 2 2.20715 0.0109836 -0.0584475 
9.03173 15.8995 12.8919 0 2 2.19483 0.0107811 -0.061882 
9.0031 15.7619 13.1628 0 2 2.19977 0.0104685 -0.0669704 
8.96963 15.6257 13.4326 0 2 2.27282 0.0102559 -0.0702813 
8.93164 15.4936 13.7023 0 2 2.25517 0.00993319 -0.0750638 
8.88947 15.3685 13.9725 0 2 2.22455 0.00971716 -0.0780971 
8.84345 15.2532 14.2441 0 2 2.16903 0.00939431 -0.0824856 
8.79396 15.1496 14.5176 0 2 2.21597 0.00918135 -0.0852595 
8.74175 15.0568 14.7934 0 2 2.156 0.00886771 -0.0890754 
8.68759 14.9734 15.0716 0 2 2.11691 0.00866377 -0.0913241 
8.6323 14.8976 15.3522 0 2 2.06242 0.00836757 -0.0942873 
8.57667 14.8278 15.6353 0 2 2.10911 0.00817761 -0.0959202 
8.5215 14.7625 15.9212 0 2 2.12065 0.00790549 -0.0976986 
8.46758 14.7 16.21 0 2 1.98933 0.00773342 -0.0983524 
8.41572 14.6387 16.5016 0 2 1.91189 0.00749045 -0.0985347 
8.36671 14.577 16.7964 0 2 1.94929 0.00733908 -0.0980484 
8.32134 14.5133 17.0943 0 2 1.94831 0.00712866 -0.0962592 
8.28033 14.4465 17.3955 0 2 1.94104 0.00699974 -0.0943023 
8.244 14.3769 17.6995 0 2 1.91274 0.00687995 -0.0918286 
8.21256 14.3056 18.006 0 2 1.89831 0.00671707 -0.0871504 
8.18624 14.2335 18.3145 0 2 1.91547 0.00661945 -0.0833694 
8.16528 14.1615 18.6245 0 2 1.90664 0.00648894 -0.0767317 
8.14989 14.0905 18.9356 0 2 1.90103 0.00641208 -0.0719235 
8.1403 14.0215 19.2475 0 2 1.87774 0.00631072 -0.0643689 
8.13675 13.9554 19.5595 0 2 1.88312 0.00625173 -0.0591585 
8.13944 13.8932 19.8714 0 2 1.88028 0.00617501 -0.0511991 
8.14862 13.8357 20.1826 0 2 1.87124 0.00613104 -0.0460279 
8.16435 13.7837 20.4928 0 2 1.86269 0.00607444 -0.0386851 
8.18611 13.7368 20.8021 0 2 1.93832 0.00604221 -0.03412 
8.21324 13.6944 21.1105 0 2 2.01323 0.00600102 -0.0278488 
8.24506 13.6561 21.4181 0 2 2.07775 0.00597772 -0.0241162 
8.2809 13.6212 21.7251 0 2 2.16622 0.00594796 -0.0192589 
8.3201 13.5891 22.0315 0 2 2.25327 0.005931 -0.0165395 
8.36198 13.5594 22.3375 0 2 2.25144 0.005909 -0.0132596 
8.40587 13.5313 22.6432 0 2 2.19395 0.00589616 -0.0115547 
8.4511 13.5044 22.9487 0 2 2.17159 0.00587888 -0.00969675 
8.497 13.478 23.254 0 1 0 0.00586828 -0.0089303 
0 1 1 
1 2 1 
2 3 1 
3 4 1 
4 5 1 
5 6 1 
6 7 1 
7 8 1 
8 9 1 
9 10 1 
10 11 1 
11 12 1 
12 13 1 
13 14 1 
14 15 1 
15 16 1 
16 17 1 
17 18 1 
18 19 1 
19 20 1 
20 21 1 
21 22 1 
22 23 1 
23 24 1 
24 25 1 
25 26 1 
26 27 1 
27 28 1 
28 29 1 
29 30 1 
30 31 1 
31 32 1 
32 33 1 
33 34 1 
34 35 1 
35 36 1 
36 37 1 
37 38 1 
38 39 1 
39 40 1 
40 41 1 
41 42 1 
42 43 1 
43 44 1 
44 45 1 
45 46 1 
46 47 1 
47 48 1 
48 49 1 
49 50 1 
50 51 1 
51 52 1 
52 53 1 
53 54 1 
54 55 1 
55 56 1 
56 57 1 
57 58 1 
58 59 1 
59 60 1 
1 61 0 1 2 3 4 5 6 7 8 9 10 11 12 13 14 15 16 17 18 19 20 21 22 23 24 25 26 27 28 29 30 31 32 33 34 35 36 37 38 39 40 41 42 43 44 45 46 47 48 49 50 51 52 53 54 55 56 57 58 59 60 
