ply
format ascii 1.0
comment written by koba@oshima.lab
element vertex 61
property float x
property float y
property float z
property int label
property int attribute
property float radius
property float curvature
property float torsion
element edge 60
property int vertex1
property int vertex2
property int label
element vertex_seq 1
property int label
property list int int vertex_indices
end_header
8.497 17.287 5.29839 0 1 0 0.0129436 -0.00227789 
8.52851 17.2542 5.61002 0 2 2.69308 0.0129345 -0.00238498 
8.56006 17.2214 5.92174 0 2 2.66069 0.0129245 -0.00259577 
8.59171 17.1889 6.23364 0 2 2.57634 0.0129068 -0.0031082 
8.62349 17.1566 6.5458 0 2 2.43456 0.0128925 -0.00358216 
8.65546 17.1246 6.8583 0 2 2.29259 0.0128662 -0.00450912 
8.68766 17.093 7.17123 0 2 2.11995 0.0128446 -0.00529755 
8.72013 17.0619 7.48469 0 2 2.06128 0.0128047 -0.00674692 
8.75293 17.0314 7.79875 0 2 1.92588 0.0127722 -0.00789691 
8.7861 17.0016 8.11351 0 2 1.83028 0.0127133 -0.00990759 
8.81968 16.9725 8.42905 0 2 1.76863 0.0126663 -0.0114432 
8.8536 16.944 8.74534 0 2 1.70438 0.0125826 -0.0140611 
8.88734 16.9149 9.06187 0 2 1.67495 0.0125171 -0.0160325 
8.92023 16.8837 9.37803 0 2 1.61357 0.012403 -0.0193129 
8.95162 16.849 9.69319 0 2 1.52212 0.0123157 -0.0216518 
8.98086 16.8095 10.0067 0 2 1.60058 0.0121671 -0.0254154 
9.0073 16.7635 10.3181 0 2 1.63633 0.0120558 -0.028122 
9.03029 16.7098 10.6265 0 2 1.6385 0.0118702 -0.0324659 
9.04916 16.6468 10.9315 0 2 1.72582 0.0117341 -0.0354693 
9.06328 16.5731 11.2323 0 2 1.75238 0.0115116 -0.0401636 
9.07198 16.4873 11.5285 0 2 1.78229 0.0113516 -0.0434478 
9.07474 16.3885 11.8195 0 2 1.95517 0.0111825 -0.0468669 
9.0715 16.2786 12.1057 0 2 2.0053 0.0109129 -0.0521262 
9.06231 16.1598 12.3876 0 2 2.12032 0.0107236 -0.0557208 
9.04726 16.0344 12.6658 0 2 2.17399 0.010427 -0.061269 
9.0264 15.9049 12.9409 0 2 2.18019 0.0102219 -0.0650719 
8.9998 15.7736 13.2133 0 2 2.22361 0.00990556 -0.0707792 
8.96752 15.6428 13.4836 0 2 2.21621 0.00969062 -0.0745479 
8.92962 15.5149 13.7523 0 2 2.16824 0.00936498 -0.0800827 
8.88618 15.3922 14.02 0 2 2.12155 0.00914733 -0.0836577 
8.83725 15.277 14.2873 0 2 2.19255 0.00882272 -0.0889013 
8.78311 15.1712 14.5546 0 2 2.15655 0.00860911 -0.0922646 
8.72481 15.0743 14.8226 0 2 2.08777 0.00829539 -0.0969737 
8.66364 14.9853 15.0918 0 2 2.0292 0.00809207 -0.099813 
8.60086 14.9031 15.363 0 2 2.03277 0.00779784 -0.103677 
8.53774 14.8266 15.6367 0 2 2.12524 0.00760985 -0.105912 
8.47554 14.7549 15.9135 0 2 2.11452 0.00734164 -0.108573 
8.41555 14.687 16.1941 0 2 1.94298 0.00717277 -0.109784 
8.35903 14.6217 16.479 0 2 1.94205 0.00693543 -0.11069 
8.30724 14.5581 16.7689 0 2 1.90223 0.00678835 -0.110587 
8.26147 14.4951 17.0644 0 2 1.91504 0.00658507 -0.109191 
8.22272 14.432 17.3658 0 2 1.88112 0.00646131 -0.107356 
8.191 14.3688 17.6725 0 2 1.9182 0.00634694 -0.104876 
8.16605 14.3058 17.9836 0 2 1.93113 0.00619262 -0.099928 
8.14763 14.2433 18.2981 0 2 1.94296 0.00610091 -0.095786 
8.13548 14.1817 18.6151 0 2 1.96155 0.00597946 -0.0883376 
8.12935 14.1213 18.9338 0 2 1.93426 0.00590863 -0.08287 
8.12898 14.0624 19.2532 0 2 1.91023 0.00581616 -0.0742023 
8.13413 14.0053 19.5723 0 2 1.92337 0.00576289 -0.0681798 
8.14454 13.9503 19.8904 0 2 1.90366 0.00569435 -0.0589253 
8.15996 13.8978 20.2063 0 2 1.88346 0.00565548 -0.0529034 
8.1801 13.8479 20.5195 0 2 1.87421 0.00560595 -0.0443562 
8.20453 13.8006 20.8301 0 2 1.90105 0.00557801 -0.0390458 
8.23276 13.7554 21.1383 0 2 2.02783 0.00554265 -0.0317575 
8.26432 13.7122 21.4444 0 2 2.05615 0.00552284 -0.0274322 
8.29874 13.6706 21.7487 0 2 2.09124 0.00549775 -0.0218295 
8.33554 13.6304 22.0515 0 2 2.04397 0.00548357 -0.0187115 
8.37424 13.5914 22.3532 0 2 2.26088 0.0054653 -0.014981 
8.41437 13.5531 22.654 0 2 2.1961 0.0054547 -0.01305 
8.45545 13.5154 22.9542 0 2 2.1736 0.00544052 -0.0109499 
8.497 13.478 23.254 0 1 0 0.00543185 -0.0100873 
0 1 1 
1 2 1 
2 3 1 
3 4 1 
4 5 1 
5 6 1 
6 7 1 
7 8 1 
8 9 1 
9 10 1 
10 11 1 
11 12 1 
12 13 1 
13 14 1 
14 15 1 
15 16 1 
16 17 1 
17 18 1 
18 19 1 
19 20 1 
20 21 1 
21 22 1 
22 23 1 
23 24 1 
24 25 1 
25 26 1 
26 27 1 
27 28 1 
28 29 1 
29 30 1 
30 31 1 
31 32 1 
32 33 1 
33 34 1 
34 35 1 
35 36 1 
36 37 1 
37 38 1 
38 39 1 
39 40 1 
40 41 1 
41 42 1 
42 43 1 
43 44 1 
44 45 1 
45 46 1 
46 47 1 
47 48 1 
48 49 1 
49 50 1 
50 51 1 
51 52 1 
52 53 1 
53 54 1 
54 55 1 
55 56 1 
56 57 1 
57 58 1 
58 59 1 
59 60 1 
1 61 0 1 2 3 4 5 6 7 8 9 10 11 12 13 14 15 16 17 18 19 20 21 22 23 24 25 26 27 28 29 30 31 32 33 34 35 36 37 38 39 40 41 42 43 44 45 46 47 48 49 50 51 52 53 54 55 56 57 58 59 60 
