ply
format ascii 1.0
comment written by koba@oshima.lab
element vertex 61
property float x
property float y
property float z
property int label
property int attribute
property float radius
property float curvature
property float torsion
element edge 60
property int vertex1
property int vertex2
property int label
element vertex_seq 1
property int label
property list int int vertex_indices
end_header
8.497 17.287 5.29839 0 1 0 0.0117567 -0.00214362 
8.53059 17.2553 5.61686 0 2 2.69467 0.0117461 -0.00224474 
8.56423 17.2236 5.93534 0 2 2.69132 0.0117346 -0.00244323 
8.59796 17.192 6.25385 0 2 2.5631 0.0117147 -0.00292536 
8.63184 17.1603 6.57239 0 2 2.30851 0.0116989 -0.00337127 
8.66591 17.1287 6.89098 0 2 2.23391 0.0116704 -0.00424257 
8.70022 17.0972 7.20963 0 2 2.13358 0.0116474 -0.00498163 
8.73482 17.0657 7.52835 0 2 2.06026 0.0116054 -0.00633841 
8.76975 17.0342 7.84714 0 2 1.92636 0.0115714 -0.00741458 
8.80507 17.0028 8.16604 0 2 1.86214 0.0115103 -0.00929372 
8.84082 16.9716 8.48503 0 2 1.77945 0.0114618 -0.0107226 
8.8769 16.9401 8.80406 0 2 1.68886 0.011376 -0.0131516 
8.91263 16.9076 9.12276 0 2 1.68352 0.0113091 -0.0149782 
8.94718 16.8725 9.44066 0 2 1.53881 0.0111931 -0.0180168 
8.97971 16.8338 9.75731 0 2 1.46963 0.0111046 -0.0201834 
9.0094 16.7901 10.0723 0 2 1.61569 0.0109544 -0.0236735 
9.03541 16.7402 10.385 0 2 1.63725 0.0108423 -0.0261887 
9.0569 16.6828 10.6952 0 2 1.66164 0.0106555 -0.0302357 
9.07306 16.6167 11.0023 0 2 1.76399 0.0105186 -0.0330393 
9.08304 16.5405 11.3059 0 2 1.75271 0.0102952 -0.0374341 
9.08602 16.4531 11.6055 0 2 1.75435 0.0101346 -0.0405207 
9.0814 16.3537 11.9008 0 2 1.91316 0.00996495 -0.0437464 
9.06947 16.2438 12.1921 0 2 2.00372 0.00969445 -0.0487278 
9.0508 16.1254 12.4799 0 2 2.05801 0.00950446 -0.052148 
9.02592 16.0005 12.7647 0 2 2.0579 0.00920669 -0.0574561 
8.99537 15.8713 13.0468 0 2 2.12805 0.00900068 -0.0611179 
8.95969 15.7397 13.3267 0 2 2.15914 0.0086827 -0.0666573 
8.91943 15.6077 13.6049 0 2 2.09281 0.00846643 -0.0703458 
8.87513 15.4774 13.8819 0 2 2.07712 0.00813839 -0.0758104 
8.82733 15.3509 14.1581 0 2 2.06878 0.00791886 -0.0793719 
8.77657 15.2301 14.4338 0 2 2.11369 0.00759099 -0.0846491 
8.72344 15.1167 14.7098 0 2 2.1335 0.00737491 -0.0880677 
8.66869 15.0108 14.9865 0 2 1.97155 0.00705703 -0.0928955 
8.61313 14.9122 15.2647 0 2 1.94037 0.00685065 -0.0958302 
8.55754 14.8205 15.5451 0 2 2.0007 0.00655134 -0.0999138 
8.50274 14.7355 15.8284 0 2 2.00009 0.00635959 -0.102345 
8.44951 14.6568 16.1153 0 2 1.99651 0.00608509 -0.105352 
8.39865 14.5843 16.4064 0 2 1.90164 0.00591157 -0.106814 
8.35097 14.5176 16.7025 0 2 1.86026 0.00566655 -0.108165 
8.30725 14.4564 17.0042 0 2 1.92411 0.00551386 -0.108389 
8.26831 14.4005 17.3124 0 2 1.90415 0.00530144 -0.107475 
8.23479 14.3494 17.6272 0 2 1.93184 0.00517115 -0.105928 
8.20677 14.3023 17.9478 0 2 1.97831 0.00504994 -0.103738 
8.18418 14.258 18.2729 0 2 2.00361 0.00488492 -0.0992103 
8.16697 14.2155 18.6011 0 2 1.96174 0.00478587 -0.0953123 
8.15505 14.1738 18.9313 0 2 1.96002 0.0046533 -0.0881346 
8.14838 14.1317 19.2621 0 2 1.9467 0.00457513 -0.0827621 
8.14687 14.0882 19.5922 0 2 1.94931 0.00447201 -0.0741064 
8.15047 14.0423 19.9203 0 2 1.92711 0.00441203 -0.0680125 
8.15911 13.9929 20.2452 0 2 1.9677 0.00433423 -0.0585561 
8.17272 13.9389 20.5656 0 2 1.93794 0.00428981 -0.0523766 
8.19116 13.8796 20.8805 0 2 1.93601 0.00423295 -0.0436266 
8.21402 13.8151 21.1901 0 2 1.90192 0.0042008 -0.0382359 
8.24081 13.7462 21.4951 0 2 1.90468 0.00416013 -0.0309465 
8.27103 13.6734 21.796 0 2 2.01861 0.00413742 -0.0266432 
8.3042 13.5971 22.0934 0 2 1.97849 0.00410886 -0.021094 
8.33981 13.5181 22.3879 0 2 1.9369 0.00409289 -0.0180422 
8.37739 13.4368 22.68 0 2 1.95779 0.00407259 -0.014471 
8.41644 13.3538 22.9705 0 2 1.92075 0.00406098 -0.012639 
8.45648 13.2697 23.2597 0 2 1.92915 0.00404569 -0.0106534 
8.497 13.185 23.5484 0 1 0 0.00403648 -0.00984936 
0 1 1 
1 2 1 
2 3 1 
3 4 1 
4 5 1 
5 6 1 
6 7 1 
7 8 1 
8 9 1 
9 10 1 
10 11 1 
11 12 1 
12 13 1 
13 14 1 
14 15 1 
15 16 1 
16 17 1 
17 18 1 
18 19 1 
19 20 1 
20 21 1 
21 22 1 
22 23 1 
23 24 1 
24 25 1 
25 26 1 
26 27 1 
27 28 1 
28 29 1 
29 30 1 
30 31 1 
31 32 1 
32 33 1 
33 34 1 
34 35 1 
35 36 1 
36 37 1 
37 38 1 
38 39 1 
39 40 1 
40 41 1 
41 42 1 
42 43 1 
43 44 1 
44 45 1 
45 46 1 
46 47 1 
47 48 1 
48 49 1 
49 50 1 
50 51 1 
51 52 1 
52 53 1 
53 54 1 
54 55 1 
55 56 1 
56 57 1 
57 58 1 
58 59 1 
59 60 1 
1 61 0 1 2 3 4 5 6 7 8 9 10 11 12 13 14 15 16 17 18 19 20 21 22 23 24 25 26 27 28 29 30 31 32 33 34 35 36 37 38 39 40 41 42 43 44 45 46 47 48 49 50 51 52 53 54 55 56 57 58 59 60 
