ply
format ascii 1.0
comment written by koba@oshima.lab
element vertex 61
property float x
property float y
property float z
property int label
property int attribute
property float radius
property float curvature
property float torsion
element edge 60
property int vertex1
property int vertex2
property int label
element vertex_seq 1
property int label
property list int int vertex_indices
end_header
8.497 17.287 5.29839 0 1 0 0.0122656 -0.00257891 
8.52882 17.2576 5.61699 0 2 2.58554 0.0122566 -0.00269998 
8.56072 17.2281 5.93556 0 2 2.55878 0.0122467 -0.00293791 
8.59276 17.1986 6.25408 0 2 2.52908 0.0122293 -0.00351591 
8.62503 17.1689 6.57251 0 2 2.27493 0.0122154 -0.00405034 
8.6576 17.1391 6.89082 0 2 2.21784 0.0121899 -0.00509401 
8.69054 17.109 7.20899 0 2 2.11437 0.0121691 -0.00597862 
8.72393 17.0787 7.52699 0 2 2.04877 0.0121309 -0.00760079 
8.75784 17.048 7.84478 0 2 1.92904 0.0121 -0.00888566 
8.79235 17.017 8.16235 0 2 1.84718 0.0120439 -0.0111275 
8.82753 16.9857 8.47965 0 2 1.76072 0.0119994 -0.012834 
8.86332 16.9537 8.79661 0 2 1.64865 0.0119204 -0.0157345 
8.89909 16.9201 9.11292 0 2 1.64147 0.0118589 -0.0179132 
8.93405 16.8837 9.42821 0 2 1.55705 0.0117519 -0.0215343 
8.96745 16.8435 9.7421 0 2 1.50189 0.0116704 -0.0241206 
8.99851 16.7981 10.0542 0 2 1.58632 0.0115321 -0.0282885 
9.02645 16.7466 10.3643 0 2 1.606 0.0114289 -0.0312886 
9.05051 16.6876 10.6718 0 2 1.60419 0.0112572 -0.0361092 
9.06991 16.6201 10.9765 0 2 1.72677 0.0111316 -0.0394527 
9.08387 16.5429 11.2779 0 2 1.72719 0.0109269 -0.0446933 
9.09164 16.4548 11.5758 0 2 1.7413 0.0107801 -0.048368 
9.09261 16.3552 11.8698 0 2 1.82028 0.0106252 -0.0521974 
9.08693 16.2457 12.1602 0 2 1.90267 0.0103789 -0.0580742 
9.0749 16.1283 12.4475 0 2 1.97074 0.0102066 -0.0620771 
9.05686 16.0051 12.7321 0 2 2.03275 0.00993756 -0.0682268 
9.03311 15.8782 13.0142 0 2 2.04946 0.00975231 -0.0724172 
9.00397 15.7497 13.2944 0 2 2.0377 0.00946795 -0.0786547 
8.96977 15.6216 13.573 0 2 2.05811 0.00927571 -0.0827316 
8.93083 15.496 13.8504 0 2 2.09627 0.00898612 -0.0886437 
8.88745 15.375 14.127 0 2 2.11035 0.00879376 -0.0924016 
8.83995 15.2607 14.4032 0 2 2.17458 0.00850884 -0.0977858 
8.78876 15.1546 14.6794 0 2 2.14132 0.00832276 -0.101139 
8.73469 15.0564 14.9562 0 2 2.00801 0.00805174 -0.105654 
8.67865 14.9655 15.2341 0 2 1.95268 0.00787766 -0.108235 
8.62154 14.8808 15.5136 0 2 1.92942 0.0076282 -0.111496 
8.56428 14.8017 15.7954 0 2 1.98686 0.0074705 -0.113179 
8.50779 14.7273 16.08 0 2 2.02418 0.00724807 -0.114789 
8.45297 14.6568 16.3679 0 2 1.93261 0.00710971 -0.11516 
8.40073 14.5895 16.6598 0 2 1.89888 0.00691772 -0.114671 
8.35198 14.5244 16.956 0 2 1.88759 0.00680031 -0.113579 
8.30764 14.4609 17.2573 0 2 1.91654 0.00664018 -0.110667 
8.26848 14.3983 17.564 0 2 1.89688 0.00654402 -0.107841 
8.23468 14.3365 17.8754 0 2 1.92144 0.00645612 -0.104419 
8.2063 14.2758 18.1907 0 2 1.94387 0.00633907 -0.0982074 
8.18339 14.2162 18.5092 0 2 1.93313 0.00627041 -0.0933529 
8.16601 14.1579 18.8301 0 2 1.94915 0.00618057 -0.0850756 
8.1542 14.101 19.1524 0 2 1.94247 0.00612876 -0.0792217 
8.14801 14.0457 19.4755 0 2 1.90138 0.00606176 -0.0702154 
8.1475 13.9922 19.7984 0 2 1.94706 0.00602347 -0.0641194 
8.15271 13.9405 20.1205 0 2 1.93054 0.00597451 -0.0549592 
8.1637 13.8909 20.4408 0 2 1.91624 0.00594684 -0.0491048 
8.18042 13.8434 20.7588 0 2 1.89843 0.00591162 -0.0409178 
8.20238 13.7979 21.0745 0 2 1.91966 0.00589171 -0.0358982 
8.22901 13.7541 21.3882 0 2 1.88037 0.00586637 -0.0290868 
8.25972 13.7118 21.7001 0 2 1.91952 0.00585205 -0.0250764 
8.29392 13.6709 22.0104 0 2 1.96354 0.00583368 -0.0199079 
8.33104 13.631 22.3195 0 2 1.96699 0.00582313 -0.0170426 
8.37049 13.592 22.6276 0 2 2.16235 0.0058093 -0.0136221 
8.41169 13.5536 22.935 0 2 2.00156 0.00580112 -0.0118565 
8.45405 13.5157 23.2418 0 2 2.14301 0.00578997 -0.00994192 
8.497 13.478 23.5484 0 1 0 0.00578305 -0.00915798 
0 1 1 
1 2 1 
2 3 1 
3 4 1 
4 5 1 
5 6 1 
6 7 1 
7 8 1 
8 9 1 
9 10 1 
10 11 1 
11 12 1 
12 13 1 
13 14 1 
14 15 1 
15 16 1 
16 17 1 
17 18 1 
18 19 1 
19 20 1 
20 21 1 
21 22 1 
22 23 1 
23 24 1 
24 25 1 
25 26 1 
26 27 1 
27 28 1 
28 29 1 
29 30 1 
30 31 1 
31 32 1 
32 33 1 
33 34 1 
34 35 1 
35 36 1 
36 37 1 
37 38 1 
38 39 1 
39 40 1 
40 41 1 
41 42 1 
42 43 1 
43 44 1 
44 45 1 
45 46 1 
46 47 1 
47 48 1 
48 49 1 
49 50 1 
50 51 1 
51 52 1 
52 53 1 
53 54 1 
54 55 1 
55 56 1 
56 57 1 
57 58 1 
58 59 1 
59 60 1 
1 61 0 1 2 3 4 5 6 7 8 9 10 11 12 13 14 15 16 17 18 19 20 21 22 23 24 25 26 27 28 29 30 31 32 33 34 35 36 37 38 39 40 41 42 43 44 45 46 47 48 49 50 51 52 53 54 55 56 57 58 59 60 
