ply
format ascii 1.0
comment written by koba@oshima.lab
element vertex 61
property float x
property float y
property float z
property int label
property int attribute
property float radius
property float curvature
property float torsion
element edge 60
property int vertex1
property int vertex2
property int label
element vertex_seq 1
property int label
property list int int vertex_indices
end_header
16.994 18.459 13.4828 0 1 0 0.014429 -0.00217119 
17.0245 18.4373 13.7826 0 2 2.76119 0.0144184 -0.00227452 
17.055 18.4156 14.0827 0 2 2.69473 0.0144068 -0.00247641 
17.0853 18.3939 14.3832 0 2 2.64293 0.0143865 -0.00296546 
17.1153 18.3719 14.6843 0 2 2.5842 0.0143705 -0.00341681 
17.145 18.3499 14.9863 0 2 2.53625 0.0143415 -0.00429689 
17.1742 18.3275 15.2894 0 2 2.47963 0.0143181 -0.0050419 
17.2029 18.305 15.5937 0 2 2.30979 0.0142756 -0.00640597 
17.231 18.2821 15.8996 0 2 2.13521 0.0142414 -0.00748444 
17.2585 18.2589 16.2071 0 2 1.94168 0.0141801 -0.00935892 
17.2851 18.2352 16.5166 0 2 1.85593 0.0141316 -0.0107752 
17.3109 18.2109 16.828 0 2 1.78757 0.0140461 -0.0131651 
17.3356 18.1849 17.1403 0 2 1.71164 0.0139798 -0.0149479 
17.3591 18.1558 17.4525 0 2 1.63531 0.0138649 -0.0178759 
17.3813 18.1223 17.7633 0 2 1.63447 0.0137777 -0.0199184 
17.4019 18.083 18.0716 0 2 1.70864 0.0136303 -0.0231305 
17.4207 18.0368 18.3763 0 2 1.83335 0.0135206 -0.0253883 
17.4377 17.9822 18.6761 0 2 1.91973 0.0133388 -0.0289161 
17.4527 17.9179 18.9699 0 2 1.99355 0.0132063 -0.0312659 
17.4654 17.8426 19.2566 0 2 2.06365 0.0129911 -0.0347893 
17.4757 17.755 19.5349 0 2 2.05568 0.0128373 -0.037148 
17.4833 17.6545 19.8043 0 2 2.1373 0.0126755 -0.039519 
17.4877 17.5428 20.066 0 2 2.12402 0.0124188 -0.0430624 
17.488 17.4225 20.3219 0 2 2.19887 0.0122391 -0.0454159 
17.4836 17.2962 20.5738 0 2 2.24116 0.0119581 -0.0489372 
17.4737 17.1663 20.8234 0 2 2.25334 0.0117639 -0.0512775 
17.4577 17.0354 21.0727 0 2 2.27829 0.0114636 -0.0547422 
17.4347 16.9059 21.3235 0 2 2.32772 0.0112584 -0.0570105 
17.4041 16.7805 21.5775 0 2 2.30513 0.0109448 -0.0603312 
17.3652 16.6616 21.8366 0 2 2.27296 0.0107327 -0.0624703 
17.3172 16.5518 22.1026 0 2 2.30404 0.0104121 -0.0654481 
17.2599 16.4529 22.3768 0 2 2.35479 0.0101984 -0.0672254 
17.1952 16.3643 22.6586 0 2 2.42876 0.00988037 -0.0694808 
17.1252 16.2847 22.9468 0 2 2.44308 0.00967145 -0.0706544 
17.0525 16.2128 23.2403 0 2 2.35055 0.00936523 -0.0719065 
16.9792 16.1474 23.5379 0 2 2.3534 0.00916738 -0.0723287 
16.9078 16.0871 23.8384 0 2 2.45779 0.00888245 -0.0721887 
16.8405 16.0307 24.1407 0 2 2.42693 0.00870169 -0.0715169 
16.7796 15.9769 24.4436 0 2 2.35635 0.00844582 -0.0698977 
16.7276 15.9245 24.746 0 2 2.10764 0.00828597 -0.0683923 
16.6866 15.872 25.0468 0 2 2.12218 0.00806308 -0.0654152 
16.6583 15.8186 25.3449 0 2 2.09877 0.00792615 -0.062938 
16.6418 15.7639 25.6408 0 2 2.17146 0.00779859 -0.0602298 
16.6351 15.7082 25.935 0 2 2.1848 0.00762422 -0.0558073 
16.6366 15.6514 26.2279 0 2 2.12047 0.00751892 -0.0526362 
16.6445 15.5936 26.5203 0 2 2.1752 0.00737677 -0.0475926 
16.6571 15.5348 26.8125 0 2 2.10484 0.00729207 -0.0441437 
16.6725 15.4752 27.1053 0 2 2.06987 0.007179 -0.0389538 
16.6892 15.4148 27.3991 0 2 2.13207 0.0071123 -0.0355223 
16.7052 15.3537 27.6944 0 2 2.13193 0.00702428 -0.0304868 
16.7188 15.2918 27.9919 0 2 1.99322 0.006973 -0.0272752 
16.7288 15.2294 28.292 0 2 2.04759 0.00690601 -0.0227578 
16.735 15.1664 28.5944 0 2 2.11337 0.00686731 -0.0199775 
16.7379 15.1029 28.899 0 2 2.17479 0.00681713 -0.0161997 
16.738 15.039 29.2055 0 2 2.11419 0.00678833 -0.0139639 
16.7356 14.9747 29.5136 0 2 2.15378 0.00675102 -0.0110649 
16.7311 14.9102 29.8231 0 2 2.15612 0.00672946 -0.00944954 
16.725 14.8453 30.1336 0 2 2.17163 0.00670113 -0.00751437 
16.7177 14.7803 30.445 0 2 2.12044 0.00668435 -0.00651557 
16.7096 14.7152 30.7568 0 2 2.09653 0.0066615 -0.00543806 
16.701 14.65 31.069 0 1 0 0.00664732 -0.00500353 
0 1 1 
1 2 1 
2 3 1 
3 4 1 
4 5 1 
5 6 1 
6 7 1 
7 8 1 
8 9 1 
9 10 1 
10 11 1 
11 12 1 
12 13 1 
13 14 1 
14 15 1 
15 16 1 
16 17 1 
17 18 1 
18 19 1 
19 20 1 
20 21 1 
21 22 1 
22 23 1 
23 24 1 
24 25 1 
25 26 1 
26 27 1 
27 28 1 
28 29 1 
29 30 1 
30 31 1 
31 32 1 
32 33 1 
33 34 1 
34 35 1 
35 36 1 
36 37 1 
37 38 1 
38 39 1 
39 40 1 
40 41 1 
41 42 1 
42 43 1 
43 44 1 
44 45 1 
45 46 1 
46 47 1 
47 48 1 
48 49 1 
49 50 1 
50 51 1 
51 52 1 
52 53 1 
53 54 1 
54 55 1 
55 56 1 
56 57 1 
57 58 1 
58 59 1 
59 60 1 
1 61 0 1 2 3 4 5 6 7 8 9 10 11 12 13 14 15 16 17 18 19 20 21 22 23 24 25 26 27 28 29 30 31 32 33 34 35 36 37 38 39 40 41 42 43 44 45 46 47 48 49 50 51 52 53 54 55 56 57 58 59 60 
