ply
format ascii 1.0
comment written by koba@oshima.lab
element vertex 61
property float x
property float y
property float z
property int label
property int attribute
property float radius
property float curvature
property float torsion
element edge 60
property int vertex1
property int vertex2
property int label
element vertex_seq 1
property int label
property list int int vertex_indices
end_header
16.994 18.752 13.1897 0 1 0 0.0134524 -0.00177228 
16.9946 18.6777 13.4886 0 2 2.74618 0.0134462 -0.00185082 
16.9959 18.6043 13.7878 0 2 2.75502 0.0134393 -0.00201122 
16.9987 18.5325 14.0875 0 2 2.73863 0.0134272 -0.00240606 
17.0037 18.4633 14.3878 0 2 2.69679 0.0134174 -0.00277271 
17.0116 18.3974 14.6889 0 2 2.63793 0.0133996 -0.00349764 
17.0232 18.3358 14.9912 0 2 2.58545 0.0133851 -0.00412951 
17.0391 18.2793 15.2948 0 2 2.50656 0.0133584 -0.00530827 
17.0602 18.2286 15.5999 0 2 2.33005 0.0133367 -0.00625088 
17.0871 18.1848 15.9067 0 2 2.24084 0.0132975 -0.00791621 
17.1206 18.1485 16.2155 0 2 2.0303 0.0132661 -0.00921568 
17.1609 18.1201 16.5263 0 2 1.86641 0.01321 -0.0114635 
17.2069 18.0972 16.8387 0 2 1.80913 0.0131658 -0.0131702 
17.2568 18.0771 17.1519 0 2 1.80607 0.0130883 -0.0160198 
17.3088 18.0568 17.4652 0 2 1.73379 0.0130286 -0.0180543 
17.3613 18.0336 17.7781 0 2 1.72966 0.0129261 -0.0213216 
17.4125 18.0044 18.0899 0 2 1.75224 0.0128487 -0.0236599 
17.4607 17.9666 18.3998 0 2 1.81091 0.0127184 -0.027372 
17.5042 17.9171 18.7073 0 2 1.92661 0.012622 -0.0298875 
17.5414 17.8531 19.0116 0 2 2.00624 0.0124633 -0.0337301 
17.5704 17.7719 19.3121 0 2 2.18806 0.0123481 -0.0363533 
17.5899 17.6715 19.6083 0 2 2.20932 0.0122257 -0.0390258 
17.5997 17.5547 19.9008 0 2 2.24598 0.012029 -0.0429941 
17.6002 17.4251 20.1901 0 2 2.30236 0.0118898 -0.0456052 
17.5916 17.2865 20.4769 0 2 2.3573 0.0116701 -0.0494769 
17.574 17.1426 20.762 0 2 2.31136 0.0115169 -0.0520178 
17.5477 16.9971 21.0459 0 2 2.39475 0.0112788 -0.0555998 
17.5129 16.8538 21.3293 0 2 2.37173 0.0111158 -0.0577989 
17.4699 16.7164 21.613 0 2 2.32756 0.0108671 -0.0607653 
17.4189 16.5886 21.8975 0 2 2.41115 0.0106995 -0.0624977 
17.3601 16.4742 22.1836 0 2 2.44601 0.0104478 -0.0647822 
17.294 16.3758 22.4718 0 2 2.39334 0.0102809 -0.066064 
17.2224 16.292 22.7622 0 2 2.4175 0.0100339 -0.0675464 
17.1474 16.2205 23.0549 0 2 2.3793 0.00987245 -0.0682036 
17.0709 16.1587 23.35 0 2 2.41852 0.0096369 -0.0687564 
16.9952 16.1045 23.6475 0 2 2.4214 0.00948515 -0.0688002 
16.9221 16.0552 23.9474 0 2 2.4374 0.00926692 -0.0682941 
16.8539 16.0084 24.2497 0 2 2.4065 0.00912842 -0.0675425 
16.7924 15.9619 24.5546 0 2 2.2172 0.00893209 -0.0659212 
16.7399 15.9131 24.862 0 2 2.10081 0.00880917 -0.0644982 
16.6984 15.8597 25.172 0 2 2.06859 0.00863726 -0.0618053 
16.6692 15.7998 25.4846 0 2 2.08919 0.00853124 -0.0596291 
16.6514 15.7341 25.7997 0 2 2.10238 0.00843213 -0.0572254 
16.6432 15.6638 26.1169 0 2 2.09788 0.00829619 -0.0532218 
16.6431 15.59 26.436 0 2 2.13097 0.00821389 -0.0502924 
16.6492 15.514 26.7569 0 2 2.11985 0.00810265 -0.0455382 
16.66 15.4371 27.0793 0 2 2.09601 0.00803634 -0.0422592 
16.6738 15.3603 27.403 0 2 2.14865 0.00794779 -0.0372882 
16.6888 15.2851 27.7277 0 2 2.1774 0.00789555 -0.0339642 
16.7034 15.2125 28.0532 0 2 2.14564 0.00782663 -0.0290193 
16.716 15.1438 28.3793 0 2 2.1817 0.00778649 -0.0258772 
16.7252 15.0798 28.7059 0 2 2.17759 0.0077339 -0.0215006 
16.731 15.0205 29.0327 0 2 2.19295 0.00770333 -0.0188286 
16.7338 14.9653 29.3599 0 2 2.18857 0.00766331 -0.0152204 
16.734 14.9136 29.6873 0 2 2.184 0.00763999 -0.0131028 
16.7319 14.865 30.015 0 2 2.20678 0.00760921 -0.0103816 
16.728 14.8189 30.3428 0 2 2.1989 0.00759102 -0.00887909 
16.7225 14.7749 30.6708 0 2 2.19771 0.00756644 -0.00709588 
16.716 14.7324 30.9988 0 2 2.17675 0.00755146 -0.00617741 
16.7087 14.691 31.327 0 2 2.21657 0.00753053 -0.00518093 
16.701 14.65 31.6552 0 1 0 0.00751727 -0.00477226 
0 1 1 
1 2 1 
2 3 1 
3 4 1 
4 5 1 
5 6 1 
6 7 1 
7 8 1 
8 9 1 
9 10 1 
10 11 1 
11 12 1 
12 13 1 
13 14 1 
14 15 1 
15 16 1 
16 17 1 
17 18 1 
18 19 1 
19 20 1 
20 21 1 
21 22 1 
22 23 1 
23 24 1 
24 25 1 
25 26 1 
26 27 1 
27 28 1 
28 29 1 
29 30 1 
30 31 1 
31 32 1 
32 33 1 
33 34 1 
34 35 1 
35 36 1 
36 37 1 
37 38 1 
38 39 1 
39 40 1 
40 41 1 
41 42 1 
42 43 1 
43 44 1 
44 45 1 
45 46 1 
46 47 1 
47 48 1 
48 49 1 
49 50 1 
50 51 1 
51 52 1 
52 53 1 
53 54 1 
54 55 1 
55 56 1 
56 57 1 
57 58 1 
58 59 1 
59 60 1 
1 61 0 1 2 3 4 5 6 7 8 9 10 11 12 13 14 15 16 17 18 19 20 21 22 23 24 25 26 27 28 29 30 31 32 33 34 35 36 37 38 39 40 41 42 43 44 45 46 47 48 49 50 51 52 53 54 55 56 57 58 59 60 
