ply
format ascii 1.0
comment written by koba@oshima.lab
element vertex 61
property float x
property float y
property float z
property int label
property int attribute
property float radius
property float curvature
property float torsion
element edge 60
property int vertex1
property int vertex2
property int label
element vertex_seq 1
property int label
property list int int vertex_indices
end_header
17.287 18.459 13.1897 0 1 0 0.0124722 -0.00264591 
17.2626 18.4356 13.4934 0 2 2.71645 0.0124659 -0.00276549 
17.2392 18.4122 13.7974 0 2 2.65194 0.012459 -0.00300377 
17.2177 18.3887 14.1019 0 2 2.65981 0.0124467 -0.00358505 
17.1992 18.365 14.4071 0 2 2.62304 0.0124369 -0.00412284 
17.1844 18.341 14.7131 0 2 2.60396 0.0124191 -0.0051663 
17.1745 18.3168 15.0204 0 2 2.52443 0.0124045 -0.00603684 
17.1703 18.2922 15.329 0 2 2.42045 0.0123775 -0.00761287 
17.1729 18.2671 15.6392 0 2 2.22175 0.0123555 -0.00884818 
17.1832 18.2416 15.9513 0 2 2.12243 0.0123151 -0.0109735 
17.2021 18.2156 16.2654 0 2 1.91737 0.0122826 -0.0125553 
17.2302 18.1888 16.5817 0 2 1.87127 0.0122242 -0.0151889 
17.2659 18.1602 16.8995 0 2 1.85912 0.0121779 -0.0171314 
17.3073 18.1286 17.2178 0 2 1.84868 0.0120964 -0.0202968 
17.3524 18.093 17.536 0 2 1.80888 0.0120332 -0.0225001 
17.3992 18.052 17.8531 0 2 1.76325 0.0119244 -0.0259613 
17.4457 18.0045 18.1683 0 2 1.7481 0.011842 -0.0283935 
17.4899 17.9494 18.4807 0 2 1.82259 0.0117028 -0.0321971 
17.5299 17.8855 18.7896 0 2 1.88123 0.0115996 -0.0347366 
17.5637 17.8115 19.094 0 2 1.91942 0.0114294 -0.0385604 
17.5892 17.7264 19.3932 0 2 1.98516 0.0113059 -0.0411353 
17.605 17.6295 19.6865 0 2 2.17507 0.0111746 -0.0437361 
17.611 17.5223 19.9744 0 2 2.15308 0.0109635 -0.0476055 
17.6077 17.4071 20.2578 0 2 2.15212 0.0108142 -0.0501597 
17.5952 17.286 20.5374 0 2 2.17427 0.0105787 -0.0539569 
17.5742 17.1611 20.8138 0 2 2.19786 0.0104147 -0.0564619 
17.5449 17.0346 21.088 0 2 2.27287 0.0101599 -0.0601133 
17.5078 16.9087 21.3606 0 2 2.32066 0.00998541 -0.0624523 
17.4632 16.7855 21.6325 0 2 2.31231 0.00971871 -0.0657738 
17.4115 16.6671 21.9043 0 2 2.30353 0.00953873 -0.0678375 
17.3531 16.5557 22.1768 0 2 2.2754 0.00926763 -0.0707011 
17.2887 16.453 22.4508 0 2 2.30313 0.00908749 -0.0724106 
17.2198 16.3585 22.7265 0 2 2.27046 0.00882033 -0.0745762 
17.1481 16.2715 23.0044 0 2 2.24085 0.00864545 -0.0757036 
17.0755 16.1909 23.2846 0 2 2.2647 0.00838987 -0.0769812 
17.0038 16.1159 23.5675 0 2 2.28937 0.00822499 -0.0775058 
16.9348 16.0456 23.8533 0 2 2.19538 0.00798755 -0.0776802 
16.8702 15.9791 24.1425 0 2 2.13199 0.00783669 -0.0773314 
16.8119 15.9155 24.4352 0 2 2.21129 0.00762265 -0.0762092 
16.7616 15.854 24.7318 0 2 2.10119 0.00748856 -0.0750273 
16.7211 15.7936 25.0325 0 2 2.10145 0.00730101 -0.0725201 
16.6917 15.7336 25.3375 0 2 2.10158 0.00718535 -0.070333 
16.6725 15.6738 25.6465 0 2 2.11596 0.00707726 -0.0678273 
16.662 15.6143 25.9588 0 2 2.07242 0.00692917 -0.0634964 
16.6587 15.5551 26.2739 0 2 2.04967 0.00683964 -0.0602261 
16.6613 15.4963 26.5914 0 2 2.06511 0.00671894 -0.0547766 
16.6682 15.4377 26.9105 0 2 2.09763 0.00664722 -0.0509525 
16.6781 15.3794 27.2308 0 2 2.05822 0.00655186 -0.045084 
16.6894 15.3215 27.5518 0 2 2.08103 0.00649592 -0.041121 
16.7007 15.264 27.8728 0 2 2.07818 0.00642268 -0.0351814 
16.7106 15.2068 28.1934 0 2 2.105 0.00638042 -0.0313866 
16.7179 15.15 28.5131 0 2 2.13953 0.00632573 -0.0260872 
16.7226 15.0936 28.832 0 2 2.10473 0.00629441 -0.0228524 
16.725 15.0375 29.15 0 2 2.12651 0.00625413 -0.0184971 
16.7253 14.9816 29.4673 0 2 2.13154 0.00623116 -0.0159367 
16.7239 14.926 29.784 0 2 2.14116 0.00620159 -0.0126366 
16.7211 14.8706 30.1002 0 2 2.13569 0.0061846 -0.0108119 
16.7171 14.8153 30.416 0 2 2.17464 0.00616231 -0.00864726 
16.7122 14.7601 30.7315 0 2 2.19731 0.00614913 -0.00753053 
16.7067 14.705 31.0469 0 2 2.20433 0.00613121 -0.00631568 
16.701 14.65 31.3621 0 1 0 0.00612011 -0.005816 
0 1 1 
1 2 1 
2 3 1 
3 4 1 
4 5 1 
5 6 1 
6 7 1 
7 8 1 
8 9 1 
9 10 1 
10 11 1 
11 12 1 
12 13 1 
13 14 1 
14 15 1 
15 16 1 
16 17 1 
17 18 1 
18 19 1 
19 20 1 
20 21 1 
21 22 1 
22 23 1 
23 24 1 
24 25 1 
25 26 1 
26 27 1 
27 28 1 
28 29 1 
29 30 1 
30 31 1 
31 32 1 
32 33 1 
33 34 1 
34 35 1 
35 36 1 
36 37 1 
37 38 1 
38 39 1 
39 40 1 
40 41 1 
41 42 1 
42 43 1 
43 44 1 
44 45 1 
45 46 1 
46 47 1 
47 48 1 
48 49 1 
49 50 1 
50 51 1 
51 52 1 
52 53 1 
53 54 1 
54 55 1 
55 56 1 
56 57 1 
57 58 1 
58 59 1 
59 60 1 
1 61 0 1 2 3 4 5 6 7 8 9 10 11 12 13 14 15 16 17 18 19 20 21 22 23 24 25 26 27 28 29 30 31 32 33 34 35 36 37 38 39 40 41 42 43 44 45 46 47 48 49 50 51 52 53 54 55 56 57 58 59 60 
