ply
format ascii 1.0
comment written by koba@oshima.lab
element vertex 61
property float x
property float y
property float z
property int label
property int attribute
property float radius
property float curvature
property float torsion
element edge 60
property int vertex1
property int vertex2
property int label
element vertex_seq 1
property int label
property list int int vertex_indices
end_header
16.994 18.752 13.1897 0 1 0 0.0162626 -0.00119265 
17.0053 18.6784 13.4769 0 2 2.74065 0.0162631 -0.00124409 
17.0171 18.6057 13.7643 0 2 2.67003 0.0162627 -0.00135219 
17.0296 18.5348 14.0521 0 2 2.5947 0.0162598 -0.00162118 
17.0434 18.4666 14.3404 0 2 2.5822 0.0162558 -0.00187219 
17.0589 18.402 14.6294 0 2 2.52681 0.0162462 -0.00236984 
17.0764 18.3418 14.9194 0 2 2.49568 0.0162366 -0.00280421 
17.0965 18.287 15.2104 0 2 2.44488 0.0162167 -0.00361516 
17.1194 18.2386 15.5027 0 2 2.32453 0.016199 -0.00426385 
17.1456 18.1972 15.7965 0 2 2.23895 0.0161648 -0.0054094 
17.1755 18.164 16.0919 0 2 2.09434 0.016136 -0.00630188 
17.2093 18.1391 16.389 0 2 2.05474 0.0160826 -0.00784308 
17.2463 18.1204 16.6874 0 2 1.90098 0.0160393 -0.00901128 
17.2854 18.1052 16.9867 0 2 1.73976 0.0159616 -0.0109607 
17.3256 18.0907 17.2863 0 2 1.70285 0.0159004 -0.012356 
17.366 18.0742 17.5857 0 2 1.7261 0.0157937 -0.0146015 
17.4055 18.0529 17.8844 0 2 1.69701 0.015712 -0.0162108 
17.4431 18.0241 18.1819 0 2 1.65566 0.0155724 -0.0187701 
17.4779 17.985 18.4778 0 2 1.72998 0.0154677 -0.020511 
17.5088 17.9328 18.7716 0 2 1.92258 0.0152932 -0.0231815 
17.5348 17.8649 19.0626 0 2 1.9585 0.015165 -0.0250131 
17.5551 17.7794 19.3506 0 2 1.98496 0.0150272 -0.0268839 
17.5691 17.6783 19.6357 0 2 2.08206 0.0148032 -0.029638 
17.5766 17.5647 19.9182 0 2 2.16185 0.0146427 -0.0314315 
17.5771 17.4414 20.1982 0 2 2.1767 0.0143865 -0.0340637 
17.5703 17.3115 20.4762 0 2 2.20007 0.0142058 -0.0357726 
17.556 17.178 20.7522 0 2 2.20348 0.0139218 -0.0381412 
17.5336 17.0437 21.0266 0 2 2.2604 0.0137253 -0.0395648 
17.5028 16.9118 21.2996 0 2 2.32296 0.0134221 -0.0414329 
17.4634 16.7851 21.5715 0 2 2.30411 0.0132157 -0.0424849 
17.4148 16.6666 21.8425 0 2 2.2744 0.0129021 -0.0438288 
17.3573 16.5587 22.113 0 2 2.24659 0.0126918 -0.0445494 
17.2925 16.4608 22.3834 0 2 2.26584 0.0123768 -0.0453131 
17.2225 16.3718 22.6544 0 2 2.25587 0.0121685 -0.0455885 
17.1494 16.2906 22.9265 0 2 2.24943 0.0118605 -0.0457457 
17.0753 16.216 23.2003 0 2 2.22536 0.0116594 -0.0456627 
17.0024 16.1469 23.4765 0 2 2.25213 0.0113657 -0.0452021 
16.9327 16.0821 23.7555 0 2 2.2128 0.0111762 -0.0446484 
16.8684 16.0206 24.038 0 2 2.16825 0.0109031 -0.0435229 
16.8116 15.961 24.3245 0 2 2.24267 0.0107291 -0.0425628 
16.7644 15.9023 24.6157 0 2 2.20851 0.0104814 -0.0407688 
16.7284 15.8436 24.9119 0 2 2.0866 0.0103258 -0.0393254 
16.7026 15.7846 25.2126 0 2 2.08539 0.0101783 -0.0377336 
16.6858 15.7252 25.5172 0 2 2.10408 0.00997243 -0.0350776 
16.6766 15.6655 25.8251 0 2 2.09763 0.00984575 -0.0331248 
16.6736 15.6054 26.1354 0 2 2.09217 0.00967194 -0.0299354 
16.6755 15.5449 26.4477 0 2 2.05438 0.00956691 -0.0277345 
16.6807 15.484 26.7611 0 2 2.04908 0.00942502 -0.0244057 
16.6881 15.4225 27.075 0 2 2.02344 0.0093405 -0.022187 
16.6962 15.3605 27.3888 0 2 2.06504 0.00922821 -0.0189004 
16.7035 15.298 27.7018 0 2 2.03065 0.00916252 -0.0168155 
16.7091 15.2348 28.0135 0 2 2.09549 0.0090764 -0.0139204 
16.7129 15.1712 28.3238 0 2 2.09553 0.00902648 -0.0121651 
16.715 15.1071 28.6329 0 2 2.13182 0.00896154 -0.00982041 
16.7157 15.0426 28.9409 0 2 2.16115 0.00892411 -0.0084468 
16.7151 14.9777 29.2481 0 2 2.16102 0.00887543 -0.0066796 
16.7135 14.9125 29.5546 0 2 2.1538 0.00884718 -0.00570549 
16.7111 14.8471 29.8604 0 2 2.14821 0.00880982 -0.00455552 
16.7081 14.7815 30.1658 0 2 2.15398 0.00878756 -0.00396245 
16.7046 14.7158 30.4709 0 2 2.26475 0.00875708 -0.00331513 
16.701 14.65 30.7759 0 1 0 0.0087381 -0.00304707 
0 1 1 
1 2 1 
2 3 1 
3 4 1 
4 5 1 
5 6 1 
6 7 1 
7 8 1 
8 9 1 
9 10 1 
10 11 1 
11 12 1 
12 13 1 
13 14 1 
14 15 1 
15 16 1 
16 17 1 
17 18 1 
18 19 1 
19 20 1 
20 21 1 
21 22 1 
22 23 1 
23 24 1 
24 25 1 
25 26 1 
26 27 1 
27 28 1 
28 29 1 
29 30 1 
30 31 1 
31 32 1 
32 33 1 
33 34 1 
34 35 1 
35 36 1 
36 37 1 
37 38 1 
38 39 1 
39 40 1 
40 41 1 
41 42 1 
42 43 1 
43 44 1 
44 45 1 
45 46 1 
46 47 1 
47 48 1 
48 49 1 
49 50 1 
50 51 1 
51 52 1 
52 53 1 
53 54 1 
54 55 1 
55 56 1 
56 57 1 
57 58 1 
58 59 1 
59 60 1 
1 61 0 1 2 3 4 5 6 7 8 9 10 11 12 13 14 15 16 17 18 19 20 21 22 23 24 25 26 27 28 29 30 31 32 33 34 35 36 37 38 39 40 41 42 43 44 45 46 47 48 49 50 51 52 53 54 55 56 57 58 59 60 
