ply
format ascii 1.0
comment written by koba@oshima.lab
element vertex 61
property float x
property float y
property float z
property int label
property int attribute
property float radius
property float curvature
property float torsion
element edge 60
property int vertex1
property int vertex2
property int label
element vertex_seq 1
property int label
property list int int vertex_indices
end_header
16.994 18.752 13.1897 0 1 0 0.0143969 -0.00155298 
16.9872 18.6852 13.502 0 2 2.69816 0.0143947 -0.00162391 
16.9814 18.619 13.8144 0 2 2.67013 0.0143918 -0.00176737 
16.9776 18.5538 14.1267 0 2 2.66408 0.0143855 -0.00211924 
16.9766 18.4903 14.4389 0 2 2.6699 0.0143796 -0.0024455 
16.9794 18.4291 14.7512 0 2 2.64328 0.0143676 -0.00308657 
16.9871 18.3706 15.0633 0 2 2.58336 0.0143569 -0.00363766 
17.0006 18.3155 15.3754 0 2 2.41612 0.0143358 -0.00465597 
17.0208 18.2642 15.6873 0 2 2.29019 0.0143179 -0.00546493 
17.0487 18.2174 15.9992 0 2 2.08322 0.0142842 -0.00688127 
17.0853 18.1756 16.3109 0 2 1.95331 0.0142565 -0.00796928 
17.1309 18.1389 16.6224 0 2 1.84467 0.0142057 -0.00982718 
17.1839 18.1058 16.9335 0 2 1.81974 0.014165 -0.0112235 
17.2417 18.0743 17.2437 0 2 1.7866 0.0140925 -0.013537 
17.3022 18.0423 17.5526 0 2 1.78575 0.0140358 -0.0151813 
17.3629 18.008 17.8601 0 2 1.76589 0.0139372 -0.017811 
17.4215 17.9693 18.1656 0 2 1.73405 0.0138621 -0.0196859 
17.4756 17.9242 18.4689 0 2 1.75669 0.0137342 -0.0226566 
17.5228 17.8708 18.7696 0 2 1.85189 0.0136387 -0.0246738 
17.5609 17.807 19.0673 0 2 1.97559 0.0134799 -0.0277632 
17.5875 17.7309 19.3616 0 2 1.97986 0.0133638 -0.0298783 
17.6008 17.6413 19.6525 0 2 2.09535 0.0132394 -0.0320394 
17.6015 17.5397 19.9401 0 2 2.15118 0.013038 -0.0352675 
17.5906 17.4286 20.225 0 2 2.17332 0.0128943 -0.0374067 
17.5694 17.3105 20.5076 0 2 2.19942 0.0126657 -0.0406051 
17.5391 17.1876 20.7883 0 2 2.25001 0.0125052 -0.042724 
17.5008 17.0625 21.0676 0 2 2.3036 0.0122539 -0.0457474 
17.4558 16.9375 21.346 0 2 2.3708 0.0120806 -0.0476337 
17.4052 16.8151 21.6239 0 2 2.36929 0.011814 -0.0502355 
17.3503 16.6976 21.9017 0 2 2.32585 0.0116331 -0.0517982 
17.2921 16.5874 22.18 0 2 2.31142 0.0113593 -0.053875 
17.2319 16.4864 22.4591 0 2 2.31256 0.0111764 -0.055049 
17.1707 16.3941 22.7394 0 2 2.28024 0.0109039 -0.0564245 
17.1094 16.3093 23.0211 0 2 2.25945 0.0107248 -0.0570532 
17.0491 16.2309 23.3045 0 2 2.27738 0.0104617 -0.0576552 
16.9906 16.1578 23.5898 0 2 2.26245 0.010291 -0.0578039 
16.935 16.0889 23.8774 0 2 2.15951 0.0100437 -0.0575782 
16.8833 16.0231 24.1675 0 2 2.25565 0.00988544 -0.0570976 
16.8364 15.9592 24.4604 0 2 2.27552 0.00965913 -0.0559508 
16.7954 15.8962 24.7563 0 2 2.14758 0.00951618 -0.0548836 
16.7611 15.833 25.0555 0 2 2.13518 0.00931448 -0.0527803 
16.7343 15.7687 25.3582 0 2 2.11271 0.00918894 -0.051031 
16.7145 15.7033 25.6641 0 2 2.14123 0.00907073 -0.0490752 
16.7006 15.6373 25.9729 0 2 2.06527 0.00890719 -0.0457741 
16.6919 15.5709 26.2842 0 2 2.02894 0.00880735 -0.0433276 
16.6874 15.5045 26.5975 0 2 2.05553 0.00867136 -0.0393101 
16.6864 15.4384 26.9126 0 2 2.04547 0.00858971 -0.0365234 
16.6879 15.3731 27.2291 0 2 2.06162 0.00848004 -0.0322854 
16.691 15.3087 27.5465 0 2 2.06669 0.00841501 -0.0294436 
16.695 15.2458 27.8646 0 2 2.06816 0.00832893 -0.0252064 
16.6988 15.1845 28.1829 0 2 2.09446 0.00827869 -0.0225051 
16.7018 15.1252 28.5012 0 2 2.10555 0.00821291 -0.0187312 
16.7039 15.0678 28.8193 0 2 2.0652 0.00817481 -0.0164226 
16.7052 15.012 29.1374 0 2 2.12884 0.00812522 -0.0133019 
16.7059 14.9576 29.4553 0 2 2.15128 0.0080966 -0.0114649 
16.706 14.9045 29.7732 0 2 2.16471 0.00805929 -0.00909561 
16.7056 14.8523 30.0911 0 2 2.16232 0.00803757 -0.00778294 
16.7048 14.801 30.4089 0 2 2.23071 0.0080087 -0.00622013 
16.7037 14.7503 30.7266 0 2 2.21584 0.00799142 -0.00541356 
16.7024 14.7001 31.0444 0 2 2.2369 0.00796762 -0.00453778 
16.701 14.65 31.3621 0 1 0 0.00795273 -0.00417873 
0 1 1 
1 2 1 
2 3 1 
3 4 1 
4 5 1 
5 6 1 
6 7 1 
7 8 1 
8 9 1 
9 10 1 
10 11 1 
11 12 1 
12 13 1 
13 14 1 
14 15 1 
15 16 1 
16 17 1 
17 18 1 
18 19 1 
19 20 1 
20 21 1 
21 22 1 
22 23 1 
23 24 1 
24 25 1 
25 26 1 
26 27 1 
27 28 1 
28 29 1 
29 30 1 
30 31 1 
31 32 1 
32 33 1 
33 34 1 
34 35 1 
35 36 1 
36 37 1 
37 38 1 
38 39 1 
39 40 1 
40 41 1 
41 42 1 
42 43 1 
43 44 1 
44 45 1 
45 46 1 
46 47 1 
47 48 1 
48 49 1 
49 50 1 
50 51 1 
51 52 1 
52 53 1 
53 54 1 
54 55 1 
55 56 1 
56 57 1 
57 58 1 
58 59 1 
59 60 1 
1 61 0 1 2 3 4 5 6 7 8 9 10 11 12 13 14 15 16 17 18 19 20 21 22 23 24 25 26 27 28 29 30 31 32 33 34 35 36 37 38 39 40 41 42 43 44 45 46 47 48 49 50 51 52 53 54 55 56 57 58 59 60 
