ply
format ascii 1.0
comment written by koba@oshima.lab
element vertex 61
property float x
property float y
property float z
property int label
property int attribute
property float radius
property float curvature
property float torsion
element edge 60
property int vertex1
property int vertex2
property int label
element vertex_seq 1
property int label
property list int int vertex_indices
end_header
16.994 18.752 13.1897 0 1 0 0.014545 -0.00152264 
16.9933 18.6864 13.5009 0 2 2.69483 0.0145438 -0.00159244 
16.9934 18.6213 13.8123 0 2 2.65493 0.014542 -0.00173335 
16.995 18.5572 14.124 0 2 2.65549 0.0145371 -0.00207876 
16.9992 18.4946 14.4362 0 2 2.65813 0.0145321 -0.00239899 
17.0065 18.4339 14.7489 0 2 2.62038 0.0145213 -0.00302872 
17.0179 18.3757 15.0623 0 2 2.59022 0.0145114 -0.00357124 
17.0341 18.3203 15.3766 0 2 2.40949 0.0144915 -0.00457531 
17.0559 18.2684 15.692 0 2 2.20128 0.0144742 -0.00537387 
17.0842 18.2204 16.0085 0 2 2.04525 0.0144413 -0.00677278 
17.1198 18.1768 16.3263 0 2 1.97625 0.014414 -0.00784709 
17.1629 18.1377 16.6454 0 2 1.91975 0.0143637 -0.00968114 
17.2121 18.1017 16.965 0 2 1.90516 0.0143232 -0.0110593 
17.2654 18.0669 17.2844 0 2 1.82647 0.0142507 -0.0133373 
17.3209 18.0316 17.6026 0 2 1.75014 0.014194 -0.0149441 
17.3765 17.9939 17.9188 0 2 1.80536 0.0140954 -0.0174945 
17.4302 17.9519 18.2322 0 2 1.79084 0.0140202 -0.0193002 
17.4801 17.904 18.5417 0 2 1.82166 0.0138924 -0.0221362 
17.5243 17.8483 18.8466 0 2 1.94389 0.0137971 -0.0240342 
17.5606 17.7829 19.1461 0 2 1.98158 0.0136392 -0.0268947 
17.5872 17.7061 19.4391 0 2 2.0437 0.0135241 -0.0288206 
17.6025 17.6167 19.7253 0 2 2.09346 0.0134011 -0.030763 
17.6068 17.5163 20.0052 0 2 2.14152 0.0132026 -0.0336432 
17.6008 17.4072 20.28 0 2 2.13706 0.0130615 -0.0355382 
17.5854 17.2917 20.5506 0 2 2.22852 0.0128375 -0.0383483 
17.5613 17.1722 20.818 0 2 2.22194 0.0126805 -0.0401969 
17.5293 17.0508 21.0832 0 2 2.23274 0.0124349 -0.0428653 
17.49 16.9299 21.3474 0 2 2.26238 0.0122654 -0.0445595 
17.4443 16.8118 21.6114 0 2 2.20278 0.0120044 -0.0469521 
17.3929 16.6987 21.8763 0 2 2.22325 0.0118268 -0.0484331 
17.3366 16.593 22.1432 0 2 2.26364 0.0115568 -0.0504515 
17.2763 16.4963 22.4129 0 2 2.26124 0.0113758 -0.0516343 
17.2131 16.4081 22.6856 0 2 2.27709 0.0111046 -0.0531094 
17.1483 16.327 22.9614 0 2 2.19597 0.0109253 -0.0538656 
17.0834 16.2519 23.2405 0 2 2.22855 0.0106605 -0.0546891 
17.0196 16.1815 23.5228 0 2 2.26347 0.0104878 -0.0550004 
16.9581 16.1146 23.8086 0 2 2.18771 0.0102363 -0.0550402 
16.9005 16.05 24.0979 0 2 2.15646 0.0100747 -0.0547493 
16.8479 15.9864 24.3908 0 2 2.28596 0.00984266 -0.0538934 
16.8017 15.9226 24.6874 0 2 2.11404 0.00969562 -0.0530207 
16.7632 15.8574 24.9877 0 2 2.10004 0.00948756 -0.051204 
16.7333 15.7898 25.2918 0 2 2.06531 0.00935775 -0.049639 
16.7114 15.7202 25.5995 0 2 2.06788 0.00923533 -0.0478605 
16.6965 15.6491 25.9102 0 2 2.07623 0.00906571 -0.0448074 
16.6875 15.5772 26.2237 0 2 2.0452 0.00896203 -0.0425112 
16.6834 15.5051 26.5395 0 2 2.08621 0.00882072 -0.0386924 
16.6832 15.4333 26.8573 0 2 2.07301 0.00873586 -0.036021 
16.6858 15.3626 27.1766 0 2 2.08658 0.00862189 -0.0319294 
16.6901 15.2934 27.4972 0 2 2.11288 0.00855435 -0.0291667 
16.6953 15.2264 27.8186 0 2 2.09725 0.00846503 -0.0250199 
16.7002 15.1622 28.1405 0 2 2.12695 0.00841297 -0.0223657 
16.704 15.1013 28.4625 0 2 2.14527 0.00834493 -0.0186467 
16.7066 15.0434 28.7845 0 2 2.12958 0.0083056 -0.0163645 
16.7082 14.9883 29.1066 0 2 2.14712 0.00825452 -0.0132696 
16.7088 14.9355 29.4287 0 2 2.14344 0.00822511 -0.011445 
16.7087 14.8848 29.7509 0 2 2.15719 0.00818688 -0.00909026 
16.7079 14.8358 30.0731 0 2 2.14579 0.00816468 -0.00778491 
16.7067 14.7882 30.3953 0 2 2.19289 0.00813525 -0.00622991 
16.705 14.7415 30.7175 0 2 2.22746 0.00811767 -0.00542649 
16.7031 14.6956 31.0398 0 2 2.23161 0.00809352 -0.00455252 
16.701 14.65 31.3621 0 1 0 0.00807844 -0.00419282 
0 1 1 
1 2 1 
2 3 1 
3 4 1 
4 5 1 
5 6 1 
6 7 1 
7 8 1 
8 9 1 
9 10 1 
10 11 1 
11 12 1 
12 13 1 
13 14 1 
14 15 1 
15 16 1 
16 17 1 
17 18 1 
18 19 1 
19 20 1 
20 21 1 
21 22 1 
22 23 1 
23 24 1 
24 25 1 
25 26 1 
26 27 1 
27 28 1 
28 29 1 
29 30 1 
30 31 1 
31 32 1 
32 33 1 
33 34 1 
34 35 1 
35 36 1 
36 37 1 
37 38 1 
38 39 1 
39 40 1 
40 41 1 
41 42 1 
42 43 1 
43 44 1 
44 45 1 
45 46 1 
46 47 1 
47 48 1 
48 49 1 
49 50 1 
50 51 1 
51 52 1 
52 53 1 
53 54 1 
54 55 1 
55 56 1 
56 57 1 
57 58 1 
58 59 1 
59 60 1 
1 61 0 1 2 3 4 5 6 7 8 9 10 11 12 13 14 15 16 17 18 19 20 21 22 23 24 25 26 27 28 29 30 31 32 33 34 35 36 37 38 39 40 41 42 43 44 45 46 47 48 49 50 51 52 53 54 55 56 57 58 59 60 
