ply
format ascii 1.0
comment written by koba@oshima.lab
element vertex 61
property float x
property float y
property float z
property int label
property int attribute
property float radius
property float curvature
property float torsion
element edge 60
property int vertex1
property int vertex2
property int label
element vertex_seq 1
property int label
property list int int vertex_indices
end_header
17.287 18.459 13.1897 0 1 0 0.0131873 -0.0025551 
17.2395 18.4355 13.4991 0 2 2.76079 0.0131819 -0.0026726 
17.1935 18.412 13.8087 0 2 2.71396 0.0131758 -0.0029049 
17.1506 18.3882 14.1187 0 2 2.61803 0.013165 -0.00346949 
17.1124 18.364 14.4293 0 2 2.6176 0.0131565 -0.00399069 
17.0804 18.3394 14.7407 0 2 2.58645 0.0131409 -0.00499616 
17.0561 18.3141 15.0531 0 2 2.55093 0.0131283 -0.00582507 
17.0411 18.2882 15.3667 0 2 2.48998 0.0131049 -0.00731157 
17.0369 18.2614 15.6817 0 2 2.23312 0.0130859 -0.00846787 
17.0451 18.2337 15.9983 0 2 2.05707 0.0130512 -0.0104463 
17.0672 18.205 16.3167 0 2 2.00322 0.0130232 -0.0119152 
17.1041 18.1749 16.6368 0 2 1.93493 0.0129726 -0.0143541 
17.1533 18.1426 16.958 0 2 1.92602 0.0129323 -0.0161471 
17.2117 18.1072 17.2791 0 2 1.89286 0.0128607 -0.019047 
17.2761 18.0677 17.5993 0 2 1.80144 0.0128048 -0.0210316 
17.3435 18.0231 17.9174 0 2 1.77659 0.0127079 -0.0240938 
17.4106 17.9724 18.2326 0 2 1.83003 0.012634 -0.0262079 
17.4744 17.9147 18.5438 0 2 1.86581 0.0125082 -0.0294504 
17.5317 17.849 18.85 0 2 1.87058 0.0124144 -0.0315603 
17.5794 17.7742 19.1502 0 2 1.90268 0.012259 -0.0346469 
17.6143 17.6895 19.4434 0 2 2.01024 0.0121457 -0.036662 
17.6341 17.5943 19.7291 0 2 2.10616 0.0120248 -0.0386486 
17.6393 17.4901 20.0079 0 2 2.13753 0.0118299 -0.0415646 
17.6314 17.3789 20.281 0 2 2.14665 0.0116914 -0.0434666 
17.6117 17.2628 20.5496 0 2 2.19583 0.011472 -0.0462588 
17.5817 17.1438 20.8149 0 2 2.21269 0.0113184 -0.0480778 
17.5427 17.0238 21.078 0 2 2.24041 0.0110785 -0.0507104 
17.4962 16.9048 21.34 0 2 2.24072 0.0109132 -0.0523871 
17.4435 16.7888 21.6021 0 2 2.23528 0.0106587 -0.0547581 
17.386 16.6779 21.8654 0 2 2.23692 0.0104857 -0.0562258 
17.3251 16.5741 22.1312 0 2 2.23023 0.010223 -0.0582336 
17.2621 16.4787 22.4003 0 2 2.24447 0.010047 -0.0594104 
17.1981 16.3913 22.6729 0 2 2.26662 0.00978368 -0.0608655 
17.1341 16.3108 22.9492 0 2 2.21215 0.00960977 -0.0615952 
17.0711 16.2361 23.2291 0 2 2.23779 0.00935325 -0.0623748 
17.0101 16.166 23.5127 0 2 2.27607 0.00918621 -0.0626479 
16.9521 16.0996 23.8 0 2 2.15966 0.00894335 -0.0626013 
16.898 16.0357 24.0909 0 2 2.1972 0.00878753 -0.0622244 
16.8489 15.9733 24.3856 0 2 2.30345 0.00856427 -0.0611974 
16.8058 15.9112 24.6841 0 2 2.12466 0.00842306 -0.0601756 
16.7696 15.8484 24.9864 0 2 2.0666 0.00822367 -0.0580691 
16.7411 15.784 25.2924 0 2 2.09262 0.00809955 -0.0562616 
16.7197 15.7182 25.6018 0 2 2.06722 0.00798273 -0.0542145 
16.7045 15.6514 25.9142 0 2 2.08343 0.00782122 -0.050714 
16.6946 15.5841 26.2292 0 2 2.07701 0.00772271 -0.0480898 
16.6892 15.5165 26.5464 0 2 2.07654 0.00758872 -0.043737 
16.6873 15.4491 26.8654 0 2 2.08526 0.00750841 -0.0406947 
16.6881 15.3824 27.1858 0 2 2.08341 0.00740072 -0.0360399 
16.6906 15.3167 27.5071 0 2 2.14628 0.007337 -0.0329029 
16.6941 15.2524 27.829 0 2 2.11279 0.00725284 -0.0282063 
16.6976 15.1899 28.151 0 2 2.12465 0.00720386 -0.0252018 
16.7004 15.1295 28.4728 0 2 2.14193 0.00713992 -0.0209937 
16.7024 15.0712 28.7944 0 2 2.12517 0.007103 -0.0184151 
16.7038 15.0147 29.1159 0 2 2.14159 0.00705512 -0.0149265 
16.7045 14.9597 29.4371 0 2 2.13684 0.00702762 -0.0128703 
16.7047 14.906 29.7581 0 2 2.14954 0.00699191 -0.0102151 
16.7045 14.8535 30.0791 0 2 2.15947 0.00697123 -0.00874301 
16.7039 14.8018 30.3999 0 2 2.24472 0.00694391 -0.00699045 
16.7031 14.7508 30.7207 0 2 2.21725 0.00692763 -0.0060857 
16.7021 14.7003 31.0414 0 2 2.23419 0.00690536 -0.00510319 
16.701 14.65 31.3621 0 1 0 0.00689148 -0.00470064 
0 1 1 
1 2 1 
2 3 1 
3 4 1 
4 5 1 
5 6 1 
6 7 1 
7 8 1 
8 9 1 
9 10 1 
10 11 1 
11 12 1 
12 13 1 
13 14 1 
14 15 1 
15 16 1 
16 17 1 
17 18 1 
18 19 1 
19 20 1 
20 21 1 
21 22 1 
22 23 1 
23 24 1 
24 25 1 
25 26 1 
26 27 1 
27 28 1 
28 29 1 
29 30 1 
30 31 1 
31 32 1 
32 33 1 
33 34 1 
34 35 1 
35 36 1 
36 37 1 
37 38 1 
38 39 1 
39 40 1 
40 41 1 
41 42 1 
42 43 1 
43 44 1 
44 45 1 
45 46 1 
46 47 1 
47 48 1 
48 49 1 
49 50 1 
50 51 1 
51 52 1 
52 53 1 
53 54 1 
54 55 1 
55 56 1 
56 57 1 
57 58 1 
58 59 1 
59 60 1 
1 61 0 1 2 3 4 5 6 7 8 9 10 11 12 13 14 15 16 17 18 19 20 21 22 23 24 25 26 27 28 29 30 31 32 33 34 35 36 37 38 39 40 41 42 43 44 45 46 47 48 49 50 51 52 53 54 55 56 57 58 59 60 
