ply
format ascii 1.0
comment written by koba@oshima.lab
element vertex 61
property float x
property float y
property float z
property int label
property int attribute
property float radius
property float curvature
property float torsion
element edge 60
property int vertex1
property int vertex2
property int label
element vertex_seq 1
property int label
property list int int vertex_indices
end_header
16.994 18.459 13.4828 0 1 0 0.0146625 -0.00219889 
17.0062 18.4284 13.783 0 2 2.67553 0.0146526 -0.00229943 
17.0189 18.3979 14.0833 0 2 2.65293 0.0146417 -0.00249998 
17.0327 18.3678 14.3837 0 2 2.59068 0.0146226 -0.00298961 
17.0479 18.3381 14.6843 0 2 2.55857 0.0146075 -0.00344296 
17.0652 18.309 14.9852 0 2 2.53856 0.0145802 -0.00432742 
17.0851 18.2806 15.2864 0 2 2.49415 0.0145582 -0.00507478 
17.1079 18.2532 15.588 0 2 2.30413 0.0145181 -0.00644082 
17.1344 18.2269 15.89 0 2 2.06328 0.0144858 -0.00751918 
17.1649 18.2018 16.1926 0 2 1.95177 0.0144278 -0.00938976 
17.2 18.1781 16.4957 0 2 1.87853 0.0143819 -0.0107991 
17.2398 18.1555 16.7994 0 2 1.79123 0.0143006 -0.0131708 
17.2833 18.1327 17.1032 0 2 1.7308 0.0142373 -0.0149355 
17.3288 18.1078 17.4067 0 2 1.71811 0.0141274 -0.0178314 
17.3751 18.0789 17.7092 0 2 1.72769 0.0140436 -0.0198578 
17.4205 18.0443 18.0104 0 2 1.69534 0.0139013 -0.023055 
17.4637 18.0022 18.3096 0 2 1.68728 0.013795 -0.0253096 
17.5031 17.9507 18.6064 0 2 1.97986 0.0136179 -0.0288537 
17.5373 17.888 18.9002 0 2 1.99061 0.013488 -0.0312474 
17.5649 17.8123 19.1905 0 2 2.05133 0.0132758 -0.0348962 
17.5842 17.7218 19.4769 0 2 2.02758 0.013123 -0.0373834 
17.5942 17.6155 19.759 0 2 2.12417 0.0129614 -0.0399161 
17.595 17.4958 20.0374 0 2 2.14756 0.0127034 -0.0436784 
17.587 17.3662 20.3127 0 2 2.21118 0.0125219 -0.0461532 
17.5705 17.23 20.5859 0 2 2.21234 0.012237 -0.0498175 
17.546 17.0904 20.8575 0 2 2.27062 0.0120394 -0.0522199 
17.5139 16.9508 21.1284 0 2 2.31458 0.0117338 -0.0556527 
17.4746 16.8145 21.3994 0 2 2.37626 0.0115254 -0.0577932 
17.4286 16.6849 21.6711 0 2 2.35664 0.0112086 -0.0607249 
17.3761 16.5652 21.9443 0 2 2.34893 0.010996 -0.0624668 
17.3176 16.4588 22.2198 0 2 2.32613 0.0106774 -0.0648473 
17.2537 16.3681 22.4983 0 2 2.34442 0.0104666 -0.0662481 
17.186 16.2915 22.7796 0 2 2.33403 0.010155 -0.0679828 
17.116 16.2265 23.0636 0 2 2.2894 0.00995169 -0.0688508 
17.0456 16.1705 23.3502 0 2 2.31855 0.0096552 -0.0697751 
16.9763 16.121 23.6393 0 2 2.32096 0.00946432 -0.0700949 
16.91 16.0755 23.9307 0 2 2.28209 0.00918987 -0.0700254 
16.8483 16.0313 24.2242 0 2 2.31073 0.00901574 -0.0695668 
16.7928 15.9861 24.5197 0 2 2.30898 0.00876896 -0.0683814 
16.7454 15.9373 24.8171 0 2 2.1193 0.00861446 -0.0672377 
16.7076 15.8823 25.1162 0 2 2.06325 0.00839839 -0.0649284 
16.6807 15.8192 25.4168 0 2 2.06107 0.00826511 -0.0629728 
16.6637 15.7491 25.719 0 2 2.12446 0.00814054 -0.0607498 
16.6552 15.6732 26.0227 0 2 2.10243 0.00796973 -0.0569348 
16.6538 15.5934 26.3278 0 2 2.10254 0.00786638 -0.0540728 
16.658 15.5109 26.6343 0 2 2.10118 0.0077268 -0.04933 
16.6663 15.4275 26.9422 0 2 2.02335 0.00764372 -0.045997 
16.6773 15.3447 27.2514 0 2 2.05327 0.007533 -0.0408619 
16.6896 15.2639 27.5619 0 2 2.07149 0.00746787 -0.0373814 
16.7017 15.1868 27.8737 0 2 2.01771 0.00738228 -0.0321458 
16.7121 15.1148 28.1867 0 2 2.04838 0.00733268 -0.0287818 
16.7198 15.0492 28.5009 0 2 2.08104 0.00726812 -0.0240486 
16.7247 14.9896 28.8161 0 2 2.08893 0.00723093 -0.0211333 
16.7271 14.9354 29.1323 0 2 2.14454 0.00718271 -0.0171668 
16.7274 14.8859 29.4493 0 2 2.14554 0.00715498 -0.0148222 
16.7258 14.8404 29.767 0 2 2.11509 0.00711889 -0.0117885 
16.7227 14.7983 30.0853 0 2 2.13074 0.00709792 -0.0101014 
16.7184 14.7589 30.4041 0 2 2.12214 0.00707007 -0.00808343 
16.7131 14.7215 30.7232 0 2 2.16835 0.0070534 -0.00703922 
16.7072 14.6854 31.0426 0 2 2.1944 0.00703047 -0.00590349 
16.701 14.65 31.3621 0 1 0 0.00701613 -0.00543624 
0 1 1 
1 2 1 
2 3 1 
3 4 1 
4 5 1 
5 6 1 
6 7 1 
7 8 1 
8 9 1 
9 10 1 
10 11 1 
11 12 1 
12 13 1 
13 14 1 
14 15 1 
15 16 1 
16 17 1 
17 18 1 
18 19 1 
19 20 1 
20 21 1 
21 22 1 
22 23 1 
23 24 1 
24 25 1 
25 26 1 
26 27 1 
27 28 1 
28 29 1 
29 30 1 
30 31 1 
31 32 1 
32 33 1 
33 34 1 
34 35 1 
35 36 1 
36 37 1 
37 38 1 
38 39 1 
39 40 1 
40 41 1 
41 42 1 
42 43 1 
43 44 1 
44 45 1 
45 46 1 
46 47 1 
47 48 1 
48 49 1 
49 50 1 
50 51 1 
51 52 1 
52 53 1 
53 54 1 
54 55 1 
55 56 1 
56 57 1 
57 58 1 
58 59 1 
59 60 1 
1 61 0 1 2 3 4 5 6 7 8 9 10 11 12 13 14 15 16 17 18 19 20 21 22 23 24 25 26 27 28 29 30 31 32 33 34 35 36 37 38 39 40 41 42 43 44 45 46 47 48 49 50 51 52 53 54 55 56 57 58 59 60 
