ply
format ascii 1.0
comment written by koba@oshima.lab
element vertex 61
property float x
property float y
property float z
property int label
property int attribute
property float radius
property float curvature
property float torsion
element edge 60
property int vertex1
property int vertex2
property int label
element vertex_seq 1
property int label
property list int int vertex_indices
end_header
16.994 18.459 13.4828 0 1 0 0.0144155 -0.00235024 
16.9985 18.4367 13.802 0 2 2.69675 0.0144098 -0.00246044 
17.0038 18.4142 14.121 0 2 2.66254 0.0144032 -0.00267833 
17.0105 18.3912 14.4395 0 2 2.62896 0.0143908 -0.00320843 
17.0193 18.3675 14.7573 0 2 2.59719 0.0143804 -0.00369849 
17.031 18.3429 15.074 0 2 2.54442 0.0143606 -0.00464771 
17.0464 18.3171 15.3894 0 2 2.38053 0.0143439 -0.00543638 
17.066 18.2898 15.7032 0 2 2.2681 0.0143125 -0.00686017 
17.0907 18.2609 16.0153 0 2 2.13052 0.0142867 -0.00797401 
17.1212 18.2302 16.3253 0 2 1.99114 0.0142394 -0.0098878 
17.1581 18.1973 16.6329 0 2 1.94378 0.0142013 -0.0113106 
17.2018 18.1619 16.9381 0 2 1.78702 0.0141331 -0.0136768 
17.2507 18.1236 17.2407 0 2 1.75589 0.0140795 -0.0154195 
17.303 18.0816 17.5409 0 2 1.71765 0.0139855 -0.01826 
17.3565 18.0352 17.8387 0 2 1.71603 0.0139133 -0.0202453 
17.4093 17.9839 18.1341 0 2 1.71915 0.0137897 -0.0233749 
17.4595 17.9269 18.4273 0 2 1.7177 0.0136966 -0.0255793 
17.5051 17.8636 18.7183 0 2 1.81523 0.0135404 -0.0290456 
17.5441 17.7933 19.0072 0 2 1.90838 0.013425 -0.0313967 
17.5746 17.7154 19.2939 0 2 1.94995 0.0132352 -0.0349977 
17.5946 17.6293 19.5787 0 2 2.06105 0.0130977 -0.0374646 
17.6026 17.5346 19.8615 0 2 2.07864 0.0129515 -0.039988 
17.5991 17.4325 20.1426 0 2 2.10499 0.0127165 -0.0437723 
17.5851 17.3246 20.4221 0 2 2.18676 0.0125503 -0.0462897 
17.5616 17.2125 20.7002 0 2 2.19297 0.0122879 -0.0500651 
17.5297 17.0978 20.9772 0 2 2.26976 0.0121051 -0.0525754 
17.4902 16.9819 21.2533 0 2 2.32627 0.0118209 -0.0562089 
17.4442 16.8664 21.5286 0 2 2.30202 0.0116264 -0.0585124 
17.3926 16.753 21.8033 0 2 2.28467 0.0113293 -0.0617419 
17.3365 16.6432 22.0777 0 2 2.27202 0.0111291 -0.0637161 
17.2769 16.5385 22.352 0 2 2.28366 0.0108281 -0.0664028 
17.2147 16.4402 22.6263 0 2 2.29721 0.0106285 -0.0679668 
17.1512 16.348 22.9011 0 2 2.20684 0.0103333 -0.0698755 
17.0874 16.2615 23.1768 0 2 2.22325 0.0101406 -0.0708097 
17.0245 16.18 23.4539 0 2 2.23727 0.00985958 -0.0717936 
16.9636 16.1031 23.7327 0 2 2.23984 0.00967871 -0.072132 
16.9059 16.0301 24.0137 0 2 2.14471 0.00941865 -0.072063 
16.8525 15.9606 24.2974 0 2 2.19417 0.00925361 -0.0715868 
16.8047 15.894 24.5841 0 2 2.23983 0.00901961 -0.070313 
16.7634 15.8296 24.8743 0 2 2.15576 0.00887307 -0.0690648 
16.73 15.7671 25.1685 0 2 2.09526 0.00866807 -0.0665298 
16.7051 15.7059 25.4668 0 2 2.07846 0.00854158 -0.0643809 
16.688 15.6458 25.769 0 2 2.10021 0.00842329 -0.0619499 
16.6777 15.5868 26.0745 0 2 2.08873 0.00826103 -0.0578008 
16.6731 15.5286 26.3827 0 2 2.07346 0.00816282 -0.0547013 
16.6731 15.4713 26.6932 0 2 2.07855 0.00803016 -0.049585 
16.6766 15.4146 27.0054 0 2 2.10378 0.00795118 -0.0460287 
16.6825 15.3586 27.3187 0 2 2.08306 0.00784591 -0.0406201 
16.6898 15.303 27.6327 0 2 2.06379 0.00778397 -0.0369981 
16.6973 15.2478 27.9469 0 2 2.11242 0.00770255 -0.0316098 
16.7041 15.1929 28.2606 0 2 2.03386 0.00765535 -0.0281811 
16.7092 15.1382 28.5734 0 2 2.07459 0.00759396 -0.0234026 
16.7126 15.0836 28.8854 0 2 2.13658 0.00755862 -0.0204895 
16.7144 15.0291 29.1967 0 2 2.13676 0.00751288 -0.0165693 
16.715 14.9747 29.5072 0 2 2.12934 0.00748664 -0.0142666 
16.7144 14.9205 29.8172 0 2 2.17146 0.00745261 -0.0113009 
16.7128 14.8663 30.1268 0 2 2.15751 0.0074329 -0.00966135 
16.7105 14.8122 30.4359 0 2 2.24235 0.00740686 -0.00771563 
16.7077 14.7581 30.7448 0 2 2.28338 0.00739134 -0.00671271 
16.7044 14.704 31.0535 0 2 2.29023 0.00737008 -0.00562389 
16.701 14.65 31.3621 0 1 0 0.00735683 -0.00517771 
0 1 1 
1 2 1 
2 3 1 
3 4 1 
4 5 1 
5 6 1 
6 7 1 
7 8 1 
8 9 1 
9 10 1 
10 11 1 
11 12 1 
12 13 1 
13 14 1 
14 15 1 
15 16 1 
16 17 1 
17 18 1 
18 19 1 
19 20 1 
20 21 1 
21 22 1 
22 23 1 
23 24 1 
24 25 1 
25 26 1 
26 27 1 
27 28 1 
28 29 1 
29 30 1 
30 31 1 
31 32 1 
32 33 1 
33 34 1 
34 35 1 
35 36 1 
36 37 1 
37 38 1 
38 39 1 
39 40 1 
40 41 1 
41 42 1 
42 43 1 
43 44 1 
44 45 1 
45 46 1 
46 47 1 
47 48 1 
48 49 1 
49 50 1 
50 51 1 
51 52 1 
52 53 1 
53 54 1 
54 55 1 
55 56 1 
56 57 1 
57 58 1 
58 59 1 
59 60 1 
1 61 0 1 2 3 4 5 6 7 8 9 10 11 12 13 14 15 16 17 18 19 20 21 22 23 24 25 26 27 28 29 30 31 32 33 34 35 36 37 38 39 40 41 42 43 44 45 46 47 48 49 50 51 52 53 54 55 56 57 58 59 60 
