ply
format ascii 1.0
comment written by koba@oshima.lab
element vertex 61
property float x
property float y
property float z
property int label
property int attribute
property float radius
property float curvature
property float torsion
element edge 60
property int vertex1
property int vertex2
property int label
element vertex_seq 1
property int label
property list int int vertex_indices
end_header
16.994 18.459 13.4828 0 1 0 0.0145107 -0.00224199 
16.9984 18.4326 13.8004 0 2 2.67707 0.0145049 -0.00234838 
17.0036 18.4061 14.1178 0 2 2.66 0.0144982 -0.00255711 
17.0102 18.3794 14.4348 0 2 2.61204 0.0144856 -0.00306341 
17.019 18.3523 14.7511 0 2 2.57359 0.014475 -0.00353083 
17.0307 18.3247 15.0667 0 2 2.53238 0.0144549 -0.00443635 
17.0459 18.2966 15.3811 0 2 2.38084 0.014438 -0.00519015 
17.0656 18.2677 15.6943 0 2 2.26313 0.0144062 -0.00655299 
17.0902 18.238 16.006 0 2 2.10518 0.0143799 -0.00762029 
17.1207 18.2073 16.3161 0 2 2.04116 0.0143319 -0.00945639 
17.1576 18.1755 16.6242 0 2 1.8677 0.0142932 -0.0108241 
17.2014 18.1425 16.9303 0 2 1.79418 0.0142239 -0.0131027 
17.2504 18.1073 17.2342 0 2 1.76826 0.0141694 -0.0147835 
17.3026 18.069 17.5359 0 2 1.76156 0.0140739 -0.0175249 
17.3562 18.0269 17.8354 0 2 1.75078 0.0140004 -0.0194394 
17.4091 17.9798 18.1326 0 2 1.70848 0.0138746 -0.0224546 
17.4594 17.927 18.4274 0 2 1.72588 0.01378 -0.0245767 
17.5051 17.8675 18.72 0 2 1.80196 0.013621 -0.0279115 
17.5442 17.8004 19.0101 0 2 1.91282 0.0135036 -0.030172 
17.5747 17.7247 19.2977 0 2 1.99092 0.0133105 -0.0336324 
17.5947 17.6396 19.5829 0 2 2.05768 0.0131706 -0.0360017 
17.6028 17.5446 19.8655 0 2 2.09507 0.0130218 -0.0384246 
17.5993 17.4411 20.146 0 2 2.09502 0.0127828 -0.042061 
17.5853 17.3309 20.4246 0 2 2.1865 0.0126136 -0.0444824 
17.5618 17.2159 20.7016 0 2 2.19328 0.0123464 -0.0481183 
17.5298 17.098 20.9773 0 2 2.26214 0.0121601 -0.0505394 
17.4902 16.979 21.2521 0 2 2.32708 0.0118705 -0.0540495 
17.4442 16.8608 21.5262 0 2 2.30261 0.011672 -0.0562792 
17.3926 16.7452 21.8001 0 2 2.2849 0.0113686 -0.059413 
17.3365 16.6341 22.074 0 2 2.27207 0.0111641 -0.0613352 
17.2768 16.5293 22.3482 0 2 2.27603 0.0108563 -0.0639681 
17.2147 16.4323 22.6231 0 2 2.29096 0.0106519 -0.0655149 
17.1511 16.3425 22.8989 0 2 2.19645 0.0103493 -0.067429 
17.0873 16.2592 23.1759 0 2 2.21946 0.0101515 -0.0683888 
17.0244 16.1814 23.4545 0 2 2.22998 0.00986291 -0.0694403 
16.9635 16.1082 23.7348 0 2 2.23314 0.0096769 -0.0698432 
16.9059 16.0387 24.0173 0 2 2.16791 0.00940917 -0.0699004 
16.8525 15.972 24.3021 0 2 2.21639 0.0092391 -0.0695272 
16.8047 15.9073 24.5896 0 2 2.24286 0.00899776 -0.0684281 
16.7635 15.8435 24.8801 0 2 2.14592 0.00884651 -0.0673083 
16.73 15.7799 25.1738 0 2 2.07259 0.0086348 -0.0649811 
16.7051 15.7158 25.4709 0 2 2.06932 0.0085041 -0.0629784 
16.688 15.6511 25.7712 0 2 2.08749 0.00838186 -0.0606949 
16.6777 15.5863 26.0743 0 2 2.09856 0.00821415 -0.056767 
16.6731 15.5215 26.3798 0 2 2.10468 0.00811263 -0.053814 
16.6731 15.4571 26.6873 0 2 2.06096 0.0079755 -0.048913 
16.6766 15.3934 26.9966 0 2 2.10761 0.00789387 -0.0454873 
16.6825 15.3307 27.3072 0 2 2.11622 0.0077851 -0.0402493 
16.6898 15.2692 27.6187 0 2 2.06601 0.00772112 -0.0367241 
16.6973 15.2092 27.9309 0 2 2.08961 0.00763707 -0.0314562 
16.7041 15.1511 28.2432 0 2 2.05321 0.00758838 -0.0280908 
16.7091 15.095 28.5555 0 2 2.09595 0.0075251 -0.0233824 
16.7125 15.0407 28.8677 0 2 2.11743 0.0074887 -0.0205003 
16.7144 14.9882 29.1797 0 2 2.13555 0.00744166 -0.0166055 
16.7149 14.9372 29.4917 0 2 2.14061 0.00741471 -0.0143127 
16.7143 14.8874 29.8035 0 2 2.13752 0.00737981 -0.0113562 
16.7128 14.8386 30.1153 0 2 2.13505 0.00735963 -0.00971962 
16.7105 14.7907 30.4271 0 2 2.1244 0.00733302 -0.00777456 
16.7077 14.7435 30.7388 0 2 2.30593 0.00731718 -0.00677033 
16.7044 14.6966 31.0504 0 2 2.30129 0.00729551 -0.00567757 
16.701 14.65 31.3621 0 1 0 0.00728203 -0.00522764 
0 1 1 
1 2 1 
2 3 1 
3 4 1 
4 5 1 
5 6 1 
6 7 1 
7 8 1 
8 9 1 
9 10 1 
10 11 1 
11 12 1 
12 13 1 
13 14 1 
14 15 1 
15 16 1 
16 17 1 
17 18 1 
18 19 1 
19 20 1 
20 21 1 
21 22 1 
22 23 1 
23 24 1 
24 25 1 
25 26 1 
26 27 1 
27 28 1 
28 29 1 
29 30 1 
30 31 1 
31 32 1 
32 33 1 
33 34 1 
34 35 1 
35 36 1 
36 37 1 
37 38 1 
38 39 1 
39 40 1 
40 41 1 
41 42 1 
42 43 1 
43 44 1 
44 45 1 
45 46 1 
46 47 1 
47 48 1 
48 49 1 
49 50 1 
50 51 1 
51 52 1 
52 53 1 
53 54 1 
54 55 1 
55 56 1 
56 57 1 
57 58 1 
58 59 1 
59 60 1 
1 61 0 1 2 3 4 5 6 7 8 9 10 11 12 13 14 15 16 17 18 19 20 21 22 23 24 25 26 27 28 29 30 31 32 33 34 35 36 37 38 39 40 41 42 43 44 45 46 47 48 49 50 51 52 53 54 55 56 57 58 59 60 
