ply
format ascii 1.0
comment written by koba@oshima.lab
element vertex 61
property float x
property float y
property float z
property int label
property int attribute
property float radius
property float curvature
property float torsion
element edge 60
property int vertex1
property int vertex2
property int label
element vertex_seq 1
property int label
property list int int vertex_indices
end_header
16.994 18.752 13.1897 0 1 0 0.014081 -0.00154486 
16.9916 18.6813 13.4985 0 2 2.68448 0.0140783 -0.00161627 
16.9901 18.6113 13.8074 0 2 2.71565 0.0140748 -0.00175952 
16.9903 18.5425 14.1165 0 2 2.66805 0.0140676 -0.00210986 
16.9931 18.4758 14.4258 0 2 2.66471 0.014061 -0.00243432 
16.9994 18.4117 14.7354 0 2 2.61612 0.014048 -0.00307357 
17.0099 18.3509 15.0454 0 2 2.55914 0.0140365 -0.00362748 
17.0256 18.294 15.3558 0 2 2.4033 0.0140142 -0.00465683 
17.0473 18.2417 15.6667 0 2 2.27373 0.0139953 -0.00547787 
17.076 18.1948 15.9782 0 2 2.1225 0.0139599 -0.00692013 
17.1123 18.1537 16.2904 0 2 2.01015 0.0139309 -0.0080313 
17.1568 18.1188 16.6031 0 2 1.94146 0.0138778 -0.0099337 
17.2077 18.0883 16.9162 0 2 1.84596 0.0138354 -0.0113668 
17.2629 18.06 17.2289 0 2 1.8141 0.0137598 -0.0137465 
17.3202 18.0317 17.5408 0 2 1.80532 0.0137008 -0.0154411 
17.3774 18.0012 17.8513 0 2 1.77324 0.0135985 -0.0181571 
17.4324 17.9663 18.1601 0 2 1.77176 0.0135205 -0.0200979 
17.4831 17.925 18.4664 0 2 1.75725 0.0133881 -0.0231793 
17.5271 17.8748 18.7699 0 2 1.83706 0.0132892 -0.0252739 
17.5625 17.8138 19.07 0 2 1.94426 0.0131252 -0.0284855 
17.587 17.7396 19.3662 0 2 1.99082 0.0130054 -0.0306874 
17.5989 17.6509 19.6581 0 2 2.00138 0.0128773 -0.0329404 
17.5989 17.5494 19.9461 0 2 2.03945 0.01267 -0.0363209 
17.5878 17.4376 20.2308 0 2 2.03666 0.0125223 -0.0385725 
17.5668 17.318 20.5126 0 2 2.1505 0.0122877 -0.0419575 
17.5368 17.1932 20.7922 0 2 2.22739 0.0121231 -0.0442136 
17.4988 17.0657 21.07 0 2 2.29737 0.0118657 -0.0474574 
17.454 16.938 21.3466 0 2 2.37104 0.0116884 -0.0494992 
17.4033 16.8126 21.6224 0 2 2.34243 0.011416 -0.0523453 
17.3477 16.692 21.8981 0 2 2.29827 0.0112313 -0.0540764 
17.2883 16.5787 22.1742 0 2 2.21785 0.0109521 -0.0564114 
17.2261 16.4748 22.4512 0 2 2.28501 0.010766 -0.057758 
17.1623 16.3796 22.7294 0 2 2.25289 0.0104889 -0.0593863 
17.098 16.2922 23.0091 0 2 2.24273 0.010307 -0.060175 
17.0345 16.2116 23.2908 0 2 2.26738 0.0100404 -0.0610026 
16.9729 16.1366 23.5746 0 2 2.25304 0.00986765 -0.0612877 
16.9143 16.0662 23.861 0 2 2.16249 0.00961782 -0.0612361 
16.8601 15.9994 24.1503 0 2 2.24369 0.00945826 -0.0608458 
16.8113 15.9352 24.4427 0 2 2.27479 0.00923058 -0.0597922 
16.7692 15.8724 24.7387 0 2 2.09085 0.00908709 -0.0587546 
16.7348 15.8101 25.0385 0 2 2.09198 0.00888512 -0.0566391 
16.7091 15.7474 25.3424 0 2 2.12371 0.00875973 -0.0548405 
16.6913 15.6842 25.6499 0 2 2.10708 0.00864191 -0.052806 
16.6804 15.6209 25.9607 0 2 2.03652 0.00847937 -0.0493319 
16.6752 15.5576 26.2742 0 2 2.03719 0.00838044 -0.0467329 
16.6746 15.4944 26.59 0 2 2.07235 0.0082461 -0.0424328 
16.6777 15.4317 26.9075 0 2 2.06524 0.00816571 -0.0394363 
16.6832 15.3695 27.2264 0 2 2.07689 0.00805808 -0.0348643 
16.6902 15.3081 27.546 0 2 2.10089 0.00799449 -0.0317905 
16.6975 15.2477 27.8661 0 2 2.08305 0.0079106 -0.0271983 
16.704 15.1886 28.1859 0 2 2.0825 0.00786182 -0.0242698 
16.709 15.1307 28.5053 0 2 2.10631 0.0077982 -0.020182 
16.7122 15.0742 28.8241 0 2 2.08898 0.00776148 -0.017685 
16.714 15.0187 29.1424 0 2 2.12059 0.00771387 -0.0143169 
16.7146 14.9642 29.4603 0 2 2.13619 0.0076865 -0.0123359 
16.714 14.9106 29.7778 0 2 2.14719 0.00765095 -0.00978174 
16.7125 14.8576 30.095 0 2 2.15573 0.00763033 -0.00836781 
16.7103 14.8052 30.412 0 2 2.12159 0.00760304 -0.00668669 
16.7075 14.7532 30.7288 0 2 2.20623 0.00758676 -0.00581941 
16.7043 14.7016 31.0455 0 2 2.2366 0.00756443 -0.00487755 
16.701 14.65 31.3621 0 1 0 0.00755049 -0.00449137 
0 1 1 
1 2 1 
2 3 1 
3 4 1 
4 5 1 
5 6 1 
6 7 1 
7 8 1 
8 9 1 
9 10 1 
10 11 1 
11 12 1 
12 13 1 
13 14 1 
14 15 1 
15 16 1 
16 17 1 
17 18 1 
18 19 1 
19 20 1 
20 21 1 
21 22 1 
22 23 1 
23 24 1 
24 25 1 
25 26 1 
26 27 1 
27 28 1 
28 29 1 
29 30 1 
30 31 1 
31 32 1 
32 33 1 
33 34 1 
34 35 1 
35 36 1 
36 37 1 
37 38 1 
38 39 1 
39 40 1 
40 41 1 
41 42 1 
42 43 1 
43 44 1 
44 45 1 
45 46 1 
46 47 1 
47 48 1 
48 49 1 
49 50 1 
50 51 1 
51 52 1 
52 53 1 
53 54 1 
54 55 1 
55 56 1 
56 57 1 
57 58 1 
58 59 1 
59 60 1 
1 61 0 1 2 3 4 5 6 7 8 9 10 11 12 13 14 15 16 17 18 19 20 21 22 23 24 25 26 27 28 29 30 31 32 33 34 35 36 37 38 39 40 41 42 43 44 45 46 47 48 49 50 51 52 53 54 55 56 57 58 59 60 
