ply
format ascii 1.0
comment written by koba@oshima.lab
element vertex 61
property float x
property float y
property float z
property int label
property int attribute
property float radius
property float curvature
property float torsion
element edge 60
property int vertex1
property int vertex2
property int label
element vertex_seq 1
property int label
property list int int vertex_indices
end_header
16.994 18.459 13.4828 0 1 0 0.0150176 -0.00215751 
16.9973 18.4333 13.8006 0 2 2.679 0.0150129 -0.00225866 
17.0014 18.4074 14.1182 0 2 2.66211 0.0150072 -0.00245878 
17.0071 18.3812 14.4354 0 2 2.61445 0.0149962 -0.00294577 
17.015 18.3545 14.752 0 2 2.57646 0.0149866 -0.00339596 
17.026 18.3273 15.0677 0 2 2.53584 0.014968 -0.0042682 
17.0408 18.2994 15.3825 0 2 2.38485 0.0149521 -0.00499347 
17.0603 18.2705 15.696 0 2 2.26789 0.0149218 -0.00630336 
17.085 18.2406 16.0081 0 2 2.1347 0.0148966 -0.00732824 
17.116 18.2096 16.3186 0 2 2.06021 0.0148502 -0.00908991 
17.1538 18.1772 16.6273 0 2 1.97535 0.0148126 -0.0104013 
17.1988 18.1432 16.934 0 2 1.81177 0.0147451 -0.0125843 
17.2494 18.1069 17.2386 0 2 1.77941 0.0146917 -0.0141932 
17.3037 18.0674 17.5411 0 2 1.76498 0.0145977 -0.0168137 
17.3595 18.0238 17.8414 0 2 1.76544 0.0145253 -0.0186393 
17.4149 17.9754 18.1396 0 2 1.70398 0.0144009 -0.0215074 
17.4679 17.9212 18.4357 0 2 1.74221 0.014307 -0.0235209 
17.5164 17.8605 18.7294 0 2 1.85099 0.0141488 -0.0266751 
17.5583 17.7923 19.021 0 2 2.00296 0.0140318 -0.0288032 
17.5917 17.7158 19.3102 0 2 2.04843 0.0138388 -0.0320444 
17.6146 17.6302 19.5971 0 2 2.08098 0.0136987 -0.0342522 
17.6254 17.535 19.8816 0 2 2.07049 0.0135494 -0.0365006 
17.6245 17.4317 20.1641 0 2 2.06835 0.0133092 -0.0398547 
17.6129 17.322 20.4446 0 2 2.0999 0.0131388 -0.0420742 
17.5915 17.2078 20.7234 0 2 2.14837 0.0128692 -0.0453851 
17.5613 17.0909 21.0007 0 2 2.19633 0.0126809 -0.0475746 
17.5231 16.9732 21.2768 0 2 2.27219 0.0123873 -0.0507206 
17.478 16.8565 21.5518 0 2 2.26398 0.0121858 -0.0526969 
17.4268 16.7427 21.826 0 2 2.27611 0.0118775 -0.0554356 
17.3705 16.6335 22.0997 0 2 2.24745 0.0116692 -0.057087 
17.31 16.5308 22.3729 0 2 2.23626 0.0113553 -0.0593302 
17.2463 16.436 22.646 0 2 2.24278 0.0111466 -0.0606359 
17.1807 16.3485 22.9194 0 2 2.18956 0.0108367 -0.0622286 
17.1143 16.2675 23.1936 0 2 2.20027 0.0106338 -0.0630077 
17.0485 16.1921 23.4689 0 2 2.21449 0.0103367 -0.063837 
16.9845 16.1212 23.7459 0 2 2.21335 0.0101447 -0.0641307 
16.9236 16.0539 24.0251 0 2 2.1852 0.00986732 -0.0640963 
16.8671 15.9894 24.3067 0 2 2.15874 0.00969049 -0.0637162 
16.8162 15.9266 24.5915 0 2 2.18318 0.00943858 -0.0626797 
16.7722 15.8647 24.8796 0 2 2.15719 0.00928003 -0.0616532 
16.7364 15.8026 25.1718 0 2 2.07366 0.00905712 -0.0595497 
16.7096 15.7397 25.4681 0 2 2.0624 0.00891885 -0.0577519 
16.6911 15.6761 25.7683 0 2 2.08854 0.00878904 -0.0556986 
16.6798 15.6119 26.0719 0 2 2.09077 0.00861011 -0.0521528 
16.6744 15.5476 26.3784 0 2 2.0692 0.00850131 -0.0494754 
16.674 15.4834 26.6873 0 2 2.06126 0.00835375 -0.0450122 
16.6773 15.4196 26.9981 0 2 2.08871 0.00826557 -0.0418839 
16.6832 15.3565 27.3102 0 2 2.06976 0.00814766 -0.0370892 
16.6906 15.2943 27.6233 0 2 2.05185 0.0080781 -0.0338539 
16.6983 15.2334 27.9368 0 2 2.12163 0.00798646 -0.0290065 
16.7052 15.1741 28.2502 0 2 2.04907 0.00793326 -0.0259062 
16.7103 15.1165 28.5631 0 2 2.10364 0.00786399 -0.021567 
16.7137 15.0605 28.8754 0 2 2.14375 0.00782409 -0.0189107 
16.7156 15.006 29.1873 0 2 2.1357 0.00777245 -0.0153217 
16.716 14.9527 29.4987 0 2 2.13758 0.00774283 -0.0132074 
16.7153 14.9006 29.8098 0 2 2.12194 0.00770446 -0.0104779 
16.7136 14.8494 30.1206 0 2 2.12712 0.00768226 -0.00896505 
16.7111 14.7989 30.4312 0 2 2.30555 0.00765298 -0.00716462 
16.7081 14.749 30.7416 0 2 2.2972 0.00763556 -0.00623535 
16.7046 14.6994 31.0519 0 2 2.29442 0.00761172 -0.00522629 
16.701 14.65 31.3621 0 1 0 0.00759688 -0.00481292 
0 1 1 
1 2 1 
2 3 1 
3 4 1 
4 5 1 
5 6 1 
6 7 1 
7 8 1 
8 9 1 
9 10 1 
10 11 1 
11 12 1 
12 13 1 
13 14 1 
14 15 1 
15 16 1 
16 17 1 
17 18 1 
18 19 1 
19 20 1 
20 21 1 
21 22 1 
22 23 1 
23 24 1 
24 25 1 
25 26 1 
26 27 1 
27 28 1 
28 29 1 
29 30 1 
30 31 1 
31 32 1 
32 33 1 
33 34 1 
34 35 1 
35 36 1 
36 37 1 
37 38 1 
38 39 1 
39 40 1 
40 41 1 
41 42 1 
42 43 1 
43 44 1 
44 45 1 
45 46 1 
46 47 1 
47 48 1 
48 49 1 
49 50 1 
50 51 1 
51 52 1 
52 53 1 
53 54 1 
54 55 1 
55 56 1 
56 57 1 
57 58 1 
58 59 1 
59 60 1 
1 61 0 1 2 3 4 5 6 7 8 9 10 11 12 13 14 15 16 17 18 19 20 21 22 23 24 25 26 27 28 29 30 31 32 33 34 35 36 37 38 39 40 41 42 43 44 45 46 47 48 49 50 51 52 53 54 55 56 57 58 59 60 
