ply
format ascii 1.0
comment written by koba@oshima.lab
element vertex 61
property float x
property float y
property float z
property int label
property int attribute
property float radius
property float curvature
property float torsion
element edge 60
property int vertex1
property int vertex2
property int label
element vertex_seq 1
property int label
property list int int vertex_indices
end_header
16.994 18.459 13.4828 0 1 0 0.0147044 -0.00219917 
16.9971 18.4328 13.8003 0 2 2.67594 0.0146989 -0.00230376 
17.001 18.4064 14.1177 0 2 2.67157 0.0146925 -0.00250877 
17.0064 18.3798 14.4346 0 2 2.6109 0.0146803 -0.00300577 
17.0141 18.3529 14.7509 0 2 2.57246 0.01467 -0.00346448 
17.025 18.3254 15.0664 0 2 2.53129 0.0146503 -0.00435269 
17.0398 18.2973 15.3808 0 2 2.37989 0.0146338 -0.00509153 
17.0592 18.2685 15.6939 0 2 2.26238 0.0146025 -0.0064264 
17.0841 18.2387 16.0056 0 2 2.05215 0.0145768 -0.00747118 
17.1153 18.208 16.3156 0 2 2.06078 0.0145295 -0.00926736 
17.1534 18.1762 16.6236 0 2 1.92377 0.0144915 -0.0106043 
17.1989 18.143 16.9296 0 2 1.79922 0.0144233 -0.0128298 
17.25 18.1076 17.2335 0 2 1.78747 0.0143695 -0.0144701 
17.3047 18.0692 17.5353 0 2 1.75744 0.0142752 -0.0171422 
17.3608 18.0267 17.8349 0 2 1.75742 0.0142025 -0.0190039 
17.4163 17.9793 18.1323 0 2 1.7161 0.014078 -0.0219291 
17.4691 17.9261 18.4276 0 2 1.77525 0.0139842 -0.0239833 
17.5169 17.8662 18.7206 0 2 1.8415 0.0138264 -0.0272041 
17.5578 17.7985 19.0115 0 2 1.92458 0.0137097 -0.0293823 
17.5895 17.7223 19.3001 0 2 1.97188 0.0135176 -0.0327087 
17.6101 17.6366 19.5865 0 2 2.07627 0.0133781 -0.0349813 
17.6178 17.5409 19.8707 0 2 2.06954 0.0132296 -0.0373009 
17.6134 17.4367 20.1529 0 2 2.0422 0.0129907 -0.0407681 
17.598 17.3259 20.4333 0 2 2.06233 0.0128214 -0.0430669 
17.5727 17.2105 20.7123 0 2 2.13362 0.0125535 -0.0465038 
17.5387 17.0924 20.99 0 2 2.22806 0.0123664 -0.0487818 
17.4971 16.9735 21.2666 0 2 2.33254 0.012075 -0.0520605 
17.4491 16.8558 21.5425 0 2 2.30105 0.0118751 -0.0541238 
17.3959 16.7412 21.8179 0 2 2.29749 0.0115695 -0.0569874 
17.3386 16.6316 22.093 0 2 2.26069 0.0113632 -0.0587169 
17.2783 16.529 22.3681 0 2 2.25964 0.0110528 -0.0610712 
17.2161 16.4347 22.6434 0 2 2.26702 0.0108466 -0.0624449 
17.1532 16.3482 22.9193 0 2 2.19728 0.0105409 -0.064125 
17.0905 16.2684 23.1961 0 2 2.2155 0.010341 -0.0649503 
17.029 16.1943 23.4741 0 2 2.23782 0.0100489 -0.0658369 
16.9698 16.1246 23.7536 0 2 2.22132 0.00986045 -0.0661595 
16.9137 16.0584 24.0349 0 2 2.15689 0.00958871 -0.0661509 
16.862 15.9945 24.3185 0 2 2.17381 0.00941577 -0.0657742 
16.8154 15.9319 24.6046 0 2 2.20964 0.00916986 -0.0647191 
16.7752 15.8694 24.8935 0 2 2.10708 0.0090154 -0.0636629 
16.7421 15.8059 25.1856 0 2 2.08951 0.00879868 -0.0614872 
16.7171 15.7407 25.4811 0 2 2.10339 0.00866456 -0.0596231 
16.6993 15.674 25.7797 0 2 2.09037 0.00853886 -0.0574966 
16.6878 15.6063 26.0812 0 2 2.07988 0.00836596 -0.0538331 
16.6817 15.538 26.3851 0 2 2.10015 0.00826104 -0.0510738 
16.6799 15.4697 26.6912 0 2 2.03879 0.00811899 -0.0464851 
16.6816 15.4019 26.9991 0 2 2.10227 0.00803424 -0.0432712 
16.6856 15.335 27.3084 0 2 2.09599 0.00792107 -0.0383465 
16.6911 15.2696 27.6189 0 2 2.03672 0.00785438 -0.0350247 
16.697 15.2063 27.9301 0 2 2.08689 0.00776661 -0.0300497 
16.7025 15.1454 28.2417 0 2 2.05114 0.00771568 -0.0268642 
16.7066 15.0873 28.5535 0 2 2.10329 0.00764941 -0.0223969 
16.7093 15.032 28.8653 0 2 2.11664 0.00761124 -0.0196552 
16.7109 14.979 29.1773 0 2 2.12556 0.00756188 -0.0159397 
16.7114 14.9281 29.4893 0 2 2.1412 0.00753357 -0.0137477 
16.7111 14.879 29.8013 0 2 2.12886 0.0074969 -0.0109155 
16.7099 14.8314 30.1134 0 2 2.13682 0.0074757 -0.00934374 
16.7082 14.785 30.4256 0 2 2.30981 0.00744772 -0.00746938 
16.7061 14.7395 30.7377 0 2 2.30871 0.00743107 -0.00650126 
16.7036 14.6946 31.0499 0 2 2.30695 0.0074083 -0.00545006 
16.701 14.65 31.3621 0 1 0 0.00739412 -0.00501943 
0 1 1 
1 2 1 
2 3 1 
3 4 1 
4 5 1 
5 6 1 
6 7 1 
7 8 1 
8 9 1 
9 10 1 
10 11 1 
11 12 1 
12 13 1 
13 14 1 
14 15 1 
15 16 1 
16 17 1 
17 18 1 
18 19 1 
19 20 1 
20 21 1 
21 22 1 
22 23 1 
23 24 1 
24 25 1 
25 26 1 
26 27 1 
27 28 1 
28 29 1 
29 30 1 
30 31 1 
31 32 1 
32 33 1 
33 34 1 
34 35 1 
35 36 1 
36 37 1 
37 38 1 
38 39 1 
39 40 1 
40 41 1 
41 42 1 
42 43 1 
43 44 1 
44 45 1 
45 46 1 
46 47 1 
47 48 1 
48 49 1 
49 50 1 
50 51 1 
51 52 1 
52 53 1 
53 54 1 
54 55 1 
55 56 1 
56 57 1 
57 58 1 
58 59 1 
59 60 1 
1 61 0 1 2 3 4 5 6 7 8 9 10 11 12 13 14 15 16 17 18 19 20 21 22 23 24 25 26 27 28 29 30 31 32 33 34 35 36 37 38 39 40 41 42 43 44 45 46 47 48 49 50 51 52 53 54 55 56 57 58 59 60 
