ply
format ascii 1.0
comment written by koba@oshima.lab
element vertex 61
property float x
property float y
property float z
property int label
property int attribute
property float radius
property float curvature
property float torsion
element edge 60
property int vertex1
property int vertex2
property int label
element vertex_seq 1
property int label
property list int int vertex_indices
end_header
16.994 18.752 13.4828 0 1 0 0.0142019 -0.00161799 
17.0001 18.6718 13.7567 0 2 2.70706 0.0141951 -0.00168715 
17.0068 18.5926 14.031 0 2 2.62598 0.0141875 -0.00183165 
17.0146 18.5157 14.306 0 2 2.59055 0.014174 -0.0021904 
17.0241 18.4419 14.5823 0 2 2.53921 0.0141631 -0.00252484 
17.0359 18.3725 14.8602 0 2 2.48323 0.0141432 -0.0031918 
17.0504 18.3085 15.14 0 2 2.45033 0.014127 -0.00378294 
17.0684 18.251 15.4222 0 2 2.32867 0.0140971 -0.00489822 
17.0902 18.201 15.7071 0 2 2.21304 0.0140728 -0.00579703 
17.1166 18.1597 15.9952 0 2 2.07922 0.0140285 -0.00739595 
17.148 18.128 16.2868 0 2 1.89935 0.0139931 -0.00865306 
17.1847 18.1065 16.5822 0 2 1.8095 0.0139295 -0.0108412 
17.2257 18.0924 16.8806 0 2 1.74047 0.0138794 -0.0125114 
17.2696 18.0824 17.1814 0 2 1.69749 0.0137913 -0.0153122 
17.315 18.0731 17.4836 0 2 1.69711 0.0137233 -0.0173187 
17.3606 18.0612 17.7865 0 2 1.72068 0.0136065 -0.0205525 
17.405 18.0433 18.0891 0 2 1.71848 0.0135182 -0.0228754 
17.4468 18.0162 18.3907 0 2 1.70996 0.0133695 -0.0265839 
17.4848 17.9763 18.6905 0 2 1.88661 0.0132594 -0.0291224 
17.5174 17.9205 18.9876 0 2 2.02001 0.0130779 -0.0330437 
17.5434 17.8452 19.2811 0 2 2.03934 0.012946 -0.0357528 
17.5616 17.7485 19.5706 0 2 2.07025 0.0128056 -0.0385379 
17.5719 17.633 19.8563 0 2 2.19611 0.0125796 -0.0426934 
17.574 17.5028 20.1389 0 2 2.23702 0.0124196 -0.0454395 
17.5681 17.3619 20.4191 0 2 2.27527 0.0121668 -0.0495308 
17.5542 17.2142 20.6973 0 2 2.31012 0.0119905 -0.0522291 
17.5321 17.0639 20.9743 0 2 2.30785 0.0117166 -0.0560485 
17.502 16.9149 21.2506 0 2 2.29663 0.0115292 -0.0584011 
17.4637 16.7711 21.5268 0 2 2.34819 0.0112436 -0.06158 
17.4172 16.6367 21.8036 0 2 2.3965 0.0110516 -0.0634396 
17.3626 16.5155 22.0816 0 2 2.35788 0.0107638 -0.0659429 
17.3002 16.4107 22.3613 0 2 2.33282 0.0105732 -0.0673919 
17.2317 16.3207 22.6429 0 2 2.33203 0.0102915 -0.069151 
17.1591 16.2434 22.9267 0 2 2.2802 0.0101077 -0.0700063 
17.0846 16.1763 23.2126 0 2 2.32123 0.00983972 -0.0708787 
17.0102 16.117 23.501 0 2 2.25189 0.00966719 -0.0711479 
16.9381 16.0632 23.7919 0 2 2.2945 0.00941909 -0.0709902 
16.8703 16.0125 24.0855 0 2 2.33042 0.00926162 -0.0704701 
16.8088 15.9625 24.3819 0 2 2.32791 0.00903832 -0.0691625 
16.7558 15.911 24.6813 0 2 2.12218 0.00889845 -0.0679174 
16.7134 15.8554 24.9839 0 2 2.10435 0.00870277 -0.065432 
16.6829 15.7941 25.2896 0 2 2.12323 0.008582 -0.0633477 
16.6635 15.7275 25.5984 0 2 2.07467 0.00846907 -0.0609953 
16.6535 15.6568 25.9098 0 2 2.04994 0.00831413 -0.0569869 
16.6514 15.5832 26.2235 0 2 2.06591 0.00822033 -0.0539966 
16.6555 15.5077 26.5394 0 2 2.0971 0.00809358 -0.0490641 
16.6642 15.4315 26.857 0 2 2.10657 0.00801809 -0.0456239 
16.676 15.3557 27.176 0 2 2.06212 0.00791739 -0.0403631 
16.6892 15.2814 27.4961 0 2 2.12004 0.00785809 -0.0368185 
16.7022 15.2098 27.8171 0 2 2.11933 0.00778004 -0.0315116 
16.7135 15.1419 28.1386 0 2 2.114 0.00773472 -0.0281262 
16.7218 15.0787 28.4604 0 2 2.12244 0.00767557 -0.0234006 
16.7271 15.02 28.7823 0 2 2.14151 0.00764136 -0.0205123 
16.7297 14.9651 29.1044 0 2 2.1596 0.00759679 -0.016611 
16.7299 14.9137 29.4266 0 2 2.18523 0.00757099 -0.0143159 
16.7282 14.8653 29.749 0 2 2.1555 0.00753718 -0.0113562 
16.7248 14.8193 30.0715 0 2 2.14398 0.00751736 -0.00971562 
16.72 14.7752 30.3941 0 2 2.12167 0.00749082 -0.00775986 
16.7142 14.7327 30.7167 0 2 2.18094 0.0074748 -0.00675055 
16.7078 14.6911 31.0394 0 2 2.18928 0.00745258 -0.00565554 
16.701 14.65 31.3621 0 1 0 0.0074386 -0.00520696 
0 1 1 
1 2 1 
2 3 1 
3 4 1 
4 5 1 
5 6 1 
6 7 1 
7 8 1 
8 9 1 
9 10 1 
10 11 1 
11 12 1 
12 13 1 
13 14 1 
14 15 1 
15 16 1 
16 17 1 
17 18 1 
18 19 1 
19 20 1 
20 21 1 
21 22 1 
22 23 1 
23 24 1 
24 25 1 
25 26 1 
26 27 1 
27 28 1 
28 29 1 
29 30 1 
30 31 1 
31 32 1 
32 33 1 
33 34 1 
34 35 1 
35 36 1 
36 37 1 
37 38 1 
38 39 1 
39 40 1 
40 41 1 
41 42 1 
42 43 1 
43 44 1 
44 45 1 
45 46 1 
46 47 1 
47 48 1 
48 49 1 
49 50 1 
50 51 1 
51 52 1 
52 53 1 
53 54 1 
54 55 1 
55 56 1 
56 57 1 
57 58 1 
58 59 1 
59 60 1 
1 61 0 1 2 3 4 5 6 7 8 9 10 11 12 13 14 15 16 17 18 19 20 21 22 23 24 25 26 27 28 29 30 31 32 33 34 35 36 37 38 39 40 41 42 43 44 45 46 47 48 49 50 51 52 53 54 55 56 57 58 59 60 
