ply
format ascii 1.0
comment written by koba@oshima.lab
element vertex 61
property float x
property float y
property float z
property int label
property int attribute
property float radius
property float curvature
property float torsion
element edge 60
property int vertex1
property int vertex2
property int label
element vertex_seq 1
property int label
property list int int vertex_indices
end_header
16.994 18.752 13.4828 0 1 0 0.0142504 -0.00157596 
16.9953 18.6748 13.7549 0 2 2.68805 0.0142447 -0.00164274 
16.9972 18.5986 14.0274 0 2 2.60544 0.0142382 -0.00178286 
17.0006 18.5242 14.3007 0 2 2.6203 0.0142264 -0.00213128 
17.006 18.4525 14.5753 0 2 2.54983 0.0142167 -0.00245628 
17.0142 18.3846 14.8516 0 2 2.48533 0.0141988 -0.00310502 
17.0258 18.3212 15.13 0 2 2.40891 0.014184 -0.00368091 
17.0416 18.2634 15.4109 0 2 2.33205 0.0141563 -0.00476845 
17.0622 18.212 15.6948 0 2 2.23878 0.0141336 -0.00564537 
17.0884 18.168 15.982 0 2 2.09331 0.014092 -0.0072057 
17.1208 18.1323 16.2729 0 2 1.89785 0.0140584 -0.00843241 
17.1597 18.1051 16.5679 0 2 1.80202 0.0139977 -0.0105673 
17.2039 18.0844 16.8663 0 2 1.75624 0.0139497 -0.0121965 
17.2518 18.067 17.1672 0 2 1.73038 0.0138648 -0.0149285 
17.3017 18.0503 17.47 0 2 1.72222 0.013799 -0.0168868 
17.352 18.0314 17.7737 0 2 1.72938 0.0136856 -0.0200446 
17.4011 18.0073 18.0776 0 2 1.72626 0.0135995 -0.0223138 
17.4473 17.9753 18.381 0 2 1.72337 0.0134542 -0.0259358 
17.4889 17.9324 18.6829 0 2 1.89753 0.0133462 -0.0284106 
17.5245 17.8758 18.9826 0 2 2.0135 0.0131678 -0.032226 
17.5523 17.8026 19.2792 0 2 1.96846 0.013038 -0.0348562 
17.5711 17.7109 19.5723 0 2 2.03568 0.0128997 -0.0375568 
17.5807 17.6032 19.862 0 2 2.21291 0.0126767 -0.0415919 
17.5813 17.4826 20.1487 0 2 2.24215 0.0125187 -0.0442634 
17.5731 17.3524 20.4329 0 2 2.25871 0.0122688 -0.0482516 
17.5565 17.2159 20.715 0 2 2.27253 0.0120944 -0.0508881 
17.5315 17.0764 20.9954 0 2 2.30095 0.0118231 -0.0546407 
17.4984 16.9372 21.2746 0 2 2.30092 0.0116374 -0.0569699 
17.4574 16.8017 21.553 0 2 2.33883 0.011354 -0.0601514 
17.4088 16.673 21.8311 0 2 2.40034 0.0111634 -0.0620376 
17.3527 16.5545 22.1091 0 2 2.33056 0.0108771 -0.064575 
17.2896 16.4487 22.3877 0 2 2.32084 0.0106875 -0.0660386 
17.2212 16.3546 22.6672 0 2 2.31353 0.0104071 -0.0678064 
17.1495 16.2707 22.9479 0 2 2.29405 0.0102241 -0.0686596 
17.0763 16.1953 23.2303 0 2 2.29667 0.00995724 -0.069539 
17.0036 16.1267 23.5148 0 2 2.28049 0.00978541 -0.0698244 
16.9334 16.0632 23.8017 0 2 2.19177 0.00953821 -0.0697138 
16.8675 16.0032 24.0916 0 2 2.17083 0.00938119 -0.0692411 
16.808 15.945 24.3847 0 2 2.14314 0.00915835 -0.0680029 
16.7567 15.887 24.6814 0 2 2.10639 0.00901866 -0.0668005 
16.7155 15.8274 24.9823 0 2 2.0958 0.00882304 -0.0643744 
16.686 15.7651 25.2874 0 2 2.10525 0.00870219 -0.0623269 
16.667 15.7002 25.5965 0 2 2.1014 0.00858909 -0.0600109 
16.6571 15.6333 25.9091 0 2 2.04463 0.00843378 -0.0560565 
16.6547 15.5651 26.2246 0 2 2.06356 0.00833966 -0.0531007 
16.6584 15.4963 26.5426 0 2 2.08679 0.00821239 -0.0482168 
16.6665 15.4274 26.8626 0 2 2.10576 0.00813652 -0.0448101 
16.6775 15.359 27.1841 0 2 2.1043 0.00803527 -0.0396021 
16.69 15.2918 27.5065 0 2 2.12734 0.00797563 -0.0360932 
16.7023 15.2264 27.8294 0 2 2.10792 0.00789712 -0.0308399 
16.713 15.1635 28.1523 0 2 2.10901 0.00785155 -0.0274941 
16.7209 15.1035 28.4747 0 2 2.12179 0.0077921 -0.0228352 
16.7259 15.0461 28.7967 0 2 2.1505 0.00775773 -0.0199958 
16.7283 14.9913 29.1183 0 2 2.15178 0.007713 -0.0161734 
16.7285 14.9386 29.4395 0 2 2.17398 0.00768712 -0.0139296 
16.7269 14.8877 29.7604 0 2 2.1545 0.00765325 -0.0110416 
16.7236 14.8383 30.0811 0 2 2.12735 0.00763342 -0.00944522 
16.7191 14.7902 30.4015 0 2 2.10311 0.00760689 -0.00754935 
16.7136 14.7429 30.7218 0 2 2.16029 0.00759088 -0.00657168 
16.7074 14.6963 31.0419 0 2 2.19321 0.0075687 -0.00550923 
16.701 14.65 31.3621 0 1 0 0.00755476 -0.00507238 
0 1 1 
1 2 1 
2 3 1 
3 4 1 
4 5 1 
5 6 1 
6 7 1 
7 8 1 
8 9 1 
9 10 1 
10 11 1 
11 12 1 
12 13 1 
13 14 1 
14 15 1 
15 16 1 
16 17 1 
17 18 1 
18 19 1 
19 20 1 
20 21 1 
21 22 1 
22 23 1 
23 24 1 
24 25 1 
25 26 1 
26 27 1 
27 28 1 
28 29 1 
29 30 1 
30 31 1 
31 32 1 
32 33 1 
33 34 1 
34 35 1 
35 36 1 
36 37 1 
37 38 1 
38 39 1 
39 40 1 
40 41 1 
41 42 1 
42 43 1 
43 44 1 
44 45 1 
45 46 1 
46 47 1 
47 48 1 
48 49 1 
49 50 1 
50 51 1 
51 52 1 
52 53 1 
53 54 1 
54 55 1 
55 56 1 
56 57 1 
57 58 1 
58 59 1 
59 60 1 
1 61 0 1 2 3 4 5 6 7 8 9 10 11 12 13 14 15 16 17 18 19 20 21 22 23 24 25 26 27 28 29 30 31 32 33 34 35 36 37 38 39 40 41 42 43 44 45 46 47 48 49 50 51 52 53 54 55 56 57 58 59 60 
