ply
format ascii 1.0
comment written by koba@oshima.lab
element vertex 61
property float x
property float y
property float z
property int label
property int attribute
property float radius
property float curvature
property float torsion
element edge 60
property int vertex1
property int vertex2
property int label
element vertex_seq 1
property int label
property list int int vertex_indices
end_header
16.994 18.459 13.4828 0 1 0 0.0170898 -0.00188299 
16.9976 18.4276 13.771 0 2 2.58768 0.0170864 -0.00196843 
17.002 18.3963 14.0593 0 2 2.56095 0.0170819 -0.00213939 
17.0077 18.3654 14.3478 0 2 2.57553 0.0170723 -0.00255722 
17.0156 18.3351 14.6367 0 2 2.56963 0.0170634 -0.00294418 
17.0264 18.3055 14.926 0 2 2.47622 0.0170453 -0.00369858 
17.0407 18.2769 15.2158 0 2 2.45926 0.0170295 -0.00433497 
17.0592 18.2494 15.5062 0 2 2.33087 0.0169987 -0.00549601 
17.0828 18.2231 15.7974 0 2 2.1701 0.0169727 -0.00641072 
17.112 18.1984 16.0895 0 2 2.12689 0.0169241 -0.00799568 
17.1476 18.1754 16.3825 0 2 2.01187 0.0168845 -0.00919122 
17.19 18.1539 16.6764 0 2 1.9003 0.0168126 -0.0112033 
17.2376 18.1326 16.971 0 2 1.76632 0.0167554 -0.0126989 
17.2888 18.1099 17.2658 0 2 1.7157 0.0166543 -0.0151496 
17.3418 18.0841 17.5603 0 2 1.67196 0.016576 -0.0168621 
17.3948 18.0535 17.8541 0 2 1.66388 0.0164412 -0.0195584 
17.446 18.0166 18.1467 0 2 1.63145 0.0163392 -0.0214544 
17.4936 17.9716 18.4378 0 2 1.76919 0.0161671 -0.0244222 
17.5358 17.9169 18.7268 0 2 1.88039 0.0160395 -0.0264137 
17.571 17.8508 19.0134 0 2 2.11596 0.0158291 -0.0294272 
17.5972 17.7718 19.297 0 2 2.08237 0.0156762 -0.0314657 
17.6131 17.6788 19.5775 0 2 2.12457 0.0155133 -0.0335276 
17.6188 17.5735 19.8548 0 2 2.1596 0.015251 -0.0365558 
17.6149 17.4586 20.1295 0 2 2.15432 0.0150649 -0.0385235 
17.6019 17.3364 20.4017 0 2 2.18836 0.0147705 -0.0413999 
17.5803 17.2094 20.6719 0 2 2.2228 0.0145647 -0.0432587 
17.5507 17.0801 20.9402 0 2 2.29138 0.0142439 -0.0458415 
17.5136 16.9509 21.2071 0 2 2.29101 0.0140236 -0.0473968 
17.4695 16.8243 21.4727 0 2 2.26437 0.0136861 -0.0494346 
17.4189 16.7028 21.7376 0 2 2.24936 0.013458 -0.0505754 
17.3625 16.5888 22.0019 0 2 2.28797 0.0131138 -0.0520214 
17.3008 16.4843 22.266 0 2 2.24148 0.0128844 -0.052783 
17.2352 16.3889 22.5304 0 2 2.21926 0.0125431 -0.053553 
17.1674 16.3017 22.7958 0 2 2.25424 0.0123189 -0.0537902 
17.0988 16.2218 23.0626 0 2 2.23727 0.0119894 -0.053857 
17.031 16.1483 23.3315 0 2 2.24085 0.0117754 -0.0536909 
16.9654 16.0804 23.603 0 2 2.2056 0.0114646 -0.0530644 
16.9038 16.0171 23.8776 0 2 2.15873 0.0112651 -0.0523684 
16.8475 15.9576 24.156 0 2 2.15444 0.0109788 -0.0509758 
16.7982 15.901 24.4388 0 2 2.1488 0.0107972 -0.0497987 
16.7574 15.8463 24.7264 0 2 2.15514 0.0105396 -0.0476162 
16.7261 15.7928 25.0192 0 2 2.12768 0.0103784 -0.0458715 
16.7037 15.7401 25.3168 0 2 2.06087 0.010226 -0.043955 
16.689 15.6879 25.6182 0 2 2.09064 0.0100138 -0.0407734 
16.6808 15.6357 25.9229 0 2 2.09898 0.00988363 -0.038446 
16.6779 15.5834 26.23 0 2 2.08593 0.00970538 -0.0346641 
16.6791 15.5306 26.5388 0 2 2.1143 0.00959786 -0.032065 
16.6834 15.477 26.8485 0 2 2.04011 0.00945278 -0.0281504 
16.6895 15.4222 27.1583 0 2 2.10533 0.00936643 -0.0255534 
16.6962 15.366 27.4676 0 2 2.11869 0.00925174 -0.0217257 
16.7024 15.3081 27.7756 0 2 2.08174 0.00918463 -0.019305 
16.7071 15.2482 28.0816 0 2 2.09033 0.00909657 -0.0159525 
16.7103 15.1864 28.3857 0 2 2.08599 0.00904546 -0.0139266 
16.7121 15.123 28.6881 0 2 2.06851 0.00897884 -0.0112309 
16.7127 15.0581 28.9891 0 2 2.08633 0.00894035 -0.00965444 
16.7123 14.992 29.2888 0 2 2.07588 0.00889014 -0.00762779 
16.7111 14.9248 29.5875 0 2 2.06742 0.0088609 -0.00651179 
16.7091 14.8568 29.8853 0 2 2.08833 0.0088221 -0.00519608 
16.7067 14.7882 30.1825 0 2 2.07419 0.0087989 -0.00451786 
16.7039 14.7192 30.4793 0 2 2.17888 0.00876703 -0.0037775 
16.701 14.65 30.7759 0 1 0 0.00874715 -0.00347071 
0 1 1 
1 2 1 
2 3 1 
3 4 1 
4 5 1 
5 6 1 
6 7 1 
7 8 1 
8 9 1 
9 10 1 
10 11 1 
11 12 1 
12 13 1 
13 14 1 
14 15 1 
15 16 1 
16 17 1 
17 18 1 
18 19 1 
19 20 1 
20 21 1 
21 22 1 
22 23 1 
23 24 1 
24 25 1 
25 26 1 
26 27 1 
27 28 1 
28 29 1 
29 30 1 
30 31 1 
31 32 1 
32 33 1 
33 34 1 
34 35 1 
35 36 1 
36 37 1 
37 38 1 
38 39 1 
39 40 1 
40 41 1 
41 42 1 
42 43 1 
43 44 1 
44 45 1 
45 46 1 
46 47 1 
47 48 1 
48 49 1 
49 50 1 
50 51 1 
51 52 1 
52 53 1 
53 54 1 
54 55 1 
55 56 1 
56 57 1 
57 58 1 
58 59 1 
59 60 1 
1 61 0 1 2 3 4 5 6 7 8 9 10 11 12 13 14 15 16 17 18 19 20 21 22 23 24 25 26 27 28 29 30 31 32 33 34 35 36 37 38 39 40 41 42 43 44 45 46 47 48 49 50 51 52 53 54 55 56 57 58 59 60 
