ply
format ascii 1.0
comment written by koba@oshima.lab
element vertex 61
property float x
property float y
property float z
property int label
property int attribute
property float radius
property float curvature
property float torsion
element edge 60
property int vertex1
property int vertex2
property int label
element vertex_seq 1
property int label
property list int int vertex_indices
end_header
17.287 18.459 13.1897 0 1 0 0.013073 -0.00240326 
17.2523 18.4349 13.478 0 2 2.75412 0.0130668 -0.0025052 
17.2189 18.4108 13.7669 0 2 2.62962 0.01306 -0.00271528 
17.1878 18.3866 14.0568 0 2 2.60808 0.013048 -0.00323417 
17.1603 18.3625 14.3482 0 2 2.54646 0.0130384 -0.00371683 
17.1376 18.3383 14.6417 0 2 2.58709 0.0130208 -0.00465609 
17.1208 18.3142 14.9377 0 2 2.55282 0.0130064 -0.00544126 
17.1112 18.29 15.2369 0 2 2.5368 0.0129797 -0.00686431 
17.11 18.2658 15.5396 0 2 2.37357 0.0129579 -0.00798032 
17.1184 18.2415 15.8464 0 2 2.14386 0.0129178 -0.00990554 
17.1375 18.2173 16.1578 0 2 2.02667 0.0128854 -0.0113494 
17.168 18.1928 16.4741 0 2 1.92814 0.0128267 -0.0137697 
17.208 18.167 16.7941 0 2 1.89779 0.01278 -0.0155647 
17.2552 18.1389 17.1165 0 2 1.92551 0.0126969 -0.0184865 
17.3071 18.107 17.4399 0 2 1.83807 0.0126322 -0.0204893 
17.3615 18.0703 17.7629 0 2 1.81178 0.0125204 -0.0235848 
17.4159 18.0275 18.0843 0 2 1.8107 0.0124354 -0.0257264 
17.4678 17.9774 18.4025 0 2 1.82102 0.0122918 -0.0290263 
17.515 17.9189 18.7162 0 2 1.89499 0.0121852 -0.0311951 
17.555 17.8506 19.0241 0 2 1.94393 0.0120095 -0.034404 
17.5854 17.7714 19.3248 0 2 1.99599 0.0118821 -0.0365237 
17.6043 17.6806 19.6174 0 2 2.09058 0.0117469 -0.0386341 
17.612 17.5797 19.9024 0 2 2.15705 0.0115298 -0.041772 
17.6091 17.4707 20.1811 0 2 2.15194 0.0113764 -0.043848 
17.5963 17.3554 20.4547 0 2 2.18451 0.011134 -0.0469433 
17.5743 17.236 20.7241 0 2 2.22667 0.0109649 -0.0489931 
17.5438 17.1144 20.9906 0 2 2.23638 0.0107017 -0.0519972 
17.5055 16.9925 21.2552 0 2 2.2702 0.0105208 -0.0539356 
17.46 16.8724 21.5192 0 2 2.2207 0.0102433 -0.0567163 
17.408 16.7561 21.7836 0 2 2.2281 0.0100552 -0.0584673 
17.3503 16.6454 22.0495 0 2 2.27696 0.00977053 -0.0609317 
17.2877 16.542 22.3179 0 2 2.26009 0.00958039 -0.0624318 
17.2215 16.4457 22.5893 0 2 2.304 0.00929684 -0.0643909 
17.1532 16.3556 22.8639 0 2 2.25159 0.00911013 -0.065462 
17.0845 16.2711 23.142 0 2 2.25626 0.00883557 -0.0667496 
17.0168 16.1916 23.4238 0 2 2.30462 0.00865731 -0.06735 
16.9516 16.1163 23.7096 0 2 2.20323 0.0083989 -0.0677587 
16.8905 16.0444 23.9997 0 2 2.12633 0.00823358 -0.0676509 
16.835 15.9754 24.2943 0 2 2.21872 0.00799739 -0.0669749 
16.7865 15.9085 24.5937 0 2 2.13715 0.00784841 -0.066143 
16.7468 15.843 24.8981 0 2 2.10481 0.00763863 -0.064236 
16.7167 15.7783 25.2077 0 2 2.06427 0.0075084 -0.0624936 
16.6956 15.7143 25.522 0 2 2.07247 0.00738609 -0.0604503 
16.6822 15.651 25.8403 0 2 2.10169 0.00721751 -0.0568302 
16.6753 15.5883 26.162 0 2 2.11915 0.00711506 -0.0540371 
16.6738 15.5262 26.4864 0 2 2.11375 0.00697626 -0.0492954 
16.6764 15.4648 26.8129 0 2 2.12265 0.00689344 -0.0459355 
16.6819 15.4039 27.1407 0 2 2.13693 0.00678293 -0.0407469 
16.689 15.3435 27.4693 0 2 2.15128 0.00671789 -0.0372233 
16.6967 15.2837 27.798 0 2 2.16746 0.0066325 -0.0319165 
16.7036 15.2244 28.1261 0 2 2.17609 0.00658313 -0.0285096 
16.7089 15.1656 28.4532 0 2 2.20443 0.00651913 -0.0237313 
16.7124 15.1072 28.7791 0 2 2.13383 0.00648245 -0.0208035 
16.7143 15.0492 29.1041 0 2 2.1645 0.00643527 -0.0168497 
16.7149 14.9915 29.4283 0 2 2.17311 0.0064084 -0.0145209 
16.7144 14.9342 29.7517 0 2 2.16493 0.00637385 -0.0115175 
16.7129 14.8771 30.0745 0 2 2.17512 0.00635403 -0.00985733 
16.7106 14.8201 30.3968 0 2 2.18991 0.0063281 -0.00789118 
16.7077 14.7633 30.7188 0 2 2.24247 0.0063128 -0.00687712 
16.7045 14.7066 31.0405 0 2 2.25829 0.00629203 -0.00577362 
16.701 14.65 31.3621 0 1 0 0.00627919 -0.00531996 
0 1 1 
1 2 1 
2 3 1 
3 4 1 
4 5 1 
5 6 1 
6 7 1 
7 8 1 
8 9 1 
9 10 1 
10 11 1 
11 12 1 
12 13 1 
13 14 1 
14 15 1 
15 16 1 
16 17 1 
17 18 1 
18 19 1 
19 20 1 
20 21 1 
21 22 1 
22 23 1 
23 24 1 
24 25 1 
25 26 1 
26 27 1 
27 28 1 
28 29 1 
29 30 1 
30 31 1 
31 32 1 
32 33 1 
33 34 1 
34 35 1 
35 36 1 
36 37 1 
37 38 1 
38 39 1 
39 40 1 
40 41 1 
41 42 1 
42 43 1 
43 44 1 
44 45 1 
45 46 1 
46 47 1 
47 48 1 
48 49 1 
49 50 1 
50 51 1 
51 52 1 
52 53 1 
53 54 1 
54 55 1 
55 56 1 
56 57 1 
57 58 1 
58 59 1 
59 60 1 
1 61 0 1 2 3 4 5 6 7 8 9 10 11 12 13 14 15 16 17 18 19 20 21 22 23 24 25 26 27 28 29 30 31 32 33 34 35 36 37 38 39 40 41 42 43 44 45 46 47 48 49 50 51 52 53 54 55 56 57 58 59 60 
