ply
format ascii 1.0
comment written by koba@oshima.lab
element vertex 61
property float x
property float y
property float z
property int label
property int attribute
property float radius
property float curvature
property float torsion
element edge 60
property int vertex1
property int vertex2
property int label
element vertex_seq 1
property int label
property list int int vertex_indices
end_header
17.287 18.459 13.1897 0 1 0 0.0129671 -0.00260637 
17.238 18.4344 13.4996 0 2 2.80357 0.0129601 -0.00272548 
17.1906 18.4098 13.8096 0 2 2.69716 0.0129526 -0.00296225 
17.1464 18.3851 14.1197 0 2 2.65072 0.0129395 -0.00353897 
17.1071 18.3605 14.43 0 2 2.64185 0.0129293 -0.00407196 
17.0741 18.3357 14.7405 0 2 2.59046 0.0129111 -0.00509875 
17.0491 18.3109 15.0512 0 2 2.55141 0.0128965 -0.00594094 
17.0338 18.286 15.3622 0 2 2.48114 0.0128699 -0.00744585 
17.0296 18.2611 15.6736 0 2 2.27008 0.0128486 -0.00861376 
17.0383 18.236 15.9855 0 2 2.16307 0.0128099 -0.01061 
17.0614 18.2108 16.2978 0 2 1.99581 0.012779 -0.0120927 
17.0997 18.1853 16.6105 0 2 1.86235 0.0127235 -0.0145566 
17.1507 18.1583 16.9232 0 2 1.84673 0.0126796 -0.0163701 
17.211 18.1288 17.2355 0 2 1.83657 0.012602 -0.0193153 
17.2774 18.0954 17.5467 0 2 1.80262 0.0125418 -0.0213531 
17.3464 18.0569 17.8564 0 2 1.76203 0.0124375 -0.0245349 
17.4149 18.0121 18.1641 0 2 1.79348 0.0123582 -0.0267577 
17.4794 17.9596 18.4693 0 2 1.79416 0.0122236 -0.030217 
17.5366 17.8983 18.7714 0 2 1.91317 0.0121233 -0.0325198 
17.5832 17.827 19.07 0 2 1.91715 0.0119571 -0.0359777 
17.6158 17.7443 19.3645 0 2 2.0124 0.0118359 -0.0383006 
17.632 17.6496 19.6546 0 2 2.09912 0.0117065 -0.0406443 
17.6326 17.5445 19.9407 0 2 2.14284 0.0114976 -0.0441458 
17.6193 17.4311 20.2235 0 2 2.15544 0.0113491 -0.0464715 
17.5937 17.3116 20.5035 0 2 2.18309 0.0111135 -0.0499567 
17.5575 17.1881 20.7813 0 2 2.23222 0.0109486 -0.0522734 
17.5124 17.0628 21.0575 0 2 2.29779 0.0106911 -0.0556163 
17.4601 16.9379 21.3326 0 2 2.36426 0.0105141 -0.0577269 
17.4021 16.8154 21.6074 0 2 2.34011 0.0102425 -0.0606707 
17.3403 16.6975 21.8824 0 2 2.31944 0.0100588 -0.0624598 
17.2762 16.5863 22.1581 0 2 2.29496 0.00978149 -0.0648939 
17.2115 16.4836 22.4352 0 2 2.32378 0.0095969 -0.0663086 
17.147 16.389 22.7139 0 2 2.29989 0.00932281 -0.0680236 
17.0836 16.3016 22.9945 0 2 2.26088 0.00914325 -0.0688505 
17.0222 16.2206 23.2774 0 2 2.28595 0.00888056 -0.0697178 
16.9636 16.1451 23.5628 0 2 2.2428 0.00871086 -0.0700094 
16.9087 16.0744 23.8509 0 2 2.13428 0.00846599 -0.0699176 
16.8582 16.0074 24.1421 0 2 2.24277 0.00831002 -0.069457 
16.8132 15.9435 24.4366 0 2 2.22837 0.00808806 -0.068244 
16.7742 15.8818 24.7348 0 2 2.11165 0.00794857 -0.067058 
16.7424 15.8214 25.0368 0 2 2.11148 0.00775274 -0.0646427 
16.7181 15.7616 25.3429 0 2 2.11354 0.00763149 -0.0625876 
16.7007 15.7022 25.6527 0 2 2.06476 0.00751782 -0.0602622 
16.6894 15.6431 25.9656 0 2 2.05973 0.00736138 -0.0562906 
16.6832 15.5844 26.2811 0 2 2.06189 0.00726638 -0.0533193 
16.6811 15.526 26.5986 0 2 2.06517 0.00713769 -0.0484038 
16.6824 15.4677 26.9178 0 2 2.08286 0.00706084 -0.0449756 
16.6859 15.4095 27.238 0 2 2.06573 0.00695815 -0.0397436 
16.6909 15.3514 27.5587 0 2 2.07886 0.00689758 -0.0362283 
16.6963 15.2934 27.8794 0 2 2.1017 0.00681781 -0.0309837 
16.7014 15.2352 28.1996 0 2 2.11861 0.00677151 -0.0276385 
16.7052 15.177 28.5188 0 2 2.12402 0.0067112 -0.0229683 
16.7078 15.1187 28.8371 0 2 2.09894 0.00667644 -0.0201181 
16.7093 15.0603 29.1546 0 2 2.11201 0.00663142 -0.0162806 
16.7099 15.0018 29.4713 0 2 2.14323 0.00660557 -0.0140248 
16.7097 14.9433 29.7874 0 2 2.15301 0.00657205 -0.0111177 
16.7088 14.8847 30.103 0 2 2.14767 0.00655263 -0.00951053 
16.7073 14.8261 30.4181 0 2 2.12178 0.00652698 -0.0076043 
16.7054 14.7674 30.7329 0 2 2.20662 0.00651169 -0.00662087 
16.7033 14.7087 31.0476 0 2 2.25972 0.00649077 -0.00555079 
16.701 14.65 31.3621 0 1 0 0.00647775 -0.00511036 
0 1 1 
1 2 1 
2 3 1 
3 4 1 
4 5 1 
5 6 1 
6 7 1 
7 8 1 
8 9 1 
9 10 1 
10 11 1 
11 12 1 
12 13 1 
13 14 1 
14 15 1 
15 16 1 
16 17 1 
17 18 1 
18 19 1 
19 20 1 
20 21 1 
21 22 1 
22 23 1 
23 24 1 
24 25 1 
25 26 1 
26 27 1 
27 28 1 
28 29 1 
29 30 1 
30 31 1 
31 32 1 
32 33 1 
33 34 1 
34 35 1 
35 36 1 
36 37 1 
37 38 1 
38 39 1 
39 40 1 
40 41 1 
41 42 1 
42 43 1 
43 44 1 
44 45 1 
45 46 1 
46 47 1 
47 48 1 
48 49 1 
49 50 1 
50 51 1 
51 52 1 
52 53 1 
53 54 1 
54 55 1 
55 56 1 
56 57 1 
57 58 1 
58 59 1 
59 60 1 
1 61 0 1 2 3 4 5 6 7 8 9 10 11 12 13 14 15 16 17 18 19 20 21 22 23 24 25 26 27 28 29 30 31 32 33 34 35 36 37 38 39 40 41 42 43 44 45 46 47 48 49 50 51 52 53 54 55 56 57 58 59 60 
