ply
format ascii 1.0
comment written by koba@oshima.lab
element vertex 61
property float x
property float y
property float z
property int label
property int attribute
property float radius
property float curvature
property float torsion
element edge 60
property int vertex1
property int vertex2
property int label
element vertex_seq 1
property int label
property list int int vertex_indices
end_header
16.994 18.752 13.1897 0 1 0 0.0141786 -0.00167103 
16.9874 18.6848 13.5032 0 2 2.71326 0.0141759 -0.00174726 
16.9817 18.6182 13.8167 0 2 2.70045 0.0141725 -0.00190137 
16.9779 18.5528 14.1301 0 2 2.68014 0.0141654 -0.00227935 
16.9771 18.4893 14.4434 0 2 2.6528 0.0141588 -0.00262985 
16.98 18.4283 14.7566 0 2 2.63265 0.0141458 -0.00331821 
16.9878 18.3703 15.0695 0 2 2.55126 0.0141344 -0.00390912 
17.0014 18.3159 15.3822 0 2 2.41129 0.0141121 -0.00500015 
17.0217 18.2659 15.6946 0 2 2.23961 0.0140933 -0.00586651 
17.0497 18.2208 16.0067 0 2 2.03537 0.014058 -0.00738299 
17.0863 18.1812 16.3185 0 2 1.95074 0.0140291 -0.00854753 
17.132 18.1473 16.6298 0 2 1.83971 0.0139763 -0.010536 
17.185 18.1174 16.9403 0 2 1.81261 0.0139342 -0.0120306 
17.243 18.0892 17.2498 0 2 1.77765 0.0138592 -0.0145087 
17.3035 18.0608 17.558 0 2 1.77509 0.0138007 -0.0162724 
17.3642 18.0298 17.8644 0 2 1.798 0.0136994 -0.0190975 
17.4229 17.9942 18.1688 0 2 1.73953 0.0136223 -0.0211149 
17.4771 17.9517 18.4708 0 2 1.74877 0.0134913 -0.0243182 
17.5245 17.9003 18.7702 0 2 1.85901 0.0133936 -0.0265003 
17.5627 17.8378 19.0665 0 2 1.96209 0.0132316 -0.0298536 
17.5895 17.7619 19.3596 0 2 2.01434 0.0131134 -0.0321574 
17.6031 17.6714 19.6491 0 2 2.05985 0.0129869 -0.0345185 
17.6039 17.5679 19.9353 0 2 2.15744 0.0127823 -0.0380711 
17.5932 17.4541 20.2188 0 2 2.17215 0.0126366 -0.0404448 
17.572 17.3325 20.5 0 2 2.19008 0.0124049 -0.044026 
17.5416 17.2057 20.7793 0 2 2.20594 0.0122424 -0.04642 
17.5029 17.0761 21.0571 0 2 2.29316 0.0119881 -0.049844 
17.4572 16.9464 21.3339 0 2 2.37922 0.0118129 -0.051983 
17.4056 16.819 21.6102 0 2 2.3768 0.0115441 -0.0549356 
17.3491 16.6966 21.8863 0 2 2.33085 0.0113621 -0.0567097 
17.289 16.5817 22.1627 0 2 2.31269 0.0110872 -0.059079 
17.2264 16.4762 22.4399 0 2 2.30384 0.0109041 -0.0604278 
17.1623 16.3797 22.7182 0 2 2.27572 0.0106321 -0.0620252 
17.0981 16.2912 22.9979 0 2 2.25456 0.0104538 -0.0627702 
17.0346 16.2097 23.2796 0 2 2.28089 0.0101928 -0.0635088 
16.9733 16.1341 23.5634 0 2 2.25432 0.0100239 -0.0637202 
16.915 16.0633 23.8498 0 2 2.16349 0.00977996 -0.0635378 
16.8611 15.9964 24.1392 0 2 2.27973 0.00962433 -0.0630479 
16.8126 15.9324 24.4318 0 2 2.29475 0.00940247 -0.0618282 
16.7707 15.8701 24.7282 0 2 2.10277 0.00926277 -0.0606698 
16.7366 15.8087 25.0285 0 2 2.09716 0.00906627 -0.0583608 
16.7109 15.7471 25.3331 0 2 2.12091 0.00894435 -0.0564274 
16.693 15.6854 25.6416 0 2 2.13114 0.00882983 -0.0542574 
16.6819 15.6237 25.9535 0 2 2.05544 0.00867188 -0.0505816 
16.6764 15.5621 26.2682 0 2 2.06024 0.00857574 -0.0478501 
16.6756 15.5007 26.5852 0 2 2.09887 0.00844519 -0.043357 
16.6783 15.4397 26.904 0 2 2.10214 0.00836704 -0.0402415 
16.6835 15.379 27.224 0 2 2.06993 0.00826233 -0.0355084 
16.6902 15.319 27.5448 0 2 2.09336 0.00820041 -0.0323385 
16.6972 15.2596 27.8658 0 2 2.09127 0.00811863 -0.0276186 
16.7035 15.201 28.1864 0 2 2.1164 0.008071 -0.0246173 
16.7082 15.1433 28.5064 0 2 2.12216 0.00800875 -0.0204385 
16.7114 15.0864 28.8256 0 2 2.12673 0.00797273 -0.017892 
16.7132 15.0303 29.1441 0 2 2.14914 0.0079259 -0.0144646 
16.7137 14.9747 29.462 0 2 2.15468 0.00789888 -0.0124531 
16.7132 14.9198 29.7795 0 2 2.16132 0.00786364 -0.00986566 
16.7118 14.8653 30.0965 0 2 2.15616 0.00784311 -0.00843715 
16.7097 14.8111 30.4132 0 2 2.23494 0.0078158 -0.00674423 
16.7071 14.7573 30.7296 0 2 2.22187 0.00779943 -0.00587153 
16.7041 14.7036 31.0459 0 2 2.2486 0.00777688 -0.00492243 
16.701 14.65 31.3621 0 1 0 0.00776275 -0.00453181 
0 1 1 
1 2 1 
2 3 1 
3 4 1 
4 5 1 
5 6 1 
6 7 1 
7 8 1 
8 9 1 
9 10 1 
10 11 1 
11 12 1 
12 13 1 
13 14 1 
14 15 1 
15 16 1 
16 17 1 
17 18 1 
18 19 1 
19 20 1 
20 21 1 
21 22 1 
22 23 1 
23 24 1 
24 25 1 
25 26 1 
26 27 1 
27 28 1 
28 29 1 
29 30 1 
30 31 1 
31 32 1 
32 33 1 
33 34 1 
34 35 1 
35 36 1 
36 37 1 
37 38 1 
38 39 1 
39 40 1 
40 41 1 
41 42 1 
42 43 1 
43 44 1 
44 45 1 
45 46 1 
46 47 1 
47 48 1 
48 49 1 
49 50 1 
50 51 1 
51 52 1 
52 53 1 
53 54 1 
54 55 1 
55 56 1 
56 57 1 
57 58 1 
58 59 1 
59 60 1 
1 61 0 1 2 3 4 5 6 7 8 9 10 11 12 13 14 15 16 17 18 19 20 21 22 23 24 25 26 27 28 29 30 31 32 33 34 35 36 37 38 39 40 41 42 43 44 45 46 47 48 49 50 51 52 53 54 55 56 57 58 59 60 
