ply
format ascii 1.0
comment written by koba@oshima.lab
element vertex 61
property float x
property float y
property float z
property int label
property int attribute
property float radius
property float curvature
property float torsion
element edge 60
property int vertex1
property int vertex2
property int label
element vertex_seq 1
property int label
property list int int vertex_indices
end_header
17.287 18.459 13.1897 0 1 0 0.0132287 -0.00245988 
17.2451 18.4364 13.4986 0 2 2.75575 0.0132232 -0.00257401 
17.2046 18.4137 13.8077 0 2 2.72189 0.013217 -0.00279892 
17.167 18.3907 14.1171 0 2 2.62341 0.013206 -0.00334498 
17.1338 18.3672 14.427 0 2 2.57786 0.0131971 -0.00384892 
17.1063 18.3431 14.7377 0 2 2.59054 0.0131808 -0.00482076 
17.0861 18.3182 15.0492 0 2 2.53514 0.0131675 -0.00562131 
17.0747 18.2924 15.3617 0 2 2.48303 0.0131429 -0.00705642 
17.0733 18.2655 15.6754 0 2 2.22648 0.0131227 -0.00817272 
17.0836 18.2373 15.9905 0 2 2.19663 0.0130858 -0.010083 
17.1069 18.2078 16.3072 0 2 2.0429 0.013056 -0.0115011 
17.144 18.1766 16.6254 0 2 1.92756 0.0130022 -0.0138562 
17.1925 18.143 16.9444 0 2 1.90271 0.0129594 -0.0155885 
17.2495 18.1062 17.2634 0 2 1.88892 0.0128834 -0.0183936 
17.312 18.0654 17.5814 0 2 1.77846 0.0128243 -0.0203186 
17.3768 18.0197 17.8977 0 2 1.77832 0.0127219 -0.0232975 
17.441 17.9684 18.2113 0 2 1.82947 0.0126439 -0.0253603 
17.5015 17.9106 18.5214 0 2 1.83445 0.0125116 -0.0285364 
17.5554 17.8455 18.827 0 2 1.87243 0.012413 -0.0306158 
17.5996 17.7723 19.1273 0 2 1.89421 0.0122499 -0.0336795 
17.631 17.6901 19.4214 0 2 2.03035 0.0121312 -0.0356949 
17.6474 17.5985 19.7088 0 2 2.11333 0.0120047 -0.0376948 
17.6495 17.4989 19.99 0 2 2.13648 0.0118009 -0.0406536 
17.6387 17.3929 20.2661 0 2 2.111 0.0116562 -0.0425998 
17.6164 17.2822 20.538 0 2 2.20984 0.0114272 -0.0454834 
17.584 17.1684 20.8066 0 2 2.22787 0.011267 -0.04738 
17.543 17.0533 21.073 0 2 2.25647 0.0110171 -0.0501452 
17.4947 16.9385 21.3381 0 2 2.24618 0.010845 -0.0519207 
17.4406 16.8258 21.6028 0 2 2.19184 0.0105804 -0.0544558 
17.3821 16.7168 21.868 0 2 2.22719 0.0104006 -0.0560429 
17.3207 16.6131 22.1349 0 2 2.27392 0.0101279 -0.058239 
17.2576 16.5162 22.4041 0 2 2.27218 0.00994535 -0.0595452 
17.1939 16.4256 22.676 0 2 2.27796 0.0096727 -0.0611954 
17.1305 16.3406 22.9509 0 2 2.21843 0.00949291 -0.0620534 
17.0683 16.2606 23.2289 0 2 2.24806 0.00922813 -0.0630323 
17.0083 16.1847 23.5102 0 2 2.26407 0.00905595 -0.0634428 
16.9513 16.1123 23.7951 0 2 2.18913 0.00880592 -0.063606 
16.8983 16.0427 24.0838 0 2 2.18431 0.00864568 -0.0633685 
16.8502 15.9751 24.3765 0 2 2.29186 0.00841631 -0.0625331 
16.8079 15.9089 24.6733 0 2 2.11744 0.00827135 -0.0616231 
16.7723 15.8432 24.9746 0 2 2.0642 0.00806686 -0.0596541 
16.7441 15.7775 25.2803 0 2 2.09498 0.00793968 -0.0579142 
16.7227 15.7119 25.5902 0 2 2.07066 0.00782005 -0.0559117 
16.7073 15.6464 25.9035 0 2 2.06968 0.00765483 -0.0524305 
16.6971 15.5812 26.22 0 2 2.07553 0.00755417 -0.0497851 
16.6911 15.5164 26.5389 0 2 2.08979 0.00741744 -0.0453486 
16.6887 15.4523 26.8597 0 2 2.11633 0.00733562 -0.0422271 
16.6888 15.3888 27.1821 0 2 2.09782 0.00722609 -0.0374284 
16.6908 15.3263 27.5053 0 2 2.15133 0.0071614 -0.0341808 
16.6937 15.2647 27.8289 0 2 2.14248 0.00707616 -0.0293014 
16.6967 15.2043 28.1524 0 2 2.15219 0.00702666 -0.026175 
16.6992 15.1452 28.4753 0 2 2.15006 0.00696222 -0.0217945 
16.701 15.0872 28.7976 0 2 2.11023 0.00692512 -0.0191106 
16.7023 15.0303 29.1193 0 2 2.14515 0.00687717 -0.0154827 
16.703 14.9743 29.4406 0 2 2.13846 0.00684971 -0.0133457 
16.7034 14.919 29.7614 0 2 2.14948 0.00681422 -0.0105891 
16.7033 14.8644 30.082 0 2 2.158 0.00679374 -0.0090638 
16.703 14.8104 30.4022 0 2 2.24201 0.0067668 -0.00725358 
16.7024 14.7567 30.7223 0 2 2.2303 0.00675082 -0.00631925 
16.7018 14.7033 31.0422 0 2 2.2467 0.00672903 -0.00530244 
16.701 14.65 31.3621 0 1 0 0.00671551 -0.00488404 
0 1 1 
1 2 1 
2 3 1 
3 4 1 
4 5 1 
5 6 1 
6 7 1 
7 8 1 
8 9 1 
9 10 1 
10 11 1 
11 12 1 
12 13 1 
13 14 1 
14 15 1 
15 16 1 
16 17 1 
17 18 1 
18 19 1 
19 20 1 
20 21 1 
21 22 1 
22 23 1 
23 24 1 
24 25 1 
25 26 1 
26 27 1 
27 28 1 
28 29 1 
29 30 1 
30 31 1 
31 32 1 
32 33 1 
33 34 1 
34 35 1 
35 36 1 
36 37 1 
37 38 1 
38 39 1 
39 40 1 
40 41 1 
41 42 1 
42 43 1 
43 44 1 
44 45 1 
45 46 1 
46 47 1 
47 48 1 
48 49 1 
49 50 1 
50 51 1 
51 52 1 
52 53 1 
53 54 1 
54 55 1 
55 56 1 
56 57 1 
57 58 1 
58 59 1 
59 60 1 
1 61 0 1 2 3 4 5 6 7 8 9 10 11 12 13 14 15 16 17 18 19 20 21 22 23 24 25 26 27 28 29 30 31 32 33 34 35 36 37 38 39 40 41 42 43 44 45 46 47 48 49 50 51 52 53 54 55 56 57 58 59 60 
