ply
format ascii 1.0
comment written by koba@oshima.lab
element vertex 61
property float x
property float y
property float z
property int label
property int attribute
property float radius
property float curvature
property float torsion
element edge 60
property int vertex1
property int vertex2
property int label
element vertex_seq 1
property int label
property list int int vertex_indices
end_header
17.287 18.459 13.1897 0 1 0 0.0132486 -0.0025467 
17.2403 18.4356 13.4989 0 2 2.76244 0.013244 -0.00266457 
17.1952 18.4121 13.8084 0 2 2.7222 0.0132389 -0.00289723 
17.153 18.3884 14.1182 0 2 2.61388 0.0132296 -0.0034623 
17.1154 18.3642 14.4286 0 2 2.59159 0.013222 -0.0039838 
17.0838 18.3397 14.7398 0 2 2.58164 0.013208 -0.00498972 
17.0598 18.3145 15.0519 0 2 2.54551 0.0131965 -0.00581903 
17.0448 18.2886 15.365 0 2 2.48357 0.0131749 -0.00730617 
17.0403 18.2619 15.6795 0 2 2.2536 0.0131571 -0.00846282 
17.0479 18.2342 15.9955 0 2 2.0409 0.0131244 -0.0104419 
17.069 18.2054 16.3131 0 2 1.95702 0.0130979 -0.0119118 
17.1045 18.1753 16.6324 0 2 1.92337 0.0130498 -0.0143527 
17.152 18.1431 16.9527 0 2 1.91312 0.0130113 -0.0161471 
17.2086 18.1077 17.2728 0 2 1.87955 0.0129427 -0.0190493 
17.2713 18.0683 17.592 0 2 1.78895 0.0128891 -0.0210369 
17.3371 18.0237 17.9092 0 2 1.7653 0.0127959 -0.0241055 
17.403 17.9732 18.2236 0 2 1.83922 0.0127246 -0.0262248 
17.466 17.9157 18.5341 0 2 1.88096 0.0126032 -0.0294755 
17.5231 17.8503 18.8398 0 2 1.87093 0.0125124 -0.0315912 
17.5713 17.7759 19.1398 0 2 1.92552 0.0123617 -0.0346871 
17.6076 17.6916 19.433 0 2 2.02066 0.0122518 -0.0367089 
17.6298 17.597 19.719 0 2 2.10987 0.0121343 -0.0387025 
17.6382 17.4936 19.9984 0 2 2.14331 0.0119444 -0.0416227 
17.6341 17.3831 20.2725 0 2 2.15403 0.0118094 -0.043523 
17.6186 17.2676 20.5422 0 2 2.20485 0.0115951 -0.0463056 
17.593 17.1491 20.8087 0 2 2.21525 0.011445 -0.0481138 
17.5583 17.0294 21.0731 0 2 2.2606 0.0112101 -0.0507248 
17.5157 16.9106 21.3365 0 2 2.24423 0.0110479 -0.0523848 
17.4665 16.7945 21.6001 0 2 2.25201 0.010798 -0.0547292 
17.4117 16.6831 21.8649 0 2 2.21293 0.0106277 -0.056179 
17.3526 16.5784 22.1321 0 2 2.27406 0.0103688 -0.0581496 
17.2903 16.4817 22.4026 0 2 2.25153 0.0101949 -0.059294 
17.226 16.3927 22.6765 0 2 2.26328 0.00993454 -0.0606899 
17.1608 16.3103 22.954 0 2 2.20752 0.00976229 -0.0613736 
17.0959 16.2337 23.2349 0 2 2.2434 0.00950784 -0.0620764 
17.0325 16.1618 23.5195 0 2 2.28794 0.00934193 -0.0622934 
16.9717 16.0936 23.8076 0 2 2.16955 0.00910045 -0.0621557 
16.9146 16.0283 24.0993 0 2 2.19478 0.00894534 -0.0617149 
16.8625 15.9649 24.3947 0 2 2.31598 0.0087229 -0.0605976 
16.8164 15.9023 24.6937 0 2 2.10923 0.00858206 -0.0595212 
16.7776 15.8397 24.9964 0 2 2.07049 0.00838304 -0.0573428 
16.7469 15.7763 25.3026 0 2 2.0929 0.00825906 -0.0554954 
16.7236 15.7121 25.6122 0 2 2.12723 0.0081423 -0.0534185 
16.7069 15.6474 25.9247 0 2 2.08106 0.00798074 -0.0498944 
16.6958 15.5825 26.2396 0 2 2.07281 0.00788213 -0.0472691 
16.6894 15.5175 26.5567 0 2 2.1068 0.0077479 -0.0429372 
16.6868 15.4528 26.8754 0 2 2.08231 0.00766739 -0.0399204 
16.6871 15.3887 27.1954 0 2 2.08384 0.00755933 -0.035318 
16.6893 15.3253 27.5163 0 2 2.13609 0.00749535 -0.0322247 
16.6926 15.2629 27.8377 0 2 2.11991 0.00741078 -0.0276046 
16.6961 15.2019 28.1592 0 2 2.13232 0.00736151 -0.0246534 
16.6988 15.1423 28.4804 0 2 2.14249 0.00729717 -0.0205243 
16.7009 15.0841 28.8013 0 2 2.1173 0.00725999 -0.0179967 
16.7023 15.0271 29.1219 0 2 2.15084 0.00721177 -0.0145806 
16.7032 14.9712 29.4424 0 2 2.14643 0.00718405 -0.0125684 
16.7035 14.9163 29.7626 0 2 2.14273 0.00714809 -0.00997152 
16.7035 14.8621 30.0827 0 2 2.15284 0.00712725 -0.00853283 
16.7032 14.8085 30.4027 0 2 2.22892 0.00709974 -0.00682148 
16.7026 14.7554 30.7225 0 2 2.22718 0.00708336 -0.00593832 
16.7018 14.7026 31.0423 0 2 2.24414 0.00706094 -0.00497921 
16.701 14.65 31.3621 0 1 0 0.00704698 -0.00458621 
0 1 1 
1 2 1 
2 3 1 
3 4 1 
4 5 1 
5 6 1 
6 7 1 
7 8 1 
8 9 1 
9 10 1 
10 11 1 
11 12 1 
12 13 1 
13 14 1 
14 15 1 
15 16 1 
16 17 1 
17 18 1 
18 19 1 
19 20 1 
20 21 1 
21 22 1 
22 23 1 
23 24 1 
24 25 1 
25 26 1 
26 27 1 
27 28 1 
28 29 1 
29 30 1 
30 31 1 
31 32 1 
32 33 1 
33 34 1 
34 35 1 
35 36 1 
36 37 1 
37 38 1 
38 39 1 
39 40 1 
40 41 1 
41 42 1 
42 43 1 
43 44 1 
44 45 1 
45 46 1 
46 47 1 
47 48 1 
48 49 1 
49 50 1 
50 51 1 
51 52 1 
52 53 1 
53 54 1 
54 55 1 
55 56 1 
56 57 1 
57 58 1 
58 59 1 
59 60 1 
1 61 0 1 2 3 4 5 6 7 8 9 10 11 12 13 14 15 16 17 18 19 20 21 22 23 24 25 26 27 28 29 30 31 32 33 34 35 36 37 38 39 40 41 42 43 44 45 46 47 48 49 50 51 52 53 54 55 56 57 58 59 60 
