ply
format ascii 1.0
comment written by koba@oshima.lab
element vertex 61
property float x
property float y
property float z
property int label
property int attribute
property float radius
property float curvature
property float torsion
element edge 60
property int vertex1
property int vertex2
property int label
element vertex_seq 1
property int label
property list int int vertex_indices
end_header
17.287 18.459 13.1897 0 1 0 0.0129429 -0.00263894 
17.2386 18.4394 13.5001 0 2 2.76545 0.0129373 -0.00276105 
17.1918 18.4195 13.8105 0 2 2.72393 0.0129311 -0.00300203 
17.1482 18.3993 14.1209 0 2 2.62077 0.01292 -0.00358733 
17.1092 18.3785 14.4314 0 2 2.58914 0.0129112 -0.00412759 
17.0765 18.3569 14.742 0 2 2.56747 0.0128953 -0.00516814 
17.0516 18.3343 15.0526 0 2 2.54556 0.0128822 -0.00602232 
17.0361 18.3105 15.3634 0 2 2.47336 0.0128582 -0.00754956 
17.0315 18.2854 15.6742 0 2 2.26178 0.0128386 -0.0087352 
17.0395 18.2587 15.9852 0 2 2.11718 0.0128029 -0.0107603 
17.0615 18.2303 16.2963 0 2 2.0181 0.0127741 -0.0122603 
17.0984 18.1997 16.6074 0 2 1.86974 0.0127221 -0.0147466 
17.1477 18.1665 16.9184 0 2 1.81813 0.0126807 -0.0165722 
17.2063 18.1297 17.2288 0 2 1.80786 0.0126074 -0.0195318 
17.2709 18.0885 17.5381 0 2 1.77629 0.0125503 -0.0215781 
17.3384 18.0423 17.8461 0 2 1.78983 0.0124511 -0.0247706 
17.4057 17.9901 18.1524 0 2 1.80009 0.0123755 -0.0269988 
17.4694 17.9312 18.4565 0 2 1.81743 0.0122467 -0.0304626 
17.5264 17.8648 18.7581 0 2 1.86727 0.0121505 -0.0327647 
17.5736 17.7901 19.0568 0 2 1.90341 0.0119908 -0.0362161 
17.6077 17.7063 19.3522 0 2 1.9376 0.011874 -0.0385308 
17.6263 17.613 19.6441 0 2 2.05987 0.0117491 -0.0408629 
17.6301 17.5115 19.9328 0 2 2.06676 0.0115469 -0.0443358 
17.6206 17.4034 20.2187 0 2 2.07847 0.011403 -0.0466339 
17.5991 17.2904 20.5021 0 2 2.1896 0.0111743 -0.0500639 
17.5672 17.174 20.7837 0 2 2.20685 0.0110139 -0.052336 
17.5264 17.056 21.0636 0 2 2.25743 0.0107632 -0.0556238 
17.4779 16.938 21.3425 0 2 2.36898 0.0105904 -0.0577097 
17.4234 16.8216 21.6207 0 2 2.34725 0.010325 -0.060639 
17.3642 16.7084 21.8986 0 2 2.32076 0.0101451 -0.0624351 
17.3019 16.6002 22.1766 0 2 2.28418 0.00987296 -0.0648875 
17.2377 16.4982 22.4553 0 2 2.30374 0.00969148 -0.0663191 
17.1728 16.4023 22.7348 0 2 2.29465 0.00942156 -0.0680694 
17.1082 16.312 23.0157 0 2 2.24191 0.00924444 -0.0689269 
17.0449 16.2267 23.2982 0 2 2.25271 0.00898498 -0.069839 
16.9838 16.146 23.5827 0 2 2.2222 0.00881717 -0.0701581 
16.9261 16.0693 23.8696 0 2 2.12976 0.00857485 -0.0701022 
16.8727 15.9963 24.1592 0 2 2.25589 0.00842044 -0.0696614 
16.8246 15.9263 24.4519 0 2 2.31006 0.00820066 -0.0684746 
16.7829 15.8589 24.7481 0 2 2.11088 0.00806252 -0.0673041 
16.7484 15.7936 25.048 0 2 2.08987 0.00786864 -0.0649089 
16.722 15.7299 25.352 0 2 2.12524 0.00774864 -0.0628648 
16.703 15.6676 25.6596 0 2 2.16889 0.00763617 -0.060547 
16.6903 15.6067 25.9705 0 2 2.04333 0.00748149 -0.05658 
16.6831 15.5469 26.284 0 2 2.04489 0.00738761 -0.0536073 
16.6804 15.4881 26.5997 0 2 2.06179 0.00726051 -0.0486833 
16.6812 15.4302 26.9172 0 2 2.08295 0.00718468 -0.0452469 
16.6845 15.373 27.2359 0 2 2.06442 0.00708339 -0.0399989 
16.6894 15.3163 27.5553 0 2 2.08831 0.0070237 -0.0364703 
16.6948 15.2601 27.875 0 2 2.07116 0.00694513 -0.0312012 
16.6999 15.2041 28.1944 0 2 2.09847 0.00689954 -0.0278392 
16.7039 15.1483 28.5133 0 2 2.1069 0.0068402 -0.0231438 
16.7066 15.0927 28.8314 0 2 2.10087 0.00680603 -0.0202759 
16.7082 15.0371 29.149 0 2 2.14235 0.00676182 -0.0164105 
16.709 14.9816 29.4661 0 2 2.15862 0.00673647 -0.0141378 
16.7089 14.9262 29.7828 0 2 2.15388 0.00670364 -0.0112092 
16.7081 14.8709 30.0991 0 2 2.15 0.00668466 -0.00959015 
16.7068 14.8156 30.4151 0 2 2.16847 0.00665963 -0.00766959 
16.7051 14.7604 30.7309 0 2 2.21721 0.00664475 -0.00667872 
16.7031 14.7052 31.0465 0 2 2.23483 0.0066244 -0.00560053 
16.701 14.65 31.3621 0 1 0 0.00661176 -0.00515673 
0 1 1 
1 2 1 
2 3 1 
3 4 1 
4 5 1 
5 6 1 
6 7 1 
7 8 1 
8 9 1 
9 10 1 
10 11 1 
11 12 1 
12 13 1 
13 14 1 
14 15 1 
15 16 1 
16 17 1 
17 18 1 
18 19 1 
19 20 1 
20 21 1 
21 22 1 
22 23 1 
23 24 1 
24 25 1 
25 26 1 
26 27 1 
27 28 1 
28 29 1 
29 30 1 
30 31 1 
31 32 1 
32 33 1 
33 34 1 
34 35 1 
35 36 1 
36 37 1 
37 38 1 
38 39 1 
39 40 1 
40 41 1 
41 42 1 
42 43 1 
43 44 1 
44 45 1 
45 46 1 
46 47 1 
47 48 1 
48 49 1 
49 50 1 
50 51 1 
51 52 1 
52 53 1 
53 54 1 
54 55 1 
55 56 1 
56 57 1 
57 58 1 
58 59 1 
59 60 1 
1 61 0 1 2 3 4 5 6 7 8 9 10 11 12 13 14 15 16 17 18 19 20 21 22 23 24 25 26 27 28 29 30 31 32 33 34 35 36 37 38 39 40 41 42 43 44 45 46 47 48 49 50 51 52 53 54 55 56 57 58 59 60 
