ply
format ascii 1.0
comment written by koba@oshima.lab
element vertex 61
property float x
property float y
property float z
property int label
property int attribute
property float radius
property float curvature
property float torsion
element edge 60
property int vertex1
property int vertex2
property int label
element vertex_seq 1
property int label
property list int int vertex_indices
end_header
16.994 18.752 13.1897 0 1 0 0.0144821 -0.00147353 
16.9914 18.6811 13.4984 0 2 2.69922 0.0144804 -0.00154185 
16.9897 18.611 13.8072 0 2 2.71407 0.0144779 -0.00167839 
16.9898 18.5421 14.1161 0 2 2.66579 0.0144722 -0.00201184 
16.9924 18.4753 14.4252 0 2 2.66148 0.0144666 -0.00232044 
16.9984 18.4111 14.7346 0 2 2.6117 0.014455 -0.0029284 
17.0088 18.3503 15.0442 0 2 2.58167 0.0144445 -0.00345547 
17.0243 18.2935 15.3541 0 2 2.42075 0.0144238 -0.00443523 
17.0459 18.2414 15.6645 0 2 2.28111 0.0144059 -0.00521676 
17.0744 18.1946 15.9753 0 2 2.12546 0.0143721 -0.00658939 
17.1107 18.1539 16.2866 0 2 2.07047 0.0143442 -0.00764649 
17.155 18.1193 16.5984 0 2 1.93982 0.0142928 -0.00945535 
17.2059 18.0893 16.9103 0 2 1.83475 0.0142515 -0.0108171 
17.2612 18.0614 17.2219 0 2 1.81623 0.0141777 -0.0130769 
17.3187 18.0336 17.5328 0 2 1.84076 0.0141199 -0.014685 
17.3764 18.0035 17.8425 0 2 1.80444 0.0140194 -0.0172604 
17.432 17.9689 18.1506 0 2 1.77677 0.0139425 -0.019099 
17.4836 17.9277 18.4566 0 2 1.766 0.0138117 -0.0220153 
17.529 17.8775 18.7601 0 2 1.88531 0.0137139 -0.0239959 
17.566 17.8162 19.0607 0 2 1.93099 0.0135513 -0.0270301 
17.5925 17.7414 19.358 0 2 2.00867 0.0134322 -0.0291084 
17.607 17.6519 19.6516 0 2 1.99614 0.0133046 -0.0312328 
17.6098 17.5494 19.9417 0 2 2.0181 0.0130977 -0.0344076 
17.6018 17.4365 20.229 0 2 2.04043 0.0129501 -0.0365129 
17.5839 17.3158 20.5137 0 2 2.069 0.0127149 -0.0396638 
17.5571 17.1901 20.7964 0 2 2.19177 0.0125496 -0.0417539 
17.5222 17.0619 21.0774 0 2 2.25042 0.0122905 -0.0447361 
17.4801 16.9339 21.3573 0 2 2.29461 0.0121116 -0.0465959 
17.4318 16.8086 21.6363 0 2 2.34036 0.0118363 -0.0491584 
17.3782 16.6888 21.915 0 2 2.32616 0.0116494 -0.0506958 
17.3201 16.577 22.1938 0 2 2.25362 0.0113662 -0.0527528 
17.2585 16.4753 22.4731 0 2 2.30596 0.011177 -0.0539278 
17.1947 16.383 22.7532 0 2 2.24865 0.0108949 -0.0553264 
17.1298 16.2988 23.0345 0 2 2.23697 0.0107093 -0.0559849 
17.0652 16.2216 23.3173 0 2 2.26 0.0104365 -0.0566509 
17.002 16.1501 23.6019 0 2 2.27654 0.0102593 -0.0568545 
16.9416 16.083 23.8886 0 2 2.14816 0.0100024 -0.0567279 
16.8852 16.019 24.1778 0 2 2.25121 0.00983789 -0.0563229 
16.8341 15.957 24.4697 0 2 2.26262 0.00960248 -0.0553015 
16.7894 15.8956 24.7648 0 2 2.13612 0.0094537 -0.0543243 
16.7525 15.8336 25.0632 0 2 2.12538 0.00924365 -0.0523626 
16.7243 15.7701 25.3653 0 2 2.1051 0.00911284 -0.0507094 
16.704 15.7051 25.6707 0 2 2.13554 0.00898964 -0.0488445 
16.6906 15.6391 25.9791 0 2 2.11064 0.00881916 -0.0456657 
16.6831 15.5725 26.2901 0 2 2.01668 0.00871508 -0.0432899 
16.6804 15.5057 26.6032 0 2 2.07064 0.00857335 -0.0393598 
16.6814 15.4391 26.9181 0 2 2.05801 0.0084883 -0.0366172 
16.6851 15.373 27.2344 0 2 2.06146 0.00837412 -0.0324236 
16.6905 15.308 27.5516 0 2 2.06638 0.0083065 -0.0295977 
16.6965 15.2444 27.8695 0 2 2.08382 0.00821712 -0.0253656 
16.702 15.1826 28.1876 0 2 2.08234 0.00816505 -0.0226604 
16.7062 15.123 28.5056 0 2 2.10878 0.00809703 -0.0188746 
16.7091 15.0654 28.8234 0 2 2.08109 0.00805774 -0.0165556 
16.7107 15.0095 29.141 0 2 2.13137 0.00800675 -0.0134183 
16.7113 14.9553 29.4586 0 2 2.16198 0.00797743 -0.0115701 
16.7109 14.9023 29.776 0 2 2.14831 0.00793935 -0.00918548 
16.7099 14.8505 30.0933 0 2 2.13255 0.00791728 -0.00786435 
16.7082 14.7996 30.4106 0 2 2.21438 0.00788807 -0.00629223 
16.706 14.7494 30.7278 0 2 2.20822 0.00787065 -0.00548019 
16.7036 14.6996 31.0449 0 2 2.24869 0.00784677 -0.00459666 
16.701 14.65 31.3621 0 1 0 0.00783188 -0.00423298 
0 1 1 
1 2 1 
2 3 1 
3 4 1 
4 5 1 
5 6 1 
6 7 1 
7 8 1 
8 9 1 
9 10 1 
10 11 1 
11 12 1 
12 13 1 
13 14 1 
14 15 1 
15 16 1 
16 17 1 
17 18 1 
18 19 1 
19 20 1 
20 21 1 
21 22 1 
22 23 1 
23 24 1 
24 25 1 
25 26 1 
26 27 1 
27 28 1 
28 29 1 
29 30 1 
30 31 1 
31 32 1 
32 33 1 
33 34 1 
34 35 1 
35 36 1 
36 37 1 
37 38 1 
38 39 1 
39 40 1 
40 41 1 
41 42 1 
42 43 1 
43 44 1 
44 45 1 
45 46 1 
46 47 1 
47 48 1 
48 49 1 
49 50 1 
50 51 1 
51 52 1 
52 53 1 
53 54 1 
54 55 1 
55 56 1 
56 57 1 
57 58 1 
58 59 1 
59 60 1 
1 61 0 1 2 3 4 5 6 7 8 9 10 11 12 13 14 15 16 17 18 19 20 21 22 23 24 25 26 27 28 29 30 31 32 33 34 35 36 37 38 39 40 41 42 43 44 45 46 47 48 49 50 51 52 53 54 55 56 57 58 59 60 
