ply
format ascii 1.0
comment written by koba@oshima.lab
element vertex 61
property float x
property float y
property float z
property int label
property int attribute
property float radius
property float curvature
property float torsion
element edge 60
property int vertex1
property int vertex2
property int label
element vertex_seq 1
property int label
property list int int vertex_indices
end_header
16.994 18.459 13.4828 0 1 0 0.0148704 -0.00221348 
16.9973 18.4333 13.8006 0 2 2.679 0.0148658 -0.00231729 
17.0014 18.4074 14.1182 0 2 2.66211 0.0148603 -0.00252256 
17.0071 18.3812 14.4354 0 2 2.61445 0.0148495 -0.00302198 
17.015 18.3545 14.752 0 2 2.57646 0.0148402 -0.00348363 
17.026 18.3273 15.0677 0 2 2.53584 0.014822 -0.00437828 
17.0408 18.2994 15.3825 0 2 2.38485 0.0148065 -0.00512274 
17.0603 18.2705 15.696 0 2 2.26789 0.0147769 -0.00646799 
17.085 18.2406 16.0081 0 2 2.05794 0.0147523 -0.00752093 
17.116 18.2096 16.3186 0 2 2.05156 0.0147068 -0.00933078 
17.1538 18.1772 16.6273 0 2 1.93028 0.01467 -0.0106772 
17.1988 18.1432 16.934 0 2 1.76697 0.0146037 -0.012917 
17.2494 18.1069 17.2386 0 2 1.77941 0.0145513 -0.0145668 
17.3037 18.0674 17.5411 0 2 1.76498 0.0144591 -0.0172531 
17.3595 18.0238 17.8414 0 2 1.74477 0.014388 -0.0191248 
17.4149 17.9754 18.1396 0 2 1.70398 0.0142659 -0.0220657 
17.4679 17.9212 18.4357 0 2 1.78482 0.0141737 -0.0241306 
17.5164 17.8605 18.7294 0 2 1.85099 0.0140184 -0.0273659 
17.5583 17.7923 19.021 0 2 1.95713 0.0139035 -0.0295497 
17.5917 17.7158 19.3102 0 2 2.00275 0.013714 -0.0328773 
17.6146 17.6302 19.5971 0 2 2.08098 0.0135763 -0.0351452 
17.6254 17.535 19.8816 0 2 2.07049 0.0134297 -0.0374555 
17.6245 17.4317 20.1641 0 2 2.06835 0.0131936 -0.0409019 
17.6129 17.322 20.4446 0 2 2.0999 0.0130261 -0.043182 
17.5915 17.2078 20.7234 0 2 2.14837 0.0127611 -0.0465829 
17.5613 17.0909 21.0007 0 2 2.21378 0.0125759 -0.0488316 
17.5231 16.9732 21.2768 0 2 2.28958 0.0122873 -0.0520645 
17.478 16.8565 21.5518 0 2 2.28124 0.0120893 -0.0540971 
17.4268 16.7427 21.826 0 2 2.27611 0.0117862 -0.0569168 
17.3705 16.6335 22.0997 0 2 2.24745 0.0115815 -0.0586193 
17.31 16.5308 22.3729 0 2 2.23626 0.0112731 -0.0609312 
17.2463 16.436 22.646 0 2 2.24278 0.011068 -0.0622761 
17.1807 16.3485 22.9194 0 2 2.18956 0.0107638 -0.0639159 
17.1143 16.2675 23.1936 0 2 2.20027 0.0105646 -0.0647175 
17.0485 16.1921 23.4689 0 2 2.21449 0.0102731 -0.0655665 
16.9845 16.1212 23.7459 0 2 2.21335 0.0100848 -0.065863 
16.9236 16.0539 24.0251 0 2 2.1852 0.00981302 -0.065815 
16.8671 15.9894 24.3067 0 2 2.15874 0.00963984 -0.0654133 
16.8162 15.9266 24.5915 0 2 2.17504 0.00939329 -0.0643259 
16.7722 15.8647 24.8796 0 2 2.14895 0.00923824 -0.0632525 
16.7364 15.8026 25.1718 0 2 2.07366 0.0090204 -0.0610589 
16.7096 15.7397 25.4681 0 2 2.0624 0.0088854 -0.0591882 
16.6911 15.6761 25.7683 0 2 2.08854 0.00875873 -0.0570561 
16.6798 15.6119 26.0719 0 2 2.08211 0.00858429 -0.0533831 
16.6744 15.5476 26.3784 0 2 2.06046 0.0084783 -0.0506158 
16.674 15.4834 26.6873 0 2 2.06126 0.00833466 -0.0460115 
16.6773 15.4196 26.9981 0 2 2.10471 0.00824888 -0.0427906 
16.6832 15.3565 27.3102 0 2 2.06976 0.00813425 -0.0378629 
16.6906 15.2943 27.6233 0 2 2.04182 0.00806666 -0.0345434 
16.6983 15.2334 27.9368 0 2 2.12163 0.00797766 -0.0295772 
16.7052 15.1741 28.2502 0 2 2.04907 0.00792601 -0.0264048 
16.7103 15.1165 28.5631 0 2 2.10364 0.00785877 -0.0219693 
16.7137 15.0605 28.8754 0 2 2.14375 0.00782005 -0.0192566 
16.7156 15.006 29.1873 0 2 2.1357 0.00776993 -0.0155945 
16.716 14.9527 29.4987 0 2 2.13758 0.00774118 -0.0134395 
16.7153 14.9006 29.8098 0 2 2.12194 0.00770392 -0.0106609 
16.7136 14.8494 30.1206 0 2 2.12712 0.00768235 -0.00912313 
16.7111 14.7989 30.4312 0 2 2.30555 0.00765387 -0.00729633 
16.7081 14.749 30.7416 0 2 2.2972 0.0076369 -0.00635339 
16.7046 14.6994 31.0519 0 2 2.29442 0.00761367 -0.00532756 
16.701 14.65 31.3621 0 1 0 0.00759919 -0.00490544 
0 1 1 
1 2 1 
2 3 1 
3 4 1 
4 5 1 
5 6 1 
6 7 1 
7 8 1 
8 9 1 
9 10 1 
10 11 1 
11 12 1 
12 13 1 
13 14 1 
14 15 1 
15 16 1 
16 17 1 
17 18 1 
18 19 1 
19 20 1 
20 21 1 
21 22 1 
22 23 1 
23 24 1 
24 25 1 
25 26 1 
26 27 1 
27 28 1 
28 29 1 
29 30 1 
30 31 1 
31 32 1 
32 33 1 
33 34 1 
34 35 1 
35 36 1 
36 37 1 
37 38 1 
38 39 1 
39 40 1 
40 41 1 
41 42 1 
42 43 1 
43 44 1 
44 45 1 
45 46 1 
46 47 1 
47 48 1 
48 49 1 
49 50 1 
50 51 1 
51 52 1 
52 53 1 
53 54 1 
54 55 1 
55 56 1 
56 57 1 
57 58 1 
58 59 1 
59 60 1 
1 61 0 1 2 3 4 5 6 7 8 9 10 11 12 13 14 15 16 17 18 19 20 21 22 23 24 25 26 27 28 29 30 31 32 33 34 35 36 37 38 39 40 41 42 43 44 45 46 47 48 49 50 51 52 53 54 55 56 57 58 59 60 
