ply
format ascii 1.0
comment written by koba@oshima.lab
element vertex 61
property float x
property float y
property float z
property int label
property int attribute
property float radius
property float curvature
property float torsion
element edge 60
property int vertex1
property int vertex2
property int label
element vertex_seq 1
property int label
property list int int vertex_indices
end_header
16.994 18.459 13.4828 0 1 0 0.0147509 -0.00220576 
16.9979 18.4312 13.7996 0 2 2.69601 0.0147457 -0.00231096 
17.0026 18.4034 14.1163 0 2 2.66311 0.0147396 -0.00251682 
17.0087 18.3755 14.4325 0 2 2.61876 0.014728 -0.00301563 
17.017 18.3474 14.7482 0 2 2.56476 0.014718 -0.0034759 
17.0283 18.319 15.063 0 2 2.53392 0.0146987 -0.00436775 
17.0433 18.2904 15.3769 0 2 2.42664 0.0146824 -0.00511102 
17.0627 18.2614 15.6895 0 2 2.25655 0.0146514 -0.00645584 
17.0873 18.232 16.0008 0 2 2.05949 0.0146257 -0.00750954 
17.1178 18.2022 16.3104 0 2 2.05607 0.0145784 -0.0093232 
17.155 18.1718 16.6183 0 2 1.97643 0.0145403 -0.0106754 
17.1991 18.1406 16.9242 0 2 1.85845 0.0144717 -0.0129297 
17.2486 18.1079 17.2281 0 2 1.77806 0.0144176 -0.0145934 
17.3015 18.0724 17.5299 0 2 1.7541 0.0143225 -0.0173088 
17.356 18.0332 17.8297 0 2 1.7549 0.0142493 -0.0192079 
17.41 17.9892 18.1275 0 2 1.72315 0.0141236 -0.0222034 
17.4615 17.9393 18.4231 0 2 1.77278 0.0140288 -0.0243146 
17.5086 17.8825 18.7167 0 2 1.82546 0.0138693 -0.0276366 
17.5494 17.8178 19.0081 0 2 1.91501 0.0137513 -0.0298918 
17.5818 17.744 19.2974 0 2 1.97328 0.0135569 -0.0333494 
17.604 17.6602 19.5845 0 2 2.06276 0.0134156 -0.0357212 
17.6143 17.5657 19.8695 0 2 2.08392 0.0132652 -0.0381501 
17.6133 17.462 20.1525 0 2 2.05011 0.0130231 -0.041796 
17.6017 17.3511 20.4338 0 2 2.06358 0.0128515 -0.0442243 
17.5805 17.235 20.7135 0 2 2.1792 0.0125799 -0.0478729 
17.5506 17.1155 20.9918 0 2 2.20614 0.0123902 -0.0503041 
17.5127 16.9946 21.269 0 2 2.32218 0.0120948 -0.053821 
17.4679 16.8742 21.5453 0 2 2.27242 0.0118921 -0.0560476 
17.4169 16.7564 21.8208 0 2 2.31353 0.0115822 -0.0591626 
17.3607 16.6431 22.0957 0 2 2.27621 0.0113731 -0.0610623 
17.3001 16.5362 22.3704 0 2 2.26001 0.0110584 -0.06366 
17.2361 16.4371 22.6449 0 2 2.26857 0.0108495 -0.0651833 
17.1699 16.3456 22.9197 0 2 2.22425 0.01054 -0.0670619 
17.1028 16.2606 23.1953 0 2 2.21664 0.0103377 -0.0679981 
17.0363 16.1813 23.4719 0 2 2.23569 0.0100425 -0.0690202 
16.9717 16.1069 23.7501 0 2 2.22635 0.00985216 -0.069409 
16.9102 16.0363 24.0303 0 2 2.12056 0.00957819 -0.0694547 
16.8532 15.9688 24.3129 0 2 2.19328 0.00940411 -0.069081 
16.8021 15.9034 24.5982 0 2 2.19736 0.00915698 -0.0679931 
16.7582 15.8392 24.8867 0 2 2.17397 0.00900202 -0.0668895 
16.7228 15.7754 25.1789 0 2 2.11476 0.00878496 -0.0646008 
16.6969 15.7113 25.475 0 2 2.05989 0.00865087 -0.0626327 
16.6796 15.6468 25.7747 0 2 2.08205 0.00852537 -0.0603853 
16.6698 15.5823 26.0775 0 2 2.07564 0.00835306 -0.0565105 
16.6662 15.5181 26.3831 0 2 2.0487 0.00824867 -0.0535914 
16.6675 15.4543 26.6909 0 2 2.04799 0.00810759 -0.0487374 
16.6727 15.3912 27.0006 0 2 2.11173 0.00802355 -0.0453399 
16.6804 15.3291 27.3117 0 2 2.09492 0.00791152 -0.0401387 
16.6895 15.2682 27.6238 0 2 2.03153 0.00784561 -0.0366341 
16.6986 15.2088 27.9363 0 2 2.08003 0.007759 -0.0313911 
16.7067 15.1512 28.249 0 2 2.05441 0.00770882 -0.0280393 
16.7128 15.0954 28.5613 0 2 2.14409 0.00764361 -0.0233477 
16.7167 15.0414 28.8734 0 2 2.11441 0.00760609 -0.0204747 
16.7188 14.989 29.1851 0 2 2.13072 0.00755762 -0.0165907 
16.7192 14.938 29.4966 0 2 2.13422 0.00752983 -0.0143024 
16.7183 14.8882 29.8078 0 2 2.12984 0.00749387 -0.0113481 
16.7162 14.8394 30.1189 0 2 2.12631 0.00747308 -0.00971018 
16.7132 14.7913 30.4298 0 2 2.30565 0.00744565 -0.00775944 
16.7095 14.7439 30.7406 0 2 2.29481 0.00742933 -0.00675234 
16.7054 14.6968 31.0514 0 2 2.29246 0.00740701 -0.00565875 
16.701 14.65 31.3621 0 1 0 0.00739311 -0.00521059 
0 1 1 
1 2 1 
2 3 1 
3 4 1 
4 5 1 
5 6 1 
6 7 1 
7 8 1 
8 9 1 
9 10 1 
10 11 1 
11 12 1 
12 13 1 
13 14 1 
14 15 1 
15 16 1 
16 17 1 
17 18 1 
18 19 1 
19 20 1 
20 21 1 
21 22 1 
22 23 1 
23 24 1 
24 25 1 
25 26 1 
26 27 1 
27 28 1 
28 29 1 
29 30 1 
30 31 1 
31 32 1 
32 33 1 
33 34 1 
34 35 1 
35 36 1 
36 37 1 
37 38 1 
38 39 1 
39 40 1 
40 41 1 
41 42 1 
42 43 1 
43 44 1 
44 45 1 
45 46 1 
46 47 1 
47 48 1 
48 49 1 
49 50 1 
50 51 1 
51 52 1 
52 53 1 
53 54 1 
54 55 1 
55 56 1 
56 57 1 
57 58 1 
58 59 1 
59 60 1 
1 61 0 1 2 3 4 5 6 7 8 9 10 11 12 13 14 15 16 17 18 19 20 21 22 23 24 25 26 27 28 29 30 31 32 33 34 35 36 37 38 39 40 41 42 43 44 45 46 47 48 49 50 51 52 53 54 55 56 57 58 59 60 
