ply
format ascii 1.0
comment written by koba@oshima.lab
element vertex 61
property float x
property float y
property float z
property int label
property int attribute
property float radius
property float curvature
property float torsion
element edge 60
property int vertex1
property int vertex2
property int label
element vertex_seq 1
property int label
property list int int vertex_indices
end_header
16.994 18.459 13.4828 0 1 0 0.0144467 -0.00204384 
17.0116 18.4274 13.7846 0 2 2.63287 0.0144366 -0.00213933 
17.0296 18.396 14.0865 0 2 2.61545 0.0144255 -0.0023274 
17.0483 18.365 14.3884 0 2 2.60731 0.0144061 -0.00278436 
17.0681 18.3346 14.6904 0 2 2.56943 0.0143907 -0.00320662 
17.0894 18.3049 14.9926 0 2 2.49111 0.0143628 -0.00403015 
17.1126 18.2762 15.2949 0 2 2.46566 0.0143403 -0.00472682 
17.138 18.2487 15.5973 0 2 2.30345 0.0142993 -0.00600154 
17.166 18.2225 15.9 0 2 2.08613 0.0142662 -0.00700877 
17.1969 18.1979 16.2029 0 2 2.02363 0.0142068 -0.00875914 
17.2312 18.175 16.5061 0 2 1.82995 0.0141597 -0.0100826 
17.269 18.1537 16.8095 0 2 1.75556 0.0140764 -0.0123171 
17.3093 18.1325 17.1127 0 2 1.73038 0.0140116 -0.0139847 
17.3508 18.1095 17.4154 0 2 1.734 0.013899 -0.0167292 
17.3924 18.0829 17.7171 0 2 1.70289 0.0138131 -0.0186554 
17.4329 18.0508 18.0174 0 2 1.67086 0.0136673 -0.0217039 
17.471 18.0115 18.3159 0 2 1.66179 0.0135584 -0.0238605 
17.5056 17.963 18.612 0 2 1.89424 0.0133769 -0.0272651 
17.5354 17.9035 18.9055 0 2 2.10333 0.0132438 -0.0295806 
17.5593 17.8311 19.1959 0 2 2.0585 0.0130261 -0.0331381 
17.5759 17.7441 19.4827 0 2 2.02941 0.0128692 -0.0355837 
17.5844 17.6414 19.7657 0 2 2.15828 0.0127031 -0.0380908 
17.5846 17.5253 20.0454 0 2 2.16679 0.0124376 -0.0418352 
17.577 17.399 20.3223 0 2 2.19434 0.0122506 -0.0443121 
17.5616 17.2657 20.5971 0 2 2.22494 0.0119567 -0.0480027 
17.5387 17.1285 20.8703 0 2 2.26708 0.0117528 -0.0504395 
17.5085 16.9907 21.1428 0 2 2.34184 0.0114371 -0.053949 
17.4712 16.8554 21.4149 0 2 2.38426 0.0112217 -0.0561575 
17.4271 16.7257 21.6874 0 2 2.34078 0.0108941 -0.0592162 
17.3764 16.605 21.9609 0 2 2.35457 0.0106742 -0.0610584 
17.3193 16.4962 22.236 0 2 2.31225 0.0103445 -0.0636121 
17.2563 16.4018 22.5132 0 2 2.34742 0.0101264 -0.0651421 
17.1889 16.3203 22.7927 0 2 2.30465 0.00980395 -0.0670868 
17.119 16.2497 23.0744 0 2 2.2759 0.00959353 -0.0681034 
17.0482 16.1877 23.3584 0 2 2.31654 0.00928673 -0.0692797 
16.9783 16.1322 23.6447 0 2 2.29278 0.00908919 -0.069787 
16.9112 16.0809 23.9334 0 2 2.2556 0.00880508 -0.0700224 
16.8486 16.0316 24.2245 0 2 2.26976 0.00862476 -0.0697778 
16.7924 15.9822 24.518 0 2 2.30204 0.00836907 -0.0689083 
16.7442 15.9305 24.8139 0 2 2.10137 0.00820893 -0.067965 
16.7059 15.8742 25.1122 0 2 2.0513 0.0079849 -0.0659301 
16.6787 15.8118 25.413 0 2 2.06368 0.00784668 -0.0641331 
16.6616 15.7439 25.7161 0 2 2.12094 0.00771746 -0.0620447 
16.6533 15.6717 26.0213 0 2 2.07546 0.00754029 -0.0583797 
16.6521 15.5963 26.3284 0 2 2.09376 0.00743312 -0.0555794 
16.6567 15.5189 26.6371 0 2 2.09928 0.00728848 -0.0508676 
16.6654 15.4408 26.9474 0 2 2.02407 0.00720247 -0.0475196 
16.6769 15.3632 27.2589 0 2 2.05116 0.007088 -0.0423162 
16.6897 15.2871 27.5716 0 2 2.06527 0.0070208 -0.0387626 
16.7022 15.2139 27.8852 0 2 2.02603 0.00693269 -0.0333831 
16.713 15.1447 28.1994 0 2 2.04404 0.00688178 -0.0299115 
16.721 15.0804 28.5143 0 2 2.08454 0.00681578 -0.025013 
16.726 15.0208 28.8295 0 2 2.07865 0.00677793 -0.0219899 
16.7285 14.9654 29.1452 0 2 2.11428 0.00672913 -0.0178725 
16.7287 14.9135 29.4612 0 2 2.14074 0.00670123 -0.0154349 
16.727 14.8648 29.7776 0 2 2.11329 0.0066652 -0.0122764 
16.7237 14.8188 30.0942 0 2 2.11602 0.00664443 -0.0105183 
16.7192 14.7747 30.411 0 2 2.17993 0.0066171 -0.00841525 
16.7137 14.7323 30.7279 0 2 2.15937 0.00660088 -0.00732724 
16.7075 14.6909 31.045 0 2 2.22895 0.00657874 -0.00614533 
16.701 14.65 31.3621 0 1 0 0.006565 -0.00566101 
0 1 1 
1 2 1 
2 3 1 
3 4 1 
4 5 1 
5 6 1 
6 7 1 
7 8 1 
8 9 1 
9 10 1 
10 11 1 
11 12 1 
12 13 1 
13 14 1 
14 15 1 
15 16 1 
16 17 1 
17 18 1 
18 19 1 
19 20 1 
20 21 1 
21 22 1 
22 23 1 
23 24 1 
24 25 1 
25 26 1 
26 27 1 
27 28 1 
28 29 1 
29 30 1 
30 31 1 
31 32 1 
32 33 1 
33 34 1 
34 35 1 
35 36 1 
36 37 1 
37 38 1 
38 39 1 
39 40 1 
40 41 1 
41 42 1 
42 43 1 
43 44 1 
44 45 1 
45 46 1 
46 47 1 
47 48 1 
48 49 1 
49 50 1 
50 51 1 
51 52 1 
52 53 1 
53 54 1 
54 55 1 
55 56 1 
56 57 1 
57 58 1 
58 59 1 
59 60 1 
1 61 0 1 2 3 4 5 6 7 8 9 10 11 12 13 14 15 16 17 18 19 20 21 22 23 24 25 26 27 28 29 30 31 32 33 34 35 36 37 38 39 40 41 42 43 44 45 46 47 48 49 50 51 52 53 54 55 56 57 58 59 60 
