ply
format ascii 1.0
comment written by koba@oshima.lab
element vertex 61
property float x
property float y
property float z
property int label
property int attribute
property float radius
property float curvature
property float torsion
element edge 60
property int vertex1
property int vertex2
property int label
element vertex_seq 1
property int label
property list int int vertex_indices
end_header
16.994 18.459 13.4828 0 1 0 0.0146405 -0.00227003 
16.9979 18.4325 13.8001 0 2 2.68602 0.0146355 -0.00237824 
17.0025 18.4058 14.1173 0 2 2.68139 0.0146295 -0.0025901 
17.0085 18.379 14.434 0 2 2.60767 0.0146181 -0.00310355 
17.0169 18.3518 14.75 0 2 2.56869 0.0146083 -0.00357738 
17.0281 18.3241 15.0651 0 2 2.5466 0.0145894 -0.00449506 
17.0431 18.296 15.3792 0 2 2.40198 0.0145734 -0.00525891 
17.0625 18.2671 15.6919 0 2 2.25647 0.014543 -0.00663967 
17.0871 18.2375 16.0031 0 2 2.058 0.0145178 -0.00772075 
17.1176 18.2071 16.3125 0 2 2.05247 0.0144715 -0.00958018 
17.1548 18.1756 16.6199 0 2 2.00152 0.014434 -0.0109651 
17.199 18.143 16.9251 0 2 1.88347 0.0143668 -0.0132719 
17.2485 18.1083 17.2282 0 2 1.78534 0.0143137 -0.0149729 
17.3016 18.0705 17.5291 0 2 1.75508 0.0142204 -0.0177476 
17.3561 18.0288 17.8279 0 2 1.74601 0.0141485 -0.0196874 
17.4102 17.9822 18.1245 0 2 1.70606 0.0140252 -0.0227459 
17.4619 17.9298 18.4191 0 2 1.76676 0.0139322 -0.0249008 
17.5091 17.8705 18.7116 0 2 1.83472 0.0137756 -0.0282897 
17.55 17.8034 19.002 0 2 1.92019 0.0136598 -0.0305883 
17.5825 17.7275 19.2905 0 2 1.95905 0.0134688 -0.0341095 
17.6047 17.642 19.5769 0 2 2.07865 0.01333 -0.0365226 
17.6151 17.5463 19.8614 0 2 2.07525 0.0131823 -0.0389919 
17.6141 17.4418 20.1442 0 2 2.03287 0.0129444 -0.0426934 
17.6026 17.3306 20.4253 0 2 2.07249 0.0127757 -0.0451551 
17.5814 17.2144 20.7051 0 2 2.17132 0.0125088 -0.0488478 
17.5514 17.0953 20.9836 0 2 2.19817 0.0123225 -0.0513041 
17.5136 16.9751 21.2612 0 2 2.22738 0.0120321 -0.0548533 
17.4687 16.8558 21.5379 0 2 2.282 0.011833 -0.0570977 
17.4177 16.7393 21.8139 0 2 2.30457 0.0115285 -0.0602335 
17.3614 16.6275 22.0895 0 2 2.27677 0.011323 -0.0621431 
17.3007 16.5223 22.3649 0 2 2.26106 0.0110138 -0.0647504 
17.2366 16.4252 22.6402 0 2 2.25636 0.0108085 -0.0662766 
17.1703 16.3357 22.9159 0 2 2.2266 0.0105044 -0.0681538 
17.1032 16.2528 23.1923 0 2 2.21956 0.0103056 -0.069085 
17.0366 16.1757 23.4698 0 2 2.23906 0.0100155 -0.0700912 
16.9718 16.1033 23.7488 0 2 2.22994 0.00982854 -0.0704629 
16.9103 16.0347 24.0297 0 2 2.12398 0.00955942 -0.0704726 
16.8532 15.9689 24.3129 0 2 2.19659 0.00938846 -0.070068 
16.8021 15.905 24.5988 0 2 2.20019 0.00914582 -0.0689254 
16.7581 15.842 24.8878 0 2 2.17608 0.00899372 -0.0677799 
16.7227 15.779 25.1803 0 2 2.11596 0.00878076 -0.0654206 
16.6967 15.7153 25.4766 0 2 2.06025 0.00864925 -0.0634009 
16.6795 15.6509 25.7763 0 2 2.08174 0.00852621 -0.0611002 
16.6696 15.5861 26.079 0 2 2.07479 0.00835735 -0.0571439 
16.666 15.5214 26.3844 0 2 2.04745 0.00825509 -0.0541697 
16.6674 15.4569 26.6919 0 2 2.06217 0.00811696 -0.0492333 
16.6726 15.393 27.0013 0 2 2.10994 0.00803472 -0.0457834 
16.6804 15.33 27.3121 0 2 2.09306 0.00792513 -0.0405089 
16.6895 15.2683 27.6238 0 2 2.02978 0.00786067 -0.0369589 
16.6987 15.2081 27.9361 0 2 2.07844 0.007776 -0.0316533 
16.7068 15.1498 28.2485 0 2 2.0405 0.00772696 -0.0282649 
16.7128 15.0936 28.5606 0 2 2.14323 0.00766322 -0.0235264 
16.7168 15.0394 28.8726 0 2 2.11397 0.00762656 -0.0206273 
16.7189 14.9869 29.1842 0 2 2.13066 0.00757917 -0.0167111 
16.7193 14.9359 29.4957 0 2 2.13452 0.00755201 -0.0144051 
16.7184 14.8863 29.8071 0 2 2.13044 0.00751683 -0.0114292 
16.7163 14.8377 30.1182 0 2 2.12717 0.00749647 -0.00977985 
16.7133 14.79 30.4293 0 2 2.30681 0.00746961 -0.00781611 
16.7096 14.743 30.7403 0 2 2.29613 0.00745361 -0.00680237 
16.7054 14.6964 31.0512 0 2 2.29388 0.00743171 -0.0057013 
16.701 14.65 31.3621 0 1 0 0.00741806 -0.00524975 
0 1 1 
1 2 1 
2 3 1 
3 4 1 
4 5 1 
5 6 1 
6 7 1 
7 8 1 
8 9 1 
9 10 1 
10 11 1 
11 12 1 
12 13 1 
13 14 1 
14 15 1 
15 16 1 
16 17 1 
17 18 1 
18 19 1 
19 20 1 
20 21 1 
21 22 1 
22 23 1 
23 24 1 
24 25 1 
25 26 1 
26 27 1 
27 28 1 
28 29 1 
29 30 1 
30 31 1 
31 32 1 
32 33 1 
33 34 1 
34 35 1 
35 36 1 
36 37 1 
37 38 1 
38 39 1 
39 40 1 
40 41 1 
41 42 1 
42 43 1 
43 44 1 
44 45 1 
45 46 1 
46 47 1 
47 48 1 
48 49 1 
49 50 1 
50 51 1 
51 52 1 
52 53 1 
53 54 1 
54 55 1 
55 56 1 
56 57 1 
57 58 1 
58 59 1 
59 60 1 
1 61 0 1 2 3 4 5 6 7 8 9 10 11 12 13 14 15 16 17 18 19 20 21 22 23 24 25 26 27 28 29 30 31 32 33 34 35 36 37 38 39 40 41 42 43 44 45 46 47 48 49 50 51 52 53 54 55 56 57 58 59 60 
