ply
format ascii 1.0
comment written by koba@oshima.lab
element vertex 61
property float x
property float y
property float z
property int label
property int attribute
property float radius
property float curvature
property float torsion
element edge 60
property int vertex1
property int vertex2
property int label
element vertex_seq 1
property int label
property list int int vertex_indices
end_header
16.994 18.752 13.4828 0 1 0 0.0137492 -0.00163783 
17.0173 18.6742 13.7711 0 2 2.69015 0.0137419 -0.00171237 
17.0408 18.5973 14.0597 0 2 2.64679 0.0137338 -0.00186255 
17.0649 18.5223 14.3488 0 2 2.62303 0.0137194 -0.00223051 
17.0897 18.4499 14.6385 0 2 2.54578 0.0137078 -0.0025717 
17.1154 18.3812 14.9291 0 2 2.51052 0.0136865 -0.00325033 
17.1425 18.317 15.2207 0 2 2.42609 0.013669 -0.00385107 
17.171 18.2583 15.5138 0 2 2.35377 0.0136368 -0.00498423 
17.2012 18.206 15.8083 0 2 2.14099 0.0136106 -0.00589776 
17.2334 18.1609 16.1046 0 2 1.93971 0.0135629 -0.00752067 
17.2679 18.1239 16.4029 0 2 1.87253 0.0135249 -0.00879006 
17.3046 18.0954 16.7033 0 2 1.75667 0.013457 -0.0109914 
17.3428 18.0731 17.0052 0 2 1.7308 0.0134038 -0.0126676 
17.3815 18.054 17.3081 0 2 1.73292 0.0133108 -0.0154792 
17.4197 18.0353 17.6113 0 2 1.71479 0.0132394 -0.0175027 
17.4565 18.014 17.9141 0 2 1.68656 0.0131175 -0.0207795 
17.4907 17.9872 18.2159 0 2 1.65292 0.0130259 -0.0231438 
17.5216 17.952 18.5161 0 2 1.88271 0.0128723 -0.0269392 
17.5479 17.9055 18.814 0 2 1.96457 0.0127591 -0.0295596 
17.5688 17.8447 19.109 0 2 2.04382 0.0125732 -0.0336438 
17.5833 17.7668 19.4005 0 2 2.06358 0.0124387 -0.03649 
17.5906 17.6699 19.6879 0 2 2.06881 0.0122957 -0.0394363 
17.5905 17.5565 19.9718 0 2 2.18124 0.0120665 -0.0438698 
17.5831 17.4303 20.2527 0 2 2.23224 0.0119047 -0.0468258 
17.5685 17.2948 20.5311 0 2 2.25457 0.0116497 -0.0512705 
17.5467 17.1536 20.8076 0 2 2.24612 0.0114725 -0.0542301 
17.5179 17.0103 21.0828 0 2 2.29236 0.0111979 -0.0584685 
17.4821 16.8685 21.3573 0 2 2.31279 0.0110105 -0.0611164 
17.4393 16.7319 21.6317 0 2 2.40158 0.0107258 -0.064759 
17.3897 16.6039 21.9065 0 2 2.37087 0.0105349 -0.0669366 
17.3332 16.4883 22.1823 0 2 2.3086 0.0102494 -0.0698981 
17.2703 16.3876 22.4596 0 2 2.32517 0.010061 -0.0716314 
17.2025 16.3006 22.7387 0 2 2.27558 0.0097835 -0.0737721 
17.1318 16.2251 23.0197 0 2 2.2347 0.00960301 -0.0748454 
17.0599 16.159 23.3028 0 2 2.2971 0.00934087 -0.0760023 
16.9887 16.1001 23.5881 0 2 2.29522 0.00917276 -0.0764285 
16.9201 16.0462 23.8759 0 2 2.25212 0.00893198 -0.0764461 
16.8559 15.9951 24.1664 0 2 2.26917 0.00877979 -0.0759971 
16.7981 15.9446 24.4596 0 2 2.30607 0.0085649 -0.0747259 
16.7485 15.8927 24.7557 0 2 2.09967 0.00843092 -0.0734548 
16.7089 15.8369 25.055 0 2 2.07366 0.00824434 -0.0708489 
16.6807 15.7759 25.3576 0 2 2.08393 0.00812977 -0.0686294 
16.6629 15.71 25.6631 0 2 2.08286 0.00802307 -0.0661083 
16.654 15.6403 25.9713 0 2 2.05799 0.00787742 -0.0617902 
16.6525 15.5679 26.2818 0 2 2.08473 0.0077897 -0.058558 
16.6568 15.4938 26.5944 0 2 2.05715 0.00767179 -0.0532157 
16.6655 15.4191 26.9087 0 2 2.0824 0.00760192 -0.0494848 
16.677 15.3449 27.2243 0 2 2.06708 0.00750921 -0.043775 
16.6898 15.2723 27.5411 0 2 2.0783 0.00745488 -0.0399262 
16.7025 15.2022 27.8586 0 2 2.03736 0.00738374 -0.034163 
16.7134 15.1357 28.1766 0 2 2.06408 0.00734263 -0.0304874 
16.7213 15.0737 28.4948 0 2 2.09261 0.00728924 -0.0253588 
16.7264 15.016 28.8131 0 2 2.10752 0.0072585 -0.0222253 
16.7289 14.962 29.1315 0 2 2.11193 0.00721865 -0.0179944 
16.7291 14.9113 29.45 0 2 2.14013 0.00719568 -0.0155072 
16.7274 14.8635 29.7685 0 2 2.12357 0.00716572 -0.0123026 
16.724 14.8179 30.0872 0 2 2.11192 0.00714824 -0.0105284 
16.7194 14.7743 30.4058 0 2 2.12567 0.00712492 -0.00841632 
16.7138 14.7321 30.7246 0 2 2.16936 0.00711089 -0.00732628 
16.7076 14.6908 31.0433 0 2 2.20392 0.00709149 -0.006142 
16.701 14.65 31.3621 0 1 0 0.00707932 -0.00565528 
0 1 1 
1 2 1 
2 3 1 
3 4 1 
4 5 1 
5 6 1 
6 7 1 
7 8 1 
8 9 1 
9 10 1 
10 11 1 
11 12 1 
12 13 1 
13 14 1 
14 15 1 
15 16 1 
16 17 1 
17 18 1 
18 19 1 
19 20 1 
20 21 1 
21 22 1 
22 23 1 
23 24 1 
24 25 1 
25 26 1 
26 27 1 
27 28 1 
28 29 1 
29 30 1 
30 31 1 
31 32 1 
32 33 1 
33 34 1 
34 35 1 
35 36 1 
36 37 1 
37 38 1 
38 39 1 
39 40 1 
40 41 1 
41 42 1 
42 43 1 
43 44 1 
44 45 1 
45 46 1 
46 47 1 
47 48 1 
48 49 1 
49 50 1 
50 51 1 
51 52 1 
52 53 1 
53 54 1 
54 55 1 
55 56 1 
56 57 1 
57 58 1 
58 59 1 
59 60 1 
1 61 0 1 2 3 4 5 6 7 8 9 10 11 12 13 14 15 16 17 18 19 20 21 22 23 24 25 26 27 28 29 30 31 32 33 34 35 36 37 38 39 40 41 42 43 44 45 46 47 48 49 50 51 52 53 54 55 56 57 58 59 60 
