ply
format ascii 1.0
comment written by koba@oshima.lab
element vertex 61
property float x
property float y
property float z
property int label
property int attribute
property float radius
property float curvature
property float torsion
element edge 60
property int vertex1
property int vertex2
property int label
element vertex_seq 1
property int label
property list int int vertex_indices
end_header
16.994 18.459 13.4828 0 1 0 0.012306 -0.00222987 
17.0241 18.4311 13.7957 0 2 2.74582 0.0122946 -0.00233692 
17.0543 18.4031 14.1085 0 2 2.67716 0.0122823 -0.00254474 
17.0848 18.375 14.4214 0 2 2.6614 0.012261 -0.00304734 
17.1157 18.3467 14.7342 0 2 2.57089 0.0122442 -0.00351125 
17.1472 18.3182 15.0469 0 2 2.51176 0.0122138 -0.00441517 
17.1795 18.2894 15.3596 0 2 2.36244 0.0121894 -0.00517811 
17.2126 18.2602 15.6721 0 2 2.13745 0.0121448 -0.00657385 
17.2467 18.2306 15.9845 0 2 2.02021 0.0121089 -0.00767825 
17.282 18.2005 16.2968 0 2 1.88531 0.0120442 -0.00960042 
17.3186 18.1698 16.6089 0 2 1.80399 0.011993 -0.0110535 
17.3564 18.1384 16.9207 0 2 1.77399 0.0119025 -0.0135114 
17.3946 18.1053 17.232 0 2 1.74431 0.0118322 -0.0153524 
17.4321 18.0694 17.5422 0 2 1.77309 0.0117103 -0.018405 
17.4679 18.0297 17.8509 0 2 1.73863 0.0116174 -0.0205764 
17.5008 17.985 18.1576 0 2 1.69693 0.01146 -0.0240666 
17.5297 17.9344 18.462 0 2 1.80597 0.0113425 -0.0265769 
17.5537 17.8767 18.7636 0 2 1.91728 0.0111469 -0.0306115 
17.5716 17.8108 19.0619 0 2 1.97359 0.0110037 -0.0334073 
17.5824 17.7357 19.3565 0 2 2.00497 0.0107701 -0.0377912 
17.585 17.6503 19.647 0 2 2.06309 0.0106022 -0.0408708 
17.5785 17.554 19.933 0 2 2.17198 0.0104249 -0.0440916 
17.5636 17.4484 20.2151 0 2 2.19241 0.0101423 -0.049098 
17.5411 17.3354 20.4936 0 2 2.25826 0.00994378 -0.0525615 
17.5116 17.217 20.7693 0 2 2.30959 0.00963264 -0.0579806 
17.4762 17.0952 21.0426 0 2 2.31514 0.00941728 -0.0617525 
17.4354 16.9721 21.3141 0 2 2.31953 0.00908472 -0.0675325 
17.3903 16.8497 21.5844 0 2 2.30496 0.00885836 -0.0714407 
17.3415 16.7299 21.854 0 2 2.27953 0.00851478 -0.0773383 
17.2899 16.6148 22.1234 0 2 2.32478 0.00828467 -0.0812665 
17.2363 16.5063 22.3933 0 2 2.31644 0.00794073 -0.0872148 
17.1815 16.4061 22.6641 0 2 2.29451 0.00771391 -0.09117 
17.1261 16.3137 22.9364 0 2 2.21537 0.00738008 -0.0969517 
17.0708 16.228 23.2104 0 2 2.2474 0.0071633 -0.100624 
17.0163 16.1484 23.4868 0 2 2.25253 0.00684905 -0.105903 
16.9631 16.0737 23.7658 0 2 2.22327 0.00664798 -0.109177 
16.912 16.0032 24.0479 0 2 2.15893 0.00636084 -0.113491 
16.8635 15.9358 24.3336 0 2 2.16163 0.00617999 -0.115831 
16.8183 15.8707 24.6233 0 2 2.14029 0.00592589 -0.118429 
16.777 15.807 24.9173 0 2 2.11606 0.00576856 -0.119405 
16.7404 15.7436 25.2163 0 2 2.08995 0.00555146 -0.119453 
16.7089 15.6801 25.5202 0 2 2.11226 0.00541963 -0.118408 
16.6826 15.6162 25.8286 0 2 2.07938 0.00529812 -0.116567 
16.6614 15.5525 26.1405 0 2 2.03997 0.00513483 -0.112247 
16.6455 15.489 26.4552 0 2 2.06308 0.00503826 -0.108272 
16.6347 15.4261 26.7717 0 2 2.06925 0.00491107 -0.100671 
16.629 15.3641 27.0892 0 2 2.05535 0.00483736 -0.094885 
16.6284 15.3031 27.407 0 2 2.07807 0.00474177 -0.0854869 
16.6329 15.2435 27.724 0 2 2.09854 0.00468709 -0.0788383 
16.6424 15.1855 28.0395 0 2 2.1277 0.00461719 -0.068489 
16.6569 15.1294 28.3527 0 2 2.10526 0.00457782 -0.0616678 
16.6764 15.0753 28.6628 0 2 2.14377 0.00452799 -0.0518774 
16.7003 15.0232 28.97 0 2 2.10955 0.00450011 -0.0457392 
16.7283 14.9728 29.2747 0 2 2.09504 0.0044651 -0.0372561 
16.7597 14.9239 29.577 0 2 2.11886 0.00444566 -0.0321985 
16.7942 14.8763 29.8775 0 2 2.19275 0.00442127 -0.0256312 
16.8312 14.8297 30.1763 0 2 2.20815 0.00440764 -0.0219731 
16.8701 14.7841 30.4739 0 2 2.22795 0.00439028 -0.0176013 
16.9106 14.739 30.7705 0 2 2.29526 0.00438033 -0.0153403 
16.952 14.6944 31.0664 0 2 2.26604 0.00436717 -0.0128871 
16.994 14.65 31.3621 0 1 0 0.00435921 -0.0118871 
0 1 1 
1 2 1 
2 3 1 
3 4 1 
4 5 1 
5 6 1 
6 7 1 
7 8 1 
8 9 1 
9 10 1 
10 11 1 
11 12 1 
12 13 1 
13 14 1 
14 15 1 
15 16 1 
16 17 1 
17 18 1 
18 19 1 
19 20 1 
20 21 1 
21 22 1 
22 23 1 
23 24 1 
24 25 1 
25 26 1 
26 27 1 
27 28 1 
28 29 1 
29 30 1 
30 31 1 
31 32 1 
32 33 1 
33 34 1 
34 35 1 
35 36 1 
36 37 1 
37 38 1 
38 39 1 
39 40 1 
40 41 1 
41 42 1 
42 43 1 
43 44 1 
44 45 1 
45 46 1 
46 47 1 
47 48 1 
48 49 1 
49 50 1 
50 51 1 
51 52 1 
52 53 1 
53 54 1 
54 55 1 
55 56 1 
56 57 1 
57 58 1 
58 59 1 
59 60 1 
1 61 0 1 2 3 4 5 6 7 8 9 10 11 12 13 14 15 16 17 18 19 20 21 22 23 24 25 26 27 28 29 30 31 32 33 34 35 36 37 38 39 40 41 42 43 44 45 46 47 48 49 50 51 52 53 54 55 56 57 58 59 60 
