ply
format ascii 1.0
comment written by koba@oshima.lab
element vertex 61
property float x
property float y
property float z
property int label
property int attribute
property float radius
property float curvature
property float torsion
element edge 60
property int vertex1
property int vertex2
property int label
element vertex_seq 1
property int label
property list int int vertex_indices
end_header
16.994 18.459 13.4828 0 1 0 0.0143574 -0.00212832 
17.0114 18.4327 13.7669 0 2 2.72264 0.0143486 -0.00222112 
17.0292 18.4065 14.0513 0 2 2.58455 0.0143389 -0.00240976 
17.0478 18.3804 14.3361 0 2 2.5736 0.0143218 -0.00287374 
17.0675 18.3545 14.6216 0 2 2.56143 0.014308 -0.00330482 
17.0887 18.3288 14.9079 0 2 2.42109 0.0142827 -0.00415059 
17.1118 18.3034 15.1952 0 2 2.40925 0.014262 -0.00487275 
17.1373 18.2784 15.4839 0 2 2.2721 0.014224 -0.00620264 
17.1653 18.2538 15.7741 0 2 2.12436 0.014193 -0.00725812 
17.1964 18.2297 16.0659 0 2 2.10627 0.0141369 -0.0090979 
17.231 18.2061 16.3597 0 2 2.01597 0.0140921 -0.0104916 
17.2691 18.1829 16.6555 0 2 1.84576 0.0140123 -0.0128481 
17.3097 18.1587 16.953 0 2 1.78278 0.0139499 -0.0146087 
17.3515 18.1323 17.2516 0 2 1.76664 0.0138411 -0.0175155 
17.3934 18.102 17.5508 0 2 1.6928 0.0137578 -0.0195726 
17.434 18.0664 17.8501 0 2 1.68448 0.0136158 -0.0228562 
17.472 18.024 18.149 0 2 1.69562 0.0135093 -0.0251974 
17.5063 17.9734 18.4471 0 2 1.77367 0.0133311 -0.0289184 
17.5354 17.9131 18.7437 0 2 1.93117 0.0132 -0.0314614 
17.5582 17.8417 19.0385 0 2 2.01497 0.0129854 -0.0353866 
17.5733 17.7575 19.3308 0 2 1.97416 0.0128305 -0.0380969 
17.5798 17.6599 19.6204 0 2 2.03915 0.0126663 -0.0408854 
17.5779 17.5506 19.9074 0 2 2.19331 0.0124039 -0.0450746 
17.5678 17.4322 20.1922 0 2 2.23332 0.0122192 -0.0478631 
17.5501 17.3071 20.475 0 2 2.24693 0.0119292 -0.0520444 
17.5251 17.1779 20.7563 0 2 2.24604 0.0117282 -0.0548225 
17.4932 17.0469 21.0364 0 2 2.31213 0.0114176 -0.0588473 
17.4549 16.9168 21.3156 0 2 2.34997 0.0112063 -0.0613981 
17.4105 16.7899 21.5942 0 2 2.36801 0.0108855 -0.0649625 
17.3604 16.6688 21.8726 0 2 2.34286 0.0106707 -0.0671311 
17.3051 16.5559 22.151 0 2 2.32045 0.0103498 -0.0701291 
17.2451 16.4532 22.43 0 2 2.30577 0.0101382 -0.0719156 
17.1818 16.36 22.7097 0 2 2.26421 0.00982683 -0.0741711 
17.1166 16.275 22.9906 0 2 2.27392 0.00962452 -0.0753396 
17.051 16.1969 23.2731 0 2 2.29899 0.00933093 -0.0766844 
16.9865 16.1246 23.5574 0 2 2.28973 0.00914273 -0.0772653 
16.9246 16.0567 23.844 0 2 2.18602 0.00887321 -0.0775521 
16.8666 15.992 24.1333 0 2 2.21773 0.00870281 -0.0772996 
16.8143 15.9292 24.4255 0 2 2.21378 0.0084621 -0.0763145 
16.7689 15.8671 24.7211 0 2 2.10477 0.00831192 -0.075219 
16.732 15.8044 25.0203 0 2 2.08017 0.00810261 -0.0728408 
16.7046 15.7401 25.3236 0 2 2.10623 0.00797396 -0.0707415 
16.6859 15.6744 25.6305 0 2 2.10663 0.00785402 -0.0683111 
16.6748 15.6078 25.9406 0 2 2.03762 0.00769016 -0.0640673 
16.67 15.5407 26.2535 0 2 2.06959 0.00759138 -0.06084 
16.6703 15.4736 26.5687 0 2 2.084 0.0074585 -0.055436 
16.6745 15.4069 26.8859 0 2 2.08517 0.00737972 -0.0516284 
16.6814 15.341 27.2046 0 2 2.08939 0.00727515 -0.0457636 
16.6898 15.2765 27.5243 0 2 2.10152 0.0072139 -0.0417901 
16.6984 15.2137 27.8446 0 2 2.11841 0.00713375 -0.0358171 
16.706 15.1532 28.1652 0 2 2.11277 0.0070875 -0.0319919 
16.7117 15.0952 28.4855 0 2 2.11246 0.0070276 -0.0266359 
16.7155 15.0397 28.8057 0 2 2.12773 0.00699324 -0.0233557 
16.7175 14.9863 29.1257 0 2 2.12857 0.00694893 -0.0189213 
16.718 14.9348 29.4455 0 2 2.1566 0.00692358 -0.0163103 
16.7171 14.8848 29.7651 0 2 2.15243 0.00689078 -0.0129428 
16.7152 14.8363 30.0846 0 2 2.1271 0.00687182 -0.0110783 
16.7124 14.7888 30.4041 0 2 2.17743 0.0068468 -0.00886164 
16.709 14.7421 30.7235 0 2 2.21482 0.00683191 -0.00771743 
16.7051 14.6959 31.0428 0 2 2.23566 0.00681152 -0.00647321 
16.701 14.65 31.3621 0 1 0 0.00679882 -0.00596164 
0 1 1 
1 2 1 
2 3 1 
3 4 1 
4 5 1 
5 6 1 
6 7 1 
7 8 1 
8 9 1 
9 10 1 
10 11 1 
11 12 1 
12 13 1 
13 14 1 
14 15 1 
15 16 1 
16 17 1 
17 18 1 
18 19 1 
19 20 1 
20 21 1 
21 22 1 
22 23 1 
23 24 1 
24 25 1 
25 26 1 
26 27 1 
27 28 1 
28 29 1 
29 30 1 
30 31 1 
31 32 1 
32 33 1 
33 34 1 
34 35 1 
35 36 1 
36 37 1 
37 38 1 
38 39 1 
39 40 1 
40 41 1 
41 42 1 
42 43 1 
43 44 1 
44 45 1 
45 46 1 
46 47 1 
47 48 1 
48 49 1 
49 50 1 
50 51 1 
51 52 1 
52 53 1 
53 54 1 
54 55 1 
55 56 1 
56 57 1 
57 58 1 
58 59 1 
59 60 1 
1 61 0 1 2 3 4 5 6 7 8 9 10 11 12 13 14 15 16 17 18 19 20 21 22 23 24 25 26 27 28 29 30 31 32 33 34 35 36 37 38 39 40 41 42 43 44 45 46 47 48 49 50 51 52 53 54 55 56 57 58 59 60 
